<?xml version="1.0" standalone="no"?>
<!DOCTYPE svg PUBLIC "-//W3C//DTD SVG 1.1//EN" "http://www.w3.org/Graphics/SVG/1.1/DTD/svg11.dtd" >
<svg xmlns="http://www.w3.org/2000/svg">
<metadata></metadata>
<defs>
<font id="hallo_sanslight" horiz-adv-x="800" >
<font-face units-per-em="2048" ascent="1638" descent="-410" />
<missing-glyph horiz-adv-x="508" />
<glyph unicode="&#xd;" horiz-adv-x="508" />
<glyph horiz-adv-x="0" />
<glyph horiz-adv-x="0" />
<glyph unicode=" "  horiz-adv-x="508" />
<glyph unicode="&#x09;" horiz-adv-x="508" />
<glyph unicode="&#xa0;" horiz-adv-x="508" />
<glyph unicode="!" horiz-adv-x="400" d="M100 17q0 28 20 47q19 20 47 20t47 -20q20 -19 20 -47t-20 -47q-19 -20 -47 -20t-47 20q-20 19 -20 47zM118 266h88v1079h-88v-1079z" />
<glyph unicode="&#x22;" horiz-adv-x="463" d="M-100 1000q6 64 83 175q82 119 88 191h88q-6 -99 -104 -241q-59 -86 -66 -125h-89zM99 1000q6 64 83 175q82 119 88 191h88q-6 -99 -104 -241q-59 -86 -66 -125h-89z" />
<glyph unicode="#" horiz-adv-x="1200" d="M0 344h174l-70 -344h88l69 344h419l-69 -344h87l69 344h178l17 88h-177l88 440h178l17 87h-177l66 332h-87l-66 -332h-420l67 332h-88l-66 -332h-174l-17 -87h173l-88 -440h-173zM278 432l89 440h419l-88 -440h-420z" />
<glyph unicode="$" horiz-adv-x="1014" d="M100 240l85 24q59 -161 230 -189l22 -4v637l-12 5q-245 103 -265 277q-12 107 58 198q64 84 157 109q20 5 46 9l16 3v163h88v-162l15 -2q173 -26 231 -174l-85 -26q-36 84 -138 108l-23 6v-454l11 -5q291 -124 325 -337q22 -138 -45 -259q-75 -133 -224 -170 q-24 -6 -51 -10l-16 -2v-125h-88v123l-17 2q-111 14 -198 82q-86 69 -122 173zM248 1000q12 -110 162 -183l27 -13v417l-26 -6q-8 -2 -14 -3q-63 -17 -108 -77q-49 -65 -41 -135zM525 73l22 4q14 3 24 5q121 30 175 143q44 91 28 187q-24 148 -222 247l-27 13v-599z" />
<glyph unicode="%" horiz-adv-x="1239" d="M100 1112q0 93 66 159q66 67 160 67q93 0 160 -67q66 -66 66 -159q0 -94 -66 -160q-67 -66 -160 -66q-94 0 -160 66t-66 160zM147 0q8 159 162 384q92 134 330 410q332 384 349 497h88q-14 -142 -370 -554q-457 -529 -471 -737h-88zM188 1112q0 -57 40 -98q41 -40 98 -40 t97 40q41 41 41 98t-41 97q-40 41 -97 41t-98 -41q-40 -40 -40 -97zM644 234q0 94 66 160q67 66 160 66q94 0 160 -66t66 -160q0 -93 -66 -159q-66 -67 -160 -67q-93 0 -160 67q-66 66 -66 159zM732 234q0 -57 41 -97q40 -41 97 -41t98 41q40 40 40 97t-40 98q-41 40 -98 40 t-97 -40q-41 -41 -41 -98z" />
<glyph unicode="&#x26;" horiz-adv-x="1141" d="M100 401q2 148 41 223q29 56 115 111l18 12l-44 47q-69 77 -52 263l3 36q7 103 91 162t225 61h10q141 -2 225 -61t92 -162q1 -13 3 -36q11 -127 -9 -187q-33 -101 -162 -152l-30 82q89 36 110 99q13 41 3 150q-2 25 -3 38q-10 140 -234 141q-223 -1 -234 -141 q-1 -14 -3 -38q-13 -147 30 -195l519 -561l2 45q1 24 1 49v198h87v-198q1 -98 -12 -167l-2 -9l158 -171l-64 -60l-126 136l-13 -20q-68 -103 -234 -103h-218q-122 0 -189 53q-68 54 -91 169q-14 75 -13 186zM188 399q-1 -102 11 -167q16 -78 53 -111q45 -40 141 -40h218 q140 0 178 94l4 11l-457 495l-13 -8q-83 -49 -104 -89q-29 -58 -31 -185z" />
<glyph unicode="'" horiz-adv-x="300" d="M-100 1000q6 64 83 175q82 119 88 191h88q-6 -99 -104 -241q-59 -86 -66 -125h-89z" />
<glyph unicode="(" horiz-adv-x="500" d="M100 652q0 549 224 822l31 -29l33 -32q-200 -260 -200 -761t200 -761l-64 -61q-74 91 -130 241q-94 252 -94 581z" />
<glyph unicode=")" horiz-adv-x="537" d="M100 -109q200 260 200 761t-200 761l33 32l31 29q224 -273 224 -822q0 -329 -93 -581q-56 -150 -131 -241z" />
<glyph unicode="*" horiz-adv-x="700" d="M100 1301h166l-117 -117l35 -35l117 117v-166h50v166l117 -117l35 35l-117 117h166v50h-166l117 117l-35 35l-117 -117v166h-50v-166l-117 117l-35 -35l117 -117h-166v-50z" />
<glyph unicode="+" horiz-adv-x="1014" d="M100 656h356v-356h88v356h356v88h-356v356h-88v-356h-356v-88z" />
<glyph unicode="," horiz-adv-x="400" d="M0 -170q6 64 83 175q82 119 88 191h88q-6 -99 -104 -241q-59 -86 -66 -125h-89z" />
<glyph unicode="-" horiz-adv-x="900" d="M100 700h601v88h-601v-88z" />
<glyph unicode="." horiz-adv-x="365" d="M100 97q0 28 20 47q19 20 47 20t47 -20q20 -19 20 -47t-20 -47q-19 -20 -47 -20t-47 20q-20 19 -20 47z" />
<glyph unicode="/" horiz-adv-x="569" d="M100 0h87l298 1288h-87z" />
<glyph unicode="0" horiz-adv-x="938" d="M60 653q2 338 14 399q25 135 114 198t254 63q331 0 380 -261q12 -61 14 -399q2 -360 -19 -434q-37 -127 -123 -183t-245 -56q-158 0 -246 57q-87 56 -124 182q-21 73 -19 434zM147 643q-1 -338 16 -399q26 -88 82 -128q68 -48 204 -48q139 0 203 45q54 38 81 131 q17 61 17 399q-1 326 -14 392q-19 101 -88 146q-68 44 -206 44q-144 0 -209 -51q-55 -42 -73 -139q-13 -66 -13 -392z" />
<glyph unicode="1" horiz-adv-x="543" d="M60 1000q11 58 126 148q114 90 127 140h90v-1288h-88v1140l-31 -25q-17 -15 -44 -36q-72 -57 -87 -79h-93z" />
<glyph unicode="2" d="M60 0v445q0 58 42 114q37 51 79 67q40 15 130 49q119 45 173 65q101 38 125 101q15 40 6 151q-2 22 -3 37q-7 88 -94 134q-66 34 -145 34h-295v88h295q123 0 213 -61q104 -68 113 -188q1 -14 3 -36q11 -128 -11 -188q-37 -102 -177 -154q-62 -23 -185 -70l-117 -45 q-20 -9 -41 -37q-23 -32 -23 -61v-357h513v-88h-601z" />
<glyph unicode="3" horiz-adv-x="840" d="M60 0v88h364q96 0 141 40q37 33 53 112q42 212 -20 333q-29 56 -156 118l-7 3l-129 -51l-32 82l189 75q71 34 87 89q11 35 2 130v6q-2 23 -3 33q-11 142 -239 142h-250v88h250q145 0 232 -59t94 -164q2 -17 4 -38q8 -97 0 -144q-15 -77 -81 -127l-21 -16l22 -15 q87 -55 116 -111q76 -149 28 -392q-23 -115 -91 -169q-67 -53 -189 -53h-364z" />
<glyph unicode="4" d="M60 1063v225h88v-225q0 -105 39 -164q46 -72 169 -120q100 -39 216 -89l26 -11v609h88v-1288h-88v583l-11 5q-136 60 -263 109q-158 62 -219 169q-45 77 -45 197z" />
<glyph unicode="5" d="M60 951v334h601v-88h-513v-246q0 -29 23 -61q21 -29 40 -37l122 -46q121 -46 182 -69q141 -53 178 -209q21 -88 8 -256l-2 -23q-9 -121 -112 -190q-91 -60 -214 -60h-295v88h295q79 0 145 34q87 45 93 134l2 24q13 155 -6 231q-26 109 -123 145q-44 16 -161 61 q-102 38 -142 53q-42 16 -79 67q-42 56 -42 114z" />
<glyph unicode="6" horiz-adv-x="831" d="M83 223q-47 624 3 848q23 115 91 169q67 53 189 53h235v-88h-235q-96 0 -141 -39q-37 -34 -53 -112q-5 -30 -8 -180v-13l377 -123q141 -50 179 -216q21 -96 7 -278l-2 -21q-7 -103 -91 -162t-225 -61h-10q-141 2 -225 61t-91 162zM163 743q-2 -394 7 -514 q11 -139 234 -141q223 2 234 141l2 22q13 169 -6 251q-27 119 -122 153l-349 114v-26z" />
<glyph unicode="7" horiz-adv-x="754" d="M60 1199v88h601v-245q0 -189 -163 -507q-167 -328 -172 -535h-88q5 228 182 575q153 299 153 467v157h-513z" />
<glyph unicode="8" horiz-adv-x="969" d="M60 409q2 146 42 222q29 57 116 113l23 14l-21 16q-67 53 -82 138q-9 50 0 152q2 26 3 36q6 82 63 136q80 76 254 78h13q173 -2 254 -78q56 -54 62 -136q2 -15 3 -36q9 -102 1 -152q-16 -85 -82 -138l-21 -16l22 -14q87 -56 117 -113q79 -152 28 -409q-23 -115 -91 -168 q-67 -54 -189 -54h-221q-122 0 -190 54q-67 53 -90 168q-15 77 -14 187zM148 406q-1 -102 12 -167q16 -78 53 -111q44 -40 141 -40h221q96 0 141 40q37 33 53 111q13 65 11 167q-1 127 -31 185q-30 57 -156 117l-7 4l-122 -48l-121 48l-8 -4q-126 -60 -155 -117 q-30 -58 -32 -185zM226 1056q-10 -104 1 -143q18 -62 93 -98l144 -56l143 56q77 36 94 98q11 39 2 143v4q-2 25 -3 34q-10 131 -234 133h-4q-223 -2 -233 -133q-1 -13 -3 -38z" />
<glyph unicode="9" horiz-adv-x="834" d="M65 1064q3 26 3 36q8 103 92 162t225 61h10q140 -2 224 -61t92 -162q47 -624 -4 -878q-23 -115 -90 -168q-67 -54 -189 -54h-85q-118 0 -178 43q-60 44 -85 148l86 17q16 -69 50 -94q37 -26 127 -26h85q96 0 141 40q37 33 52 111q8 41 10 343v13l-378 123 q-141 51 -178 154q-21 61 -10 192zM153 1056q-10 -113 5 -155q24 -64 124 -100l349 -114v26q-1 292 -7 381q-11 140 -234 141q-224 -1 -234 -141q-1 -10 -3 -38z" />
<glyph unicode=":" horiz-adv-x="353" d="M100 377q0 28 20 47q19 20 47 20t47 -20q20 -19 20 -47t-20 -47q-19 -20 -47 -20t-47 20q-20 19 -20 47zM100 902q0 28 20 47q19 20 47 20t47 -20q20 -19 20 -47t-20 -47q-19 -20 -47 -20t-47 20q-20 19 -20 47z" />
<glyph unicode=";" horiz-adv-x="356" d="M-33 -50q6 64 83 175q82 120 88 192h88q-6 -100 -104 -242q-59 -86 -66 -125h-89zM96 908q0 28 20 48q20 19 47 19q28 0 48 -19q19 -20 19 -48q0 -27 -19 -47q-20 -20 -48 -20q-27 0 -47 20t-20 47z" />
<glyph unicode="&#x3c;" horiz-adv-x="700" d="M101 758l428 -427v123l-304 304l304 301v120z" />
<glyph unicode="=" horiz-adv-x="1067" d="M100 420h800v88h-800v-88zM100 753h800v87h-800v-87z" />
<glyph unicode="&#x3e;" horiz-adv-x="647" d="M101 331l428 427l-428 421v-120l304 -301l-304 -304v-123z" />
<glyph unicode="?" horiz-adv-x="900" d="M100 994q3 111 73 187q94 102 285 102q123 0 214 -60q104 -69 113 -190l2 -27q10 -126 -11 -185q-36 -97 -172 -164q-80 -40 -153 -72l-10 -4q-19 -8 -40 -36q-26 -33 -26 -63v-294h-88v294q0 57 41 113q36 49 78 67l9 4q72 31 150 70q103 50 127 113q16 41 7 150l-2 28 q-7 88 -94 134q-66 34 -145 34q-152 0 -220 -74q-45 -48 -50 -120zM264 -51q0 28 20 48t49 20q28 0 48 -20t20 -48q0 -29 -20 -49t-48 -20q-29 0 -49 20t-20 49z" />
<glyph unicode="@" horiz-adv-x="1450" d="M100 515q1 339 14 406q26 136 114 199q89 62 254 62h397q158 0 246 -56q88 -57 124 -183q21 -74 19 -406q-2 -308 -14 -369q-22 -118 -90 -148q-48 -22 -225 -22h-62v107l-27 -15q-91 -48 -196 -48q-127 0 -203 81q-76 80 -76 215q0 129 85 208t222 79q103 0 169 -28 l27 -11l-1 29q0 105 -22 151q-26 54 -98 75q-33 9 -74 9q-100 0 -196 -45l-41 78q114 55 237 55q53 0 98 -13q115 -32 156 -126q28 -65 28 -191v-522h19q113 1 142 13q28 12 42 85q13 66 13 366q1 310 -16 369q-26 88 -82 127q-68 49 -204 49h-397q-144 0 -209 -51 q-55 -42 -73 -139q-12 -66 -13 -392q-1 -338 17 -400q24 -84 77 -124q63 -48 190 -51v-88q-149 3 -233 60q-83 57 -119 179q-20 70 -19 426zM463 338q0 -122 74 -174q48 -34 117 -34q148 0 219 89l4 5v247l-4 6q-52 60 -191 60q-100 0 -159 -54q-60 -54 -60 -145z" />
<glyph unicode="A" horiz-adv-x="1000" d="M61 0q12 353 384 1288h91q378 -934 390 -1288h-87q-5 135 -81 401l-4 13h-522l-4 -13q-74 -266 -79 -401h-88zM257 502h471l-7 24q-84 272 -212 608l-18 47l-17 -47q-127 -336 -209 -608z" />
<glyph unicode="B" horiz-adv-x="900" d="M62 0v1288h313q145 0 232 -59q86 -60 94 -164q2 -21 3 -38q4 -48 4.5 -84.5t-4.5 -59.5q-15 -77 -80 -127l-21 -16l22 -14q86 -56 115 -112q47 -90 47 -217q0 -80 -19 -175q-23 -115 -90 -168q-67 -54 -189 -54h-427zM150 88h339q96 0 141 40q37 33 52 111q17 86 17 158 q0 104 -37 176q-30 60 -155 118l-7 4l-8 -3q-130 -46 -329 -108l-13 -4v-492zM150 672l24 7q193 61 312 104q101 36 125 92q10 23 10 72q0 31 -4 72q-3 26 -4 39q-10 142 -238 142h-225v-528z" />
<glyph unicode="C" horiz-adv-x="926" d="M60 653q2 338 14 399q25 135 114 198t254 63q320 0 377 -243l-87 -16q-22 90 -90 131q-69 40 -200 40q-144 0 -209 -51q-55 -42 -73 -139q-13 -66 -13 -392v-35q0 -306 17 -364q25 -88 81 -128q68 -48 204 -48q132 0 196 40q55 35 82 118l85 -25q-39 -117 -124 -169 t-239 -52q-158 0 -246 57q-87 56 -124 182q-19 68 -19 374v60z" />
<glyph unicode="D" horiz-adv-x="900" d="M60 1288h325q331 0 380 -261q12 -61 14 -375v-77q0 -269 -19 -336q-37 -127 -123 -183t-245 -56h-327zM148 1201l4 -1113h240q139 0 203 45q54 38 80 131q17 56 17 342v33q0 305 -13 372q-19 101 -88 145q-69 45 -206 45h-237z" />
<glyph unicode="E" horiz-adv-x="745" d="M60 0h615v88h-527v605h438v87h-438v422h482v87h-570v-1289z" />
<glyph unicode="F" horiz-adv-x="700" d="M60 0h88v692h438v88h-438v421h482v88h-570v-1289z" />
<glyph unicode="G" horiz-adv-x="951" d="M60 653q2 338 14 399q25 135 114 198t254 63q320 0 377 -243l-87 -16q-22 90 -90 131q-69 40 -200 40q-144 0 -209 -51q-55 -42 -73 -139q-13 -66 -13 -392v-35q0 -306 17 -364q25 -88 81 -128q68 -48 204 -48q139 0 203 45q54 38 81 131q14 51 16 318v18h-226v88h314 v-44q0 -334 -20 -405q-37 -127 -123 -183t-245 -56q-158 0 -246 57q-87 56 -124 182q-19 68 -19 374v60z" />
<glyph unicode="H" horiz-adv-x="849" d="M60 0h88v692h506v-692h88v1288h-88v-508h-506v508h-88v-1288z" />
<glyph unicode="I" horiz-adv-x="300" d="M70 0h88v1288h-88v-1288z" />
<glyph unicode="J" horiz-adv-x="736" d="M50 220h88q8 -122 112 -152q34 -10 76 -10q51 0 92 17q58 24 82 87q24 64 24 194v928h88v-928q0 -126 -20 -195q-36 -124 -141 -167q-56 -24 -125 -24q-55 0 -101 13q-166 48 -175 237z" />
<glyph unicode="K" horiz-adv-x="859" d="M60 0v1288h88v-611l25 10q136 54 245 93q124 44 171 117q40 60 40 166v225h88v-225q0 -240 -207 -340l-19 -9l11 -18q289 -464 300 -696h-88q-12 212 -299 670l-8 12l-14 -5q-109 -40 -233 -90l-12 -4v-583h-88z" />
<glyph unicode="L" horiz-adv-x="754" d="M60 0h615v88h-527v1201h-88v-1289z" />
<glyph unicode="M" horiz-adv-x="1227" d="M60 0q6 351 206 1287h91q146 -286 221 -529l18 -58l18 58q74 243 217 529h91q205 -937 212 -1287h-88q-6 293 -173 1107l-12 59l-24 -56q-187 -446 -196 -649h-89q-9 203 -200 649l-24 56l-12 -59q-162 -815 -168 -1107h-88z" />
<glyph unicode="N" horiz-adv-x="900" d="M60 0v1288h89q13 -116 265 -500q179 -273 250 -410l35 -76v986h88v-1288h-88q-11 210 -358 740q-113 172 -158 249l-35 59v-1048h-88z" />
<glyph unicode="O" horiz-adv-x="938" d="M60 653q2 338 14 399q25 135 114 198t254 63q331 0 380 -261q12 -61 14 -399v-60q0 -306 -19 -374q-37 -127 -123 -183t-245 -56q-158 0 -246 57q-87 56 -124 182q-19 68 -19 374v60zM147 643v-35q0 -306 17 -364q25 -88 81 -128q68 -48 204 -48q139 0 203 45 q54 38 81 131q17 61 17 399q-1 326 -14 392q-19 101 -88 146q-68 44 -206 44q-144 0 -209 -51q-55 -42 -73 -139q-13 -66 -13 -392z" />
<glyph unicode="P" horiz-adv-x="773" d="M60 0v1289h313q123 0 213 -61q104 -68 113 -189l3 -35q4 -48 5 -86q0 -71 -15 -112q-37 -107 -178 -158q-137 -49 -352 -108l-14 -4v-536h-88zM148 627l24 7q193 54 312 97q99 35 123 100q12 30 12 90q0 33 -4 76q-3 24 -3 36q-7 88 -94 134q-66 34 -145 34h-225v-574z " />
<glyph unicode="Q" horiz-adv-x="1000" d="M60 653q2 338 14 399q25 135 114 198t254 63q331 0 380 -261q12 -61 14 -399v-60q0 -306 -19 -374q-5 -16 -11 -34l-5 -12l10 -9q109 -95 119 -163h-90q-12 30 -69 81l-14 12l-12 -14q-90 -100 -296 -100q-158 0 -246 57q-87 56 -124 182q-19 68 -19 374v60zM147 643v-37 q0 -304 16 -362q26 -88 82 -128q68 -48 204 -48q167 0 230 69l13 14l-14 12q-118 108 -127 205h88q9 -50 67 -110l26 -27l5 38q12 87 12 336v74q-2 299 -13 356q-19 101 -88 146q-68 44 -206 44q-144 0 -209 -51q-55 -42 -73 -139q-13 -66 -13 -392z" />
<glyph unicode="R" horiz-adv-x="834" d="M60 0v1289h313q130 0 225 -65q106 -72 106 -188q0 -18 1 -56q1 -22 1 -41q0 -95 -20 -144q-39 -99 -172 -147l-35 -12l12 -20q242 -402 251 -616h-87q-12 199 -254 596l-7 12l-14 -4q-97 -31 -218 -64l-14 -4v-536h-88zM148 627l24 7q193 54 312 97q95 34 121 97 q13 33 13 108q0 19 -1 41q-1 40 -1 59q0 82 -87 128q-70 37 -156 37h-225v-574z" />
<glyph unicode="S" horiz-adv-x="871" d="M40 237l84 25q30 -80 96 -132q80 -62 191 -62q48 0 99 12q121 30 175 142q32 67 32 138q0 24 -4 49q-28 174 -300 281q-128 51 -190 97q-110 81 -123 199q-2 16 -2 31q0 89 59 167q64 84 157 108q56 15 111 15q101 0 177 -47q75 -47 107 -130l-84 -26q-50 115 -201 115 q-43 0 -87 -11q-63 -17 -109 -77q-42 -57 -42 -117q0 -9 1 -18q9 -80 86 -138q53 -39 172 -86q319 -125 355 -349q5 -33 5 -66q0 -101 -51 -192q-74 -133 -223 -170q-61 -15 -120 -15q-138 0 -242 80q-91 70 -129 177z" />
<glyph unicode="T" horiz-adv-x="751" d="M50 1200h281v-1200h88v1200h281v88h-650v-88z" />
<glyph unicode="U" horiz-adv-x="846" d="M65 1291h88q-5 -348 -5 -582q0 -405 16 -465q25 -86 99 -134q65 -42 143 -42q87 0 151 47t88 129q17 62 17 486q0 228 -5 561h88q4 -308 5 -529q0 -473 -21 -543q-31 -109 -119 -174t-204 -65q-115 0 -205 66t-121 173q-20 69 -20 523q0 226 5 549z" />
<glyph unicode="V" horiz-adv-x="954" d="M60 1288h88q11 -296 316 -1114l18 -47l17 47q302 818 312 1114h88q-12 -358 -371 -1288h-91q-365 929 -377 1288z" />
<glyph unicode="W" horiz-adv-x="1346" d="M60 1291h88q8 -295 236 -1106l14 -51l21 49q196 461 205 669h89q10 -210 210 -674l21 -47l15 50q239 814 247 1110h88q-10 -356 -296 -1284l-91 -7q-141 299 -220 555l-18 58l-18 -58q-78 -256 -217 -555l-90 7q-275 928 -284 1284z" />
<glyph unicode="X" horiz-adv-x="900" d="M60 0q11 231 317 717l6 11l-6 10q-33 51 -86 132q-217 333 -230 412h90q18 -64 214 -364l70 -109q53 81 71 109q195 300 214 364h89q-13 -79 -230 -412q-54 -84 -85 -132l-7 -10l6 -11q306 -486 317 -717h-88q-11 197 -271 619l-16 26l-16 -26q-260 -422 -271 -619h-88z " />
<glyph unicode="Y" horiz-adv-x="868" d="M60 1288h88q10 -274 275 -597l15 -17l14 17q260 324 270 597h88q-10 -337 -326 -696l-5 -5v-587h-88v593l-4 6q-317 357 -327 689z" />
<glyph unicode="Z" horiz-adv-x="840" d="M60 0v44q0 123 311 639q225 374 268 490l9 25h-552v88h646v-44q0 -113 -296 -605q-242 -400 -284 -525l-8 -24h608v-88h-702z" />
<glyph unicode="[" horiz-adv-x="500" d="M100 -300h280v88h-192v1566h192v88h-280v-1742z" />
<glyph unicode="\" horiz-adv-x="569" d="M100 1288l298 -1288h87l-298 1288h-87z" />
<glyph unicode="]" horiz-adv-x="546" d="M100 -212v-88h280v1742h-280v-88h193v-1566h-193z" />
<glyph unicode="^" horiz-adv-x="1014" />
<glyph unicode="_" horiz-adv-x="1024" d="M0 -100h1024v-60h-1024v60z" />
<glyph unicode="`" horiz-adv-x="1024" d="M212 1363q0 31 20.5 51t53.5 20q20 0 40.5 -12t55.5 -47l291 -296h-69l-330 202q-31 20 -46.5 40t-15.5 42z" />
<glyph unicode="a" horiz-adv-x="764" d="M60 276q0 129 85 208q84 79 222 79q103 0 169 -28l26 -11v28q0 105 -22 152q-26 54 -98 74q-33 10 -74 10q-100 0 -196 -45l-41 77q114 55 236 55q54 0 99 -12q114 -32 156 -126q28 -65 28 -191v-548h-92q-10 22 -31 22q-8 0 -17 -4q-89 -36 -171 -36q-127 0 -203 81 q-76 80 -76 215zM148 276q0 -123 74 -175q48 -33 117 -33q148 0 219 89l4 5v247l-4 5q-52 61 -191 61q-100 0 -160 -54q-59 -54 -59 -145z" />
<glyph unicode="b" d="M60 2v1349h88v-534l26 12q93 40 196 40q231 0 295 -222q28 -98 28 -208q0 -91 -19 -189q-23 -121 -103 -196q-80 -74 -188 -74q-93 0 -178 36q-10 4 -20 4q-20 0 -31 -18h-94zM148 147l8 -6q106 -73 227 -73q76 0 132 54t73 144t17 172q0 99 -25 185q-45 158 -210 158 q-120 0 -214 -61l-8 -5v-568z" />
<glyph unicode="c" horiz-adv-x="767" d="M90 608q24 126 104 194q80 67 207 67q171 0 265 -127l-74 -48q-68 87 -191 87q-189 0 -225 -189q-18 -96 -18 -180q0 -92 22 -168q23 -82 84 -129q62 -47 144 -47q116 0 180 84l74 -48q-91 -124 -254 -124q-111 0 -196 65t-117 174q-25 88 -25 191q0 93 20 198z" />
<glyph unicode="d" d="M79 250q-19 99 -19 189q0 110 28 208q59 204 292 222q17 1 35 1q87 0 164 -32l26 -11v524h88v-1349h-91q-9 19 -31 19q-9 0 -18 -3q-93 -38 -183 -38q-108 0 -188 74q-80 75 -103 196zM165 266q17 -90 73 -144t132 -54q121 0 227 73l8 6v577l-8 6q-79 52 -182 52 q-14 0 -28 -1q-172 -13 -214 -158q-25 -87 -25 -185q0 -82 17 -172z" />
<glyph unicode="e" horiz-adv-x="773" d="M73 599q37 131 124 202q87 72 208 72q111 0 185 -67t93 -186q8 -45 8 -80q0 -20 -3 -37l-4 -31l-543 -101l2 -17q5 -57 19 -112q20 -81 80 -127q60 -47 144 -47q120 0 196 75l67 -57q-102 -106 -263 -106q-114 0 -198 66q-84 65 -111 175q-27 109 -27 207q0 90 23 171z M140 460l463 86l-1 17q-2 21 -5 43q-30 180 -192 180q-188 0 -248 -211q-11 -40 -15 -90z" />
<glyph unicode="f" horiz-adv-x="600" d="M60 761v87h135v187q0 102 19 160q34 103 133 145q57 23 123 23q43 0 84 -9l-24 -85q-30 6 -60 6q-49 0 -89 -16q-58 -25 -80 -82q-19 -47 -19 -142v-187h190v-87h-190v-761h-87v761h-135z" />
<glyph unicode="g" d="M79 598q23 121 103 195q80 75 188 75q94 0 185 -39q9 -4 17 -4q13 0 23 10q4 4 7 11h91v-1084q0 -96 -23 -145q-34 -71 -130 -111q-56 -23 -123 -23q-54 0 -102 14q-167 48 -183 238l88 6q7 -76 38 -113q25 -31 82 -47q35 -10 77 -10q50 0 90 16q65 28 84 69 q14 29 14 106v269l-26 -12q-93 -40 -196 -40q-231 0 -295 221q-28 98 -28 208q0 91 19 190zM165 582q-17 -90 -17 -172q0 -98 25 -185q45 -158 210 -158q119 0 214 61l8 5v568l-8 5q-106 74 -227 74q-76 0 -132 -54t-73 -144z" />
<glyph unicode="h" horiz-adv-x="764" d="M60 0v1349h88v-541l26 11q118 48 231 48q119 0 190 -78t71 -209v-580h-87v580q0 199 -174 199q-123 0 -247 -64l-10 -6v-709h-88z" />
<glyph unicode="i" horiz-adv-x="300" d="M60 1097q0 27 20 47q19 19 47 19q27 0 47 -19q20 -20 20 -47q0 -28 -20 -48q-20 -19 -47 -19q-28 0 -47 19q-20 20 -20 48zM88 0h87v849h-87v-849z" />
<glyph unicode="j" horiz-adv-x="300" d="M-170 -511l24 85q31 -6 60 -6q49 0 89 16q58 25 80 82q19 47 19 142v1035h88v-1035q0 -102 -20 -160q-34 -103 -133 -145q-56 -23 -123 -23q-43 0 -84 9zM79 1091q0 28 19 47q20 20 48 20q27 0 47 -20q20 -19 20 -47t-20 -47q-20 -20 -47 -20q-28 0 -48 20q-19 19 -19 47 z" />
<glyph unicode="k" horiz-adv-x="757" d="M60 0v1349h88v-1077l34 52q64 95 216 265q175 195 190 260h89q-11 -93 -213 -319l-25 -27l11 -12q222 -247 231 -491h-88q-9 205 -198 421l-14 16l-14 -16q-212 -250 -219 -421h-88z" />
<glyph unicode="l" horiz-adv-x="337" d="M60 201v1147h88v-1147q0 -75 34 -108q20 -21 53 -25l1 -88q-70 5 -116 50q-60 60 -60 171z" />
<glyph unicode="m" horiz-adv-x="1200" d="M60 0v849h92q2 -5 5 -8q10 -10 24 -10q9 0 18 4q93 32 180 32q106 0 168 -61l11 -10l12 8q102 63 240 63q123 0 196 -76q73 -75 73 -202v-589h-87v589q0 190 -182 190q-116 0 -196 -51l-12 -8l4 -13q16 -53 16 -118v-589h-88v589q0 190 -155 190q-120 0 -222 -62l-9 -5 v-712h-88z" />
<glyph unicode="n" horiz-adv-x="751" d="M60 0v849h91q3 -10 10 -17q11 -12 28 -12q9 0 20 4q114 39 185 43q12 1 24 1q105 0 165 -57q74 -70 74 -226v-585h-87v585q0 118 -47 162q-35 33 -105 33q-9 0 -19 -1q-124 -7 -242 -80l-9 -5v-694h-88z" />
<glyph unicode="o" horiz-adv-x="837" d="M80 608q24 126 104 194q80 67 207 67q122 0 211 -72t111 -189q20 -105 20 -198q0 -103 -25 -191q-33 -112 -115 -176q-82 -63 -195 -63q-111 0 -196 65t-117 174q-25 88 -25 191q0 93 20 198zM166 592q-18 -96 -18 -180q0 -92 22 -168q23 -82 84 -129q62 -47 144 -47 q175 0 225 176q22 76 22 168q0 83 -18 180q-17 87 -80 138q-64 51 -156 51q-189 0 -225 -189z" />
<glyph unicode="p" d="M60 -500v1349h91q3 -7 8 -11q9 -9 22 -9q8 0 17 3q91 39 185 39q108 0 188 -74q81 -75 103 -196q19 -99 19 -190q0 -110 -28 -207q-64 -222 -295 -222q-103 0 -196 40l-26 12v-534h-88zM148 136l8 -5q94 -61 214 -61q165 0 210 158q25 87 25 185q0 82 -17 172t-73 144 t-132 54q-121 0 -227 -73l-8 -6v-568z" />
<glyph unicode="q" d="M79 602q23 121 103 196q80 74 188 74q94 0 187 -39q8 -4 16 -4q13 0 21 9q5 5 8 12h91v-1349h-88v534l-26 -12q-93 -40 -196 -40q-231 0 -295 222q-28 97 -28 207q0 91 19 190zM165 586q-17 -90 -17 -172q0 -98 25 -185q45 -158 210 -158q120 0 214 61l8 5v568l-8 6 q-106 73 -227 73q-76 0 -132 -54t-73 -144z" />
<glyph unicode="r" horiz-adv-x="622" d="M60 0v849h88v-14q0 -15 9 -24q8 -9 21 -9q10 0 21 5q80 38 134 50q28 6 55 6q99 0 182 -88l-67 -57q-55 58 -115 58q-16 0 -35 -4q-81 -19 -196 -87l-9 -5v-680h-88z" />
<glyph unicode="s" horiz-adv-x="653" d="M60 55l60 64q65 -50 168 -51q93 0 147 58q41 44 41 104v11q-8 123 -186 194l-7 3q-90 37 -129 67q-66 53 -73 135q-1 9 -1 18q0 64 39 116q45 61 118 79q40 9 76 9q97 0 186 -71l-58 -66q-62 49 -128 49q-26 0 -55 -7q-39 -9 -65 -40q-25 -32 -26 -71q0 -4 1 -8 q5 -47 44 -76q27 -21 104 -52l7 -3q229 -92 241 -271q1 -9 0 -18q0 -93 -65 -162q-81 -86 -209 -86h-3q-138 1 -227 75z" />
<glyph unicode="t" horiz-adv-x="537" d="M40 751v88h156v323h87v-323h169v-88h-169v-557q0 -78 36 -110q30 -26 89 -26h16l10 -87q-13 -1 -26 -1q-93 0 -147 49q-65 58 -65 175v557h-156z" />
<glyph unicode="u" horiz-adv-x="764" d="M60 258v589h88v-589q0 -190 164 -190q126 0 258 80l9 6v693h87v-849h-90q-3 14 -11 23q-10 10 -24 10q-8 0 -17 -4q-110 -47 -212 -47q-120 0 -186 73t-66 205z" />
<glyph unicode="v" horiz-adv-x="773" d="M40 847h88q12 -193 237 -714l18 -41l17 41q221 521 233 714h88q-13 -238 -293 -847h-90q-285 608 -298 847z" />
<glyph unicode="w" horiz-adv-x="1270" d="M60 837h88q12 -177 226 -677l20 -48l197 674h92l199 -673l20 48q210 500 222 676h88q-13 -229 -293 -837h-91l-191 630l-188 -630h-91q-285 608 -298 837z" />
<glyph unicode="x" d="M60 0q10 184 258 452l12 12l-16 18q-242 251 -253 361h88q15 -79 228 -300l6 -6h15l6 6q213 221 228 300h89q-12 -110 -253 -361l-17 -18l12 -12q248 -268 258 -452h-88q-11 149 -229 386l-13 15l-14 -15q-218 -236 -229 -386h-88z" />
<glyph unicode="y" horiz-adv-x="762" d="M67 841l88 -3q-7 -217 -7 -360q0 -206 15 -258q24 -85 69 -121q44 -37 124 -37q118 0 205 60l8 6v711h87v-1081q0 -96 -23 -146q-33 -70 -129 -110q-29 -12 -81 -12q-96 0 -243 37l22 85q139 -35 226 -35q28 0 42 6q66 27 85 68q14 30 14 107v266l-27 -11 q-87 -39 -186 -39q-214 0 -278 222q-18 64 -18 294q0 143 7 351z" />
<glyph unicode="z" horiz-adv-x="742" d="M60 0v44q0 85 79 202q49 70 180 218q167 190 205 268l13 27h-441v88h535v-44q0 -79 -76 -189q-46 -66 -171 -208q-182 -205 -219 -292l-12 -26h498v-88h-591z" />
<glyph unicode="{" horiz-adv-x="700" d="M100 642v92q116 45 162 116q37 60 37 163v338q0 261 253 360l29 -83q-113 -45 -157 -116q-37 -59 -37 -161v-338q0 -209 -152 -309l-24 -16l24 -15q152 -101 152 -310v-337q0 -102 37 -162q44 -71 157 -115l-29 -83q-151 59 -210 167q-43 77 -43 193v337q0 103 -37 163 q-46 72 -162 116z" />
<glyph unicode="|" horiz-adv-x="500" d="M200 -341h88v1907h-88v-1907z" />
<glyph unicode="}" horiz-adv-x="700" d="M100 -255q113 44 157 115q37 60 37 162v337q0 209 153 310l23 15l-23 16q-153 100 -153 309v338q0 102 -37 161q-44 71 -157 116l30 83q252 -99 252 -360v-338q0 -103 38 -163q45 -71 161 -116v-92q-116 -44 -161 -116q-38 -60 -38 -163v-337q0 -116 -42 -193 q-60 -108 -210 -167z" />
<glyph unicode="~" horiz-adv-x="659" d="M101 601q7 96 79 130q42 19 138 19h10q75 1 99 13q28 14 32 59h88q-6 -101 -81 -138q-43 -21 -143 -21h-15q-66 0 -90 -12q-25 -11 -29 -50h-88z" />
<glyph unicode="&#xa1;" horiz-adv-x="672" />
<glyph unicode="&#xa2;" horiz-adv-x="1139" />
<glyph unicode="&#xa3;" horiz-adv-x="954" d="M100 667v87h142l1 19q1 56 -10 97l-7 30q-39 152 -32 249q8 106 85 164q77 57 214 59h10q272 -4 301 -204l-88 -7q-23 122 -218 123q-206 -1 -216 -141q-7 -83 29 -221l8 -31q12 -51 11 -118v-19h192v-87h-200l-2 -16q-11 -69 -43 -215q-49 -222 -57 -328l-1 -20h525v-88 h-614v44q0 135 61 411q29 130 39 190l3 22h-133z" />
<glyph unicode="&#xa4;" horiz-adv-x="1014" d="M122 413l118 117q-32 46 -48 103q-12 42 -12 84q0 44 13 87q16 55 47 99l-118 118l80 81l118 -118q44 30 99 46q44 14 89 14q41 0 83 -12q57 -17 102 -48l118 118l80 -81l-117 -117q31 -46 48 -102q12 -42 12 -85q0 -42 -12 -85q-17 -56 -48 -102l117 -117l-80 -81 l-118 118q-45 -32 -101 -48q-42 -12 -85 -12q-42 0 -85 12q-57 16 -102 48l-118 -118zM284 716q0 -28 9 -56q16 -59 57 -100q41 -40 99 -57q29 -8 58 -8t58 8q58 17 99 57q40 41 57 99q9 29 9 58t-9 58q-17 58 -57 99q-41 40 -100 57q-29 8 -58 8t-58 -9q-58 -17 -98 -56 q-39 -40 -56 -98q-10 -30 -10 -60z" />
<glyph unicode="&#xa5;" horiz-adv-x="1070" d="M100 348v87h373v168h-373v88h292l-21 29q-221 306 -229 568h87q10 -271 271 -590l5 -7h28l6 7q255 320 265 590h88q-8 -262 -226 -568l-21 -29h288v-88h-359l-10 -12l-3 -11v-145h372v-87h-372v-348h-88v348h-373z" />
<glyph unicode="&#xa6;" horiz-adv-x="1014" d="M427 371h160v-789h-160v789zM427 789v789h160v-789h-160z" />
<glyph unicode="&#xa7;" horiz-adv-x="1014" d="M170 1130q0 148 89 237q82 79 216 86q8 1 17 1h3q66 0 163 -16.5t97 -41.5v-194h-51q-5 81 -80 132q-70 47 -149 51h-15q-78 0 -125 -44.5t-47 -117.5q0 -132 287 -269q149 -67 204.5 -143.5t55.5 -187.5q0 -171 -101 -282q-47 -39 -99 -64q108 -56 154 -118 q55 -77 55 -187q0 -171 -101 -283q-124 -102 -277 -105v1q-6 -1 -13 -1h-3q-66 0 -163 16.5t-97 41.5v194h51q5 -81 80 -132q68 -45 145 -50q113 6 185 69q72 64 72 165q0 125 -316 276q-123 64 -175.5 137t-52.5 177q0 148 89 237q67 65 170 82l-40 19q-123 64 -175.5 137 t-52.5 177zM297 571q0 -123 248 -250q56 16 97 53q73 65 73 166q0 5 -1 10h-2q-1 14 -4 27q-22 61 -113 127q-59 29 -126 29q-78 0 -125 -44.5t-47 -117.5z" />
<glyph unicode="&#xa8;" horiz-adv-x="1024" d="M209 1263q0 13 14 26l71 72q13 12 25 12q11 0 27 -14l69 -73q10 -14 10 -25q0 -13 -12 -27l-69 -75q-17 -17 -25 -17q-14 0 -25 12l-76 86q-9 12 -9 23zM574 1263q0 13 14 26l71 72q13 12 25 12q11 0 27 -13l69 -74q10 -14 10 -25q0 -13 -12 -26l-69 -76q-17 -17 -25 -17 q-14 0 -25 12l-76 87q-9 11 -9 22z" />
<glyph unicode="&#xa9;" horiz-adv-x="1757" d="M100 652q0 312 221 532q220 221 531 221q312 0 532 -221q221 -220 221 -532q0 -311 -221 -531q-220 -221 -532 -221q-311 0 -531 221q-221 220 -221 531zM172 652q0 -281 200 -480q199 -200 480 -200q282 0 481 200q200 199 200 480q0 282 -200 481q-199 200 -481 200 q-281 0 -480 -200q-200 -199 -200 -481zM557 836q24 126 104 193q81 68 207 68q171 0 265 -127l-74 -48q-68 87 -191 87q-189 0 -225 -189q-38 -203 4 -349q23 -81 85 -128q61 -47 143 -47q116 0 181 84l73 -48q-91 -124 -254 -124q-111 0 -196 65t-117 174q-47 165 -5 389z " />
<glyph unicode="&#xaa;" horiz-adv-x="648" />
<glyph unicode="&#xab;" horiz-adv-x="944" d="M174 479l342 303h14v-37l-205 -266l205 -266v-37h-14zM487 479l342 303h14v-37l-205 -266l205 -266v-37h-14z" />
<glyph unicode="&#xac;" horiz-adv-x="1014" d="M87 667v100h840v-491l-1 -1h-98v392h-741z" />
<glyph unicode="&#xad;" horiz-adv-x="900" d="M100 700h601v88h-601v-88z" />
<glyph unicode="&#xae;" horiz-adv-x="1800" d="M100 652q0 312 221 532q220 221 531 221q312 0 532 -221q221 -220 221 -532q0 -311 -221 -531q-220 -221 -532 -221q-311 0 -531 221q-221 220 -221 531zM172 652q0 -281 200 -480q199 -200 480 -200q282 0 481 200q200 199 200 480q0 282 -200 481q-199 200 -481 200 q-281 0 -480 -200q-200 -199 -200 -481zM602 211v883h264q133 0 227 -70q104 -77 104 -205q0 -225 -172 -286l-33 -12l9 -18q18 -38 62 -115q73 -131 82 -177h-96q-8 61 -97 204q-28 44 -39 65l-8 13l-14 -5q-94 -29 -188 -55l-13 -3v-219h-88zM690 521l23 6q159 45 282 89 q74 26 100 94q14 38 14 106q0 100 -90 152q-68 38 -153 38h-176v-485z" />
<glyph unicode="&#xaf;" horiz-adv-x="670" />
<glyph unicode="&#xb0;" horiz-adv-x="674" d="M60 1164q0 116 81.5 197t197.5 81q115 0 196 -81.5t81 -196.5q0 -114 -82 -196t-197 -82q-117 0 -197 81t-80 197zM130 1163q0 -87 61 -147t148 -60t147 60t60 147t-60.5 148t-146.5 61t-147.5 -61t-61.5 -148z" />
<glyph unicode="&#xb1;" horiz-adv-x="1014" />
<glyph unicode="&#xb2;" horiz-adv-x="1014" />
<glyph unicode="&#xb3;" horiz-adv-x="1014" />
<glyph unicode="&#xb4;" horiz-adv-x="1024" d="M316 1078l291 297q35 35 55.5 47t40.5 12q33 0 53.5 -20t20.5 -51q0 -22 -15.5 -42t-46.5 -40l-330 -203h-69z" />
<glyph unicode="&#xb5;" horiz-adv-x="1180" />
<glyph unicode="&#xb6;" horiz-adv-x="1024" d="M93 1086q0 157 107.5 253t285.5 96h443v-70h-127v-1365h-82v1365h-166v-1365h-84v738q-174 8 -275.5 102.5t-101.5 245.5z" />
<glyph unicode="&#xb7;" horiz-adv-x="508" d="M129 709q0 15 16 31l82 84q15 14 29 14q13 0 31 -16l80 -86q12 -16 12 -29q0 -15 -14 -31l-80 -88q-20 -20 -29 -20q-16 0 -29 14l-88 101q-10 13 -10 26z" />
<glyph unicode="&#xb8;" horiz-adv-x="1024" d="M360 -290q85 -52 152 -52q66 0 94.5 21.5t28.5 66.5t-49 64q-40 16 -102 16q-16 0 -34 -2l48 176h63l-37 -104q32 4 62 5q86 0 134 -40.5t48 -113.5q0 -76 -58.5 -120.5t-160.5 -44.5q-109 0 -189 32v96z" />
<glyph unicode="&#xb9;" horiz-adv-x="1014" />
<glyph unicode="&#xba;" horiz-adv-x="718" />
<glyph unicode="&#xbb;" horiz-adv-x="944" d="M101 176v37l205 266l-205 266v37h14l342 -303l-342 -303h-14zM414 176v37l205 266l-205 266v37h14l342 -303l-342 -303h-14z" />
<glyph unicode="&#xbc;" horiz-adv-x="1708" />
<glyph unicode="&#xbd;" horiz-adv-x="1964" />
<glyph unicode="&#xbe;" horiz-adv-x="1708" />
<glyph unicode="&#xbf;" horiz-adv-x="748" />
<glyph unicode="&#xc0;" horiz-adv-x="1000" d="M60 0q12 353 384 1288h91q378 -934 390 -1288h-87q-5 135 -81 401l-4 13h-522l-4 -13q-74 -266 -79 -401h-88zM256 502h471l-7 25q-84 271 -212 607l-18 47l-17 -47q-127 -336 -209 -608zM378 1631h103l130 -211h-102z" />
<glyph unicode="&#xc1;" horiz-adv-x="1000" d="M60 0q12 353 384 1288h91q378 -934 390 -1288h-87q-5 135 -81 401l-4 13h-522l-4 -13q-74 -266 -79 -401h-88zM256 502h471l-7 25q-84 271 -212 607l-18 47l-17 -47q-127 -337 -209 -608zM373 1420l130 211h103l-130 -211h-103z" />
<glyph unicode="&#xc2;" horiz-adv-x="1000" d="M60 0q12 353 384 1288h91q378 -934 390 -1288h-87q-5 135 -81 401l-4 13h-522l-4 -13q-74 -266 -79 -401h-88zM251 1420l130 211h103l-130 -211h-103zM256 502h471l-7 24q-84 271 -212 608l-18 47l-17 -47q-127 -336 -209 -608zM501 1631h103l131 -211h-103z" />
<glyph unicode="&#xc3;" horiz-adv-x="1000" d="M60 0q12 354 384 1288h91q378 -934 390 -1288h-87q-5 135 -81 401l-4 13h-522l-4 -13q-74 -265 -79 -401h-88zM256 502h471l-7 24q-84 271 -212 608l-18 47l-17 -47q-127 -337 -209 -608zM262 1423q7 96 80 130q41 20 138 20h8q76 0 101 12q28 14 32 60h88 q-7 -102 -82 -139q-43 -21 -143 -21h-13q-68 0 -92 -11q-25 -12 -29 -51h-88z" />
<glyph unicode="&#xc4;" horiz-adv-x="1000" d="M60 0q12 354 384 1288h91q378 -934 390 -1288h-87q-5 135 -81 401l-4 13h-522l-4 -13q-74 -266 -79 -401h-88zM256 502h471l-7 25q-84 271 -212 607l-18 47l-17 -47q-127 -337 -209 -608zM279 1595q0 27 20 47q19 20 47 20t47 -20q20 -20 20 -47q0 -28 -20 -48 q-19 -19 -47 -19t-47 19q-20 20 -20 48zM572 1595q0 27 20 47t47 20q28 0 48 -20q19 -20 19 -47q0 -28 -19 -48q-20 -19 -48 -19q-27 0 -47 19q-20 20 -20 48z" />
<glyph unicode="&#xc5;" horiz-adv-x="1000" d="M60 0q12 358 384 1306h91q378 -945 390 -1306h-87q-5 135 -81 401l-4 13h-522l-4 -13q-74 -266 -79 -401h-88zM256 502h471l-7 24q-84 272 -212 608l-18 47l-17 -47q-127 -337 -209 -608zM359 1531q0 55 39 94q40 39 95 39t94 -39t39 -94t-39 -95q-39 -39 -94 -39t-95 39 q-39 40 -39 95zM416 1531q0 -32 22 -55q23 -22 55 -22q31 0 54 22q23 23 23 55q0 31 -23 54t-54 23q-32 0 -55 -23q-22 -23 -22 -54z" />
<glyph unicode="&#xc6;" horiz-adv-x="1400" d="M60 4q16 368 509 1263l12 22h643v-87h-520l59 -422h381v-87h-369l84 -605h444v-88h-520l-58 418h-463l-5 -12q-102 -265 -109 -402h-88zM297 506h415l-93 669l-27 -52q-170 -322 -284 -591z" />
<glyph unicode="&#xc7;" horiz-adv-x="1399" />
<glyph unicode="&#xc8;" horiz-adv-x="739" d="M60 0h615v88h-527v605h438v87h-438v422h482v87h-570v-1289zM274 1631l130 -211h103l-131 211h-102z" />
<glyph unicode="&#xc9;" horiz-adv-x="757" d="M60 0h615v88h-527v605h438v87h-438v422h482v87h-570v-1289zM253 1420h102l131 211h-103z" />
<glyph unicode="&#xca;" horiz-adv-x="748" d="M60 0h615v88h-527v605h438v87h-438v422h482v87h-570v-1289zM115 1420h103l130 211h-102zM365 1631l131 -211h103l-131 211h-103z" />
<glyph unicode="&#xcb;" horiz-adv-x="745" d="M60 0h615v88h-527v605h438v87h-438v422h482v87h-570v-1289zM154 1595q0 27 19 47q20 20 48 20q27 0 47 -20t20 -47q0 -28 -20 -48q-20 -19 -47 -19q-28 0 -48 19q-19 20 -19 48zM447 1595q0 27 20 47q19 20 47 20t47 -20q20 -20 20 -47q0 -28 -20 -48q-19 -19 -47 -19 t-47 19q-20 20 -20 48z" />
<glyph unicode="&#xcc;" horiz-adv-x="368" d="M50 1630l131 -210h102l-130 210h-103zM104 0h88v1288h-88v-1288z" />
<glyph unicode="&#xcd;" horiz-adv-x="368" d="M50 1420h103l130 210h-102zM105 0h88v1288h-88v-1288z" />
<glyph unicode="&#xce;" horiz-adv-x="558" d="M0 1420h103l130 210h-102zM193 0h88v1288h-88v-1288zM250 1630l131 -210h103l-131 210h-103z" />
<glyph unicode="&#xcf;" horiz-adv-x="555" d="M0 1594q0 28 20 48q19 19 47 19t47 -19q20 -20 20 -48q0 -27 -20 -47q-19 -20 -47 -20t-47 20q-20 20 -20 47zM170 0h87v1288h-87v-1288zM293 1594q0 28 20 48q19 19 47 19t47 -19q20 -20 20 -48q0 -27 -20 -47q-19 -20 -47 -20t-47 20q-20 20 -20 47z" />
<glyph unicode="&#xd0;" horiz-adv-x="1518" />
<glyph unicode="&#xd1;" horiz-adv-x="1554" />
<glyph unicode="&#xd2;" horiz-adv-x="951" d="M60 653q2 338 14 399q25 135 114 198t254 63q331 0 380 -261q12 -61 14 -399q2 -360 -19 -434q-37 -127 -123 -183t-245 -56q-158 0 -246 57q-87 56 -124 182q-21 74 -19 434zM147 643q-1 -338 17 -399q25 -88 81 -128q68 -48 204 -48q139 0 203 45q54 38 81 131 q17 61 17 399q-1 326 -14 392q-19 101 -88 146q-68 44 -206 44q-144 0 -209 -51q-55 -42 -73 -139q-13 -66 -13 -392zM307 1631h103l130 -210h-103z" />
<glyph unicode="&#xd3;" horiz-adv-x="951" d="M60 653q2 338 14 399q25 135 114 198t254 63q331 0 380 -261q12 -61 14 -399q2 -360 -19 -434q-37 -127 -123 -183t-245 -56q-158 0 -246 57q-87 56 -124 182q-21 74 -19 434zM147 643q-1 -338 16 -399q26 -88 82 -128q68 -48 204 -48q139 0 203 45q54 38 81 131 q17 61 17 399q-1 326 -14 392q-19 101 -88 146q-68 44 -206 44q-144 0 -209 -51q-55 -42 -73 -139q-13 -66 -13 -392zM330 1421l131 210h103l-131 -210h-103z" />
<glyph unicode="&#xd4;" horiz-adv-x="951" d="M60 653q2 338 14 399q25 135 114 198t254 63q331 0 380 -261q12 -61 14 -399q2 -360 -19 -434q-37 -127 -123 -183t-245 -56q-158 0 -246 57q-87 56 -124 182q-21 74 -19 434zM147 643q-1 -338 17 -399q25 -88 81 -128q68 -48 204 -48q139 0 203 45q54 38 81 131 q17 61 17 399q-1 326 -14 392q-19 101 -88 146q-68 44 -206 44q-144 0 -209 -51q-55 -42 -73 -139q-13 -66 -13 -392zM206 1421l131 210h103l-131 -210h-103zM457 1631h102l131 -210h-103z" />
<glyph unicode="&#xd5;" horiz-adv-x="948" d="M60 653q2 338 14 399q25 135 114 198t254 63q331 0 380 -261q12 -61 14 -399q2 -360 -19 -434q-37 -127 -123 -183t-245 -56q-158 0 -246 57q-87 56 -124 182q-21 74 -19 434zM147 643q-1 -338 17 -399q25 -88 81 -128q68 -48 204 -48q139 0 203 45q54 38 81 131 q17 61 17 399q-1 326 -14 392q-19 101 -88 146q-68 44 -206 44q-144 0 -209 -51q-55 -42 -73 -139q-13 -66 -13 -392zM225 1424q7 96 79 130q42 19 139 20h7q77 0 101 12q28 14 32 60h88q-6 -102 -81 -139q-43 -21 -143 -21h-14q-67 0 -91 -12q-25 -11 -29 -50h-88z" />
<glyph unicode="&#xd6;" horiz-adv-x="954" d="M60 653q2 338 14 399q25 135 114 198t254 63q331 0 380 -261q12 -61 14 -399q2 -360 -19 -434q-37 -127 -123 -183t-245 -56q-158 0 -246 57q-87 56 -124 182q-21 74 -19 434zM147 643q-1 -338 17 -399q25 -88 81 -128q68 -48 204 -48q139 0 203 45q54 38 81 131 q17 61 17 399q-1 326 -14 392q-19 101 -88 146q-68 44 -206 44q-144 0 -209 -51q-55 -42 -73 -139q-13 -66 -13 -392zM235 1596q0 27 19 47q20 20 48 20q27 0 47 -20q19 -20 19 -47q0 -28 -19 -48q-20 -19 -47 -19q-28 0 -48 19q-19 20 -19 48zM528 1596q0 27 19 47 q20 20 48 20q27 0 47 -20t20 -47q0 -28 -20 -48q-20 -19 -47 -19q-28 0 -48 19q-19 20 -19 48z" />
<glyph unicode="&#xd7;" horiz-adv-x="843" d="M100 462l62 -62l252 252l252 -252l62 62l-252 252l252 252l-62 62l-252 -252l-252 252l-62 -62l252 -252z" />
<glyph unicode="&#xd8;" horiz-adv-x="1058" d="M60 1q6 114 85 258l3 5l-1 6q-52 493 3 782q25 135 114 198t254 63q223 0 317 -116l17 -22l14 25q28 52 33 90h88q-8 -83 -90 -206l-5 -7l4 -14q2 -9 2 -11q12 -61 14 -399q2 -360 -19 -434q-37 -127 -123 -183t-245 -56q-231 0 -321 131l-20 30l-13 -35 q-20 -56 -23 -105h-88zM225 446l1 -55l32 45q87 119 293 358q173 200 239 289l6 9l-4 10q-56 123 -274 123q-144 0 -210 -51q-54 -42 -72 -139q-23 -118 -11 -589zM239 247l2 -8q26 -86 81 -124q68 -47 203 -47q139 0 203 45q54 38 81 131q33 117 11 681l-2 50l-31 -39 q-52 -64 -169 -199q-282 -327 -375 -483z" />
<glyph unicode="&#xd9;" horiz-adv-x="862" d="M75 1291h88q-15 -952 11 -1047q25 -86 99 -134q65 -42 143 -42q87 0 151 47t88 129q26 95 12 1047h88q14 -967 -16 -1072q-31 -109 -119 -174t-204 -65q-115 0 -205 66t-121 173q-30 104 -15 1072zM322 1632h102l131 -210h-103z" />
<glyph unicode="&#xda;" horiz-adv-x="859" d="M65 1291h88q-15 -952 11 -1047q25 -86 99 -134q65 -42 143 -42q87 0 151 47t88 129q26 95 12 1047h88q14 -968 -16 -1072q-31 -109 -119 -174t-204 -65q-115 0 -205 66t-121 173q-30 105 -15 1072zM252 1422l130 210h103l-131 -210h-102z" />
<glyph unicode="&#xdb;" horiz-adv-x="846" d="M65 1291h88q-15 -952 11 -1047q25 -86 99 -134q65 -42 143 -42q87 0 151 47t88 129q26 95 12 1047h88q14 -968 -16 -1072q-31 -109 -119 -174t-204 -65q-115 0 -205 66t-121 173q-30 104 -15 1072zM163 1422l130 210h103l-130 -210h-103zM413 1632h103l130 -210h-102z " />
<glyph unicode="&#xdc;" horiz-adv-x="853" d="M65 1291h88q-15 -952 11 -1047q25 -86 99 -134q65 -42 143 -42q87 0 151 47t88 129q26 95 12 1047h88q14 -968 -16 -1072q-31 -109 -119 -174t-204 -65q-115 0 -205 66t-121 173q-30 104 -15 1072zM191 1596q0 28 20 48q19 19 47 19t47 -19q20 -20 20 -48q0 -27 -20 -47 q-19 -20 -47 -20t-47 20q-20 20 -20 47zM484 1596q0 28 20 48q20 19 47 19q28 0 48 -19q19 -20 19 -48q0 -27 -19 -47q-20 -20 -48 -20q-27 0 -47 20t-20 47z" />
<glyph unicode="&#xdd;" horiz-adv-x="1233" />
<glyph unicode="&#xde;" horiz-adv-x="1120" />
<glyph unicode="&#xdf;" horiz-adv-x="1251" />
<glyph unicode="&#xe0;" horiz-adv-x="754" d="M60 276q0 129 85 208q84 79 222 79q103 0 169 -28l26 -11v28q0 105 -22 152q-26 54 -98 74q-33 10 -75 10q-99 0 -195 -45l-41 77q114 55 236 55q54 0 99 -12q114 -32 156 -126q28 -65 28 -191v-548h-92q-9 22 -31 22q-8 0 -17 -4q-89 -36 -171 -36q-127 0 -203 81 q-76 80 -76 215zM148 276q0 -123 74 -175q48 -33 117 -33q148 0 219 89l4 5v247l-4 5q-52 61 -191 61q-100 0 -160 -54q-59 -54 -59 -145zM266 1255h103l130 -211h-102z" />
<glyph unicode="&#xe1;" horiz-adv-x="748" d="M50 276q0 129 85 208q84 79 222 79q103 0 169 -28l26 -11v28q0 105 -22 152q-26 54 -98 74q-33 10 -75 10q-100 0 -195 -45l-41 77q114 55 236 55q54 0 98 -12q115 -32 157 -126q28 -65 28 -191v-548h-92q-10 22 -31 22q-8 0 -17 -4q-89 -36 -171 -36q-127 0 -203 81 q-76 80 -76 215zM138 276q0 -123 74 -175q48 -33 117 -33q148 0 219 89l4 5v247l-4 5q-52 61 -191 61q-100 0 -160 -54q-59 -54 -59 -145zM188 1044l131 211h102l-130 -211h-103z" />
<glyph unicode="&#xe2;" horiz-adv-x="754" d="M50 276q0 129 85 208q84 79 222 79q103 0 169 -28l26 -11v28q0 105 -22 152q-26 54 -98 74q-33 10 -75 10q-100 0 -195 -45l-41 77q114 55 236 55q54 0 98 -12q115 -32 157 -126q28 -65 28 -191v-548h-92q-10 22 -31 22q-8 0 -17 -4q-89 -36 -171 -36q-127 0 -203 81 q-76 80 -76 215zM103 1044l131 211h102l-130 -211h-103zM138 276q0 -123 74 -175q48 -33 117 -33q148 0 219 89l4 5v247l-4 5q-52 61 -191 61q-100 0 -160 -54q-59 -54 -59 -145zM353 1255h103l131 -211h-103z" />
<glyph unicode="&#xe3;" horiz-adv-x="745" d="M60 276q0 129 85 208q84 79 222 79q103 0 169 -28l26 -11v28q0 105 -22 152q-26 54 -98 74q-33 10 -75 10q-100 0 -195 -45l-41 77q114 55 236 55q54 0 99 -12q114 -32 156 -126q28 -65 28 -191v-548h-92q-10 22 -31 22q-8 0 -17 -4q-89 -36 -171 -36q-127 0 -203 81 q-76 80 -76 215zM115 1034q7 95 80 129q41 20 137 20h10q76 1 100 12q28 14 32 60h88q-6 -101 -82 -138q-43 -21 -142 -22h-16q-66 0 -90 -11q-25 -12 -29 -50h-88zM148 276q0 -123 74 -175q48 -33 117 -33q148 0 219 89l4 5v247l-4 5q-52 61 -191 61q-100 0 -160 -54 q-59 -54 -59 -145z" />
<glyph unicode="&#xe4;" horiz-adv-x="757" d="M60 276q0 129 85 208q84 79 222 79q103 0 169 -28l26 -11v28q0 105 -22 152q-26 54 -98 74q-33 10 -75 10q-100 0 -195 -45l-41 77q114 55 236 55q54 0 98 -12q115 -32 157 -126q28 -65 28 -191v-548h-92q-10 22 -31 22q-8 0 -17 -4q-89 -36 -171 -36q-127 0 -203 81 q-76 80 -76 215zM141 1188q0 28 20 47q20 20 47 20q28 0 48 -20q19 -19 19 -47t-19 -47q-20 -20 -48 -20q-27 0 -47 20q-20 19 -20 47zM148 276q0 -123 74 -175q48 -33 117 -33q148 0 219 89l4 5v247l-4 5q-52 61 -191 61q-100 0 -160 -54q-59 -54 -59 -145zM435 1188 q0 28 19 47q20 20 48 20q27 0 47 -20q20 -19 20 -47t-20 -47q-20 -20 -47 -20q-28 0 -48 20q-19 19 -19 47z" />
<glyph unicode="&#xe5;" horiz-adv-x="757" d="M60 276q0 129 85 208q84 79 222 79q103 0 169 -28l26 -11v28q-1 110 -30 161q-30 51 -100 65q-22 4 -46 4q-107 0 -209 -72l-54 69q127 91 263 91q32 0 63 -6q130 -25 176 -143q25 -64 25 -175v-548h-91q-3 10 -8 15q-9 9 -21 9q-8 0 -15 -4q-82 -38 -176 -38 q-127 0 -203 81q-76 80 -76 215zM148 276q0 -123 74 -175q48 -33 117 -33q148 0 219 89l4 5v247l-4 5q-52 61 -191 61q-100 0 -160 -54q-59 -54 -59 -145zM237 1122q0 55 39 94t94 39q56 0 95 -39t39 -94t-39 -94q-39 -40 -95 -40q-55 0 -94 40q-39 39 -39 94zM294 1122 q0 -32 22 -55q23 -22 54 -22q32 0 55 22q22 23 22 55t-22 54q-23 23 -55 23q-31 0 -54 -23q-22 -22 -22 -54z" />
<glyph unicode="&#xe6;" horiz-adv-x="1266" d="M60 266q0 129 85 208q84 79 222 79q91 0 153 -22l20 -7l4 21q5 25 10 44l5 15v4q-16 138 -127 160q-22 4 -46 4q-107 0 -209 -72l-54 69q127 91 263 91q33 0 63 -6q106 -21 156 -103l14 -22l17 20q95 114 250 114q112 0 185 -67q74 -67 94 -186q11 -69 5 -117l-5 -31 l-542 -101l1 -17q6 -57 19 -112q20 -81 80 -127q60 -47 144 -47q121 0 196 75l67 -57q-102 -106 -263 -106q-143 0 -234 99l-13 14l-14 -13q-101 -100 -267 -100q-127 0 -203 81q-76 80 -76 215zM148 266q0 -123 74 -175q48 -33 117 -33q142 0 215 84l18 24q-8 20 -14 45 q-25 104 -25 206v11l-9 5q-52 32 -157 32q-100 0 -160 -54q-59 -54 -59 -145zM621 450l463 86l-1 17q-2 21 -5 43q-29 180 -192 180q-187 0 -247 -211q-12 -40 -16 -90z" />
<glyph unicode="&#xe7;" horiz-adv-x="905" />
<glyph unicode="&#xe8;" d="M83 599q37 131 124 202q87 72 208 72q111 0 185 -67t93 -186q12 -69 5 -117l-4 -31l-543 -101l2 -17q5 -56 19 -112q20 -81 80 -127q60 -47 144 -47q120 0 196 75l67 -57q-102 -106 -263 -106q-114 0 -198 66q-84 65 -111 175q-52 210 -4 378zM150 460l463 86l-1 17 q-2 21 -5 43q-29 180 -192 180q-188 0 -248 -211q-11 -40 -15 -90zM281 1255h103l130 -211h-103z" />
<glyph unicode="&#xe9;" d="M83 599q37 131 124 202q87 72 208 72q111 0 185 -67t93 -186q12 -69 5 -117l-4 -31l-543 -101l2 -17q5 -57 19 -112q20 -81 80 -127q60 -47 144 -47q120 0 196 75l67 -57q-102 -106 -263 -106q-114 0 -198 66q-84 65 -111 175q-52 210 -4 378zM150 460l463 86l-1 17 q-2 21 -5 43q-30 180 -192 180q-188 0 -248 -211q-11 -40 -15 -90zM232 1044l130 211h103l-131 -211h-102z" />
<glyph unicode="&#xea;" d="M83 599q37 131 124 202q87 72 208 72q111 0 185 -67t93 -186q12 -70 5 -117l-4 -31l-543 -101l2 -17q5 -56 19 -112q20 -81 80 -127q60 -47 143 -47q121 0 197 75l67 -57q-102 -106 -264 -106q-113 0 -197 66q-84 65 -111 175q-52 209 -4 378zM139 1044l130 211h103 l-130 -211h-103zM150 460l463 86l-1 17q-2 21 -5 43q-29 180 -192 180q-188 0 -248 -211q-11 -40 -15 -90zM389 1255h103l131 -211h-103z" />
<glyph unicode="&#xeb;" d="M83 599q37 131 124 202q87 72 208 72q111 0 185 -67t93 -186q12 -71 5 -117l-4 -31l-543 -101l2 -17q5 -56 19 -112q20 -81 80 -127q60 -47 144 -47q120 0 196 75l67 -57q-102 -106 -263 -106q-114 0 -198 66q-84 65 -111 175q-52 209 -4 378zM150 460l463 86l-1 17 q-2 21 -5 43q-30 180 -192 180q-188 0 -248 -211q-11 -40 -15 -90zM167 1188q0 28 20 47q20 20 47 20q28 0 48 -20q19 -19 19 -47t-19 -47q-20 -20 -48 -20q-27 0 -47 20q-20 19 -20 47zM460 1188q0 28 20 47q20 20 47 20q28 0 48 -20q19 -19 19 -47t-19 -47 q-20 -20 -48 -20q-27 0 -47 20q-20 19 -20 47z" />
<glyph unicode="&#xec;" horiz-adv-x="353" d="M100 1257l131 -211h102l-130 211h-103zM113 0h88v849h-88v-849z" />
<glyph unicode="&#xed;" horiz-adv-x="356" d="M40 1046h103l130 211h-102zM103 0h88v849h-88v-849z" />
<glyph unicode="&#xee;" horiz-adv-x="400" d="M-90 1046h103l130 211h-102zM108 0h88v849h-88v-849zM160 1257l131 -211h103l-131 211h-103z" />
<glyph unicode="&#xef;" horiz-adv-x="451" d="M-60 1190q0 27 20 47q19 20 47 20t47 -20q20 -20 20 -47q0 -28 -20 -48q-19 -19 -47 -19t-47 19q-20 20 -20 48zM110 0h87v849h-87v-849zM233 1190q0 27 20 47q19 20 47 20t47 -20q20 -20 20 -47q0 -28 -20 -48q-19 -19 -47 -19t-47 19q-20 20 -20 48z" />
<glyph unicode="&#xf0;" horiz-adv-x="1139" />
<glyph unicode="&#xf1;" horiz-adv-x="1108" />
<glyph unicode="&#xf2;" horiz-adv-x="837" d="M80 608q24 126 104 194q80 67 207 67q122 0 211 -72t111 -189q43 -223 -5 -389q-33 -112 -115 -176q-82 -63 -195 -63q-111 0 -196 65t-117 174q-47 166 -5 389zM166 592q-38 -203 4 -348q23 -82 84 -129q62 -47 144 -47q175 0 226 176q41 145 3 348q-17 87 -80 138 q-64 51 -156 51q-189 0 -225 -189zM305 1255h102l131 -211h-103z" />
<glyph unicode="&#xf3;" horiz-adv-x="831" d="M80 608q24 126 104 194q80 67 207 67q122 0 211 -72t111 -189q43 -223 -5 -389q-33 -112 -115 -176q-82 -63 -195 -63q-111 0 -196 65t-117 174q-47 166 -5 389zM166 592q-38 -203 4 -348q23 -82 84 -129q62 -47 144 -47q175 0 225 176q42 145 4 348q-17 87 -80 138 q-64 51 -156 51q-189 0 -225 -189zM253 1044l131 211h102l-130 -211h-103z" />
<glyph unicode="&#xf4;" horiz-adv-x="828" d="M80 608q24 126 104 194q80 67 207 67q122 0 211 -72t111 -189q43 -223 -5 -389q-33 -112 -115 -176q-82 -63 -195 -63q-111 0 -196 65t-117 174q-47 166 -5 389zM155 1044l130 211h103l-130 -211h-103zM166 592q-38 -203 4 -348q23 -82 84 -129q62 -47 144 -47 q175 0 225 176q42 145 4 348q-17 87 -80 138q-64 51 -156 51q-189 0 -225 -189zM405 1255h103l130 -211h-102z" />
<glyph unicode="&#xf5;" horiz-adv-x="828" d="M80 608q24 126 104 194q80 67 207 67q122 0 211 -72t111 -189q43 -223 -5 -389q-33 -112 -115 -176q-82 -63 -195 -63q-111 0 -196 65t-117 174q-47 166 -5 389zM166 592q-38 -203 4 -348q23 -82 84 -129q62 -47 144 -47q175 0 226 176q41 145 3 348q-17 87 -80 138 q-64 51 -156 51q-189 0 -225 -189zM173 1034q7 95 80 129q41 20 138 20h9q76 1 100 12q28 14 32 60h88q-7 -102 -82 -138q-43 -21 -142 -22h-16q-66 0 -90 -11q-24 -12 -29 -50h-88z" />
<glyph unicode="&#xf6;" horiz-adv-x="834" d="M80 608q24 126 104 194q80 67 207 67q122 0 211 -72t111 -189q43 -223 -5 -389q-33 -112 -115 -176q-82 -63 -195 -63q-111 0 -196 65t-117 174q-47 166 -5 389zM166 592q-38 -203 4 -348q23 -82 84 -129q62 -47 144 -47q175 0 225 176q42 145 4 348q-17 87 -80 138 q-64 51 -156 51q-189 0 -225 -189zM183 1188q0 28 20 47q19 20 47 20t47 -20q20 -19 20 -47t-20 -47q-19 -20 -47 -20t-47 20q-20 19 -20 47zM476 1188q0 28 20 47q19 20 47 20t47 -20q20 -19 20 -47t-20 -47q-19 -20 -47 -20t-47 20q-20 19 -20 47z" />
<glyph unicode="&#xf7;" horiz-adv-x="856" d="M96 709h594v88h-594v-88zM326 487q0 28 20 47q19 20 47 20t47 -20q20 -19 20 -47t-20 -47q-19 -20 -47 -20t-47 20q-20 19 -20 47zM326 1019q0 28 20 48q19 19 47 19t47 -19q20 -20 20 -48q0 -27 -20 -47q-19 -19 -47 -19t-47 19q-20 20 -20 47z" />
<glyph unicode="&#xf8;" horiz-adv-x="853" d="M60 -20q6 72 56 160l5 9l-5 10q-17 32 -27 67q-48 165 -6 389q24 126 105 194q80 67 206 67q121 0 210 -70l19 -15l10 22q16 35 20 63h87q-6 -67 -55 -151l-5 -9l5 -9q23 -44 32 -92q42 -224 -5 -389q-33 -113 -115 -176q-82 -64 -195 -64q-117 0 -204 72l-19 16l-11 -24 q-16 -39 -20 -70h-88zM167 274l8 -41l26 33q51 67 174 205q136 154 190 230l10 13l-12 12q-67 63 -169 63q-189 0 -225 -190q-32 -171 -2 -325zM226 151l11 -11q67 -66 165 -66q175 0 226 176q39 136 4 341l-7 43l-26 -34q-48 -61 -159 -186q-147 -167 -205 -249z" />
<glyph unicode="&#xf9;" horiz-adv-x="754" d="M60 258v589h88v-589q0 -190 164 -190q126 0 258 80l9 6v693h87v-849h-90q-3 14 -11 23q-10 10 -24 10q-8 0 -17 -4q-109 -47 -212 -47q-120 0 -186 73t-66 205zM260 1255h103l130 -211h-103z" />
<glyph unicode="&#xfa;" horiz-adv-x="761" d="M60 258v589h88v-589q0 -190 164 -190q126 0 258 80l9 6v693h87v-849h-90q-3 14 -11 23q-10 10 -24 10q-8 0 -17 -4q-109 -47 -212 -47q-120 0 -186 73t-66 205zM244 1044l131 211h103l-131 -211h-103z" />
<glyph unicode="&#xfb;" horiz-adv-x="764" d="M60 258v589h88v-589q0 -190 164 -190q126 0 258 80l9 6v693h87v-849h-90q-3 14 -11 23q-10 10 -24 10q-8 0 -17 -4q-109 -47 -212 -47q-120 0 -186 73t-66 205zM121 1044l131 211h103l-131 -211h-103zM372 1255h102l131 -211h-103z" />
<glyph unicode="&#xfc;" horiz-adv-x="773" d="M60 258v589h88v-589q0 -190 164 -190q126 0 258 80l9 6v693h87v-849h-90q-3 15 -11 23q-10 10 -24 10q-8 0 -17 -4q-109 -47 -212 -47q-120 0 -186 73t-66 205zM150 1188q0 28 19 47q20 20 48 20q27 0 47 -20q20 -19 20 -47t-20 -47q-20 -20 -47 -20q-28 0 -48 20 q-19 19 -19 47zM443 1188q0 28 19 47q20 20 48 20q27 0 47 -20q20 -19 20 -47t-20 -47q-20 -20 -47 -20q-28 0 -48 20q-19 19 -19 47z" />
<glyph unicode="&#xfd;" horiz-adv-x="868" />
<glyph unicode="&#xfe;" horiz-adv-x="1010" />
<glyph unicode="&#xff;" horiz-adv-x="868" />
<glyph unicode="&#x2c6;" horiz-adv-x="1024" d="M221 1079l232 355h118l232 -355h-58l-233 216l-233 -216h-58z" />
<glyph unicode="&#x2dc;" horiz-adv-x="1024" d="M234 1132q19 106 68 158.5t129 52.5q46 -1 113 -24q64 -23 112 -23h4q36 0 58 20t36 66h54q-20 -103 -68.5 -154t-126.5 -51h-4q-50 0 -113 23q-66 24 -114 24q-39 0 -60.5 -20.5t-33.5 -71.5h-54z" />
<glyph unicode="&#x2000;" horiz-adv-x="855" />
<glyph unicode="&#x2001;" horiz-adv-x="1711" />
<glyph unicode="&#x2002;" horiz-adv-x="855" />
<glyph unicode="&#x2003;" horiz-adv-x="1711" />
<glyph unicode="&#x2004;" horiz-adv-x="570" />
<glyph unicode="&#x2005;" horiz-adv-x="427" />
<glyph unicode="&#x2006;" horiz-adv-x="285" />
<glyph unicode="&#x2007;" horiz-adv-x="285" />
<glyph unicode="&#x2008;" horiz-adv-x="213" />
<glyph unicode="&#x2009;" horiz-adv-x="342" />
<glyph unicode="&#x200a;" horiz-adv-x="95" />
<glyph unicode="&#x2010;" horiz-adv-x="900" d="M100 700h601v88h-601v-88z" />
<glyph unicode="&#x2011;" horiz-adv-x="900" d="M100 700h601v88h-601v-88z" />
<glyph unicode="&#x2012;" horiz-adv-x="900" d="M100 700h601v88h-601v-88z" />
<glyph unicode="&#x2013;" horiz-adv-x="1108" d="M56 419v120h996v-120h-996z" />
<glyph unicode="&#x2014;" horiz-adv-x="2048" d="M0 419v120h2048v-120h-2048z" />
<glyph unicode="&#x2018;" horiz-adv-x="300" d="M-100 1000q6 64 83 175q82 119 88 191h88q-6 -99 -104 -241q-59 -86 -66 -125h-89z" />
<glyph unicode="&#x2019;" horiz-adv-x="300" d="M-100 1366h88q6 -72 88 -191q76 -111 83 -175h-89q-7 39 -66 125q-98 142 -104 241z" />
<glyph unicode="&#x201a;" horiz-adv-x="300" d="M-60 -166q6 64 83 175q82 119 88 191h88q-6 -99 -104 -241q-59 -86 -66 -125h-89z" />
<glyph unicode="&#x201c;" horiz-adv-x="500" d="M-100 1000q6 64 83 175q82 119 88 191h88q-6 -99 -104 -241q-59 -86 -66 -125h-89zM99 1000q6 64 83 175q82 119 88 191h88q-6 -99 -104 -241q-59 -86 -66 -125h-89z" />
<glyph unicode="&#x201d;" horiz-adv-x="500" d="M-100 1366h88q6 -72 88 -191q76 -111 83 -175h-89q-7 39 -66 125q-98 142 -104 241zM99 1366h88q6 -72 88 -191q76 -111 83 -175h-89q-7 39 -66 125q-98 142 -104 241z" />
<glyph unicode="&#x201e;" horiz-adv-x="500" d="M-60 -166q6 64 83 175q82 119 88 191h88q-6 -99 -104 -241q-59 -86 -66 -125h-89zM139 -166q6 64 83 175q82 119 88 191h88q-6 -99 -104 -241q-59 -86 -66 -125h-89z" />
<glyph unicode="&#x2022;" horiz-adv-x="1024" d="M216 718q0 123 87 209t210 86q122 0 208.5 -86.5t86.5 -208.5t-87.5 -209.5t-209.5 -87.5q-123 0 -209 87t-86 210z" />
<glyph unicode="&#x2026;" horiz-adv-x="1400" d="M100 106q0 28 20 47q19 20 47 20t47 -20q20 -19 20 -47t-20 -47q-19 -20 -47 -20t-47 20q-20 19 -20 47zM566 106q0 28 20 47q19 20 47 20t47 -20q20 -19 20 -47t-20 -47q-19 -20 -47 -20t-47 20q-20 19 -20 47zM1026 106q0 28 20 47q19 20 47 20t47 -20q20 -19 20 -47 t-20 -47q-19 -20 -47 -20t-47 20q-20 19 -20 47z" />
<glyph unicode="&#x202f;" horiz-adv-x="342" />
<glyph unicode="&#x2039;" horiz-adv-x="631" d="M174 479l342 303h14v-37l-205 -266l205 -266v-37h-14z" />
<glyph unicode="&#x203a;" horiz-adv-x="631" d="M101 176v37l205 266l-205 266v37h14l342 -303l-342 -303h-14z" />
<glyph unicode="&#x205f;" horiz-adv-x="427" />
<glyph unicode="&#x20ac;" horiz-adv-x="1153" d="M100 470v88h186v19q0 55 1 117v19h-187v88h189v18q5 197 11 233q26 135 115 198q88 63 254 63q319 0 376 -243l-86 -16q-23 90 -91 131q-68 40 -199 40q-144 0 -210 -51q-54 -42 -72 -139q-8 -38 -12 -215v-19h367v-88h-368v-19q-1 -61 -1 -117l1 -19h368v-88h-367v-19 q4 -169 15 -207q25 -88 81 -128q68 -48 205 -48q132 0 196 40q55 35 82 118l84 -25q-38 -117 -124 -169q-85 -52 -238 -52q-158 0 -246 57q-88 56 -124 182q-14 48 -18 233l-1 18h-187z" />
<glyph unicode="&#x2122;" horiz-adv-x="1266" d="M100 1258v30h336v-30h-153v-407h-30v407h-153zM535 852q6 178 110 436h37q75 -160 117 -296l18 -58l18 58q41 136 115 296h38q106 -258 113 -436h-31q-5 142 -85 359l-16 44l-19 -43q-107 -250 -116 -370h-33q-9 119 -118 369l-19 44l-16 -45q-77 -217 -82 -358h-31z" />
<glyph unicode="&#x25fc;" horiz-adv-x="845" d="M0 0v845h845v-845h-845z" />
</font>
</defs>
</svg>
