<?xml version="1.0" standalone="no"?>
<!DOCTYPE svg PUBLIC "-//W3C//DTD SVG 1.1//EN" "http://www.w3.org/Graphics/SVG/1.1/DTD/svg11.dtd" >
<svg xmlns="http://www.w3.org/2000/svg">
<metadata></metadata>
<defs>
<font id="hallo_sansregular" horiz-adv-x="1014" >
<font-face units-per-em="2048" ascent="1638" descent="-410" />
<missing-glyph horiz-adv-x="508" />
<glyph unicode="&#xd;" horiz-adv-x="508" />
<glyph horiz-adv-x="0" />
<glyph horiz-adv-x="0" />
<glyph unicode=" "  horiz-adv-x="508" />
<glyph unicode="&#x09;" horiz-adv-x="508" />
<glyph unicode="&#xa0;" horiz-adv-x="508" />
<glyph unicode="!" horiz-adv-x="443" d="M83 -17q0 36 25 61q26 26 62 26t61 -26q26 -25 26 -61t-26 -62q-25 -25 -61 -25t-62 25q-25 26 -25 62zM102 216h127v1132h-127v-1132z" />
<glyph unicode="&#x22;" horiz-adv-x="629" d="M-58 993q0 79 88 207q87 127 87 203h127q0 -116 -109 -275q-66 -96 -66 -135h-127zM175 993q0 79 88 207q87 127 87 203h127q0 -116 -109 -275q-66 -96 -66 -135h-127z" />
<glyph unicode="#" horiz-adv-x="1228" d="M0 350h176l-70 -350h127l70 350h387l-70 -350h128l70 350h180l25 127h-180l82 408h180l26 127h-180l67 336h-127l-68 -336h-387l68 336h-128l-67 -336h-176l-26 -127h176l-81 -408h-176zM329 477l82 408h387l-82 -408h-387z" />
<glyph unicode="$" d="M0 266q33 -112 122 -190q95 -83 224 -99v-127h127v129q29 4 54 10q160 40 239 182q72 128 48 274q-36 227 -341 357v424q106 -25 134 -116l121 38q-55 178 -255 208v166h-127v-168q-27 -4 -48 -10q-101 -27 -170 -118q-75 -98 -62 -214q21 -187 280 -296v-611 q-85 15 -147 72q-56 52 -77 125zM193 1026q-8 65 37 124q42 56 100 71l16 4v-369q-142 70 -153 170zM473 108v554q193 -96 216 -237q14 -91 -27 -177q-50 -107 -165 -135q-11 -3 -24 -5z" />
<glyph unicode="%" horiz-adv-x="1299" d="M0 1146q0 102 73 175q72 73 175 73t175 -73q73 -73 73 -175q0 -103 -73 -175q-72 -73 -175 -73t-175 73q-73 72 -73 175zM47 0q0 168 159 405q95 142 345 431q350 406 350 510h128q0 -101 -114 -264q-70 -100 -268 -329q-229 -265 -319 -396q-154 -221 -154 -357h-127z M127 1146q0 -50 36 -86q35 -35 85 -35t85 35q36 36 36 86t-36 85q-35 36 -85 36t-85 -36q-36 -35 -36 -85zM552 256q0 103 72 176q73 72 176 72q102 0 175 -72q73 -73 73 -176q0 -102 -73 -175t-175 -73q-103 0 -176 73q-72 73 -72 175zM679 256q0 -50 35 -85q36 -35 86 -35 t85 35q36 35 36 85t-36 86q-35 35 -85 35t-86 -35q-35 -36 -35 -86z" />
<glyph unicode="&#x26;" horiz-adv-x="1158" d="M121 222q48 -241 302 -241h222q178 0 253 113l124 -134l94 86l-168 181q14 72 14 174v220h-127q-1 -141 0 -221q0 -24 -2 -49l-495 536q-38 42 -26 184q3 27 4 38q9 125 218 127q209 -2 219 -127q1 -12 3 -38q10 -111 -4 -149q-22 -57 -116 -91l43 -120q152 55 192 169 q24 66 12 203q-3 24 -3 36q-9 113 -99 177q-90 65 -242 67h-10q-152 -2 -242 -67q-90 -64 -98 -177l-3 -36q-18 -197 58 -282l29 -32q-90 -58 -122 -119q-83 -161 -30 -428zM234 414q2 124 30 177q19 37 97 83l446 -482q-33 -84 -162 -84h-222q-90 0 -129 35q-34 29 -49 104 q-13 65 -11 167z" />
<glyph unicode="'" horiz-adv-x="346" d="M46 993q0 79 88 207q87 127 87 203h127q0 -116 -109 -275q-66 -96 -66 -135h-127z" />
<glyph unicode="(" horiz-adv-x="529" d="M103 697q0 376 119 651q61 142 126 210l92 -88l-46 44l46 -44q-52 -56 -106 -184q-104 -249 -104 -589t104 -589q53 -128 106 -184l-92 -88q-65 68 -126 210q-119 275 -119 651z" />
<glyph unicode=")" horiz-adv-x="529" d="M96 -75l46 -44l-46 44q52 56 106 184q104 249 104 589t-104 589q-53 128 -106 184l92 88q65 -68 126 -210q119 -275 119 -651t-119 -651q-61 -142 -126 -210z" />
<glyph unicode="*" horiz-adv-x="1024" d="M218 1333q0 17 6 36q11 35 36 53q17 12 34 12q9 0 18 -3q20 -6 74 -62q47 -49 112 -75q-4 71 -37 130q-37 66 -37 84q0 32 23.5 51.5t62.5 19.5q37 0 61.5 -18t24.5 -47q0 -21 -36 -89q-33 -61 -37 -130q66 25 113 75q51 55 69 61q11 3 21 3q18 0 35 -10q26 -17 38 -53 q6 -19 6 -36q0 -15 -4 -28q-10 -30 -38 -38q-6 -2 -19 -2q-25 0 -76 9q-28 5 -55 5q-41 0 -81 -11q44 -55 105 -83q68 -32 79 -47q13 -18 13 -38q0 -9 -2 -17q-8 -30 -39 -53q-29 -22 -59 -22q-1 0 -1 1q-31 0 -48 23q-12 17 -22 94q-10 67 -47 125q-38 -58 -46 -124 q-9 -75 -20 -90q-19 -25 -49 -27h-5q-28 0 -57 21q-30 21 -39 51q-4 10 -4 20q0 17 11 32q13 17 83 51q61 29 105 82q-41 11 -80 11q-27 0 -53 -5q-54 -11 -78 -11q-9 0 -14 2q-30 9 -41 38q-6 13 -6 29z" />
<glyph unicode="+" horiz-adv-x="1062" d="M97 660h361v-361h127v361h361v127h-361v361h-127v-361h-361v-127z" />
<glyph unicode="," horiz-adv-x="435" d="M-58 -206q0 79 88 207q87 127 87 203h127q0 -116 -109 -275q-66 -96 -66 -135h-127z" />
<glyph unicode="-" horiz-adv-x="670" d="M116 437v83q0 29 41 29h356q41 0 41 -29v-83q0 -28 -40 -28h-358q-40 0 -40 28z" />
<glyph unicode="." horiz-adv-x="364" d="M-1 95q0 36 25 61q26 26 62 26t61 -26q26 -25 26 -61t-26 -62q-25 -25 -61 -25t-62 25q-25 26 -25 62z" />
<glyph unicode="/" horiz-adv-x="574" d="M0 0h127l311 1347h-127z" />
<glyph unicode="0" d="M96 673q2 343 15 408q53 280 393 280q351 0 404 -280q13 -65 15 -408q2 -368 -21 -446q-39 -135 -131 -196q-93 -61 -260 -61q-166 0 -261 62t-133 195q-23 78 -21 446zM223 663q-1 -342 16 -401q24 -84 77 -121q63 -44 195 -44q133 0 193 42q51 34 76 123q17 59 16 401 q0 330 -13 394q-16 89 -70 129q-66 48 -209 48q-139 0 -200 -46q-51 -39 -68 -131q-13 -64 -13 -394z" />
<glyph unicode="1" horiz-adv-x="609" d="M103 1016q0 77 137 184q124 97 124 146h127v-1346h-127v1136q-15 -12 -46 -36q-85 -67 -88 -85z" />
<glyph unicode="2" horiz-adv-x="922" d="M103 0v471q0 67 47 129q41 54 88 72q56 21 119 45q128 49 189 71q94 36 116 91q14 38 4 146q-2 23 -3 38q-6 80 -88 122q-61 31 -136 31h-317v127h317q133 0 230 -66q111 -74 121 -205q1 -14 3 -36q12 -133 -12 -199q-40 -112 -191 -168q-60 -22 -188 -71 q-92 -35 -119 -45q-14 -6 -32 -30q-21 -28 -21 -52v-344h521v-127h-648z" />
<glyph unicode="3" horiz-adv-x="919" d="M99 0h389q254 0 302 241q15 74 15 176q-1 150 -45 234q-32 62 -123 121q71 54 88 139q10 51 1 153q-3 24 -4 38q-8 115 -101 179q-93 65 -249 65h-273v-127h273q214 0 224 -127q1 -13 3 -40q8 -93 -1 -125q-14 -47 -78 -78l-209 -83l46 -118l141 55q123 -59 149 -111 q61 -116 19 -326q-15 -75 -48 -104q-40 -35 -130 -35h-389v-127z" />
<glyph unicode="4" horiz-adv-x="912" d="M99 1098q0 -127 47 -209q66 -114 233 -179q131 -52 266 -111v-599h128v1346h-128v-609q-115 50 -220 91q-118 47 -162 113q-37 56 -37 157v248h-127v-248z" />
<glyph unicode="5" horiz-adv-x="925" d="M96 985v358h648v-127h-521v-231q0 -24 21 -52q18 -24 33 -31q37 -14 118 -45q126 -47 188 -71q153 -57 193 -221q23 -94 9 -271l-2 -23q-10 -131 -121 -205q-97 -66 -230 -66h-317v127h317q75 0 136 31q82 42 88 122l2 25q12 154 -5 226q-24 103 -114 136q-60 22 -189 72 q-66 25 -119 45q-47 18 -88 72q-47 62 -47 129z" />
<glyph unicode="6" horiz-adv-x="948" d="M119 204q-48 636 4 897q48 241 303 241h257v-127h-257q-90 0 -130 -35q-33 -30 -48 -104q-5 -28 -8 -209l369 -120q154 -55 195 -234q22 -99 8 -288l-2 -21q-9 -113 -99 -177q-90 -65 -241 -67h-11q-151 2 -241 67q-90 64 -99 177zM239 734q-2 -400 7 -521 q9 -124 218 -126q210 2 219 126l2 22q13 169 -5 250q-26 110 -113 142z" />
<glyph unicode="7" horiz-adv-x="879" d="M93 1218v127h648v-268q0 -196 -167 -523q-173 -339 -173 -554h-127q0 245 187 611q153 300 153 466v141h-521z" />
<glyph unicode="8" horiz-adv-x="1016" d="M111 243q48 -243 304 -243h226q257 0 305 243q16 80 14 195q-2 154 -44 235q-33 62 -126 122q73 58 90 151q10 54 1 162q-3 25 -4 37q-6 90 -67 149q-88 85 -275 87h-13q-188 -2 -275 -87q-61 -59 -68 -149q-1 -15 -3 -37q-9 -108 1 -162q17 -93 90 -151 q-93 -60 -126 -122q-84 -162 -30 -430zM225 436q2 124 30 178q27 52 150 112l123 -49l124 49q123 -60 150 -112q28 -54 30 -178q2 -103 -11 -168q-15 -75 -49 -105q-40 -35 -131 -35h-226q-90 0 -130 35q-34 30 -49 105q-13 65 -11 168zM304 1097q2 27 3 38q9 117 219 118h5 q210 -1 219 -118q1 -13 3 -38q9 -103 -1 -140q-15 -55 -85 -88l-139 -54l-139 54q-69 33 -84 88q-11 37 -1 140z" />
<glyph unicode="9" horiz-adv-x="905" d="M109 1102q3 27 3 36q9 113 99 177q90 65 242 67h10q152 -2 242 -67q90 -64 98 -177q48 -636 -4 -897q-48 -241 -303 -241h-86q-131 0 -198 52q-67 53 -91 176l125 24q15 -76 43 -99q32 -26 121 -26h86q91 0 130 35q34 29 48 104q8 40 9 344l-370 120q-152 55 -192 169 q-24 66 -12 203zM236 1090q-10 -111 4 -149q22 -57 115 -91l329 -107q-1 296 -8 385q-9 125 -218 127q-209 -2 -219 -127q-1 -12 -3 -38z" />
<glyph unicode=":" horiz-adv-x="397" d="M92 875q0 36 25 61q26 26 62 26t61 -26q26 -25 26 -61t-26 -62q-25 -25 -61 -25t-62 25q-25 26 -25 62zM108 322q0 36 25 61q26 26 62 26t61 -26q26 -25 26 -61t-26 -62q-25 -25 -61 -25t-62 25q-25 26 -25 62z" />
<glyph unicode=";" horiz-adv-x="393" d="M-28 -206q0 79 88 207q87 127 87 203h127q0 -116 -109 -275q-66 -96 -66 -135h-127zM115 869q0 36 25 61q26 26 62 26t61 -26q26 -25 26 -61t-26 -62q-25 -25 -61 -25t-62 25q-25 26 -25 62z" />
<glyph unicode="&#x3c;" d="M87 674v83l840 484v-167l-625 -359l625 -355v-167z" />
<glyph unicode="=" horiz-adv-x="916" d="M0 429h706v127h-706v-127zM0 767h706v127h-706v-127z" />
<glyph unicode="&#x3e;" d="M87 193v167l625 355l-625 359v167l840 -484v-83z" />
<glyph unicode="?" horiz-adv-x="941" d="M97 1008q-10 126 79 223q101 110 302 110q132 0 230 -66q111 -75 121 -205q1 -9 2 -28q11 -131 -12 -195q-39 -106 -184 -178q-81 -40 -156 -72l-10 -5q-15 -6 -34 -31q-22 -29 -22 -52v-317h-127v317q0 64 45 126q40 53 87 74l10 4q72 32 151 70q97 48 119 104 q15 38 6 145q-1 21 -2 28q-6 81 -88 122q-61 31 -136 31q-145 0 -209 -69q-52 -56 -45 -126zM263 -31q0 36 26 62t63 26q36 0 62 -26t26 -62q0 -37 -26 -63t-62 -26q-37 0 -63 26t-26 63z" />
<glyph unicode="@" horiz-adv-x="1451" d="M97 545q-1 -363 21 -438q38 -133 133 -195t261 -62v127q-132 0 -195 44q-53 37 -77 121q-17 59 -16 401q1 330 13 394q17 92 68 131q61 46 200 46h402q132 0 195 -44q53 -37 77 -121q17 -57 16 -371q-1 -304 -12 -366q-13 -64 -32 -72q-26 -12 -137 -12v511 q0 132 -31 202q-45 104 -170 138q-177 50 -371 -53l60 -112q148 79 277 43q62 -18 85 -61q22 -44 23 -150q-71 30 -179 30q-149 0 -240 -86t-91 -225q0 -146 82 -233t220 -87q111 0 208 52v-96h79q185 0 239 23q78 34 102 165q13 68 15 381q2 337 -20 415q-39 133 -134 195 q-95 61 -261 61h-402q-340 0 -393 -280q-14 -72 -15 -416zM504 365q0 85 55 134t149 49q132 0 179 -55v-237q-67 -83 -208 -83q-68 0 -112 33q-63 48 -63 159z" />
<glyph unicode="A" horiz-adv-x="1099" d="M97 0h127q0 134 80 421h502q82 -287 82 -421h127q0 349 -403 1347h-118q-397 -998 -397 -1347zM341 548q84 275 212 616q130 -341 215 -616h-427z" />
<glyph unicode="B" horiz-adv-x="962" d="M100 0v1346h336q156 0 249 -65q93 -64 102 -179q1 -15 3 -38q4 -51 4.5 -89.5t-4.5 -63.5q-17 -84 -89 -139q92 -59 124 -121q50 -96 49 -228q0 -84 -19 -182q-48 -241 -303 -241h-452zM227 127h325q90 0 130 35q33 29 48 104q17 86 17 157q0 101 -35 169 q-28 55 -150 112q-134 -48 -335 -110v-467zM227 727q195 62 317 105q94 34 115 83q9 21 9 67q0 30 -4 70q-3 27 -4 40q-9 127 -224 127h-209v-492z" />
<glyph unicode="C" horiz-adv-x="1016" d="M96 683q2 343 15 408q53 280 393 280q351 0 404 -280l-125 -24q-16 89 -70 129q-66 48 -209 48q-139 0 -200 -46q-51 -39 -68 -131q-13 -64 -13 -394v-37q0 -308 16 -364q24 -84 77 -121q63 -44 195 -44q133 0 193 42q51 34 76 123l122 -35q-39 -135 -131 -196 q-93 -61 -260 -61q-166 0 -261 62t-133 195q-21 72 -21 389v57z" />
<glyph unicode="D" horiz-adv-x="952" d="M97 1346h349q352 0 405 -280q12 -65 14 -385v-76q0 -279 -20 -348q-39 -135 -132 -196t-260 -61h-351zM225 1219l4 -1092h224q134 0 194 42q50 34 76 123q16 56 16 343v35q-1 308 -13 372q-17 89 -71 129q-66 48 -209 48h-221z" />
<glyph unicode="E" horiz-adv-x="896" d="M100 0h662v127h-535v576h445v128h-445v389h490v128h-617v-1348z" />
<glyph unicode="F" horiz-adv-x="766" d="M100 0h127v703h445v127h-445v390h490v127h-617v-1347z" />
<glyph unicode="G" horiz-adv-x="1012" d="M100 673q2 343 15 408q53 280 393 280q351 0 404 -280l-125 -24q-16 89 -70 129q-66 48 -209 48q-139 0 -200 -46q-51 -39 -68 -131q-13 -64 -13 -394v-37q0 -308 16 -364q24 -84 77 -121q63 -44 195 -44q133 0 193 42q51 34 76 123q15 49 16 318h-230v127h357v-63v-29 q0 -317 -21 -388q-39 -135 -131 -196q-93 -61 -260 -61q-166 0 -261 62t-133 195q-21 72 -21 389v57z" />
<glyph unicode="H" horiz-adv-x="939" d="M100 0h127v703h477v-703h127v1346h-127v-516h-477v516h-127v-1346z" />
<glyph unicode="I" horiz-adv-x="400" d="M98 0h127v1346h-127v-1346z" />
<glyph unicode="J" horiz-adv-x="819" d="M86 262h127q0 -127 101 -156q37 -10 71 -10q45 0 87 17q52 22 74 82q22 61 22 186v961h127v-961q0 -133 -22 -207q-39 -131 -153 -179q-61 -25 -134 -25q-58 0 -108 14q-91 27 -142 99q-50 73 -50 179z" />
<glyph unicode="K" horiz-adv-x="997" d="M103 0h127v598q123 49 237 91q301 -480 301 -689h127q0 242 -308 736q221 107 221 362v248h-127v-248q0 -102 -38 -159q-45 -67 -164 -110q-113 -41 -249 -94v611h-127v-1346z" />
<glyph unicode="L" horiz-adv-x="799" d="M103 0h662v127h-535v1220h-127v-1347z" />
<glyph unicode="M" horiz-adv-x="1302" d="M70 0q0 348 214 1345h119q168 -350 230 -550q61 199 227 550h120q219 -995 219 -1345h-127q0 284 -176 1139q-199 -472 -199 -670h-127q0 198 -202 670q-171 -855 -171 -1139h-127z" />
<glyph unicode="N" horiz-adv-x="1009" d="M99 0v1346h127q0 -109 268 -516q182 -278 254 -418v934h127v-1346h-127q0 139 -117 362q-69 132 -244 398q-114 174 -161 254v-1014h-127z" />
<glyph unicode="O" horiz-adv-x="1044" d="M87 673q2 343 15 408q53 280 393 280q351 0 404 -280q13 -65 15 -408v-57q0 -317 -21 -389q-39 -135 -131 -196q-93 -61 -260 -61q-166 0 -261 62t-133 195q-21 72 -21 389v57zM214 663v-37q0 -308 16 -364q24 -84 77 -121q63 -44 195 -44q133 0 193 42q51 34 76 123 q16 56 16 364v37q0 330 -13 394q-16 89 -70 129q-66 48 -209 48q-139 0 -200 -46q-51 -39 -68 -131q-13 -64 -13 -394z" />
<glyph unicode="P" horiz-adv-x="839" d="M103 0v1347h336q133 0 230 -66q111 -74 121 -205q1 -8 3 -35q4 -49 4 -89q0 -77 -15 -121q-41 -117 -192 -171q-140 -51 -360 -111v-549h-127zM230 681q196 55 317 98q91 33 113 91q10 26 10 79q0 34 -4 80q-2 25 -3 38q-6 80 -88 122q-61 31 -136 31h-209v-539z" />
<glyph unicode="Q" horiz-adv-x="1096" d="M80 673v-57q0 -317 21 -389q38 -133 133 -195t261 -62q217 0 314 108q67 -60 67 -86h128q0 86 -130 198q7 19 12 37q21 72 21 389v57q-2 343 -15 408q-53 280 -404 280q-340 0 -393 -280q-13 -65 -15 -408zM207 663q0 330 13 394q17 92 68 131q61 46 200 46 q143 0 209 -48q54 -40 70 -129q11 -58 13 -360v-79q0 -246 -11 -333q-64 65 -64 117h-127q0 -117 136 -241q-59 -64 -219 -64q-132 0 -195 44q-53 37 -77 121q-16 56 -16 364v37z" />
<glyph unicode="R" horiz-adv-x="909" d="M103 0h127v549q119 33 223 65q254 -418 254 -614h128q0 225 -259 655q13 4 14 5q143 51 186 160q21 53 21 153q0 20 -1 42q-1 38 -1 56q0 127 -113 205q-103 71 -243 71h-336v-1347zM230 681v539h209q82 0 148 -34q80 -41 80 -115q0 -21 2 -61q1 -22 1 -41 q0 -72 -12 -102q-23 -56 -111 -88q-121 -43 -317 -98z" />
<glyph unicode="S" horiz-adv-x="939" d="M43 293l122 36q31 -105 124 -161q69 -41 154 -41q46 0 97 12q115 29 165 135q31 65 31 132q0 23 -4 46q-27 166 -293 271q-135 53 -200 102q-116 86 -130 214q-2 17 -2 34q0 96 64 180q69 91 170 117q62 17 120 17q79 0 149 -32q122 -56 161 -180l-121 -38 q-23 74 -101 105q-44 17 -93 17q-40 0 -83 -11q-58 -16 -100 -71q-38 -50 -38 -105q0 -10 1 -19q8 -74 82 -129q52 -38 167 -83q334 -131 372 -369q6 -36 6 -72q0 -106 -54 -203q-79 -142 -239 -181q-65 -16 -126 -16q-149 0 -261 87q-103 81 -140 206z" />
<glyph unicode="T" horiz-adv-x="732" d="M33 1219h285v-1219h128v1219h285v127h-698v-127z" />
<glyph unicode="U" horiz-adv-x="954" d="M108 1350h127q-5 -359 -5 -600q0 -417 16 -478q24 -80 93 -125q61 -40 135 -40q81 0 142 44q60 45 82 121q16 61 16 478q0 241 -5 600h127q5 -334 5 -569q0 -470 -21 -544q-34 -117 -128 -187t-218 -70t-220 71t-130 186q-21 73 -21 544q0 235 5 569z" />
<glyph unicode="V" horiz-adv-x="1025" d="M80 1346h127q0 -286 321 -1143q316 857 316 1143h127q0 -366 -384 -1346h-118q-389 980 -389 1346z" />
<glyph unicode="W" horiz-adv-x="1421" d="M93 1350h127q0 -286 239 -1137q208 488 208 691h127q0 -204 213 -695q250 854 250 1141h127q0 -363 -305 -1341l-118 -9q-145 302 -230 578q-84 -276 -227 -578l-118 9q-293 978 -293 1341z" />
<glyph unicode="X" horiz-adv-x="1003" d="M93 0h127q0 194 273 638q274 -444 274 -638h127q0 241 -325 758q30 46 87 134q238 366 238 448h-127q-1 -46 -218 -379q-36 -55 -56 -85q-17 26 -55 85q-217 333 -218 379h-127q0 -82 238 -448q56 -86 87 -134q-325 -517 -325 -758z" />
<glyph unicode="Y" horiz-adv-x="949" d="M93 1346q0 -351 337 -732v-614h127v608q109 124 193 271q144 252 144 467h-128q0 -277 -270 -613q-276 335 -276 613h-127z" />
<glyph unicode="Z" horiz-adv-x="980" d="M93 0v64q0 130 318 658q228 378 271 495h-552v127h694v-64q0 -120 -304 -623q-244 -405 -286 -530h610v-127h-751z" />
<glyph unicode="[" horiz-adv-x="479" d="M36 -229v1807h323v-127h-196v-1553h196v-127h-323z" />
<glyph unicode="\" horiz-adv-x="569" d="M0 1347l311 -1347h127l-311 1347h-127z" />
<glyph unicode="]" horiz-adv-x="556" d="M36 -102h196v1553h-196v127h323v-1807h-323v127z" />
<glyph unicode="^" />
<glyph unicode="_" horiz-adv-x="1024" d="M0 -100h1024v-60h-1024v60z" />
<glyph unicode="`" horiz-adv-x="1024" d="M212 1363q0 31 20.5 51t53.5 20q20 0 40.5 -12t55.5 -47l291 -296h-69l-330 202q-31 20 -46.5 40t-15.5 42z" />
<glyph unicode="a" horiz-adv-x="849" d="M87 299q0 -145 82 -232q83 -87 220 -87q88 0 182 38q24 11 26 -19h127v574q0 133 -31 203q-45 103 -170 138q-58 16 -118 16q-123 0 -253 -69l60 -112q102 54 195 54q42 0 82 -11q63 -18 85 -62q22 -43 23 -150q-71 30 -179 30q-149 0 -240 -86q-91 -85 -91 -225z M214 299q0 85 55 135q55 49 149 49q132 0 179 -55v-237q-67 -84 -208 -84q-68 0 -112 34q-63 48 -63 158z" />
<glyph unicode="b" horiz-adv-x="869" d="M99 0h127q4 28 32 16q90 -38 188 -38q117 0 203 80q87 80 112 209q19 101 19 194q0 116 -30 219q-69 239 -317 239q-109 0 -207 -43v532h-127v-1408zM226 177v556q90 59 207 59q153 0 195 -147q25 -86 25 -184q0 -81 -17 -170q-16 -85 -68 -135q-52 -51 -122 -51 q-117 0 -220 72z" />
<glyph unicode="c" horiz-adv-x="806" d="M97 640q25 136 112 208q86 73 222 73q196 0 296 -154l-107 -69q-62 96 -189 96q-176 0 -210 -177q-18 -96 -18 -179q0 -91 22 -166q22 -76 79 -121q57 -44 134 -44q118 0 179 93l106 -70q-98 -150 -285 -150q-119 0 -210 70q-92 70 -126 187q-26 91 -26 198q0 96 21 205z " />
<glyph unicode="d" horiz-adv-x="889" d="M120 265q25 -129 112 -209q86 -80 203 -80q95 0 193 40q27 11 27 -18h127v1408h-127v-522q-84 34 -176 34q-18 0 -36 -1q-249 -20 -312 -239q-30 -103 -30 -219q0 -93 19 -194zM245 289q-17 89 -17 170q0 98 25 184q39 134 200 147q15 1 30 1q96 0 172 -50v-566 q-103 -72 -220 -72q-71 0 -122 51q-52 50 -68 135z" />
<glyph unicode="e" horiz-adv-x="869" d="M124 632q40 140 133 217q93 76 223 76q120 0 200 -72q80 -73 101 -201q8 -46 8 -83q0 -22 -3 -41l-6 -46l-548 -101q6 -56 19 -111q19 -76 75 -119q56 -44 134 -44q126 0 198 84l97 -82q-110 -129 -295 -129q-122 0 -213 71q-90 70 -119 188q-28 113 -28 215q0 94 24 178 zM231 510l429 80q-1 20 -5 42q-27 166 -175 166q-177 0 -234 -200q-11 -38 -15 -88z" />
<glyph unicode="f" horiz-adv-x="599" d="M56 772h137v-772h127v772h192v128h-192v170q0 91 16 135q20 53 72 75q40 16 83 16q36 0 74 -11l36 123q-56 16 -108 16q-69 0 -134 -27q-108 -45 -145 -158q-21 -63 -21 -169v-170h-137v-128z" />
<glyph unicode="g" horiz-adv-x="899" d="M114 630q-19 -101 -19 -193q0 -116 30 -220q69 -238 317 -238q109 0 207 42v-243q0 -75 -13 -102q-16 -34 -75 -58q-41 -17 -85 -17q-35 0 -73 11q-55 16 -78 46q-26 36 -31 118l-127 -8q6 -102 41 -163q48 -83 160 -115q51 -15 109 -15q71 0 132 25q104 43 141 122 q26 54 26 156v1119h-127q1 -29 -25 -18q-96 41 -195 41q-117 0 -203 -80q-87 -80 -112 -210zM239 606q16 85 68 136q51 50 122 50q117 0 220 -71v-556q-91 -59 -207 -59q-153 0 -195 147q-25 86 -25 184q0 80 17 169z" />
<glyph unicode="h" horiz-adv-x="847" d="M104 0h127v728q122 63 243 63q157 0 157 -183v-608h127v608q0 142 -78 226q-77 85 -206 85q-119 0 -243 -51v540h-127v-1408z" />
<glyph unicode="i" horiz-adv-x="389" d="M83 1133q0 36 25 61q26 26 62 26t61 -26q26 -25 26 -61t-26 -62q-25 -25 -61 -25t-62 25q-25 26 -25 62zM111 0h127v900h-127v-900z" />
<glyph unicode="j" horiz-adv-x="423" d="M-169 -513l35 122q38 -11 73 -11q44 0 84 17q53 21 72 74q17 44 17 135v1070h127v-1070q0 -258 -167 -327q-61 -25 -132 -25q-58 0 -109 15zM88 1127q0 36 26 62q25 25 61 25t62 -25q25 -26 25 -62t-25 -61q-26 -26 -62 -26t-61 26q-26 25 -26 61z" />
<glyph unicode="k" horiz-adv-x="839" d="M100 0h127v6q0 172 218 428q197 -225 197 -434h127q0 264 -239 530q2 3 6 8q5 4 7 7q223 249 223 355h-127q0 -58 -191 -270q-155 -173 -221 -302v1080h-127v-1408z" />
<glyph unicode="l" horiz-adv-x="393" d="M96 224v1184h127v-1184q0 -68 29 -96q21 -21 56 -21h3l2 -127h-3q-90 0 -148 57q-66 66 -66 187z" />
<glyph unicode="m" horiz-adv-x="1272" d="M96 0h127v731q99 60 216 60q63 0 95 -29q44 -41 44 -145v-617h127v617q0 70 -17 125q76 49 188 49q166 0 166 -174v-617h127v617q0 138 -79 220q-80 82 -214 82q-145 0 -253 -67q-69 67 -184 67q-92 0 -189 -34q-28 -10 -27 15h-127v-900z" />
<glyph unicode="n" horiz-adv-x="862" d="M100 0h127v713q116 72 237 79h17q65 0 95 -28q42 -39 42 -151v-613h127v613q0 167 -82 243q-67 64 -182 63h-24q-75 -5 -193 -45q-38 -14 -37 26h-127v-900z" />
<glyph unicode="o" horiz-adv-x="879" d="M108 643q25 136 113 209q86 73 222 73q132 0 228 -77q96 -79 120 -205q21 -109 20 -204q0 -109 -26 -201q-35 -121 -124 -189q-88 -69 -211 -69q-119 0 -210 71q-93 70 -127 187q-26 91 -26 199q0 96 21 206zM233 620q-19 -97 -19 -180q0 -91 23 -166q22 -77 79 -122 q57 -44 134 -44q164 0 212 166q21 74 21 165q0 84 -18 181q-15 82 -75 129q-59 49 -147 49q-176 0 -210 -178z" />
<glyph unicode="p" horiz-adv-x="859" d="M104 -515h127v532q98 -42 207 -42q248 0 317 238q30 104 30 220q0 92 -19 193q-25 130 -112 210q-86 79 -203 79q-99 0 -196 -40q-24 -11 -24 18h-127v-1408zM231 160v557q103 71 220 71q70 0 122 -50q52 -51 68 -136q17 -89 17 -169q0 -98 -25 -184q-42 -147 -195 -147 q-117 0 -207 58z" />
<glyph unicode="q" horiz-adv-x="893" d="M102 626q-19 -101 -19 -194q0 -116 30 -219q68 -238 317 -238q109 0 207 42v-532h127v1408h-127q1 -29 -23 -19q-98 41 -197 41q-117 0 -203 -79q-87 -80 -112 -210zM227 602q16 85 68 136q51 50 122 50q117 0 220 -71v-557q-90 -58 -207 -58q-153 0 -195 147 q-25 86 -25 184q0 80 17 169z" />
<glyph unicode="r" horiz-adv-x="649" d="M100 0h127v698q114 68 194 86q14 3 28 3q62 0 118 -66l97 83q-95 111 -212 111q-29 0 -60 -7q-56 -13 -140 -52q-25 -12 -25 11v33h-127v-900z" />
<glyph unicode="s" horiz-adv-x="680" d="M67 74l87 93q63 -59 172 -60h2q84 0 134 53q36 39 36 91v11q-8 114 -177 182l-7 3q-95 38 -137 72q-72 58 -80 149q-1 11 -1 22q0 68 43 127q50 67 131 87q40 10 78 10q117 0 219 -90l-83 -95q-65 57 -137 57q-23 0 -47 -6q-33 -8 -55 -34q-22 -27 -22 -59v-8 q4 -39 37 -64q26 -20 102 -50l7 -3q243 -98 256 -291q1 -9 0 -19q0 -103 -71 -179q-88 -93 -226 -93h-3q-159 1 -258 94z" />
<glyph unicode="t" horiz-adv-x="549" d="M53 773h158v-546q0 -128 72 -193q61 -54 163 -54q23 0 47 3l-14 126q-19 -2 -35 -2q-52 0 -76 22q-30 27 -30 98v546h171v127h-171v329h-127v-329h-158v-127z" />
<glyph unicode="u" horiz-adv-x="856" d="M107 281q0 -141 73 -221t202 -80q108 0 223 49q30 13 29 -30h127v900h-127v-713q-129 -79 -252 -79q-148 0 -148 174v618h-127v-618z" />
<glyph unicode="v" horiz-adv-x="872" d="M83 898h127q0 -180 240 -737q237 557 237 737h127q0 -227 -305 -898h-116q-310 671 -310 898z" />
<glyph unicode="w" horiz-adv-x="1355" d="M90 898h127q0 -174 228 -709l189 647h122l191 -646q225 535 225 708h127q0 -227 -305 -898h-119l-179 593l-177 -593h-119q-310 671 -310 898z" />
<glyph unicode="x" horiz-adv-x="899" d="M90 0h127q0 150 228 398q229 -248 229 -398h127q0 201 -268 491q1 0 2 2q2 1 2 2q137 142 185 208q79 108 79 191h-127q0 -73 -228 -311h-1q-228 238 -228 311h-127q0 -83 79 -191q48 -66 184 -208q1 -1 3 -2q1 -2 2 -2q-268 -290 -268 -491z" />
<glyph unicode="y" horiz-adv-x="868" d="M95 895q-8 -219 -8 -370q0 -242 20 -310q68 -239 299 -239q105 0 198 40v-241q0 -75 -13 -101q-16 -34 -76 -59q-16 -7 -47 -7q-74 0 -231 42l-32 -123q161 -43 270 -43q57 0 89 13q104 44 141 122q26 55 26 156v1118h-127v-733q-83 -57 -198 -57q-74 0 -114 33 q-40 34 -63 114q-16 52 -16 256q0 150 9 384z" />
<glyph unicode="z" horiz-adv-x="781" d="M100 0h639v127h-496q37 85 220 292q255 289 255 416v63h-581v-127h436q-37 -77 -206 -268q-135 -153 -185 -226q-82 -122 -82 -213v-64z" />
<glyph unicode="{" horiz-adv-x="645" d="M0 605v120q119 42 164 110q38 57 38 159v342q0 128 48 211q67 118 238 179l43 -120q-119 -43 -164 -111q-38 -56 -38 -159v-342q0 -222 -163 -329q163 -107 163 -330v-342q0 -102 38 -159q45 -68 164 -110l-43 -120q-171 61 -238 179q-48 83 -48 210v342q0 103 -38 159 q-45 68 -164 111z" />
<glyph unicode="|" horiz-adv-x="400" d="M9 -364h127v1971h-127v-1971z" />
<glyph unicode="}" horiz-adv-x="703" d="M0 -276q119 42 164 110q38 57 38 159v342q0 223 163 330q-163 107 -163 329v342q0 103 -38 159q-45 68 -164 111l43 120q171 -61 238 -179q48 -83 48 -211v-342q0 -102 38 -159q45 -68 164 -110v-120q-119 -43 -164 -111q-38 -56 -38 -159v-342q0 -127 -48 -210 q-67 -118 -238 -179z" />
<glyph unicode="~" d="M94 556v156q64 73 123 99t114 26q64 0 181.5 -49.5t172.5 -49.5q52 0 108.5 28t129.5 112v-156q-63 -72 -122 -97.5t-116 -25.5q-60 0 -177.5 48.5t-176.5 48.5q-51 0 -107.5 -28t-129.5 -112z" />
<glyph unicode="&#xa1;" horiz-adv-x="463" d="M46 895q0 36 26 62q25 25 61 25t62 -25q25 -26 25 -62t-25 -61q-26 -26 -62 -26t-61 26q-26 25 -26 61zM74 -470h127v1132h-127v-1132z" />
<glyph unicode="&#xa2;" horiz-adv-x="1139" />
<glyph unicode="&#xa3;" horiz-adv-x="865" d="M90 656h128q-10 -59 -38 -185q-61 -275 -61 -409v-62h642v123h-516q8 104 56 321q32 144 42 212h200v124h-189q1 67 -12 120q-2 7 -8 30q-34 134 -28 212q3 47 28 73q47 49 166 50q122 -1 170 -51q26 -26 29 -72l123 10q-8 110 -91 172t-226 64h-10q-141 -2 -222 -64 q-82 -62 -90 -172q-8 -99 31 -252q7 -26 8 -30q9 -38 9 -90h-141v-124z" />
<glyph unicode="&#xa4;" d="M122 413l118 117q-32 46 -48 103q-12 42 -12 84q0 44 13 87q16 55 47 99l-118 118l80 81l118 -118q44 30 99 46q44 14 89 14q41 0 83 -12q57 -17 102 -48l118 118l80 -81l-117 -117q31 -46 48 -102q12 -42 12 -85q0 -42 -12 -85q-17 -56 -48 -102l117 -117l-80 -81 l-118 118q-45 -32 -101 -48q-42 -12 -85 -12q-42 0 -85 12q-57 16 -102 48l-118 -118zM284 716q0 -28 9 -56q16 -59 57 -100q41 -40 99 -57q29 -8 58 -8t58 8q58 17 99 57q40 41 57 99q9 29 9 58t-9 58q-17 58 -57 99q-41 40 -100 57q-29 8 -58 8t-58 -9q-58 -17 -98 -56 q-39 -40 -56 -98q-10 -30 -10 -60z" />
<glyph unicode="&#xa5;" horiz-adv-x="1096" d="M104 353h379v-353h127v353h378v127h-378v128q1 1 3 4h375v127h-275q233 328 233 607h-127q0 -273 -265 -607h-11q-270 333 -270 607h-127q0 -279 237 -607h-279v-127h379v-132h-379v-127z" />
<glyph unicode="&#xa6;" d="M427 371h160v-789h-160v789zM427 789v789h160v-789h-160z" />
<glyph unicode="&#xa7;" d="M170 1130q0 148 89 237q82 79 216 86q8 1 17 1h3q66 0 163 -16.5t97 -41.5v-194h-51q-5 81 -80 132q-70 47 -149 51h-15q-78 0 -125 -44.5t-47 -117.5q0 -132 287 -269q149 -67 204.5 -143.5t55.5 -187.5q0 -171 -101 -282q-47 -39 -99 -64q108 -56 154 -118 q55 -77 55 -187q0 -171 -101 -283q-124 -102 -277 -105v1q-6 -1 -13 -1h-3q-66 0 -163 16.5t-97 41.5v194h51q5 -81 80 -132q68 -45 145 -50q113 6 185 69q72 64 72 165q0 125 -316 276q-123 64 -175.5 137t-52.5 177q0 148 89 237q67 65 170 82l-40 19q-123 64 -175.5 137 t-52.5 177zM297 571q0 -123 248 -250q56 16 97 53q73 65 73 166q0 5 -1 10h-2q-1 14 -4 27q-22 61 -113 127q-59 29 -126 29q-78 0 -125 -44.5t-47 -117.5z" />
<glyph unicode="&#xa8;" horiz-adv-x="1024" d="M209 1263q0 13 14 26l71 72q13 12 25 12q11 0 27 -14l69 -73q10 -14 10 -25q0 -13 -12 -27l-69 -75q-17 -17 -25 -17q-14 0 -25 12l-76 86q-9 12 -9 23zM574 1263q0 13 14 26l71 72q13 12 25 12q11 0 27 -13l69 -74q10 -14 10 -25q0 -13 -12 -26l-69 -76q-17 -17 -25 -17 q-14 0 -25 12l-76 87q-9 11 -9 22z" />
<glyph unicode="&#xa9;" horiz-adv-x="1654" d="M103 667q0 289 205 493q96 97 221 150q130 55 271 55q289 0 493 -205q97 -96 150 -221q55 -130 55 -272q0 -288 -205 -492q-96 -97 -221 -150q-130 -55 -272 -55q-288 0 -492 205q-97 96 -150 221q-55 130 -55 271zM202 667q0 -247 176 -422q175 -176 422 -176 q248 0 423 176q176 175 176 422q0 248 -176 423q-175 176 -423 176q-247 0 -422 -176q-176 -175 -176 -423zM503 668q1 103 14 169q23 120 100 185q76 64 198 64q83 0 152 -35q69 -36 111 -101l-95 -62q-55 85 -168 85q-81 0 -126 -38q-46 -39 -61 -119q-10 -55 -11 -148 q-2 -106 14 -159q19 -68 71 -108q51 -39 119 -39q105 0 159 82l95 -62q-87 -133 -254 -133q-106 0 -188 62q-81 62 -111 166q-20 69 -19 191z" />
<glyph unicode="&#xaa;" horiz-adv-x="648" />
<glyph unicode="&#xab;" horiz-adv-x="944" d="M174 479l342 303h14v-37l-205 -266l205 -266v-37h-14zM487 479l342 303h14v-37l-205 -266l205 -266v-37h-14z" />
<glyph unicode="&#xac;" d="M87 667v100h840v-491l-1 -1h-98v392h-741z" />
<glyph unicode="&#xad;" horiz-adv-x="670" d="M116 437v83q0 29 41 29h356q41 0 41 -29v-83q0 -28 -40 -28h-358q-40 0 -40 28z" />
<glyph unicode="&#xae;" horiz-adv-x="1641" d="M97 674q0 287 203 490q97 97 221 149q129 55 270 55q287 0 490 -204q97 -96 149 -220q55 -129 55 -270q0 -287 -204 -491q-96 -96 -220 -148q-129 -55 -270 -55q-287 0 -491 203q-96 97 -148 221q-55 129 -55 270zM196 674q0 -246 174 -421q175 -174 421 -174t421 174 q174 175 174 421t-174 421q-175 174 -421 174t-421 -174q-174 -175 -174 -421zM549 260h112v201q85 23 170 49q10 -18 37 -62q27 -43 40 -66q44 -78 44 -122h121q0 40 -48 129q-4 8 -43 78q-27 49 -42 80q5 1 12 4q166 59 166 273q0 123 -100 197q-90 67 -215 67h-254v-828z M661 578v397h142q74 0 130 -32q72 -41 72 -119q0 -59 -11 -89q-20 -57 -80 -78q-111 -40 -253 -79z" />
<glyph unicode="&#xaf;" horiz-adv-x="670" />
<glyph unicode="&#xb0;" horiz-adv-x="674" d="M60 1164q0 116 81.5 197t197.5 81q115 0 196 -81.5t81 -196.5q0 -114 -82 -196t-197 -82q-117 0 -197 81t-80 197zM130 1163q0 -87 61 -147t148 -60t147 60t60 147t-60.5 148t-146.5 61t-147.5 -61t-61.5 -148z" />
<glyph unicode="&#xb1;" />
<glyph unicode="&#xb2;" />
<glyph unicode="&#xb3;" />
<glyph unicode="&#xb4;" horiz-adv-x="1024" d="M316 1078l291 297q35 35 55.5 47t40.5 12q33 0 53.5 -20t20.5 -51q0 -22 -15.5 -42t-46.5 -40l-330 -203h-69z" />
<glyph unicode="&#xb5;" horiz-adv-x="1180" />
<glyph unicode="&#xb6;" horiz-adv-x="1024" d="M93 1086q0 157 107.5 253t285.5 96h443v-70h-127v-1365h-82v1365h-166v-1365h-84v738q-174 8 -275.5 102.5t-101.5 245.5z" />
<glyph unicode="&#xb7;" horiz-adv-x="508" d="M129 709q0 15 16 31l82 84q15 14 29 14q13 0 31 -16l80 -86q12 -16 12 -29q0 -15 -14 -31l-80 -88q-20 -20 -29 -20q-16 0 -29 14l-88 101q-10 13 -10 26z" />
<glyph unicode="&#xb8;" horiz-adv-x="1024" d="M360 -290q85 -52 152 -52q66 0 94.5 21.5t28.5 66.5t-49 64q-40 16 -102 16q-16 0 -34 -2l48 176h63l-37 -104q32 4 62 5q86 0 134 -40.5t48 -113.5q0 -76 -58.5 -120.5t-160.5 -44.5q-109 0 -189 32v96z" />
<glyph unicode="&#xb9;" />
<glyph unicode="&#xba;" horiz-adv-x="718" />
<glyph unicode="&#xbb;" horiz-adv-x="944" d="M101 176v37l205 266l-205 266v37h14l342 -303l-342 -303h-14zM414 176v37l205 266l-205 266v37h14l342 -303l-342 -303h-14z" />
<glyph unicode="&#xbc;" horiz-adv-x="1708" />
<glyph unicode="&#xbd;" horiz-adv-x="1964" />
<glyph unicode="&#xbe;" horiz-adv-x="1708" />
<glyph unicode="&#xbf;" horiz-adv-x="748" />
<glyph unicode="&#xc0;" horiz-adv-x="1119" d="M103 0h127q0 134 80 421h502q82 -287 82 -421h127q0 349 -403 1347h-118q-397 -998 -397 -1347zM347 548q84 275 212 616q130 -341 215 -616h-427zM411 1694l156 -252h150l-157 252h-149z" />
<glyph unicode="&#xc1;" horiz-adv-x="1112" d="M100 0h127q0 134 80 421h502q82 -287 82 -421h127q0 349 -403 1347h-118q-397 -998 -397 -1347zM344 548q84 275 212 616q130 -341 215 -616h-427zM403 1442l156 252h149l-156 -252h-149z" />
<glyph unicode="&#xc2;" horiz-adv-x="1109" d="M97 0h127q0 134 80 421h502q82 -287 82 -421h127q0 349 -403 1347h-118q-397 -998 -397 -1347zM276 1442h149l131 211l130 -211h150l-157 252h-247zM341 548q84 275 212 616q130 -341 215 -616h-427z" />
<glyph unicode="&#xc3;" horiz-adv-x="1112" d="M100 0h127q0 134 80 421h502q82 -287 82 -421h127q0 349 -403 1347h-118q-397 -998 -397 -1347zM305 1446q0 124 92 168q46 21 151 21q79 1 100 11q23 11 23 62h127q0 -130 -94 -176q-48 -23 -156 -24q-75 1 -96 -9q-20 -10 -20 -53h-127zM344 548q84 275 212 616 q130 -341 215 -616h-427z" />
<glyph unicode="&#xc4;" horiz-adv-x="1119" d="M103 0h127q0 134 80 421h502q82 -287 82 -421h127q0 349 -403 1347h-118q-397 -998 -397 -1347zM326 1639q0 36 25 61q26 26 62 26t62 -26q25 -25 25 -61t-25 -62q-26 -25 -62 -25t-62 25q-25 26 -25 62zM347 548q84 275 212 616q130 -341 215 -616h-427zM624 1639 q0 36 25 61q26 26 62 26t61 -26q26 -25 26 -61t-26 -62q-25 -25 -61 -25t-62 25q-25 26 -25 62z" />
<glyph unicode="&#xc5;" horiz-adv-x="1108" d="M100 0h127q0 134 80 421h502q82 -287 82 -421h127q0 367 -403 1365l-118 -1q-397 -998 -397 -1364zM344 548q84 275 212 616q130 -341 215 -616h-427zM438 1607q0 -50 36 -85q35 -35 85 -35t85 35t35 85t-35 85q-35 36 -85 36t-85 -36q-36 -35 -36 -85zM502 1607 q0 24 17 40q16 17 40 17q23 0 40 -17q17 -16 17 -40q0 -23 -17 -40t-40 -17q-24 0 -40 17q-17 17 -17 40z" />
<glyph unicode="&#xc6;" horiz-adv-x="1515" d="M94 4h127q0 136 110 421h441l59 -425h564v127h-453l-81 576h372v128h-389l-55 389h526v128h-683l-18 -33q-138 -250 -268 -533q-252 -549 -252 -778zM383 552q116 272 287 599l84 -599h-371z" />
<glyph unicode="&#xc7;" horiz-adv-x="1399" />
<glyph unicode="&#xc8;" horiz-adv-x="900" d="M99 0h662v127h-535v576h445v128h-445v389h490v128h-617v-1348zM301 1694l156 -252h149l-156 252h-149z" />
<glyph unicode="&#xc9;" horiz-adv-x="900" d="M100 0h662v127h-535v576h445v128h-445v389h490v128h-617v-1348zM281 1442h149l156 252h-149z" />
<glyph unicode="&#xca;" horiz-adv-x="900" d="M96 0h662v127h-535v576h445v128h-445v389h490v128h-617v-1348zM137 1442h149l131 211l130 -211h149l-156 252h-247z" />
<glyph unicode="&#xcb;" horiz-adv-x="900" d="M103 0h662v127h-535v576h445v128h-445v389h490v128h-617v-1348zM198 1639q0 36 26 61q25 26 61 26t62 -26q25 -25 25 -61t-25 -62q-26 -25 -62 -25t-61 25q-26 26 -26 62zM496 1639q0 36 25 61q26 26 62 26t61 -26q26 -25 26 -61t-26 -62q-25 -25 -61 -25t-62 25 q-25 26 -25 62z" />
<glyph unicode="&#xcc;" horiz-adv-x="400" d="M0 1694l156 -252h149l-156 252h-149zM70 0h127v1346h-127v-1346z" />
<glyph unicode="&#xcd;" horiz-adv-x="397" d="M0 1442h149l156 252h-149zM71 0h127v1346h-127v-1346z" />
<glyph unicode="&#xce;" horiz-adv-x="600" d="M0 1442h149l131 211l130 -211h149l-156 252h-247zM211 0h127v1346h-127v-1346z" />
<glyph unicode="&#xcf;" horiz-adv-x="603" d="M0 1638q0 36 25 62q26 25 62 25t62 -25q25 -26 25 -62t-25 -61q-26 -26 -62 -26t-62 26q-25 25 -25 61zM172 0h127v1346h-127v-1346zM298 1638q0 36 25 62q26 25 62 25t61 -25q26 -26 26 -62t-26 -61q-25 -26 -61 -26t-62 26q-25 25 -25 61z" />
<glyph unicode="&#xd0;" horiz-adv-x="1518" />
<glyph unicode="&#xd1;" horiz-adv-x="1554" />
<glyph unicode="&#xd2;" horiz-adv-x="1038" d="M93 683q2 343 15 408q53 280 393 280q351 0 404 -280q13 -65 15 -408q2 -368 -21 -446q-39 -135 -131 -196q-93 -61 -260 -61q-166 0 -261 62t-133 195q-23 78 -21 446zM220 673q-1 -342 16 -401q24 -84 77 -121q63 -44 195 -44q133 0 193 42q51 34 76 123q17 59 16 401 q0 330 -13 394q-16 89 -70 129q-66 48 -209 48q-139 0 -200 -46q-51 -39 -68 -131q-13 -64 -13 -394zM390 1695l156 -252h149l-156 252h-149z" />
<glyph unicode="&#xd3;" horiz-adv-x="1041" d="M87 683q2 343 15 408q53 280 393 280q351 0 404 -280q13 -65 15 -408q2 -368 -21 -446q-39 -135 -131 -196q-93 -61 -260 -61q-166 0 -261 62t-133 195q-23 78 -21 446zM214 673q-1 -342 16 -401q24 -84 77 -121q63 -44 195 -44q133 0 193 42q51 34 76 123q17 59 16 401 q0 330 -13 394q-16 89 -70 129q-66 48 -209 48q-139 0 -200 -46q-51 -39 -68 -131q-13 -64 -13 -394zM255 1443l156 252h150l-157 -252h-149z" />
<glyph unicode="&#xd4;" horiz-adv-x="1041" d="M97 683q2 343 15 408q53 280 393 280q351 0 404 -280q13 -65 15 -408q2 -368 -21 -446q-39 -135 -131 -196q-93 -61 -260 -61q-166 0 -261 62t-133 195q-23 78 -21 446zM224 673q-1 -342 16 -401q24 -84 77 -121q63 -44 195 -44q133 0 193 42q51 34 76 123q17 59 16 401 q0 330 -13 394q-16 89 -70 129q-66 48 -209 48q-139 0 -200 -46q-51 -39 -68 -131q-13 -64 -13 -394zM231 1443h149l130 211l131 -211h149l-156 252h-247z" />
<glyph unicode="&#xd5;" horiz-adv-x="1035" d="M90 683q2 343 15 408q53 280 393 280q351 0 404 -280q13 -65 15 -408q2 -368 -21 -446q-39 -135 -131 -196q-93 -61 -260 -61q-166 0 -261 62t-133 195q-23 78 -21 446zM217 673q-1 -342 16 -401q24 -84 77 -121q63 -44 195 -44q133 0 193 42q51 34 76 123q17 59 16 401 q0 330 -13 394q-16 89 -70 129q-66 48 -209 48q-139 0 -200 -46q-51 -39 -68 -131q-13 -64 -13 -394zM257 1447q0 124 92 168q46 21 151 21q79 1 100 11q23 11 23 63h127q0 -131 -94 -177q-48 -23 -156 -24q-75 1 -96 -9q-20 -9 -20 -53h-127z" />
<glyph unicode="&#xd6;" horiz-adv-x="1028" d="M90 683q2 343 15 408q53 280 393 280q351 0 404 -280q13 -65 15 -408q2 -368 -21 -446q-39 -135 -131 -196q-93 -61 -260 -61q-166 0 -261 62t-133 195q-23 78 -21 446zM217 673q-1 -342 16 -401q24 -84 77 -121q63 -44 195 -44q133 0 193 42q51 34 76 123q17 59 16 401 q0 330 -13 394q-16 89 -70 129q-66 48 -209 48q-139 0 -200 -46q-51 -39 -68 -131q-13 -64 -13 -394zM268 1640q0 36 25 61q26 26 62 26t61 -26q26 -25 26 -61t-26 -62q-25 -25 -61 -25t-62 25q-25 26 -25 62zM565 1640q0 36 26 61q25 26 61 26t62 -26q25 -25 25 -61 t-25 -62q-26 -25 -62 -25t-61 25q-26 26 -26 62z" />
<glyph unicode="&#xd7;" d="M161 470l247 247l-247 248l99 98l247 -247l248 247l98 -99l-247 -247l247 -247l-99 -99l-247 247l-247 -247z" />
<glyph unicode="&#xd8;" horiz-adv-x="1177" d="M100 2h127q0 53 23 119q97 -141 342 -141q167 0 260 61t132 196q22 78 20 446q-2 343 -14 408q-1 1 -5 18q96 145 96 239h-127q0 -39 -33 -101q-101 124 -336 124q-340 0 -393 -280q-56 -296 -3 -799q-89 -163 -89 -290zM306 473q-12 476 11 594q17 92 68 131 q61 46 200 46q209 0 260 -113q-66 -91 -241 -293q-210 -244 -298 -365zM321 267q94 157 379 488q119 138 172 203q23 -570 -10 -686q-26 -89 -77 -123q-60 -42 -193 -42q-130 0 -193 43q-53 36 -78 117z" />
<glyph unicode="&#xd9;" horiz-adv-x="941" d="M95 1370h127q-15 -982 11 -1078q24 -80 93 -125q61 -40 135 -40q81 0 142 44q60 45 82 121q26 96 11 1078h127q16 -1003 -16 -1113q-34 -117 -128 -187t-218 -70t-220 71t-130 186q-32 110 -16 1113zM371 1716l156 -252h149l-156 252h-149z" />
<glyph unicode="&#xda;" horiz-adv-x="935" d="M102 1351h127q-15 -982 11 -1078q24 -80 93 -125q61 -40 135 -40q81 0 142 44q60 45 82 121q26 96 11 1078h127q16 -1003 -16 -1113q-34 -117 -128 -187t-218 -70t-220 71t-130 186q-32 110 -16 1113zM226 1445l156 252h149l-156 -252h-149z" />
<glyph unicode="&#xdb;" horiz-adv-x="961" d="M101 1348h127q-15 -982 11 -1078q24 -80 93 -125q61 -40 135 -40q81 0 142 44q60 45 82 121q26 96 11 1078h127q16 -1003 -16 -1113q-34 -117 -128 -187t-218 -70t-220 71t-130 186q-32 110 -16 1113zM185 1442h150l130 211l131 -211h149l-156 252h-247z" />
<glyph unicode="&#xdc;" horiz-adv-x="1501" d="M102 1350h127q-15 -982 11 -1078q24 -80 93 -125q61 -40 135 -40q81 0 142 44q60 45 82 121q26 96 11 1078h127q16 -1003 -16 -1113q-34 -117 -128 -187t-218 -70t-220 71t-130 186q-32 110 -16 1113zM230 1641q0 36 26 61q25 26 61 26t62 -26q25 -25 25 -61t-25 -62 q-26 -25 -62 -25t-61 25q-26 26 -26 62zM528 1641q0 36 25 61q26 26 62 26t62 -26q25 -25 25 -61t-25 -62q-26 -25 -62 -25t-62 25q-25 26 -25 62z" />
<glyph unicode="&#xdd;" horiz-adv-x="1233" />
<glyph unicode="&#xde;" horiz-adv-x="1120" />
<glyph unicode="&#xdf;" horiz-adv-x="1251" />
<glyph unicode="&#xe0;" horiz-adv-x="838" d="M86 299q0 -145 82 -232q83 -87 220 -87q88 0 182 38q24 11 26 -19h127v574q0 133 -31 203q-45 103 -170 138q-177 50 -371 -53l60 -112q149 79 277 43q63 -18 85 -62q22 -43 23 -150q-71 30 -179 30q-149 0 -240 -86q-91 -85 -91 -225zM213 299q0 85 55 135q55 49 149 49 q132 0 179 -55v-237q-67 -84 -208 -84q-68 0 -112 34q-63 48 -63 158zM280 1313l156 -252h149l-156 252h-149z" />
<glyph unicode="&#xe1;" horiz-adv-x="825" d="M83 299q0 -145 82 -232q83 -87 220 -87q88 0 182 38q24 11 26 -19h127v574q0 133 -31 203q-45 103 -170 138q-177 50 -371 -53l60 -112q149 79 277 43q63 -18 85 -62q22 -43 23 -150q-71 30 -179 30q-149 0 -240 -86q-91 -85 -91 -225zM210 299q0 85 55 135q55 49 149 49 q132 0 179 -55v-237q-67 -84 -208 -84q-68 0 -112 34q-63 48 -63 158zM282 1061l156 252h149l-156 -252h-149z" />
<glyph unicode="&#xe2;" horiz-adv-x="832" d="M90 299q0 -145 82 -232q83 -87 220 -87q88 0 182 38q24 11 26 -19h127v574q0 133 -31 203q-45 103 -170 138q-177 50 -371 -53l60 -112q149 79 277 43q63 -18 85 -62q22 -43 23 -150q-71 30 -179 30q-149 0 -240 -86q-91 -85 -91 -225zM129 1061h149l131 211l130 -211 h149l-156 252h-247zM217 299q0 85 55 135q55 49 149 49q132 0 179 -55v-237q-67 -84 -208 -84q-68 0 -112 34q-63 48 -63 158z" />
<glyph unicode="&#xe3;" horiz-adv-x="829" d="M97 299q0 -145 82 -232q83 -87 220 -87q88 0 182 38q24 11 26 -19h127v574q0 133 -31 203q-45 103 -170 138q-177 50 -371 -53l60 -112q149 79 277 43q63 -18 85 -62q22 -43 23 -150q-71 30 -179 30q-149 0 -240 -86q-91 -85 -91 -225zM152 1050q0 125 93 168 q45 22 150 22q80 1 100 11q23 11 23 62h127q0 -131 -94 -177q-47 -23 -156 -23q-75 0 -96 -10q-19 -9 -19 -53h-128zM224 299q0 85 55 135q55 49 149 49q132 0 179 -55v-237q-67 -84 -208 -84q-68 0 -112 34q-63 48 -63 158z" />
<glyph unicode="&#xe4;" horiz-adv-x="825" d="M93 299q0 -145 82 -232q83 -87 220 -87q88 0 182 38q24 11 26 -19h127v574q0 133 -31 203q-45 103 -170 138q-177 50 -371 -53l60 -112q149 79 277 43q63 -18 85 -62q22 -43 23 -150q-71 30 -179 30q-149 0 -240 -86q-91 -85 -91 -225zM176 1226q0 36 25 62q26 25 62 25 t61 -25q26 -26 26 -62t-26 -62q-25 -25 -61 -25t-62 25q-25 26 -25 62zM220 299q0 85 55 135q55 49 149 49q132 0 179 -55v-237q-67 -84 -208 -84q-68 0 -112 34q-63 48 -63 158zM473 1226q0 36 26 62q25 25 61 25q37 0 62 -25q25 -26 25 -62t-25 -62q-25 -25 -62 -25 q-36 0 -61 25q-26 26 -26 62z" />
<glyph unicode="&#xe5;" horiz-adv-x="826" d="M93 299q0 -145 82 -232q83 -87 220 -87q100 0 187 41q21 10 21 -22h127v574q0 300 -220 342q-184 36 -361 -100l78 -101q132 101 259 76q60 -11 85 -51q31 -48 32 -159q-71 30 -179 30q-149 0 -240 -86q-91 -85 -91 -225zM220 299q0 85 55 135q55 49 149 49 q132 0 179 -55v-237q-67 -84 -208 -84q-68 0 -112 34q-63 48 -63 158zM273 1159q0 -64 45 -110q45 -45 109 -45t109 45q46 46 46 110q0 63 -46 109q-45 45 -109 45t-109 -45q-45 -46 -45 -109zM368 1159q0 24 18 41q17 18 41 18q25 0 42 -18q17 -17 17 -41q0 -25 -17 -42 t-42 -17q-24 0 -41 17q-18 17 -18 42z" />
<glyph unicode="&#xe6;" horiz-adv-x="1351" d="M93 289q0 -145 82 -232q83 -87 220 -87q176 0 285 107q98 -107 251 -107q186 0 295 129l-97 82q-71 -84 -198 -84q-78 0 -134 44q-56 43 -74 119q-14 55 -19 111l547 101l7 46q7 51 -5 124q-21 128 -101 201q-80 72 -201 72q-166 0 -269 -123q-55 91 -172 113 q-184 36 -361 -100l78 -101q131 101 259 76q99 -19 113 -146q-5 -16 -3 -12q-6 -19 -11 -45q-66 23 -161 23q-149 0 -240 -86q-91 -85 -91 -225zM220 289q0 85 55 135q55 49 149 49q101 0 149 -30q0 -107 26 -214q5 -19 13 -41l-2 2q-26 -40 -88 -66q-61 -27 -127 -27 q-68 0 -112 34q-63 48 -63 158zM703 500q4 50 15 88q57 200 233 200q149 0 176 -166q4 -22 5 -42z" />
<glyph unicode="&#xe7;" horiz-adv-x="905" />
<glyph unicode="&#xe8;" horiz-adv-x="874" d="M124 632q40 140 133 217q93 76 223 76q120 0 200 -72t101 -201q12 -73 5 -124l-6 -46l-548 -101q6 -56 19 -111q19 -76 75 -119q56 -44 134 -44q126 0 198 84l97 -82q-110 -129 -295 -129q-122 0 -213 71q-90 70 -119 188q-54 218 -4 393zM231 510l429 80q-1 20 -5 42 q-27 166 -175 166q-177 0 -234 -200q-11 -38 -15 -88zM309 1313l156 -252h149l-156 252h-149z" />
<glyph unicode="&#xe9;" horiz-adv-x="880" d="M120 632q40 140 133 217q93 76 223 76q120 0 200 -72t101 -201q12 -73 5 -124l-6 -46l-548 -101q6 -56 19 -111q19 -76 75 -119q56 -44 134 -44q126 0 198 84l97 -82q-110 -129 -295 -129q-122 0 -213 71q-90 70 -119 188q-54 218 -4 393zM227 510l429 80q-1 20 -5 42 q-27 166 -175 166q-177 0 -234 -200q-11 -38 -15 -88zM255 1061l156 252h149l-156 -252h-149z" />
<glyph unicode="&#xea;" horiz-adv-x="877" d="M104 632q40 140 133 217q93 76 223 76q120 0 200 -72t101 -201q12 -73 5 -124l-6 -46l-548 -101q6 -56 19 -111q19 -76 75 -119q56 -44 134 -44q126 0 198 84l97 -82q-110 -129 -295 -129q-122 0 -213 71q-90 70 -119 188q-54 218 -4 393zM145 1061h149l131 211l130 -211 h150l-156 252h-248zM211 510l429 80q-1 20 -5 42q-27 166 -175 166q-177 0 -234 -200q-11 -38 -15 -88z" />
<glyph unicode="&#xeb;" horiz-adv-x="877" d="M114 632q40 140 133 217q93 76 223 76q120 0 200 -72t101 -201q12 -73 5 -124l-6 -46l-548 -101q6 -56 19 -111q19 -76 75 -119q56 -44 134 -44q126 0 198 84l97 -82q-110 -129 -295 -129q-122 0 -213 71q-90 70 -119 188q-54 218 -4 393zM199 1226q0 36 25 62 q26 25 62 25t62 -25q25 -26 25 -62t-25 -62q-26 -25 -62 -25t-62 25q-25 26 -25 62zM221 510l429 80q-1 20 -5 42q-27 166 -175 166q-177 0 -234 -200q-11 -38 -15 -88zM497 1226q0 36 25 62q26 25 62 25t61 -25q26 -26 26 -62t-26 -62q-25 -25 -61 -25t-62 25 q-25 26 -25 62z" />
<glyph unicode="&#xec;" horiz-adv-x="400" d="M0 1314l156 -252h149l-156 252h-149zM29 0h127v900h-127v-900z" />
<glyph unicode="&#xed;" horiz-adv-x="400" d="M0 1062h149l156 252h-149zM79 0h127v900h-127v-900z" />
<glyph unicode="&#xee;" horiz-adv-x="600" d="M0 1062h149l131 211l130 -211h149l-156 252h-247zM216 0h127v900h-127v-900z" />
<glyph unicode="&#xef;" horiz-adv-x="506" d="M0 1227q0 36 25 62q26 25 62 25t62 -25q25 -26 25 -62t-25 -61q-26 -26 -62 -26t-62 26q-25 25 -25 61zM172 0h127v900h-127v-900zM298 1227q0 36 25 62q26 25 62 25t61 -25q26 -26 26 -62t-26 -61q-25 -26 -61 -26t-62 26q-25 25 -25 61z" />
<glyph unicode="&#xf0;" horiz-adv-x="1139" />
<glyph unicode="&#xf1;" horiz-adv-x="1108" />
<glyph unicode="&#xf2;" horiz-adv-x="896" d="M111 640q25 136 112 208q86 73 222 73q131 0 227 -77q95 -78 119 -204q44 -231 -6 -403q-35 -121 -123 -189t-210 -68q-119 0 -210 70q-92 70 -126 187q-49 172 -5 403zM235 617q-38 -202 4 -345q22 -76 79 -121q57 -44 134 -44q163 0 211 165q41 143 3 345 q-15 82 -75 129q-59 48 -146 48q-176 0 -210 -177zM333 1313l156 -252h149l-156 252h-149z" />
<glyph unicode="&#xf3;" horiz-adv-x="896" d="M107 640q25 136 112 208q86 73 222 73q131 0 227 -77q95 -78 119 -204q44 -231 -6 -403q-35 -121 -123 -189t-210 -68q-119 0 -210 70q-92 70 -126 187q-49 172 -5 403zM231 617q-38 -202 4 -345q22 -76 79 -121q57 -44 134 -44q163 0 211 165q41 143 3 345 q-15 82 -75 129q-59 48 -146 48q-176 0 -210 -177zM246 1061l156 252h150l-157 -252h-149z" />
<glyph unicode="&#xf4;" horiz-adv-x="903" d="M121 640q25 136 112 208q86 73 222 73q131 0 227 -77q95 -78 119 -204q44 -231 -6 -403q-35 -121 -123 -189t-210 -68q-119 0 -210 70q-92 70 -126 187q-49 172 -5 403zM181 1061h149l131 211l130 -211h150l-157 252h-247zM245 617q-38 -202 4 -345q22 -76 79 -121 q57 -44 134 -44q163 0 211 165q41 143 3 345q-15 82 -75 129q-59 48 -146 48q-176 0 -210 -177z" />
<glyph unicode="&#xf5;" horiz-adv-x="900" d="M118 640q25 136 112 208q86 73 222 73q131 0 227 -77q95 -78 119 -204q44 -231 -6 -403q-35 -121 -123 -189t-210 -68q-119 0 -210 70q-92 70 -126 187q-49 172 -5 403zM212 1050q0 125 92 168q46 22 150 22q80 1 100 11q23 11 23 62h127q0 -131 -94 -177 q-47 -23 -156 -23q-75 0 -96 -10q-19 -9 -19 -53h-127zM242 617q-38 -202 4 -345q22 -76 79 -121q57 -44 134 -44q163 0 211 165q41 143 3 345q-15 82 -75 129q-59 48 -146 48q-176 0 -210 -177z" />
<glyph unicode="&#xf6;" horiz-adv-x="896" d="M101 640q25 136 112 208q86 73 222 73q131 0 227 -77q95 -78 119 -204q44 -231 -6 -403q-35 -121 -123 -189t-210 -68q-119 0 -210 70q-92 70 -126 187q-49 172 -5 403zM205 1226q0 36 25 62q26 25 62 25t62 -25q25 -26 25 -62t-25 -62q-26 -25 -62 -25t-62 25 q-25 26 -25 62zM225 617q-38 -202 4 -345q22 -76 79 -121q57 -44 134 -44q163 0 211 165q41 143 3 345q-15 82 -75 129q-59 48 -146 48q-176 0 -210 -177zM503 1226q0 36 25 62q26 25 62 25t61 -25q26 -26 26 -62t-26 -62q-25 -25 -61 -25t-62 25q-25 26 -25 62z" />
<glyph unicode="&#xf7;" d="M87 647v140h839l1 -1v-139h-840zM382 377q0 15 16 31l82 84q15 14 29 14q13 0 31 -16l80 -86q12 -16 12 -29q0 -15 -14 -31l-80 -88q-20 -20 -29 -20q-16 0 -29 14l-88 101q-10 13 -10 26zM382 1070q0 15 16 31l82 84q15 14 29 14q13 0 31 -16l80 -86q12 -16 12 -29 q0 -15 -14 -31l-80 -88q-20 -20 -29 -20q-16 0 -29 14l-88 101q-10 13 -10 26z" />
<glyph unicode="&#xf8;" horiz-adv-x="902" d="M90 -20h125q0 35 21 82q92 -76 215 -76q120 0 207 68q87 67 122 186q49 170 5 398q-9 50 -33 97q58 100 58 179h-125q0 -31 -20 -74q-93 74 -221 74q-134 0 -219 -71q-85 -72 -110 -205q-44 -229 5 -398q11 -37 29 -71q-59 -105 -59 -189zM236 297q-30 150 2 317 q33 175 206 175q94 0 156 -58q-54 -75 -190 -228q-122 -139 -174 -206zM300 173q57 81 204 247q111 125 160 187q33 -201 -5 -333q-47 -162 -208 -162q-89 0 -151 61z" />
<glyph unicode="&#xf9;" horiz-adv-x="854" d="M97 281q0 -141 73 -221t202 -80q108 0 223 49q30 13 29 -30h127v900h-127v-713q-129 -79 -252 -79q-148 0 -148 174v618h-127v-618zM285 1313l156 -252h149l-156 252h-149z" />
<glyph unicode="&#xfa;" horiz-adv-x="848" d="M100 281q0 -141 73 -221t202 -80q108 0 223 49q30 13 29 -30h127v900h-127v-713q-129 -79 -252 -79q-148 0 -148 174v618h-127v-618zM258 1061l157 252h149l-156 -252h-150z" />
<glyph unicode="&#xfb;" horiz-adv-x="838" d="M99 281q0 -141 73 -221t202 -80q108 0 223 49q30 13 29 -30h127v900h-127v-713q-129 -79 -252 -79q-148 0 -148 174v618h-127v-618zM146 1061h149l131 211l130 -211h150l-156 252h-248z" />
<glyph unicode="&#xfc;" horiz-adv-x="848" d="M103 281q0 -141 73 -221t202 -80q108 0 223 49q30 13 29 -30h127v900h-127v-713q-129 -79 -252 -79q-148 0 -148 174v618h-127v-618zM194 1226q0 36 25 62q26 25 62 25t62 -25q25 -26 25 -62t-25 -62q-26 -25 -62 -25t-62 25q-25 26 -25 62zM492 1226q0 36 25 62 q26 25 62 25t61 -25q26 -26 26 -62t-26 -62q-25 -25 -61 -25t-62 25q-25 26 -25 62z" />
<glyph unicode="&#xfd;" horiz-adv-x="868" />
<glyph unicode="&#xfe;" horiz-adv-x="1010" />
<glyph unicode="&#xff;" horiz-adv-x="868" />
<glyph unicode="&#x2c6;" horiz-adv-x="1024" d="M221 1079l232 355h118l232 -355h-58l-233 216l-233 -216h-58z" />
<glyph unicode="&#x2dc;" horiz-adv-x="529" d="M-13 1050q0 125 93 168q45 22 150 22q80 1 100 11q23 11 23 62h127q0 -131 -94 -177q-47 -23 -156 -23q-75 0 -96 -10q-19 -9 -19 -53h-128z" />
<glyph unicode="&#x2000;" horiz-adv-x="864" />
<glyph unicode="&#x2001;" horiz-adv-x="1728" />
<glyph unicode="&#x2002;" horiz-adv-x="864" />
<glyph unicode="&#x2003;" horiz-adv-x="1728" />
<glyph unicode="&#x2004;" horiz-adv-x="576" />
<glyph unicode="&#x2005;" horiz-adv-x="432" />
<glyph unicode="&#x2006;" horiz-adv-x="288" />
<glyph unicode="&#x2007;" horiz-adv-x="288" />
<glyph unicode="&#x2008;" horiz-adv-x="216" />
<glyph unicode="&#x2009;" horiz-adv-x="345" />
<glyph unicode="&#x200a;" horiz-adv-x="96" />
<glyph unicode="&#x2010;" horiz-adv-x="670" d="M116 437v83q0 29 41 29h356q41 0 41 -29v-83q0 -28 -40 -28h-358q-40 0 -40 28z" />
<glyph unicode="&#x2011;" horiz-adv-x="670" d="M116 437v83q0 29 41 29h356q41 0 41 -29v-83q0 -28 -40 -28h-358q-40 0 -40 28z" />
<glyph unicode="&#x2012;" horiz-adv-x="670" d="M116 437v83q0 29 41 29h356q41 0 41 -29v-83q0 -28 -40 -28h-358q-40 0 -40 28z" />
<glyph unicode="&#x2013;" horiz-adv-x="1108" d="M56 419v120h996v-120h-996z" />
<glyph unicode="&#x2014;" horiz-adv-x="2048" d="M0 419v120h2048v-120h-2048z" />
<glyph unicode="&#x2018;" horiz-adv-x="377" d="M-54 993q0 79 88 207q87 127 87 203h127q0 -116 -109 -275q-66 -96 -66 -135h-127z" />
<glyph unicode="&#x2019;" horiz-adv-x="358" d="M-54 1403h127q0 -76 87 -203q88 -128 88 -207h-127q0 39 -66 135q-109 159 -109 275z" />
<glyph unicode="&#x201a;" horiz-adv-x="557" d="M53 -71q0 79 88 207q87 127 87 203h127q0 -116 -109 -275q-66 -96 -66 -135h-127z" />
<glyph unicode="&#x201c;" horiz-adv-x="616" d="M-58 993q0 79 88 207q87 127 87 203h127q0 -116 -109 -275q-66 -96 -66 -135h-127zM175 993q0 79 88 207q87 127 87 203h127q0 -116 -109 -275q-66 -96 -66 -135h-127z" />
<glyph unicode="&#x201d;" horiz-adv-x="600" d="M-58 1403h127q0 -76 87 -203q88 -128 88 -207h-127q0 39 -66 135q-109 159 -109 275zM175 1403h127q0 -76 87 -203q88 -128 88 -207h-127q0 39 -66 135q-109 159 -109 275z" />
<glyph unicode="&#x201e;" horiz-adv-x="603" d="M-58 -70q0 79 88 207q87 127 87 203h127q0 -116 -109 -275q-66 -96 -66 -135h-127zM175 -70q0 79 88 207q87 127 87 203h127q0 -116 -109 -275q-66 -96 -66 -135h-127z" />
<glyph unicode="&#x2022;" horiz-adv-x="1024" d="M216 718q0 123 87 209t210 86q122 0 208.5 -86.5t86.5 -208.5t-87.5 -209.5t-209.5 -87.5q-123 0 -209 87t-86 210z" />
<glyph unicode="&#x2026;" horiz-adv-x="1704" d="M209 132q0 36 25 61q26 26 62 26t61 -26q26 -25 26 -61t-26 -62q-25 -25 -61 -25t-62 25q-25 26 -25 62zM712 128q0 36 25 61q26 26 62 26t61 -26q26 -25 26 -61t-26 -62q-25 -25 -61 -25t-62 25q-25 26 -25 62zM1214 131q0 36 25 61q26 26 62 26t61 -26q26 -25 26 -61 t-26 -62q-25 -25 -61 -25t-62 25q-25 26 -25 62z" />
<glyph unicode="&#x202f;" horiz-adv-x="345" />
<glyph unicode="&#x2039;" horiz-adv-x="631" d="M174 479l342 303h14v-37l-205 -266l205 -266v-37h-14z" />
<glyph unicode="&#x203a;" horiz-adv-x="631" d="M101 176v37l205 266l-205 266v37h14l342 -303l-342 -303h-14z" />
<glyph unicode="&#x205f;" horiz-adv-x="432" />
<glyph unicode="&#x20ac;" horiz-adv-x="1196" d="M0 498h191q4 -190 19 -241q38 -133 133 -195t261 -62q167 0 260 61t132 196l-123 35q-25 -89 -76 -123q-60 -42 -193 -42q-132 0 -195 44q-53 37 -77 121q-11 37 -15 206h373v127h-374q-1 59 0 119h374v127h-372q4 179 11 216q17 92 68 131q61 46 200 46q143 0 209 -48 q54 -40 71 -129l124 24q-53 280 -404 280q-340 0 -393 -280q-7 -37 -12 -240h-192v-127h190q-1 -61 -1 -119h-189v-127z" />
<glyph unicode="&#x2122;" horiz-adv-x="1299" d="M0 1283h155v-413h69v413h155v69h-379v-69zM441 871h69q0 143 84 377q119 -274 119 -387h69q0 114 118 387q86 -234 86 -377h69q0 200 -121 481h-63q-78 -164 -124 -314q-46 151 -125 314h-63q-118 -279 -118 -481z" />
<glyph unicode="&#x25fc;" horiz-adv-x="895" d="M0 0v895h895v-895h-895z" />
</font>
</defs>
</svg>
