<?xml version="1.0" encoding="utf-8"?>
<!-- Generator: Adobe Illustrator 16.0.4, SVG Export Plug-In . SVG Version: 6.00 Build 0)  -->
<!DOCTYPE svg PUBLIC "-//W3C//DTD SVG 1.1//EN" "http://www.w3.org/Graphics/SVG/1.1/DTD/svg11.dtd">
<svg version="1.1" id="Layer_1" xmlns="http://www.w3.org/2000/svg" xmlns:xlink="http://www.w3.org/1999/xlink" x="0px" y="0px"
	 width="1024px" height="640px" viewBox="0 0 1024 640" enable-background="new 0 0 1024 640" xml:space="preserve">
<g>
	<g>
		<path fill="#27AE60" d="M619.742,564.073l-38.601-21.094c1.286-9.718,1.514-19.349,0.761-28.77l39.578-19.11
			c0,0-0.221-10.685-1.702-16.255c-1.484-5.567-6.603-14.919-6.603-14.919l-43.864,3.124c-4.111-8.707-9.126-16.946-14.948-24.581
			l22.984-37.508c0,0-5.962-8.868-10.221-12.752c-4.259-3.883-13.619-8.981-13.619-8.981l-35.191,26.327
			c-8.161-5.114-16.937-9.412-26.242-12.744l-0.774-43.85c0,0-9.716-4.222-15.398-5.186c-5.682-0.964-16.47-0.221-16.47-0.221
			l-15.539,41.232c-9.609,0.131-19.044,1.284-28.183,3.363l-24.547-36.457c0,0-10.545,1.738-15.846,4
			c-5.301,2.261-13.828,8.657-13.828,8.657l9.337,42.985c-8.014,5.287-15.466,11.412-22.219,18.276l-40.383-17.407
			c0,0-7.931,7.163-11.168,11.932c-3.237,4.769-6.952,14.76-6.952,14.76l31.066,31.085c-3.818,8.647-6.779,17.814-8.77,27.414
			l-43.396,7.191c0,0-2.8,10.313-2.945,16.074c-0.146,5.762,2.13,16.176,2.13,16.176l42.936,9.354
			c1.493,9.591,4.005,18.908,7.431,27.819l-32.603,29.496c0,0,3.221,10.19,6.214,15.116s10.537,12.455,10.537,12.455l41.214-15.357
			c6.353,7.167,13.469,13.683,21.252,19.409l-11.478,42.431c0,0,8.219,6.83,13.399,9.356c5.181,2.525,15.598,4.781,15.598,4.781
			l26.361-35.192c4.58,1.28,9.269,2.338,14.061,3.15c4.792,0.813,9.568,1.361,14.315,1.663l13.289,41.915
			c0,0,10.606,1.302,16.331,0.628c5.723-0.678,15.707-4.412,15.707-4.412l3.148-43.842c9.237-2.839,18.104-6.644,26.464-11.314
			l33.85,28.085c0,0,9.627-4.64,14.078-8.302c4.449-3.663,10.829-12.203,10.829-12.203l-21.06-38.594
			c6.174-7.284,11.617-15.251,16.189-23.812l43.623,5.322c0,0,5.59-9.107,7.353-14.596
			C618.992,574.706,619.742,564.073,619.742,564.073z"/>
	</g>
	<circle fill="#FFFFFF" cx="445.923" cy="525.182" r="103.577"/>
	<circle fill="#27AE60" cx="445.924" cy="525.182" r="38.607"/>
	<circle fill="#27AE60" cx="668.446" cy="379.658" r="28.028"/>
	<path fill="#27AE60" d="M704.149,291.082c0.558-3.286-18.913-8.793-18.913-8.793l0,0c0,0-20.197-1.223-20.754,2.063l-6.111,21.231
		l-12.014,70.82l22.336,3.789l22.211,3.768l12.014-70.819L704.149,291.082z"/>
	<path fill="#27AE60" d="M630.754,292.109c-1.931-2.716-19.591,7.157-19.591,7.157l-0.001-0.001c0,0-15.146,13.417-13.217,16.135
		l10.692,19.336l41.582,58.571l18.474-13.114l18.369-13.042L645.48,308.58L630.754,292.109z"/>
	<path fill="#27AE60" d="M579.581,344.736c-3.286-0.557-8.793,18.913-8.793,18.913l0,0c0,0-1.223,20.197,2.062,20.754l21.233,6.112
		l70.818,12.013l3.791-22.335l3.767-22.212l-70.819-12.013L579.581,344.736z"/>
	<path fill="#27AE60" d="M580.609,418.133c-2.719,1.931,7.156,19.591,7.156,19.591l0,0c0,0,13.416,15.146,16.133,13.218
		l19.338-10.693l58.57-41.582l-13.113-18.473l-13.043-18.37l-58.571,41.582L580.609,418.133z"/>
	<path fill="#27AE60" d="M633.236,469.305c-0.558,3.287,18.913,8.792,18.913,8.792l0,0c0,0,20.196,1.224,20.753-2.061l6.112-21.235
		l12.013-70.817l-22.334-3.79l-22.213-3.768l-12.014,70.819L633.236,469.305z"/>
	<path fill="#27AE60" d="M706.633,468.276c1.93,2.719,19.591-7.157,19.591-7.157l0,0c0,0,15.146-13.415,13.217-16.131
		l-10.694-19.339l-41.58-58.568l-18.473,13.112l-18.371,13.042l41.582,58.571L706.633,468.276z"/>
	<path fill="#27AE60" d="M757.804,415.649c3.287,0.558,8.793-18.913,8.793-18.913l0,0c0,0,1.223-20.195-2.062-20.753l-21.235-6.112
		l-70.816-12.013l-3.79,22.335l-3.769,22.212l70.819,12.014L757.804,415.649z"/>
	<path fill="#27AE60" d="M756.775,342.254c2.719-1.93-7.156-19.592-7.156-19.592l0,0c0,0-13.416-15.145-16.133-13.217
		l-19.338,10.694l-58.568,41.58l13.113,18.474l13.041,18.371l58.572-41.582L756.775,342.254z"/>
	<circle fill="#27AE60" cx="668.445" cy="379.658" r="74.492"/>
	<circle fill="#FFFFFF" cx="668.445" cy="379.659" r="48.866"/>
	<circle fill="#27AE60" cx="668.445" cy="379.658" r="15.137"/>
</g>
</svg>
