<?xml version="1.0" encoding="utf-8"?>
<!-- Generator: Adobe Illustrator 16.0.4, SVG Export Plug-In . SVG Version: 6.00 Build 0)  -->
<!DOCTYPE svg PUBLIC "-//W3C//DTD SVG 1.1//EN" "http://www.w3.org/Graphics/SVG/1.1/DTD/svg11.dtd">
<svg version="1.1" id="Layer_1" xmlns="http://www.w3.org/2000/svg" xmlns:xlink="http://www.w3.org/1999/xlink" x="0px" y="0px"
	 width="1024px" height="640px" viewBox="0 0 1024 640" enable-background="new 0 0 1024 640" xml:space="preserve">
<g>
	<g id="Layer_1_1_">
		<g>
			<path fill="#FBA919" d="M677.493,128.874c0,0,4.391,16.939,5.019,22.587c0.627,5.646-11.294,18.193-11.294,24.469
				s2.507,17.567,16.312,23.215c13.806,5.647,15.685,20.077,15.685,28.862c0,8.783-5.019,25.722-5.019,25.722
				s-3.135,42.035,13.803,49.564s13.177,7.529,16.938,7.529c3.765,0,31.371,11.294,47.683,6.902s20.701-9.41,20.701-9.41
				s16.314,1.254,21.333-13.178c5.022-14.43,8.156-44.544,6.275-58.349c-1.883-13.805-4.393-31.996,6.898-38.271
				c11.297-6.275,23.217-13.801,21.334-20.076c-1.883-6.273-11.918-15.059-11.918-15.059s-2.512-15.685-0.629-19.449
				c1.881-3.764,13.175-13.178,6.901-20.077c-6.271-6.901-17.568-6.901-17.568-6.901l-14.43,1.253c0,0-24.469-21.958-56.466-20.703
				c-31.996,1.255-52.074,20.703-52.074,20.703s-10.664-3.764-20.077,0C677.488,121.975,675.612,118.207,677.493,128.874z"/>
			<path fill="#E78724" d="M734.821,222.287c0,0-12.425,18.997-21.537,32.479c-1.411,2.086,9.112,2.229,9.112,2.229L734.821,222.287
				z"/>
			<path fill="#E78724" d="M740.736,182.901c0,0-3.745,9.343-5.797,14.297c-2.227,5.385-10.718,8.063-10.718,8.063
				s4.401-4.616,4.401-16.312c0-4.906,6.334-6.857,6.334-6.857L740.736,182.901z"/>
			<path fill="#E78724" d="M736.953,188.185c0,0-7.673,9.134-21.921,4.019c-14.251-5.115-15.71-23.385-15.71-28.5
				s27.037,5.115,30.691,7.308S740.606,181.972,736.953,188.185z"/>
			<path fill="#E78724" d="M683.135,90.58c0,0,13.152-2.559,21.92,4.384c8.771,6.941,11.326,12.424,11.326,12.424l-14.779,11.716
				c0,0-7.142-3.311-9.334-12.812C690.075,96.792,691.537,92.409,683.135,90.58z"/>
			<path fill="#E78724" d="M733.116,161.8c-5.662-8.038-14.995-11.544-22.446-12.126c-12.705-0.993-18.736,3.498-18.736,3.498
				s20.807,0.882,26.805,8.759c11.166,14.66,27.454,15.851,30.06,12.632c-3.012,0.149-6.326-1.343-9.872-4.696
				C736.709,167.77,734.914,164.352,733.116,161.8z"/>
			<path fill="#E78724" d="M697.99,190.224c0,0-23.088-7.937-18.698-15.973c4.382-8.041,0.894-12.42,0.894-12.42
				s-12.893,9.623-9.606,19.852c2.02,6.28,5.405,10.826,24.003,19.542c8.922,16.57,1.843,46.395,2.267,46.533
				c0.707,0.235,12.526-5.841,11.718-33.744C708.321,205.446,707.637,193.749,697.99,190.224z"/>
			<path fill="#E78724" d="M728.244,104.877c-9.68,4.918-22.942,11.768-22.942,11.768l5.219,2.611
				c-0.497,0.807-0.739,1.288-0.739,1.288l5.357,2.436c0,0,13.08,9.475,21.093,15.565c-2.673-8.227-10.515-21.151-10.515-21.151
				S723.494,111.455,728.244,104.877z"/>
			<path fill="#E78724" d="M760.403,305.35c-29.755,0-39.833-15.104-39.833-15.104l4.65,11.323
				c1.758,4.898,20.507,20.143,35.137,20.143"/>
			<path fill="#E78724" d="M723.831,280.037c0,0,2.736,16.732,13.698,16.732c9.315,0,12.059-14.133,12.059-17.053L723.831,280.037z"
				/>
			<path fill="#E78724" d="M705.589,254.806c0.975-2.681,4.384-13.521,5.479-23.384c1.312-11.815,0.834-29.094,0.834-29.094
				s-2.923,11.327-5.481,13.157c-2.556,1.825-7.308,14.246-7.308,14.246s-2.545,18.492-3.757,24.709
				C698.709,255.111,701.531,253.136,705.589,254.806z"/>
			<path fill="#E78724" d="M679.119,181.503c0,0,6.209-2.194,8.038-15.711c1.826-13.521-2.194-25.213-2.194-25.213
				s0.365,18.634-1.826,22.289c-2.194,3.651-4.019,4.748-6.578,9.499C674,177.119,677.654,180.04,679.119,181.503z"/>
			<path fill="#87CCEE" d="M712.074,119.414"/>
			<path fill="#FDC168" d="M686.533,93.778l-1.268-0.803C681.527,93.102,686.533,93.778,686.533,93.778z"/>
			<path fill="#FBA919" d="M733.299,100.875c0,0-5.845-0.974-8.77-5.357c-2.924-4.385-11.206-13.155-24.406-13.253
				c-13.199-0.099-26.26,3.509-26.26,3.509l11.4,7.203c1.205-0.039,3.313-0.022,6.801,0.093
				c14.307,0.476,16.508,14.628,16.508,14.628l50.423-6.943"/>
			<path fill="#FFFFFF" d="M738.171,179.036c0,0-6.82,6.821-17.295,4.628c-10.476-2.191-16.81-6.82-17.297-14.859
				c-0.487-8.038,2.194-11.205,2.194-11.205s11.69,3.656,17.296,8.528C728.672,171,732.812,178.794,738.171,179.036z"/>
			<path fill="#C9C9C9" d="M729.916,176.601c0,0-5.916,2.702-12.527,0.501c-8.656-2.887-9.231-11.89-9.231-11.89
				s-5.312,15.583,9.576,18.583c11.94,2.404,19.002-4.515,19.002-4.515L729.916,176.601z"/>
			<path fill="#463014" d="M736.715,263.937"/>
			<path fill="#463014" d="M734.12,97.569c-0.638-13.363,10.318-24.007,14.113-24.46c0.211,2.264-0.21,11.097,3.584,13.813
				c1.104-7.215,4.841-15.169,19.594-20.381c-3.159,8.38-0.422,15.398,0.882,18.653c10.074-9.144,16.861-7.633,16.861-7.633
				s-6.999,12.078-4.262,20.004C764.669,95.981,734.22,99.716,734.12,97.569z"/>
			<path fill="#463014" d="M691.247,117.926c-4.825-4.004-1.229-7.72-1.61-12.268c-0.208-2.42-0.399-4.703-1.196-5.963
				c-4.441-7.011-14.916-9.14-15.022-9.161l-4.916-0.964l3.255-3.808c0.422-0.492,13.788-13.244,34.47-6.567
				c14.467,4.666,25.178,20.488,25.576,21.128l-7.255,3.411c-0.084-0.134-8.551-15.008-20.963-19.01
				c-10.033-3.236-19.282-0.158-23.242,1.861c4.21,1.681,9.716,4.743,13.033,9.979c1.565,2.474,1.828,5.588,2.084,8.604
				c0.336,3.992,0.65,7.761,3.589,10.202L691.247,117.926z"/>
			<path fill="#463014" d="M678.358,176.364c0,0,6.079-7.539,7.88-22.209c0.708-5.776-0.548-17.173-2.559-21.557
				c0.366,10.778-2.375,21.557-2.375,21.557S679.459,174.171,678.358,176.364z"/>
			<path fill="#463014" d="M710.416,110.312c-0.003-0.016-1.951-8.526-7.351-12.822c-7.617-6.06-16.917-2.837-17.006-2.809
				l-1.352-4.171c0.451-0.146,11.081-3.495,20.877,3.391c9.855,6.926,11.037,13.204,11.142,13.897L710.416,110.312z"/>
			<path fill="#463014" d="M697.452,170.958c0,0-3.19-4.567-2.616-9.588c0.285-2.48,1.436-5.025,3.487-5.929
				c3.813-1.675,5.502,2.646,5.502,2.646S698.459,159.412,697.452,170.958z"/>
			<path fill="#463014" d="M736.715,263.937"/>
			<path fill="#463014" d="M732.473,177.916c0.132,0.248,0.2,0.388,0.2,0.388s-9.947,7.465-20.143-0.11
				c-5.456-4.06-4.941-14.1-3.27-18.358c4.346,0.985,8.034,2.762,11.117,4.835c-3.896-3.476-7.306-6.035-7.297-6.094l-4.426-1.253
				l-8.605-2.95c-0.11,0.655-3.249,15.367,5.812,25.393c4.015,4.445,22.84,14.398,31.778-2.621L732.473,177.916z"/>
			<path fill="#463014" d="M731.541,179.011c5.601,8.524,19.732,3.653,19.488-5.359c0,0-9.442,5.212-17.785-4.383
				c-4.871-5.603-20.477-21.048-41.643-15.914C706.219,156.567,725.568,169.922,731.541,179.011z"/>
			<g>
				<path fill="#463014" d="M736.715,263.937"/>
			</g>
			<path fill="#463014" d="M689.625,203.068c1.347,0.779,6.098,5.7,6.102,13.061c0,3.69-0.367,22.232-2.194,33.559
				c2.748,1.786,4.662,2.165,7.397,3.985c1.37-13.118,2.352-32.133,1.894-39.809c-0.522-8.749-5.208-14.621-9.553-17.125
				c-1.36-0.782-2.781-1.552-4.213-2.325c-7.441-4.021-15.137-8.181-15.137-15.283c0-5.555,2.16-7.293,4.447-9.136l0.246-0.199
				c1.518-1.226,3.234-2.615,4.252-4.897c2.775-6.243,3.229-22.143,0-26.179c-1.61-2.012-5.924-8.773-4.684-13.318
				c0.473-1.734,1.564-3.02,3.343-3.931c1.883-0.965,4.424-1.452,7.555-1.452c6.147,0,12.966,1.87,16.483,2.984
				c12.571,3.983,27.737,15.471,32.085,18.896c0.126,0.095,0.198,0.152,0.211,0.161l2.782,1.934l-1.741-2.911
				c-0.106-0.182-11.126-18.301-30.829-24.945c-3.833-1.293-11.363-3.461-18.765-3.461c-4.406,0-8.146,0.77-11.106,2.285
				c-3.608,1.846-6.052,4.791-7.066,8.514c-2.487,9.126,5.615,19.288,5.892,19.612c0.945,1.688,1.345,13.938-0.838,18.842
				c-0.3,0.676-1.123,1.341-2.164,2.182c-0.327,0.265-0.692,0.538-1.078,0.832c-3.08,2.325-7.736,5.836-7.736,13.931
				c0,11.075,11.225,17.08,20.246,21.909C686.937,201.579,688.348,202.333,689.625,203.068z"/>
			<g>
				<g>
					<path fill="#463014" d="M691.247,117.926c-4.825-4.004-1.229-7.72-1.61-12.268c-0.208-2.42-0.399-4.703-1.196-5.963
						c-4.441-7.011-14.916-9.14-15.022-9.161l-4.916-0.964l3.255-3.808c0.422-0.492,13.788-13.244,34.47-6.567
						c14.467,4.666,25.178,20.488,25.576,21.128l-7.255,3.411c-0.084-0.134-8.551-15.008-20.963-19.01
						c-10.033-3.236-19.282-0.158-23.242,1.861c4.21,1.681,9.716,4.743,13.033,9.979c1.565,2.474,1.828,5.588,2.084,8.604
						c0.336,3.992,0.65,7.761,3.589,10.202L691.247,117.926z"/>
				</g>
				<g>
					<path fill="#463014" d="M691.09,118.745l-0.312-0.258c-3.579-2.969-2.943-5.896-2.329-8.726
						c0.279-1.306,0.574-2.656,0.453-4.042c-0.195-2.328-0.382-4.525-1.084-5.635c-4.228-6.676-14.446-8.815-14.547-8.835
						l-6.141-1.204l4.07-4.76c0.074-0.088,8.656-8.751,23.189-8.751c3.963,0,8.021,0.66,12.06,1.965
						c15.101,4.868,25.872,21.274,25.974,21.437l0.437,0.697l-8.581,4.035l-0.344-0.546c-0.923-1.574-9.061-14.993-20.57-18.705
						c-2.827-0.913-5.805-1.374-8.851-1.374c-5.515,0-9.986,1.503-12.364,2.512c3.976,1.791,8.798,4.805,11.85,9.617
						c1.659,2.622,1.928,5.825,2.191,8.921c0.322,3.849,0.628,7.469,3.328,9.71l1.021,0.846L691.09,118.745z"/>
				</g>
			</g>
			<g>
				<g>
					<path fill="#463014" d="M710.416,110.312c-0.003-0.016-1.951-8.526-7.351-12.822c-7.617-6.06-16.917-2.837-17.006-2.809
						l-1.352-4.171c0.451-0.146,11.081-3.495,20.877,3.391c9.855,6.926,11.037,13.204,11.142,13.897L710.416,110.312z"/>
				</g>
				<g>
					<path fill="#463014" d="M709.893,111.307l-0.19-0.838c-0.02-0.081-1.93-8.301-7.094-12.407
						c-2.944-2.344-6.493-3.533-10.544-3.533c-3.162,0-5.51,0.754-5.768,0.844l-0.698,0.231l-1.81-5.565l0.694-0.224
						c0.312-0.099,3.132-0.979,7.124-0.979c5.265,0,10.242,1.545,14.4,4.465c10.102,7.099,11.334,13.663,11.44,14.388l0.089,0.572
						L709.893,111.307z M692.066,93.069c4.326,0,8.29,1.331,11.453,3.846c4.586,3.652,6.742,10.1,7.395,12.411l4.971-1.98
						c-0.45-1.755-2.433-7.021-10.719-12.847c-3.965-2.787-8.525-4.198-13.559-4.198c-2.764,0-4.908,0.438-5.969,0.707l0.896,2.771
						C687.574,93.499,689.575,93.069,692.066,93.069z"/>
				</g>
			</g>
			<path fill="#463014" d="M737.071,292.755L737.071,292.755c-2.159,0-4.361-0.784-5.89-2.104c-1.168-1.008-5.122-4.639-6.863-9.087
				c-0.651-1.664-0.507-2.995,0.438-3.952c0.651-0.656,2.001-1.441,4.743-1.441l1.95-0.002c2.323-0.001,6.238-0.001,9.582-0.001
				h3.207c2.086,0,3.58,0.449,4.44,1.328c1.103,1.136,0.75,2.578,0.441,3.338c-0.538,1.33-2.761,5.659-6.525,9.687
				C741.246,291.959,739.285,292.755,737.071,292.755z"/>
			<path fill="#463014" d="M739.335,179.512l-7.794-0.501c0,0,1.99,3.513,3.281,8.056c1.457,5.137-1.333,12.646-1.333,12.646
				S743.884,187.946,739.335,179.512z"/>
			<g>
				<path fill="#463014" d="M729.604,313.338c-27.741-2.133-37.503-28.348-37.503-33.809l7.244,0.002l-3.622-0.002h3.622
					c0.037,2.36,7.41,24.785,30.814,26.586L729.604,313.338z"/>
			</g>
			<path fill="#FFFFFF" d="M721.808,266.368c-0.434-2.505-0.478-4.882,0.052-7.217c-2.108-1.585-5.892-2.174-8.73-3.095
				c-2.321-1.469-14.2,1.507-22.818-8.923c-10.797-13.06-8.525-20.857-8.525-20.857c-2.77,3.076-5.452,1.903-9.672,16.246
				c-4.226,14.345,1.983,24.346,13.557,34.386c5.468,4.743,13.197,6.696,19.846,7.443c-2.228-2.235,3.803-2.459,7.961-4.015
				c-0.333-3.357,0.223-6.615,2.727-9.237c1.508-1.582,3.449-2.527,5.464-3.281c0.112-0.26,0.207-0.5,0.313-0.75
				C721.915,266.841,721.85,266.611,721.808,266.368z"/>
			<path fill="#C9C9C9" d="M713.42,280.251c-0.24-0.704-0.422-1.423-0.6-2.146c-0.191-0.788-1.149-3.024,0.03-0.472
				c-0.303-0.653-0.501-1.328-0.648-2.007c-18.741-0.024-35.048-12.893-31.897-39.946c-2.454-3.257-5.89,6.568-5.89,6.568
				s-9.382,27.245,14.852,37.806c8.073,3.521,15.211,6.045,16.895,5.025c3.507,0.714,6.672-1.731,7.858-3.341
				C713.797,281.246,713.594,280.751,713.42,280.251z"/>
			<path fill="#463014" d="M721.47,262.445c0.029-2.283,0.496-4.494,1.6-6.698c0.077-0.152,0.166-0.298,0.25-0.445
				c-7.213-0.062-15.519-0.752-22.593-3.583c-7.773-3.11-17.499-13.749-19.17-26.25c0,0-14.642,11.3-10.339,35.481
				c4.037,22.709,23.04,30.112,44.713,31.364c0.011-0.147-2.438-5.205-1.663-8.303c-12.308,0.895-26.067-3.861-32.71-14.791
				c-6.082-10.005-4.376-27.085-1.877-29.589C685.776,258.87,707.716,262.781,721.47,262.445z"/>
			<path fill="#463014" d="M760.403,292.264"/>
			<path fill="#463014" d="M723.741,248.673c-3.9,11.445-11.865,20.707-11.865,20.707s10.957-0.498,11.562-2.438
				c0.446-1.43,9.894-23.542,13.52-49.448C733.547,223.099,724.074,247.693,723.741,248.673z"/>
			<path fill="#E78724" d="M785.821,222.287c0,0,12.423,18.997,21.538,32.479c1.411,2.086-9.115,2.229-9.115,2.229L785.821,222.287z
				"/>
			<path fill="#E78724" d="M779.904,182.901c0,0,3.745,9.343,5.795,14.297c2.228,5.385,10.717,8.063,10.717,8.063
				s-4.4-4.616-4.4-16.312c0-4.906-6.334-6.857-6.334-6.857L779.904,182.901z"/>
			<path fill="#E78724" d="M783.688,188.185c0,0,7.673,9.134,21.924,4.019s15.712-23.385,15.712-28.5s-27.037,5.115-30.692,7.308
				S780.034,181.972,783.688,188.185z"/>
			<path fill="#E78724" d="M837.508,90.58c0,0-13.152-2.559-21.924,4.384c-8.768,6.941-11.325,12.424-11.325,12.424l14.779,11.715
				c0,0,7.144-3.311,9.337-12.812C830.565,96.792,829.104,92.409,837.508,90.58z"/>
			<path fill="#E78724" d="M787.525,161.8c5.663-8.038,14.992-11.544,22.445-12.126c12.707-0.993,18.734,3.498,18.734,3.498
				s-20.807,0.882-26.806,8.759c-11.166,14.66-27.449,15.851-30.054,12.632c3.012,0.149,6.326-1.343,9.869-4.696
				C783.931,167.77,785.729,164.352,787.525,161.8z"/>
			<path fill="#E78724" d="M822.652,190.224c0,0,23.084-7.937,18.699-15.973c-4.384-8.041-0.897-12.42-0.897-12.42
				s12.895,9.623,9.605,19.852c-2.019,6.28-5.405,10.826-24.003,19.542c-8.921,16.57-1.842,46.395-2.264,46.533
				c-0.707,0.235-12.524-5.841-11.718-33.744C812.321,205.446,813.007,193.749,822.652,190.224z"/>
			<path fill="#E78724" d="M792.399,104.877c9.678,4.918,22.941,11.768,22.941,11.768l-5.22,2.611
				c0.5,0.807,0.739,1.288,0.739,1.288l-5.356,2.436c0,0-13.078,9.475-21.092,15.565c2.669-8.227,10.512-21.151,10.512-21.151
				S797.149,111.455,792.399,104.877z"/>
			<path fill="#E78724" d="M760.24,305.35c29.75,0,39.828-15.104,39.828-15.104l-4.646,11.323
				c-1.76,4.898-20.511,20.143-35.138,20.143"/>
			<path fill="#E78724" d="M796.812,280.037c0,0-2.74,16.732-13.699,16.732c-9.314,0-12.059-14.133-12.059-17.053L796.812,280.037z"
				/>
			<path fill="#E78724" d="M815.054,254.806c-0.975-2.681-4.384-13.521-5.483-23.384c-1.312-11.815-0.83-29.094-0.83-29.094
				s2.922,11.327,5.478,13.157c2.56,1.825,7.308,14.246,7.308,14.246s2.545,18.492,3.756,24.709
				C821.931,255.111,819.112,253.136,815.054,254.806z"/>
			<path fill="#E78724" d="M841.525,181.503c0,0-6.212-2.194-8.038-15.711c-1.826-13.521,2.193-25.213,2.193-25.213
				s-0.367,18.634,1.826,22.289c2.193,3.653,4.02,4.748,6.577,9.499C846.64,177.119,842.986,180.04,841.525,181.503z"/>
			<path fill="#87CCEE" d="M808.568,119.414"/>
			<path fill="#FDC168" d="M834.107,93.778l1.271-0.803C839.116,93.102,834.107,93.778,834.107,93.778z"/>
			<path fill="#FBA919" d="M787.341,100.875c0,0,5.848-0.974,8.769-5.357c2.925-4.385,11.208-13.155,24.409-13.253
				c13.201-0.099,26.26,3.509,26.26,3.509l-11.399,7.203c-1.206-0.039-3.314-0.022-6.805,0.093
				c-14.305,0.476-16.507,14.628-16.507,14.628l-50.42-6.943"/>
			<path fill="#FFFFFF" d="M782.471,179.036c0,0,6.82,6.821,17.293,4.628c10.477-2.191,16.81-6.82,17.298-14.859
				c0.485-8.038-2.192-11.205-2.192-11.205s-11.694,3.656-17.296,8.528C791.971,171,787.831,178.794,782.471,179.036z"/>
			<path fill="#C9C9C9" d="M790.724,176.601c0,0,5.919,2.702,12.528,0.501c8.658-2.887,9.235-11.89,9.235-11.89
				s5.307,15.583-9.581,18.583c-11.938,2.404-19.002-4.515-19.002-4.515L790.724,176.601z"/>
			<path fill="#463014" d="M783.926,263.937"/>
			<path fill="#463014" d="M829.396,117.926c4.824-4.004,1.232-7.72,1.613-12.268c0.202-2.42,0.394-4.703,1.193-5.963
				c4.44-7.011,14.916-9.14,15.024-9.161l4.917-0.964l-3.256-3.808c-0.421-0.492-13.787-13.244-34.472-6.567
				c-14.467,4.666-25.176,20.488-25.574,21.128l7.251,3.411c0.089-0.134,8.557-15.008,20.97-19.01
				c10.032-3.236,19.279-0.158,23.236,1.861c-4.207,1.681-9.714,4.743-13.032,9.979c-1.563,2.474-1.826,5.588-2.08,8.604
				c-0.336,3.992-0.655,7.761-3.594,10.202L829.396,117.926z"/>
			<path fill="#463014" d="M842.281,176.364c0,0-6.077-7.539-7.878-22.209c-0.707-5.776,0.547-17.173,2.556-21.557
				c-0.364,10.778,2.379,21.557,2.379,21.557S841.185,174.171,842.281,176.364z"/>
			<path fill="#463014" d="M810.227,110.312c0.004-0.016,1.949-8.526,7.351-12.822c7.616-6.06,16.916-2.837,17.003-2.809
				l1.354-4.171c-0.451-0.146-11.079-3.495-20.879,3.391c-9.855,6.926-11.035,13.204-11.142,13.897L810.227,110.312z"/>
			<path fill="#463014" d="M823.189,170.958c0,0,3.189-4.567,2.613-9.588c-0.283-2.48-1.432-5.025-3.483-5.929
				c-3.813-1.675-5.503,2.646-5.503,2.646S822.183,159.412,823.189,170.958z"/>
			<path fill="#463014" d="M783.926,263.937"/>
			<path fill="#463014" d="M788.17,177.916c-0.133,0.248-0.201,0.388-0.201,0.388s9.945,7.465,20.14-0.11
				c5.461-4.06,4.945-14.1,3.271-18.358c-4.346,0.985-8.033,2.762-11.117,4.835c3.896-3.476,7.306-6.035,7.294-6.094l4.43-1.253
				l8.604-2.948c0.109,0.655,3.247,15.367-5.814,25.393c-4.015,4.445-22.841,14.398-31.776-2.621L788.17,177.916z"/>
			<path fill="#463014" d="M789.1,179.011c-5.602,8.524-19.729,3.653-19.485-5.359c0,0,9.439,5.212,17.782-4.383
				c4.871-5.603,20.48-21.048,41.646-15.914C814.426,156.567,795.074,169.922,789.1,179.011z"/>
			<g>
				<path fill="#463014" d="M783.926,263.937"/>
			</g>
			<path fill="#463014" d="M831.021,203.068c-1.35,0.779-6.104,5.7-6.104,13.061c-0.003,3.69,0.366,22.232,2.196,33.559
				c-2.749,1.786-4.664,2.165-7.399,3.985c-1.37-13.118-2.355-32.133-1.895-39.809c0.522-8.749,5.205-14.621,9.55-17.125
				c1.36-0.782,2.783-1.552,4.218-2.325c7.441-4.021,15.136-8.181,15.136-15.283c0-5.555-2.162-7.293-4.449-9.136l-0.243-0.199
				c-1.518-1.226-3.237-2.615-4.252-4.897c-2.776-6.243-3.232-22.143-0.002-26.179c1.609-2.012,5.926-8.773,4.686-13.318
				c-0.476-1.734-1.567-3.02-3.346-3.931c-1.882-0.965-4.421-1.452-7.554-1.452c-6.143,0-12.965,1.87-16.481,2.984
				c-12.569,3.983-27.736,15.471-32.087,18.896c-0.124,0.095-0.196,0.152-0.21,0.161l-2.783,1.934l1.739-2.911
				c0.111-0.182,11.128-18.301,30.83-24.945c3.834-1.293,11.364-3.461,18.766-3.461c4.407,0,8.141,0.77,11.106,2.285
				c3.608,1.846,6.052,4.791,7.067,8.514c2.487,9.126-5.616,19.288-5.893,19.612c-0.945,1.688-1.344,13.938,0.836,18.842
				c0.3,0.676,1.123,1.341,2.166,2.182c0.326,0.265,0.688,0.538,1.078,0.832c3.081,2.325,7.733,5.836,7.733,13.931
				c0,11.075-11.224,17.08-20.241,21.909C833.707,201.579,832.293,202.333,831.021,203.068z"/>
			<path fill="#463014" d="M817.629,116.622c-1.785-3.024-6.35-8.863-16.873-13.994c-11.745-5.723-25.337-8.629-40.405-8.637v-0.002
				c0,0-0.02,0-0.028,0c0,0-0.02,0-0.029,0v0.001c-15.071,0.009-28.666,2.914-40.406,8.637
				c-10.524,5.132-15.087,10.971-16.874,13.994l-0.768,1.014l9.012,2.006l0.287-0.36l0.15-0.33c0.14-0.596,1.347-3.812,11.394-8.71
				c10.741-5.239,23.269-7.896,37.232-7.899c13.965,0.004,26.487,2.66,37.228,7.899c10.048,4.899,11.26,8.114,11.397,8.71l0.15,0.33
				l0.282,0.36l9.014-2.006L817.629,116.622z"/>
			<g>
				<g>
					<path fill="#463014" d="M829.396,117.926c4.824-4.004,1.232-7.72,1.613-12.268c0.202-2.42,0.394-4.703,1.193-5.963
						c4.44-7.011,14.916-9.14,15.024-9.161l4.917-0.964l-3.256-3.808c-0.421-0.492-13.787-13.244-34.472-6.567
						c-14.467,4.666-25.176,20.488-25.574,21.128l7.251,3.411c0.089-0.134,8.557-15.008,20.97-19.01
						c10.032-3.236,19.279-0.158,23.236,1.861c-4.207,1.681-9.714,4.743-13.032,9.979c-1.563,2.474-1.826,5.588-2.08,8.604
						c-0.336,3.992-0.655,7.761-3.594,10.202L829.396,117.926z"/>
				</g>
				<g>
					<path fill="#463014" d="M820.107,115.651l1.016-0.845c2.703-2.241,3.006-5.862,3.332-9.711c0.263-3.096,0.531-6.301,2.19-8.921
						c3.05-4.811,7.876-7.824,11.852-9.617c-2.38-1.008-6.853-2.511-12.367-2.511c-3.048,0-6.021,0.461-8.847,1.373
						c-11.515,3.713-19.651,17.132-20.57,18.705l-0.347,0.547l-8.581-4.036l0.437-0.697c0.101-0.162,10.87-16.568,25.971-21.438
						c4.038-1.305,8.098-1.963,12.062-1.963c14.533,0,23.116,8.664,23.188,8.752l4.071,4.758l-6.142,1.204
						c-0.102,0.021-10.318,2.158-14.551,8.835c-0.7,1.11-0.885,3.306-1.084,5.636c-0.115,1.386,0.176,2.736,0.459,4.041
						c0.613,2.831,1.247,5.759-2.332,8.726l-0.312,0.259L820.107,115.651z"/>
				</g>
			</g>
			<g>
				<g>
					<path fill="#463014" d="M810.227,110.312c0.004-0.016,1.949-8.526,7.351-12.822c7.616-6.06,16.916-2.837,17.003-2.809
						l1.354-4.171c-0.451-0.146-11.079-3.495-20.879,3.391c-9.855,6.926-11.035,13.204-11.142,13.897L810.227,110.312z"/>
				</g>
				<g>
					<path fill="#463014" d="M803.109,108.262l0.086-0.572c0.107-0.725,1.34-7.288,11.441-14.388
						c4.155-2.92,9.135-4.465,14.398-4.465c3.993,0,6.814,0.878,7.127,0.979l0.694,0.224l-1.811,5.565l-0.698-0.231
						c-0.263-0.089-2.61-0.844-5.771-0.844c-4.051,0-7.599,1.188-10.54,3.533c-5.164,4.107-7.075,12.326-7.095,12.407l-0.189,0.836
						L803.109,108.262z M834.107,93.778l0.9-2.771c-1.062-0.27-3.209-0.707-5.971-0.707c-5.033,0-9.597,1.413-13.559,4.198
						c-8.289,5.827-10.271,11.091-10.72,12.847l4.975,1.98c0.65-2.313,2.805-8.761,7.391-12.411
						c3.167-2.515,7.125-3.846,11.452-3.846C831.063,93.069,833.069,93.499,834.107,93.778z"/>
				</g>
			</g>
			<path fill="#463014" d="M778.051,290.518c-3.765-4.025-5.992-8.355-6.53-9.687c-0.307-0.758-0.658-2.201,0.447-3.337
				c0.86-0.88,2.352-1.329,4.437-1.329h3.209c3.346,0,7.255,0,9.582,0.001l1.951,0.002c2.738,0,4.089,0.784,4.738,1.441
				c0.945,0.956,1.093,2.287,0.443,3.952c-1.743,4.448-5.698,8.081-6.867,9.087c-1.53,1.322-3.729,2.105-5.888,2.105l0,0
				C781.361,292.755,779.397,291.959,778.051,290.518z"/>
			<path fill="#463014" d="M781.309,179.512l7.791-0.501c0,0-1.99,3.513-3.281,8.056c-1.458,5.137,1.333,12.646,1.333,12.646
				S776.757,187.946,781.309,179.512z"/>
			<path fill="#E78724" d="M760.322,151.682c-4.968,0-11.445-0.136-16.306-3.629c0,0,6.364,11.155,16.298,11.155l0.008-1.412
				l0.009,1.412c9.934,0,16.296-11.155,16.296-11.155C771.768,151.546,765.285,151.682,760.322,151.682z"/>
			<path fill="#463014" d="M774,151.629c-4.983,3.016-9.433,4.061-13.679,4.154c-4.245-0.094-8.694-1.139-13.679-4.154
				c0,0,7.257,8.855,13.643,8.924v0.006c0.011,0,0.021-0.003,0.035-0.003s0.023,0.003,0.036,0.003v-0.006
				C766.741,160.484,774,151.629,774,151.629z"/>
			<g>
				<path fill="#463014" d="M791.038,313.338l-0.555-7.225c23.399-1.799,30.773-24.225,30.811-26.584h7.246
					C828.542,284.988,818.777,311.205,791.038,313.338z"/>
			</g>
			<path fill="#FFFFFF" d="M798.833,266.368c0.436-2.505,0.479-4.882-0.051-7.217c2.112-1.585,5.893-2.174,8.731-3.095
				c2.321-1.469,14.203,1.507,22.82-8.923c10.798-13.06,8.522-20.857,8.522-20.857c2.771,3.076,5.452,1.903,9.674,16.246
				c4.228,14.345-1.985,24.346-13.56,34.386c-5.466,4.743-13.195,6.696-19.845,7.443c2.229-2.235-3.804-2.459-7.958-4.015
				c0.332-3.357-0.226-6.615-2.729-9.237c-1.506-1.582-3.451-2.527-5.463-3.281c-0.113-0.26-0.211-0.5-0.314-0.75
				C798.729,266.841,798.792,266.611,798.833,266.368z"/>
			<path fill="#C9C9C9" d="M807.219,280.251c0.243-0.704,0.421-1.423,0.601-2.146c0.195-0.788,1.151-3.024-0.029-0.472
				c0.304-0.653,0.501-1.328,0.647-2.007c18.743-0.024,35.048-12.893,31.895-39.946c2.454-3.257,5.893,6.568,5.893,6.568
				s9.383,27.245-14.85,37.806c-8.075,3.521-15.211,6.045-16.895,5.025c-3.51,0.714-6.676-1.731-7.86-3.341
				C806.842,281.246,807.05,280.751,807.219,280.251z"/>
			<path fill="#463014" d="M799.169,262.445c-0.025-2.283-0.495-4.494-1.596-6.698c-0.078-0.152-0.167-0.298-0.249-0.445
				c7.211-0.062,15.52-0.752,22.59-3.583c7.775-3.11,17.501-13.749,19.172-26.25c0,0,14.643,11.3,10.34,35.481
				c-4.042,22.709-23.042,30.112-44.713,31.364c-0.012-0.147,2.438-5.205,1.664-8.303c12.303,0.895,26.063-3.861,32.709-14.791
				c6.078-10.005,4.374-27.085,1.875-29.589C834.864,258.87,812.925,262.781,799.169,262.445z"/>
			<g>
				<path fill="#463014" d="M760.24,292.264"/>
				<path fill="#463014" d="M807.92,268.142c-2.589-2.8-7.351-6.136-18.326-6.136c0,0-20.81-0.012-29.236-0.017l0,0
					c-0.011,0-0.024,0-0.035,0c0,0-0.026,0-0.035,0l0,0c-8.426,0.006-29.24,0.017-29.24,0.017c-10.973,0-15.733,3.338-18.324,6.136
					c-3.773,4.074-4.365,9.741-1.755,16.824c6.937,18.852,16.686,38.007,49.317,38.033v0.003c0.013,0,0.021-0.003,0.035-0.003
					c0.013,0,0.023,0.003,0.036,0.003v-0.003c32.63-0.028,42.377-19.182,49.316-38.033
					C812.284,277.884,811.69,272.216,807.92,268.142z M802.84,283.643c-3.307,9.468-12.188,32.383-42.519,32.422
					c-30.337-0.039-39.216-22.954-42.521-32.422c-1.828-5.253-1.689-9.139,0.428-11.554c1.447-1.65,4.77-3.62,12.343-3.62
					l7.909-0.002c5.837-0.006,13.164-0.012,21.841-0.016c8.675,0.004,16.007,0.01,21.84,0.016l7.908,0.002
					c7.574,0,10.896,1.97,12.344,3.62C804.528,274.507,804.669,278.39,802.84,283.643z"/>
			</g>
			<path fill="#463014" d="M796.899,248.673c3.899,11.445,11.865,20.707,11.865,20.707s-10.958-0.498-11.563-2.438
				c-0.445-1.43-9.891-23.542-13.517-49.448C787.092,223.099,796.564,247.693,796.899,248.673z"/>
		</g>
	</g>
	<g>
		<path fill="#EA4A4B" d="M656.459,386.463c0-0.164,0-0.332,0-0.496c2.032,0.674,4.039,1.441,6.099,2.012
			c15.249,4.209,30.894,5.354,46.602,5.715c12.738,0.291,25.448-0.494,38.064-2.342c7.515-1.1,14.993-2.439,22.08-5.348
			c0.033,0.66,0.067,1.316,0.102,1.977c-0.424,3.699-0.844,7.398-1.271,11.1c-1.084,9.369-2.17,18.74-3.257,28.109
			c-0.99,8.549-1.993,17.096-2.955,25.646c-0.081,0.723-0.337,1.244-0.864,1.695c-3.022,2.58-5.934,5.297-9.191,7.59
			c-0.534,0.377-1.128,0.711-1.745,0.91c-0.521,0.166-1.204,0.283-1.536-0.367c-0.255-0.5,0.049-0.951,0.386-1.346
			c1.02-1.197,2.051-2.387,3.052-3.602c1.952-2.363,3.931-4.725,5.086-7.607c1.576-3.936-0.561-6.809-4.794-6.559
			c-1.103,0.066-2.1,0.396-3.063,0.91c-2.224,1.184-4.105,2.779-5.769,4.654c-0.159,0.01-0.319,0.012-0.482,0.012
			c0.05-0.492,0.039-1.002,0.158-1.479c0.31-1.24,0.281-2.42-1.101-2.893c-1.395-0.479-2.104,0.572-2.716,1.611
			c-1.057,1.799-1.67,3.781-2.277,5.756c-0.275,0.893-0.586,1.705-1.314,2.332c-2.131,1.838-4.068,3.902-6.377,5.529
			c-1.013,0.715-2.058,1.396-3.144,1.988c-0.621,0.34-1.362,0.848-2.076,0.264c-0.675-0.553-0.524-1.328-0.28-2.068
			c0.338-1.02,0.614-2.062,1.006-3.061c3.723-9.463,7.502-18.906,11.586-28.223c0.33-0.75,0.573-1.551,0.753-2.352
			c0.191-0.861-0.023-1.65-0.812-2.172c-0.834-0.555-1.687-0.596-2.569-0.092c-0.912,0.52-1.438,1.32-1.815,2.275
			c-4.088,10.385-8.317,20.717-12.197,31.18c-0.996,2.688-2.643,4.051-5.062,4.887c-2.091,0.725-2.786,0.121-2.54-2.076
			c0.055-0.488,0.215-0.967,0.316-1.451c0.768-3.682,2.554-6.979,3.921-10.432c0.332-0.842,0.743-1.662,0.742-2.609
			c-0.001-1.072-0.255-2.01-1.358-2.404c-1.125-0.402-1.913,0.16-2.504,1.078c-0.77,1.193-1.186,2.537-1.672,3.857
			c-1.38,3.752-3.203,7.258-5.812,10.326c-0.982,1.156-2.09,2.133-3.448,2.783c-0.963,0.461-2.044,1.021-3.052,0.357
			c-1.104-0.729-0.691-1.986-0.496-2.982c0.606-3.109,1.906-5.973,3.393-8.756c0.625-1.168,1.278-2.326,1.801-3.539
			c0.443-1.023,0.65-2.16-0.561-2.848c-1.109-0.629-2.232-0.494-3.219,0.365c-0.642,0.561-0.98,1.326-1.338,2.072
			c-1.932,4.029-3.657,8.146-4.966,12.424c-0.337,1.102-0.615,2.24-0.75,3.383c-0.523,4.457,1.829,6.629,6.211,5.697
			c3.965-0.844,6.8-3.242,8.793-6.709c0.13-0.027,0.259-0.047,0.39-0.061c-0.111,0.979-0.283,1.953-0.322,2.936
			c-0.123,3.137,1.742,4.537,4.746,3.658c1.688-0.492,3.139-1.412,4.564-2.383c0.497-0.338,0.763-0.682,1.276,0.129
			c1.762,2.785,3.032,3.178,6.144,2.105c2.699-0.932,4.846-2.73,6.985-4.533c0.185,0.188,0.371,0.377,0.557,0.564
			c-1.751,3.832-3.509,7.66-5.246,11.496c-0.819,1.807-1.657,3.615-2.105,5.555c-0.244,1.055-0.336,2.188,0.823,2.867
			c1.27,0.744,2.38,0.328,3.398-0.557c1.047-0.91,1.484-2.17,1.924-3.418c2.112-6.006,4.453-11.918,7.157-17.688
			c1.913-4.09,4.341-7.799,7.74-10.824c1.201-1.066,2.528-1.902,4.131-2.125c1.601-0.223,2.229,0.615,1.456,2.057
			c-0.658,1.229-1.548,2.342-2.414,3.447c-1.941,2.471-4.104,4.764-5.718,7.488c-0.853,1.438-1.322,2.949-0.464,4.455
			c0.881,1.545,2.486,1.732,4.132,1.723c2.517-0.016,4.646-1.074,6.669-2.4c2.013-1.318,3.807-2.916,5.591-4.525
			c0.343-0.307,0.639-0.918,1.181-0.652c0.178,0.088,0.121,0.773,0.075,1.174c-0.304,2.711-0.642,5.42-0.95,8.129
			c-1.365,11.994-2.635,24-4.151,35.975c-0.341,2.695-1.8,5.102-4.333,6.574c-0.902,0.16-1.788,0.363-2.529,0.951
			c-0.16-0.018-0.307,0.012-0.447,0.092c-0.439-0.078-0.797,0.08-1.104,0.385c-0.304,0.053-0.609,0.107-0.914,0.16
			c-0.229,0.1-0.456,0.201-0.684,0.303c-0.437,0.07-0.873,0.141-1.309,0.213c-0.227,0.094-0.453,0.189-0.681,0.283
			c-2.671,0.359-5.325,0.809-7.933,1.504c-4.282,0.363-8.562,0.766-12.848,1.08c-8.928,0.652-17.839,0.336-26.754-0.428
			c-4.289-0.367-8.502-1.225-12.778-1.658c-1.275-0.568-2.616-0.877-4.009-0.969c-0.316-0.279-0.682-0.42-1.108-0.377
			c-0.276-0.043-0.55-0.088-0.824-0.131c-0.221-0.105-0.442-0.211-0.661-0.318c-0.278-0.062-0.555-0.125-0.834-0.189
			c-0.222-0.105-0.444-0.211-0.667-0.318c-0.276-0.062-0.554-0.125-0.831-0.188c-0.232-0.109-0.467-0.221-0.699-0.33
			c-0.3-0.1-0.599-0.199-0.899-0.299c-0.663-0.328-1.327-0.658-1.991-0.986c-1.726-1.834-2.958-3.789-3.171-6.486
			c-0.614-7.752-1.492-15.484-2.241-23.229c-0.401-4.117-0.766-8.242-1.108-12.363c-0.052-0.607-0.461-1.709,0.994-1.061
			c2.705,1.201,5.192,0.359,7.57-0.979c2.987-1.678,5.514-3.939,7.864-6.41c0.223-0.234,0.656-0.646,0.704-0.609
			c0.396,0.312,0.123,0.697,0.012,1.064c-0.99,3.328-1.975,6.658-2.966,9.986c-0.314,1.057-0.367,2.143-0.096,3.193
			c0.367,1.42,1.489,1.752,2.637,0.811c1.135-0.93,1.688-2.242,2.074-3.607c2.229-7.875,4.434-15.756,7.395-23.404
			c0.714-1.846,1.196-3.781,1.162-5.812c-0.019-1.104-0.349-2.01-1.424-2.369c-1.179-0.393-2.098,0.189-2.785,1.123
			c-0.752,1.021-1.059,2.248-1.34,3.447c-1.482,6.354-5.393,11.068-10.166,15.209c-1.192,1.031-2.441,1.99-3.917,2.596
			c-2.548,1.045-4.229,0.16-4.718-2.547c-0.415-2.303-0.271-4.617,0.235-6.891c1.802-8.043,5.346-15.27,10.386-21.768
			c1.58-2.037,3.391-3.873,5.675-5.137c2.876-1.592,5.236-0.996,7.074,1.723c0.647,0.957,1.153,2.023,1.885,2.91
			c1.372,1.66,2.985,1.336,3.744-0.682c0.361-0.967,0.319-1.936-0.013-2.916c-1.4-4.143-6.444-7.328-10.783-6.781
			c-4.744,0.596-8.157,3.471-11.248,6.766c-5.361,5.717-8.852,12.537-11.392,19.885c-0.104,0.303-0.232,0.598-0.351,0.896
			c-0.102-0.283-0.263-0.559-0.293-0.85c-0.349-3.457-0.681-6.916-1.017-10.375c-1.484-15.32-2.969-30.639-4.453-45.961"/>
		<path fill="#EA4A4B" d="M752.068,513.887c-1.705,2.828-3.408,5.66-5.121,8.488c-0.514,0.85-0.938,1.676-0.994,2.742
			c-0.648,12.211-1.363,24.42-2.016,36.633c-0.061,1.152-0.281,2.02-1.319,2.713c-6.696,4.477-13.948,7.492-21.963,8.564
			c-0.653,0-1.306,0-1.959,0c-0.577-0.061-1.181-0.213-1.563,0.432c-2.32,0-4.643,0-6.963,0c-0.363-0.631-0.962-0.482-1.521-0.463
			c-0.5,0.006-0.997,0.014-1.495,0.02c-0.327,0.006-0.655,0.012-0.981,0.018c-8.35-1.242-16.163-4-23.433-8.295
			c-1.002-0.592-1.807-1.146-1.903-2.592c-0.789-12.033-1.7-24.057-2.522-36.088c-0.083-1.209-0.426-2.232-1.062-3.232
			c-1.994-3.135-3.97-6.283-5.904-9.459c-0.284-0.467-1.06-0.889-0.462-1.641c0.595,0.465,1.239,0.83,1.987,0.988
			c0.088,0.119,0.204,0.174,0.352,0.164c0.143,0.25,0.359,0.363,0.646,0.35c0.117,0.086,0.245,0.115,0.388,0.092
			c0.193,0.105,0.388,0.211,0.582,0.314c0.275,0.068,0.552,0.135,0.828,0.203c0.221,0.105,0.44,0.211,0.661,0.318
			c0.29,0.055,0.58,0.111,0.87,0.166c0.205,0.1,0.41,0.197,0.614,0.297c1.505,0.385,2.945,1.039,4.529,1.086
			c0.804,0.189,1.6,0.412,2.409,0.564c6.586,1.227,13.233,1.803,19.925,2.154c11.016,0.576,21.947,0.045,32.826-1.738
			c2.549-0.229,5.031-0.795,7.49-1.479c0.434,0.059,0.792-0.094,1.103-0.385c0.296-0.053,0.593-0.104,0.889-0.156
			c0.232-0.104,0.462-0.209,0.695-0.314c0.26-0.047,0.521-0.092,0.782-0.137c0.422,0.061,0.75-0.107,1.01-0.432
			c0.159,0.02,0.307-0.012,0.445-0.094c0.508-0.141,1.017-0.279,1.525-0.42C751.648,513.477,751.859,513.682,752.068,513.887z"/>
		<path fill="#EA4A4B" d="M656.459,381.49c5.788-2.723,12.062-3.27,18.278-3.934c11.44-1.223,22.923-1.635,34.429-1.676
			c2.807-0.01,5.616-0.17,8.407,0.1c1.613,0.154,2.149-0.602,2.493-1.969c1.834-7.287,3.734-14.559,5.57-21.845
			c0.393-1.556,1.056-2.849,2.197-4.04c9.273-9.676,18.486-19.41,27.716-29.131c0.334-0.354,0.774-0.631,0.871-1.164
			c0.332,0,0.664,0,0.995,0c1.398,1.898,3.484,2.979,5.328,4.312c1.398,1.012,1.606,1.542,0.35,2.912
			c-8.269,9.035-16.432,18.164-24.644,27.248c-0.786,0.87-1.41,1.771-1.732,2.935c-1.736,6.288-3.535,12.559-5.294,18.843
			c-0.555,1.98-0.53,2.006,1.537,2.121c8.669,0.482,17.345,0.928,25.926,2.342c3.8,0.625,7.701,1.045,10.963,3.443
			c0,0.166,0,0.332,0,0.498c-0.658,0.99-1.558,1.645-2.646,2.135c-1.742,0.783-3.546,1.375-5.389,1.842
			c-13.146,3.342-26.589,4.342-40.068,4.863c-10.342,0.402-20.683,0.08-31.004-0.805c-8.246-0.707-16.455-1.652-24.514-3.582
			c-3.434-0.82-6.993-1.457-9.771-3.957C656.459,382.107,656.459,382.41,656.459,381.49z M722.054,386.146
			c2.377-0.01,4.757-0.018,6.972-1.098c0.415-0.203,1.026-0.41,0.737-1.031c-0.359-0.771-0.803-0.352-1.372-0.074
			c-3.453,1.678-6.974,1.529-10.461,0.098c-0.511-0.207-0.961-0.9-1.354-0.059c-0.349,0.748,0.407,0.918,0.907,1.16
			C718.925,385.834,720.463,386.062,722.054,386.146z"/>
		<path fill="#F5B1B2" d="M718.697,573.027c0.653,0,1.306,0,1.959,0c-0.038,0.143-0.052,0.285-0.042,0.432c-0.664,0-1.326,0-1.988,0
			C718.642,573.314,718.666,573.17,718.697,573.027z"/>
		<path fill="#F7C3C3" d="M769.304,386.004c0.182-0.014,0.364-0.023,0.546-0.037c0,0.662,0,1.326,0,1.988
			c-0.148-0.004-0.297,0.006-0.444,0.025C769.371,387.322,769.337,386.664,769.304,386.004z"/>
		<path fill="#EE6F70" d="M718.697,573.027c-0.03,0.143-0.055,0.287-0.071,0.432c-0.497,0-0.995,0-1.492,0
			C717.516,572.814,718.12,572.967,718.697,573.027z"/>
		<path fill="#EE6F70" d="M708.646,572.996c0.561-0.02,1.16-0.168,1.522,0.463c-0.497,0-0.994,0-1.492,0
			C708.678,573.303,708.668,573.148,708.646,572.996z"/>
		<path fill="#F39C9D" d="M708.646,572.996c0.021,0.154,0.03,0.307,0.03,0.463c-0.496,0-0.994,0-1.49,0
			c0.005-0.148-0.007-0.297-0.034-0.443C707.65,573.01,708.148,573.002,708.646,572.996z"/>
		<path fill="#FAD7D7" d="M707.152,573.016c0.027,0.146,0.039,0.295,0.034,0.443c-0.332,0-0.663,0-0.995,0
			c0.004-0.143-0.002-0.285-0.02-0.426C706.499,573.027,706.824,573.021,707.152,573.016z"/>
		<path fill="#FDF4F4" d="M737.502,516.688c-10.88,1.783-21.811,2.314-32.827,1.738c-6.691-0.352-13.338-0.93-19.925-2.156
			c-0.809-0.15-1.604-0.373-2.408-0.562c0.249-0.459,0.72-0.422,1.135-0.51c4.274,0.432,8.488,1.289,12.778,1.656
			c8.914,0.764,17.824,1.08,26.753,0.428c4.287-0.312,8.566-0.717,12.849-1.08C736.412,516.34,737.082,516.084,737.502,516.688z"/>
		<path fill="#FCEBEB" d="M737.502,516.688c-0.419-0.604-1.09-0.348-1.646-0.486c2.606-0.695,5.261-1.145,7.933-1.502
			c0.28,0.033,0.514-0.047,0.681-0.285c0.436-0.07,0.872-0.141,1.308-0.211c0.286,0.031,0.52-0.055,0.684-0.303
			c0.305-0.053,0.61-0.107,0.914-0.162c0.365,0.016,0.728,0.027,1.091,0.041h-0.002c0.003,0.146,0,0.291-0.005,0.438
			c-0.262,0.047-0.522,0.092-0.782,0.139c-0.293-0.031-0.529,0.061-0.694,0.314c-0.297,0.051-0.593,0.104-0.889,0.156
			c-0.433-0.059-0.842-0.053-1.103,0.385C742.532,515.891,740.051,516.459,737.502,516.688z"/>
		<path fill="#FBE5E5" d="M683.477,515.197c-0.415,0.088-0.886,0.051-1.135,0.51c-1.586-0.047-3.025-0.699-4.529-1.086
			c-0.205-0.098-0.41-0.197-0.615-0.295c-0.29-0.057-0.58-0.113-0.87-0.168c-0.155-0.24-0.383-0.332-0.661-0.318
			c-0.275-0.068-0.553-0.133-0.828-0.201c-0.194-0.105-0.389-0.211-0.582-0.316c-0.143,0.023-0.27-0.006-0.388-0.09
			c-0.004-0.152-0.007-0.303-0.009-0.455l-0.006,0.004c0.229-0.025,0.459-0.049,0.688-0.074c0.277,0.062,0.554,0.125,0.831,0.188
			c0.155,0.248,0.384,0.342,0.667,0.32c0.278,0.062,0.554,0.125,0.833,0.188c0.156,0.24,0.383,0.332,0.661,0.318
			c0.274,0.045,0.549,0.088,0.824,0.131c0.265,0.439,0.682,0.42,1.109,0.377C680.86,514.32,682.2,514.627,683.477,515.197z"/>
		<path fill="#FADADA" d="M751.439,513.271c-0.509,0.139-1.019,0.279-1.525,0.42c-0.213-0.41-0.628-0.355-0.986-0.43
			c0.74-0.588,1.627-0.791,2.527-0.951c0.01,0.211,0.019,0.42,0.026,0.631C751.482,513.053,751.468,513.162,751.439,513.271z"/>
		<path fill="#FEFEFE" d="M670.884,511.727c0.021-0.211,0.045-0.424,0.067-0.637c0.664,0.33,1.329,0.66,1.992,0.988
			c-0.022,0.213-0.048,0.426-0.072,0.637C672.125,512.557,671.479,512.191,670.884,511.727z"/>
		<path fill="#F29090" d="M733.136,462.568c-0.074,0.398-0.198,0.768-0.573,0.992c-0.187-0.189-0.372-0.377-0.558-0.562
			c0.216-0.453,0.539-0.787,1.036-0.922C733.074,462.24,733.104,462.404,733.136,462.568z"/>
		<path fill="#FEFEFE" d="M748.927,513.262c0.358,0.074,0.773,0.02,0.987,0.43c-0.139,0.084-0.286,0.113-0.445,0.094
			c-0.336-0.002-0.67-0.006-1.006-0.008h0.002c0.002-0.141,0.008-0.283,0.015-0.424
			C748.619,513.273,748.767,513.244,748.927,513.262z"/>
		<path fill="#F6BABA" d="M743.482,449.113c-0.113,0.367-0.34,0.582-0.7,0.342c-0.122-0.082,0.016-0.291,0.217-0.33
			C743.161,449.125,743.322,449.123,743.482,449.113z"/>
		<path fill="#FAD7D7" d="M708.222,461.146c0.072-0.369,0.22-0.615,0.651-0.402c-0.089,0.115-0.176,0.229-0.264,0.34
			C708.479,461.098,708.351,461.119,708.222,461.146z"/>
		<path fill="#FEFEFE" d="M672.872,512.715c0.024-0.211,0.05-0.424,0.072-0.637c0.301,0.1,0.599,0.199,0.899,0.299
			c0.003,0.133,0.008,0.268,0.012,0.404l0.006-0.004c-0.212,0.035-0.425,0.068-0.637,0.104
			C673.076,512.889,672.959,512.836,672.872,512.715z"/>
		<path fill="#FBE3E3" d="M679.468,514.229c-0.428,0.041-0.845,0.061-1.109-0.377C678.786,513.809,679.15,513.947,679.468,514.229z"
			/>
		<path fill="#FBE0E0" d="M748.48,513.354c-0.007,0.141-0.013,0.283-0.015,0.424c-0.363-0.014-0.726-0.025-1.091-0.039
			C747.683,513.434,748.04,513.277,748.48,513.354z"/>
		<path fill="#FBE0E0" d="M746.461,513.9c-0.163,0.246-0.397,0.334-0.684,0.303C746.006,514.102,746.233,514,746.461,513.9z"/>
		<path fill="#FBE0E0" d="M744.47,514.414c-0.167,0.238-0.4,0.318-0.681,0.285C744.016,514.604,744.242,514.508,744.47,514.414z"/>
		<path fill="#FADCDD" d="M673.854,512.779c-0.004-0.135-0.009-0.27-0.013-0.404c0.233,0.111,0.466,0.221,0.7,0.33
			C674.313,512.73,674.084,512.754,673.854,512.779z"/>
		<path fill="#FBE3E3" d="M677.534,513.719c-0.278,0.014-0.505-0.078-0.661-0.318C677.094,513.508,677.314,513.613,677.534,513.719z
			"/>
		<path fill="#FADCDD" d="M676.041,513.213c-0.283,0.02-0.513-0.072-0.668-0.318C675.598,513,675.818,513.107,676.041,513.213z"/>
		<path fill="#F18788" d="M751.439,513.271c0.028-0.109,0.043-0.219,0.042-0.33c0.379-0.129,0.884-0.371,1.104-0.004
			c0.203,0.336-0.146,0.732-0.518,0.949C751.859,513.682,751.648,513.477,751.439,513.271z"/>
		<path fill="#FADCDC" d="M733.136,462.568c-0.032-0.164-0.062-0.328-0.095-0.492c0.11-0.08,0.218-0.16,0.326-0.242
			C733.607,462.18,733.396,462.381,733.136,462.568z"/>
		<path fill="#FBE0E0" d="M744.991,515.209c0.261-0.438,0.67-0.443,1.103-0.385C745.782,515.115,745.424,515.268,744.991,515.209z"
			/>
		<path fill="#FBE0E0" d="M748.464,513.777c0.336,0.002,0.671,0.006,1.005,0.008c-0.26,0.324-0.587,0.49-1.01,0.43
			C748.464,514.07,748.467,513.924,748.464,513.777z"/>
		<path fill="#FBE3E3" d="M677.197,514.326c0.205,0.098,0.41,0.197,0.615,0.295C677.606,514.523,677.402,514.424,677.197,514.326z"
			/>
		<path fill="#FBE0E0" d="M746.982,514.67c0.165-0.256,0.402-0.346,0.695-0.316C747.444,514.459,747.214,514.564,746.982,514.67z"/>
		<path fill="#FBE3E3" d="M675.668,513.84c0.276-0.014,0.504,0.078,0.66,0.318C676.107,514.051,675.886,513.945,675.668,513.84z"/>
		<path fill="#FADCDD" d="M673.224,512.879c0.213-0.035,0.425-0.068,0.637-0.102c0.002,0.15,0.005,0.301,0.009,0.453
			C673.583,513.244,673.366,513.129,673.224,512.879z"/>
		<path fill="#FADCDD" d="M674.257,513.322c0.193,0.105,0.388,0.211,0.582,0.314C674.645,513.533,674.45,513.428,674.257,513.322z"
			/>
		<path fill="#FCF0F0" d="M722.054,386.146c-1.591-0.084-3.129-0.311-4.569-1.004c-0.5-0.242-1.256-0.412-0.908-1.16
			c0.394-0.842,0.844-0.15,1.354,0.059c3.487,1.432,7.008,1.578,10.46-0.1c0.571-0.277,1.014-0.697,1.373,0.074
			c0.289,0.623-0.322,0.83-0.737,1.031C726.811,386.129,724.43,386.137,722.054,386.146z"/>
	</g>
</g>
</svg>
