<?xml version="1.0" encoding="utf-8"?>
<!-- Generator: Adobe Illustrator 16.0.4, SVG Export Plug-In . SVG Version: 6.00 Build 0)  -->
<!DOCTYPE svg PUBLIC "-//W3C//DTD SVG 1.1//EN" "http://www.w3.org/Graphics/SVG/1.1/DTD/svg11.dtd">
<svg version="1.1" id="Layer_1" xmlns="http://www.w3.org/2000/svg" xmlns:xlink="http://www.w3.org/1999/xlink" x="0px" y="0px"
	 width="1024px" height="640px" viewBox="0 0 1024 640" enable-background="new 0 0 1024 640" xml:space="preserve">
<g>
	<g>
		<path fill="none" d="M175.721,310.764c0.59,0.185,1.18,0.375,1.764,0.561l-3.527-1.136
			C174.542,310.379,175.13,310.572,175.721,310.764z"/>
		<path d="M173.958,310.189l3.527,1.136c36.038,11.335,68.596,14.495,82.929,8.98l-159.116-51.089
			C109.742,282.047,138.056,298.43,173.958,310.189z"/>
		<path fill="#F4D300" d="M99.062,259.683c-0.901,2.804-0.069,6.039,2.237,9.534l159.116,51.089c3.91-1.501,6.469-3.646,7.37-6.452
			c0.901-2.806,0.065-6.041-2.235-9.542l-159.107-51.084C102.524,254.731,99.964,256.877,99.062,259.683z"/>
		<path fill="#ED2939" d="M106.442,253.227l159.107,51.084c-8.601-13.035-37.691-29.743-74.421-41.534
			C154.398,250.985,121.016,247.631,106.442,253.227z"/>
	</g>
	<g>
		<path fill="none" d="M232.447,389.479c0.362-0.502,0.723-1.004,1.079-1.505l-2.169,3.003
			C231.72,390.484,232.084,389.983,232.447,389.479z"/>
		<path d="M231.356,390.977l2.169-3.003c21.918-30.769,34.983-60.76,34.171-76.097L169.936,447.42
			C184.748,443.357,209.078,421.491,231.356,390.977z"/>
		<path fill="#F4D300" d="M160.179,446.603c2.391,1.723,5.72,1.933,9.757,0.817l97.761-135.543c-0.221-4.181-1.47-7.277-3.86-9
			c-2.391-1.724-5.726-1.929-9.767-0.819l-97.75,135.534C156.539,441.781,157.79,444.878,160.179,446.603z"/>
		<path fill="#ED2939" d="M156.319,437.592l97.75-135.534c-15.054,4.149-39.935,26.653-62.497,57.943
			C169.007,391.287,155.5,421.996,156.319,437.592z"/>
	</g>
	<g>
		<path fill="none" d="M324.84,359.854c-0.364-0.499-0.73-0.997-1.097-1.491l2.188,2.991
			C325.571,360.857,325.207,360.358,324.84,359.854z"/>
		<path d="M325.932,361.354l-2.188-2.991c-22.49-30.353-46.972-52.047-61.812-56.014l98.7,134.861
			C361.34,421.867,348.067,391.973,325.932,361.354z"/>
		<path fill="#F4D300" d="M356.836,446.239c2.375-1.739,3.606-4.843,3.795-9.028l-98.7-134.861c-4.047-1.082-7.376-0.85-9.754,0.891
			c-2.378,1.739-3.603,4.848-3.798,9.035l98.697,134.848C351.125,448.21,354.458,447.977,356.836,446.239z"/>
		<path fill="#ED2939" d="M347.075,447.123l-98.697-134.848c-0.706,15.601,13.009,46.217,35.794,77.346
			S331.99,443.084,347.075,447.123z"/>
	</g>
	<g>
		<path fill="none" d="M325.216,262.829c-0.584,0.194-1.172,0.39-1.753,0.583l3.519-1.155
			C326.398,262.443,325.807,262.636,325.216,262.829z"/>
		<path d="M326.982,262.257l-3.519,1.155c-35.819,12.009-64.019,28.591-72.375,41.478l158.759-52.192
			C395.474,247.278,362.941,250.667,326.982,262.257z"/>
		<path fill="#F4D300" d="M417.261,259.094c-0.92-2.799-3.491-4.924-7.414-6.397l-158.759,52.192
			c-2.282,3.511-3.09,6.751-2.169,9.554c0.92,2.796,3.5,4.924,7.42,6.403l158.746-52.194
			C417.37,265.134,418.182,261.893,417.261,259.094z"/>
		<path fill="#ED2939" d="M415.085,268.652l-158.746,52.194c14.616,5.491,47.976,1.907,84.619-10.142
			C377.606,298.655,406.584,281.75,415.085,268.652z"/>
	</g>
	<g>
		<path fill="none" d="M221.374,220.314c0.003,0.342,0.008,0.686,0.013,1.027l-0.005-2.056
			C221.375,219.624,221.374,219.968,221.374,220.314z"/>
		<path d="M221.381,219.285l0.005,2.056c0.418,20.971,11.238,38.682,26.187,45.271l-0.32-92.78
			C232.348,180.526,221.652,198.309,221.381,219.285z"/>
		<path fill="#F4D300" d="M260.247,170.987c-4.563,0.016-8.934,1.017-12.994,2.844l0.32,92.78c4.072,1.798,8.452,2.768,13.018,2.754
			c4.566-0.016,8.94-1.021,13.006-2.849l-0.32-92.771C269.193,171.945,264.813,170.97,260.247,170.987z"/>
		<path fill="#ED2939" d="M273.277,173.746l0.32,92.771c15.132-6.809,25.94-25.059,25.863-46.476
			C299.382,198.625,288.465,180.448,273.277,173.746z"/>
	</g>
</g>
</svg>
