<?xml version="1.0"?><svg width="387.0625" height="386" xmlns="http://www.w3.org/2000/svg" xmlns:xlink="http://www.w3.org/1999/xlink">
 <title>Gear</title>
 <defs>
  <linearGradient id="linearGradient3510">
   <stop stop-color="#9394b8" id="stop3512" offset="0"/>
   <stop stop-color="#9394b8" stop-opacity="0" id="stop3514" offset="1"/>
  </linearGradient>
  <linearGradient id="linearGradient4777">
   <stop stop-color="#7f7f7f" id="stop4779" offset="0"/>
   <stop stop-color="#ffffff" offset="1" id="stop4809"/>
  </linearGradient>
  <linearGradient id="linearGradient4771">
   <stop stop-color="#ffffff" offset="0" id="stop4773"/>
   <stop stop-color="#ffffff" stop-opacity="0" offset="1" id="stop4775"/>
  </linearGradient>
  <linearGradient id="linearGradient4763">
   <stop stop-color="#ffffff" id="stop4765" offset="0"/>
   <stop stop-color="#ffffff" stop-opacity="0" id="stop4767" offset="1"/>
  </linearGradient>
  <linearGradient id="linearGradient4568">
   <stop stop-color="#9394b8" id="stop4570" offset="0"/>
   <stop stop-color="#ffffff" offset="1" id="stop4807"/>
  </linearGradient>
  <linearGradient gradientUnits="userSpaceOnUse" y2="70.96875" x2="-676.28125" y1="-543.67883" x1="-1290.975" id="linearGradient4574" xlink:href="#linearGradient4568"/>
  <linearGradient gradientUnits="userSpaceOnUse" y2="71.512238" x2="-989.94952" y1="-214.36911" x1="-989.94952" id="linearGradient4711" xlink:href="#linearGradient4568"/>
  <linearGradient gradientTransform="translate(832.3657,771.75654)" gradientUnits="userSpaceOnUse" y2="-236.11523" x2="-979.84796" y1="66.4533" x1="-979.84796" id="linearGradient4769" xlink:href="#linearGradient4777"/>
  <linearGradient gradientTransform="translate(832.3657,771.75654)" gradientUnits="userSpaceOnUse" y2="71.440598" x2="-982.85712" y1="-544.7807" x1="-982.85712" id="linearGradient4797" xlink:href="#linearGradient4568"/>
  <linearGradient y2="71.440598" x2="-982.85712" y1="-544.7807" x1="-982.85712" gradientTransform="translate(832.3657,771.75654)" gradientUnits="userSpaceOnUse" id="linearGradient4817" xlink:href="#linearGradient4568"/>
  <linearGradient y2="-236.11523" x2="-979.84796" y1="66.4533" x1="-979.84796" gradientTransform="translate(832.3657,771.75654)" gradientUnits="userSpaceOnUse" id="linearGradient4819" xlink:href="#linearGradient4777"/>
  <linearGradient y2="-236.11523" x2="-979.84796" y1="66.4533" x1="-979.84796" gradientTransform="matrix(0.6445874,0,0,-0.6297777,1002.1094,322.38324)" gradientUnits="userSpaceOnUse" id="linearGradient4822" xlink:href="#linearGradient4777"/>
  <linearGradient y2="71.440598" x2="-982.85712" y1="-544.7807" x1="-982.85712" gradientTransform="matrix(0.6445874,0,0,0.6297777,1002.1094,620.40148)" gradientUnits="userSpaceOnUse" id="linearGradient4827" xlink:href="#linearGradient4568"/>
  <linearGradient y2="-236.11523" x2="-979.84796" y1="66.4533" x1="-979.84796" gradientTransform="matrix(0.6445874,0,0,-0.6297777,1001.6842,322.38324)" gradientUnits="userSpaceOnUse" id="linearGradient4842" xlink:href="#linearGradient4777"/>
  <linearGradient y2="71.440598" x2="-982.85712" y1="-544.7807" x1="-982.85712" gradientTransform="matrix(0.6445874,0,0,-0.6297777,828.01495,44.991419)" gradientUnits="userSpaceOnUse" id="linearGradient4852" xlink:href="#linearGradient4568"/>
  <linearGradient y2="-236.1319" x2="-987.5874" y1="74.615929" x1="-987.5874" gradientTransform="matrix(0.6445874,0,0,-0.6297777,1002.1094,322.33206)" gradientUnits="userSpaceOnUse" id="linearGradient4873" xlink:href="#linearGradient4568"/>
  <linearGradient y2="71.440598" x2="-982.85712" y1="-544.7807" x1="-982.85712" gradientTransform="matrix(0.6445874,0,0,-0.6297777,946.39511,366.67006)" gradientUnits="userSpaceOnUse" id="linearGradient4886" xlink:href="#linearGradient4568"/>
  <linearGradient gradientUnits="userSpaceOnUse" y2="277.38016" x2="371.2373" y1="663.96436" x1="371.2373" id="linearGradient4902" xlink:href="#linearGradient4568"/>
  <linearGradient gradientUnits="userSpaceOnUse" y2="196.38329" x2="249.67178" y1="196.38329" x1="114.49531" id="linearGradient3516" xlink:href="#linearGradient3510"/>
  <linearGradient gradientTransform="matrix(1.3338949,0,0,1.3338949,125.21415,189.43825)" y2="263.96893" x2="182.29773" y1="129.76848" x1="182.29773" gradientUnits="userSpaceOnUse" id="linearGradient3538" xlink:href="#linearGradient4568"/>
  <linearGradient y2="-236.1319" x2="-987.5874" y1="74.615929" x1="-987.5874" gradientTransform="matrix(0.6445874,0,0,-0.6297777,1002.1094,304.33206)" gradientUnits="userSpaceOnUse" id="linearGradient3761" xlink:href="#linearGradient4568"/>
  <linearGradient gradientTransform="translate(0,-20)" gradientUnits="userSpaceOnUse" y2="277.42972" x2="365.01328" y1="664.38275" x1="365.01328" id="linearGradient3785" xlink:href="#linearGradient4568"/>
  <linearGradient y2="-236.1319" x2="-987.5874" y1="74.615929" x1="-987.5874" gradientTransform="matrix(0.6445874,0,0,-0.6297777,1002.1094,304.33206)" gradientUnits="userSpaceOnUse" id="linearGradient3799" xlink:href="#linearGradient4568"/>
  <linearGradient y2="277.42972" x2="365.01328" y1="664.38275" x1="365.01328" gradientTransform="translate(0,-20)" gradientUnits="userSpaceOnUse" id="linearGradient3801" xlink:href="#linearGradient4568"/>
  <linearGradient y2="263.96893" x2="182.29773" y1="129.76848" x1="182.29773" gradientTransform="matrix(1.3338949,0,0,1.3338949,125.21415,189.43825)" gradientUnits="userSpaceOnUse" id="linearGradient3803" xlink:href="#linearGradient4568"/>
  <linearGradient y2="1.000002" x2="0.501625" y1="0.007303" x1="0.501625" id="linearGradient3806" xlink:href="#linearGradient4568"/>
  <linearGradient y2="-1.003578" x2="0.507476" y1="0.994783" x1="0.507476" id="linearGradient3809" xlink:href="#linearGradient4568"/>
  <linearGradient y2="1.000075" x2="0.493841" y1="-0.010599" x1="0.493841" id="linearGradient3813" xlink:href="#linearGradient4568"/>
 </defs>
 <metadata id="metadata7">image/svg+xml</metadata>
 <g>
  <title>Layer 1</title>
  <polyline fill="none" stroke="#000000" stroke-width="5" stroke-linecap="round" points="273.9375,102 273.9375,102 " id="svg_2"/>
  <g id="svg_14">
   <g id="layer1">
    <g id="g2290">
     <path fill="#545454" fill-rule="nonzero" stroke-width="33.805305" stroke-linecap="round" marker-start="none" marker-mid="none" marker-end="none" stroke-miterlimit="4" stroke-dashoffset="0" d="m64.8125,48.072701l16.4375,45.1875c-0.0355,0.038399 -0.058296,0.086601 -0.093697,0.125l0.125,0.375c-6.912506,7.533798 -13.1306,15.847801 -18.500004,24.9058l-49.5,-1.343002c-0.9816,2.223999 -1.9852,4.445 -2.87505,6.687004c-1.212279,3.055 -2.330959,6.105003 -3.375,9.187996c-1.04366,3.082001 -2.02916,6.207001 -2.90625,9.311996c-0.78568,2.782013 -1.47246,5.550003 -2.125,8.344009l40.5,27.093994c-0.049198,0.444 -0.017399,0.899002 -0.0625,1.343002l0.2813,0.188004c-0.465698,4.723999 -0.621601,9.447998 -0.625,14.155991l88.937206,0c0.01799,-2.83699 0.250977,-5.677994 0.656998,-8.468994c0.404999,-2.789993 1,-5.544006 1.780991,-8.25c0.779999,-2.705002 1.73201,-5.356003 2.875,-7.936996c1.143005,-2.581009 2.476013,-5.082001 3.969009,-7.5c1.491989,-2.417999 3.138992,-4.753006 4.968002,-6.969009c1.829987,-2.215988 3.845978,-4.306 6,-6.280991c2.153992,-1.975006 4.440994,-3.835999 6.906998,-5.531006c2.464996,-1.694992 5.110001,-3.248993 7.875,-4.625c1.972,-0.981995 3.946991,-1.828003 5.968002,-2.593994c2.020996,-0.766006 4.069977,-1.445999 6.125,-2c2.054993,-0.554001 4.113998,-0.997009 6.187988,-1.344009c0.973999,-0.162994 1.960999,-0.225998 2.937012,-0.343994c0.334,-0.042999 0.666,-0.087006 1,-0.125c0.769989,-0.080994 1.542999,-0.227005 2.312988,-0.281006c0.751999,-0.052002 1.498001,-0.00499 2.25,-0.030991c0.853012,-0.037003 1.706009,-0.059006 2.562012,-0.063004c0.468994,0.003006 0.938995,-0.042999 1.406998,-0.031006c0.343979,0.009003 0.686996,0.048004 1.030991,0.063004c1.71701,0.057007 3.437012,0.212006 5.156006,0.406006c7.378006,0.834 14.746002,2.856995 21.75,6.343994c22.117004,11.009995 34.825989,32.863998 34.968994,55.561996l89.031006,0c-0.001007,-4.725998 -0.217987,-9.47699 -0.687988,-14.218994l41,-27.436996c-0.011017,-0.053009 -0.050018,-0.102997 -0.062012,-0.156006c-0.712006,-3.123001 -1.497986,-6.238998 -2.375,-9.343994c-0.877014,-3.105011 -1.830994,-6.199005 -2.875,-9.281006c-1.044006,-3.082993 -2.162994,-6.132996 -3.375,-9.187996c-0.880005,-2.217003 -1.839996,-4.429001 -2.812988,-6.625l-49.124023,1.343994c-0.328979,-0.554993 -0.72699,-1.073997 -1.062988,-1.625l-0.312012,0c-2.40799,-3.952995 -4.967987,-7.774994 -7.687988,-11.437996c-2.720001,-3.662003 -5.587006,-7.169403 -8.593994,-10.5308l16.687988,-45.8125c-1.449982,-1.264599 -2.890991,-2.530899 -4.375,-3.75c-2.46698,-2.0271 -4.975983,-4.006401 -7.531006,-5.9063c-2.556976,-1.899799 -5.173981,-3.729202 -7.812988,-5.5c-2.639008,-1.770702 -5.313995,-3.485001 -8.031006,-5.125c-0.777985,-0.469101 -1.554993,-0.927601 -2.343994,-1.375l-39,29.3438c-0.567993,-0.248901 -1.149994,-0.4147 -1.718994,-0.6563l-0.093018,0.0625c-4.305984,-1.830902 -8.703995,-3.437302 -13.156982,-4.875c-4.453003,-1.437599 -8.958008,-2.68 -13.531006,-3.7187l-0.061996,-0.1563c-0.02301,-0.004902 -0.041,-0.026302 -0.063004,-0.0312l-14.031006,-46.56251c-1.973999,-0.20361 -3.924988,-0.44845 -5.905991,-0.59375c-3.184998,-0.23352 -6.393997,-0.3544 -9.594009,-0.4375c-2.140991,-0.05557 -4.289001,-0.0383 -6.437988,-0.03125c-1.075012,0.01142 -2.145004,-0.02786 -3.218002,0c-3.201004,0.0831 -6.378006,0.23523 -9.563004,0.46875c-1.013,0.07422 -2.020996,0.22302 -3.031006,0.3125l-14,46.374961c-10.158997,2.096901 -20.070999,5.180401 -29.593994,9.2188l-39.375,-29.5938c-1.315697,0.753799 -2.638802,1.466 -3.9375,2.25c-2.716904,1.639898 -5.391701,3.354401 -8.031197,5.125c-2.639305,1.770798 -5.256607,3.600201 -7.8125,5.5c-2.556107,1.899899 -5.064003,3.8792 -7.531303,5.9063c-0.9804,0.805599 -1.911598,1.671299 -2.875,2.5zm181.781494,39.281197c1.360001,0.094299 2.741013,0.451599 4.031006,1.093803c5.160004,2.568901 7.223022,8.770699 4.593994,13.812302c-2.62999,5.042 -8.964996,7.037994 -14.125,4.468994c-5.160995,-2.568993 -7.222992,-8.739594 -4.593994,-13.781296c1.972,-3.781303 6.014008,-5.876404 10.093994,-5.593803zm-148.875191,47.281097c1.359688,0.094009 2.741089,0.452011 4.031189,1.094009c5.160011,2.569 7.223,8.73999 4.594009,13.780991c-2.630013,5.042007 -8.964912,7.03801 -14.125198,4.469009c-5.1604,-2.569 -7.223213,-8.740005 -4.593811,-13.781006c1.972,-3.781998 6.014397,-5.845001 10.093811,-5.563004z" id="path4850"/>
     <path fill="#545454" fill-rule="nonzero" stroke-width="33.805305" stroke-linecap="round" marker-start="none" marker-mid="none" marker-end="none" stroke-miterlimit="4" stroke-dashoffset="0" d="m326.25,337.927002l-16.437012,-45.187012c0.035004,-0.039001 0.058014,-0.086975 0.093018,-0.125l-0.125,-0.375c6.912994,-7.533997 13.130981,-15.847992 18.5,-24.906982l49.5,1.343994c0.981995,-2.223999 1.984985,-4.445007 2.875,-6.687012c1.212006,-3.054993 2.330994,-6.104996 3.375,-9.187988c1.044006,-3.082001 2.028992,-6.207001 2.906006,-9.311996c0.78598,-2.782013 1.472992,-5.550003 2.125,-8.344009l-40.5,-27.093994c0.049988,-0.444 0.017975,-0.899002 0.062988,-1.344009l-0.281006,-0.186996c0.464996,-4.723999 0.621002,-9.447998 0.625,-14.155991l-88.937988,0c-0.018005,2.83699 -0.251007,5.677994 -0.656006,8.467987c-0.404999,2.791 -1.001007,5.545013 -1.781006,8.25c-0.781006,2.706009 -1.731995,5.35701 -2.875,7.938004c-1.14299,2.581009 -2.47699,5.082001 -3.968994,7.5c-1.492004,2.417999 -3.139008,4.753006 -4.968994,6.969009c-1.82901,2.214996 -3.846008,4.306 -6,6.280991c-2.154007,1.975006 -4.440002,3.835999 -6.906006,5.531006c-2.466003,1.694992 -5.110001,3.248993 -7.875,4.625c-1.973007,0.981995 -3.947998,1.828003 -5.968994,2.593994c-2.021011,0.766006 -4.070007,1.445999 -6.125,2c-2.055008,0.554001 -4.113007,0.997009 -6.187012,1.344009c-0.974991,0.162994 -1.960999,0.224991 -2.937988,0.342987c-0.334,0.043015 -0.665009,0.088013 -1,0.125c-0.769012,0.081009 -1.542999,0.228012 -2.312012,0.282013c-0.751999,0.052002 -1.498993,0.00499 -2.25,0.030991c-0.853989,0.037003 -1.705994,0.059006 -2.562988,0.061996c-0.468002,-0.001999 -0.938004,0.044006 -1.406006,0.032013c-0.343994,-0.009003 -0.686996,-0.048004 -1.031006,-0.063004c-1.717987,-0.057007 -3.436996,-0.212006 -5.155991,-0.406006c-7.378998,-0.834 -14.747009,-2.856995 -21.75,-6.343994c-22.117004,-11.009995 -34.827011,-32.863998 -34.969009,-55.561996l-89.031494,0c0.000999,4.725998 0.218102,9.47699 0.6875,14.217987l-41,27.438004c0.01202,0.053009 0.05045,0.102997 0.0625,0.156006c0.71211,3.123001 1.49802,6.238998 2.375,9.343994c0.877,3.105011 1.83127,6.199005 2.875,9.281006c1.043731,3.082993 2.16275,6.132996 3.375,9.187988c0.88008,2.21701 1.8405,4.429016 2.8125,6.625l49.125,-1.343994c0.328499,0.554993 0.7267,1.074005 1.0625,1.625l0.3125,0c2.407898,3.953003 4.967201,7.774994 7.6875,11.437012c2.720299,3.662994 5.586998,7.169983 8.593803,10.531982l-16.687504,45.812012c1.450001,1.264984 2.891201,2.531006 4.375004,3.75c2.467094,2.027008 4.975197,4.006989 7.531197,5.906006c2.556,1.899994 5.173302,3.72998 7.8125,5.5c2.639297,1.770996 5.3144,3.485992 8.031303,5.125c0.777199,0.470001 1.555099,0.927979 2.343697,1.375l39.000504,-29.343018c0.567001,0.249023 1.149002,0.414001 1.718002,0.656006l0.093994,-0.062988c4.304993,1.830994 8.703003,3.437988 13.156006,4.875c4.452988,1.437988 8.959,2.681 13.531998,3.718994l0.061996,0.156006c0.022003,0.005005 0.039993,0.026978 0.063004,0.031982l14.030991,46.562012c1.973007,0.20401 3.925003,0.449005 5.906006,0.593994c3.184998,0.234009 6.393005,0.354004 9.593994,0.437012c2.139999,0.056 4.289001,0.039001 6.437012,0.031982c1.075989,-0.011993 2.144989,0.028015 3.218994,0c3.199997,-0.082977 6.378006,-0.235992 9.563004,-0.468994c1.011993,-0.074005 2.019989,-0.222992 3.030991,-0.312988l14,-46.375c10.158005,-2.096008 20.070999,-5.179993 29.593994,-9.218018l39.375,29.593018c1.315002,-0.753021 2.638,-1.464996 3.937012,-2.25c2.71701,-1.639008 5.391998,-3.354004 8.031006,-5.125c2.639984,-1.77002 5.256989,-3.600006 7.812988,-5.5c2.556,-1.899017 5.063995,-3.878998 7.531006,-5.906006c0.980011,-0.804993 1.911987,-1.67099 2.875,-2.5zm-181.781006,-39.281006c-1.360001,-0.093994 -2.740997,-0.451996 -4.030991,-1.093994c-5.161011,-2.569 -7.223999,-8.770996 -4.594009,-13.812012c2.629013,-5.041992 8.964005,-7.037994 14.125,-4.468994c5.160004,2.569 7.223007,8.73999 4.594009,13.781006c-1.972,3.782013 -6.014999,5.876984 -10.094009,5.593994zm148.875,-47.280991c-1.359985,-0.094009 -2.740997,-0.452011 -4.031006,-1.094009c-5.16098,-2.569 -7.223999,-8.73999 -4.593994,-13.780991c2.628998,-5.042007 8.96402,-7.03801 14.125,-4.469009c5.160004,2.569 7.222992,8.738998 4.593994,13.781006c-1.972992,3.781998 -6.014984,5.845001 -10.093994,5.563004z" id="path3767"/>
    </g>
    <path fill="#545454" fill-rule="nonzero" stroke-width="15.972773" stroke-linejoin="round" stroke-miterlimit="4" stroke-dashoffset="0" id="path2327" d="m195.731995,98.6996c-51.388992,0 -93.330994,41.899399 -93.330994,93.289398c0,51.389999 41.942001,93.331009 93.330994,93.331009c51.389999,0 93.290009,-41.94101 93.290009,-93.331009c0,-51.389999 -41.900009,-93.289398 -93.290009,-93.289398zm0,21.3004c39.862,0 71.989014,32.126999 71.989014,71.988998c0,39.862 -32.127014,72.030014 -71.989014,72.030014c-39.862,0 -72.029991,-32.168015 -72.029991,-72.030014c0,-39.862 32.167992,-71.988998 72.029991,-71.988998z"/>
    <path fill="#545454" fill-rule="nonzero" stroke-width="11.245264" stroke-linejoin="round" stroke-miterlimit="4" stroke-dashoffset="0" id="path3500" d="m195.731995,101.825996c-49.682999,0 -90.162994,40.478996 -90.162994,90.163002c0,49.684006 40.479996,90.16301 90.162994,90.16301c49.684006,0 90.122009,-40.479004 90.122009,-90.16301c0,-49.684006 -40.438004,-90.163002 -90.122009,-90.163002zm0,15.006004c41.568008,0 75.157013,33.589005 75.157013,75.156998c0,41.568008 -33.589005,75.156998 -75.157013,75.156998c-41.567993,0 -75.155998,-33.588989 -75.155998,-75.156998c0,-41.567993 33.588005,-75.156998 75.155998,-75.156998z"/>
   </g>
   <ellipse fill="#545454" stroke-width="5" stroke-dasharray="null" stroke-linejoin="null" stroke-linecap="null" cx="246.9375" cy="98" id="svg_6" rx="17" ry="17"/>
   <ellipse fill="#545454" stroke-width="5" stroke-dasharray="null" stroke-linejoin="null" stroke-linecap="null" cx="100.9375" cy="146" rx="17" ry="17" id="svg_11"/>
   <ellipse fill="#545454" stroke-width="5" stroke-dasharray="null" stroke-linejoin="null" stroke-linecap="null" cx="144.9375" cy="290" rx="17" ry="17" id="svg_12"/>
   <ellipse fill="#545454" stroke-width="5" stroke-dasharray="null" stroke-linejoin="null" stroke-linecap="null" cx="298.9375" cy="242" rx="17" ry="17" id="svg_13"/>
  </g>
  <ellipse fill="#ffffff" stroke-width="5" stroke-dasharray="null" stroke-linejoin="null" stroke-linecap="null" cx="193.531253" cy="194.000003" id="svg_15" rx="91.000003" ry="91.000003"/>
 </g>
</svg>