<?xml version="1.0" encoding="utf-8"?>
<!-- Generator: Adobe Illustrator 16.0.4, SVG Export Plug-In . SVG Version: 6.00 Build 0)  -->
<!DOCTYPE svg PUBLIC "-//W3C//DTD SVG 1.1//EN" "http://www.w3.org/Graphics/SVG/1.1/DTD/svg11.dtd">
<svg version="1.1" id="Layer_1" xmlns="http://www.w3.org/2000/svg" xmlns:xlink="http://www.w3.org/1999/xlink" x="0px" y="0px"
	 width="1024px" height="640px" viewBox="0 0 1024 640" enable-background="new 0 0 1024 640" xml:space="preserve">
<polygon fill="#E14B3E" points="851.361,196.797 915.157,196.797 876.879,260.604 921.538,260.604 838.6,362.684 861.571,286.128 
	819.458,286.128 "/>
<path fill="#E14B3E" d="M878.556,641.5v-59.521c0-14.774-6.05-26.312-18.15-34.613c29.69-2.675,51.394-10.202,65.113-22.584
	c13.719-12.383,20.579-32.012,20.579-58.888c0-20.824-6.403-38.344-19.207-52.555c2.532-7.598,3.799-14.915,3.799-21.95
	c0-10.413-2.393-19.982-7.176-28.705c-9.428,0-17.871,1.548-25.328,4.644s-16.604,8.442-27.438,16.04
	c-13.086-2.954-26.594-4.432-40.525-4.432c-15.898,0-30.744,1.618-44.534,4.854c-10.553-7.738-19.662-13.19-27.332-16.357
	c-7.669-3.165-16.357-4.748-26.066-4.748c-4.644,8.864-6.965,18.433-6.965,28.705c0,7.316,1.196,14.704,3.588,22.161
	c-12.805,13.789-19.207,31.237-19.207,52.344c0,26.876,6.824,46.436,20.474,58.677c13.648,12.241,35.529,19.769,65.642,22.584
	c-8.021,5.346-13.579,13.155-16.676,23.427c-6.894,2.394-14.069,3.588-21.528,3.588c-5.627,0-10.483-1.265-14.562-3.798
	c-1.267-0.703-2.427-1.441-3.483-2.217c-1.056-0.773-2.146-1.724-3.271-2.85c-1.126-1.125-2.041-2.005-2.744-2.639
	c-0.704-0.633-1.618-1.723-2.745-3.27c-1.124-1.549-1.863-2.533-2.215-2.956c-0.352-0.422-1.195-1.547-2.533-3.377
	c-1.337-1.83-2.075-2.814-2.215-2.955c-6.614-8.724-14.494-13.086-23.641-13.086c-4.925,0-7.388,1.056-7.388,3.167
	c0,0.843,1.196,2.251,3.59,4.221c4.501,3.94,6.893,6.05,7.176,6.332c3.377,2.673,5.276,4.361,5.698,5.064
	c4.081,5.066,7.177,10.624,9.286,16.674c7.881,17.59,21.388,26.384,40.524,26.384c3.096,0,9.146-0.703,18.151-2.11V641.5"/>
</svg>
