<?xml version="1.0" encoding="utf-8"?>
<!-- Generator: Adobe Illustrator 16.0.4, SVG Export Plug-In . SVG Version: 6.00 Build 0)  -->
<!DOCTYPE svg PUBLIC "-//W3C//DTD SVG 1.1//EN" "http://www.w3.org/Graphics/SVG/1.1/DTD/svg11.dtd">
<svg version="1.1" id="Layer_1" xmlns="http://www.w3.org/2000/svg" xmlns:xlink="http://www.w3.org/1999/xlink" x="0px" y="0px"
	 width="1024px" height="640px" viewBox="0 0 1024 640" enable-background="new 0 0 1024 640" xml:space="preserve">
<g>
	<g>
		<path fill-rule="evenodd" clip-rule="evenodd" fill="#EBEBEB" d="M128.291,349.31c29.003,0,58.006,0.023,87.008-0.05
			c2.032-0.005,2.44,0.586,2.434,2.5c-0.069,20.134-0.069,40.268,0,60.401c0.006,1.913-0.402,2.504-2.434,2.5
			c-29.002-0.074-58.005-0.051-87.008-0.051C128.291,392.843,128.291,371.077,128.291,349.31z M197.108,373.606
			c0-2.915,0-5.829,0-8.744c0-4.564-0.001-4.502-4.521-4.596c-1.469-0.029-2.339,0.4-3.13,1.669
			c-4.485,7.196-9.003,14.374-13.647,21.469c-1.314,2.008-1.792,4.019-1.724,6.367c0.043,1.507,0.401,1.981,1.953,1.946
			c4.532-0.105,9.068,0.012,13.602-0.066c1.371-0.025,1.841,0.402,1.733,1.754c-0.103,1.288-0.021,2.59-0.021,3.886
			c0,4.221,0,4.221,4.193,4.106c0.129-0.002,0.261-0.014,0.388,0c0.976,0.11,1.205-0.406,1.186-1.275
			c-0.04-1.812-0.011-3.627-0.011-5.441c0-2.998,0-2.983,2.944-3.005c2.795-0.02,2.362,0.351,2.535-2.471
			c0.108-1.772-0.425-2.511-2.227-2.22c-0.505,0.081-1.042-0.047-1.551,0.023c-1.389,0.193-1.757-0.403-1.729-1.743
			C197.161,381.381,197.108,377.493,197.108,373.606z"/>
		<path fill-rule="evenodd" clip-rule="evenodd" fill="#010206" d="M464.631,372.574c4.384-3.937,8.145-3.593,11.009,0.812
			c1.315-2.375,3.248-3.603,5.989-3.514c3.014,0.097,4.982,1.555,5.711,4.516c0.636,2.585,0.868,5.229,0.874,7.887
			c0.012,5.763-0.062,11.527,0.046,17.288c0.03,1.587-0.467,1.924-1.936,1.868c-2.82-0.106-2.823-0.025-2.823-2.859
			c0-5.633,0.029-11.267-0.019-16.9c-0.014-1.609-0.167-3.229-0.408-4.82c-0.235-1.562-1.136-2.61-2.844-2.638
			c-1.71-0.028-2.81,0.845-3.243,2.481c-0.535,2.021-0.484,4.105-0.492,6.172c-0.021,5.568-0.051,11.138,0.024,16.705
			c0.019,1.375-0.219,2.105-1.764,1.84c-0.503-0.088-1.044-0.08-1.55-0.001c-1.252,0.196-1.487-0.361-1.476-1.513
			c0.056-6.022,0.054-12.045,0.008-18.066c-0.013-1.607-0.174-3.226-0.407-4.818c-0.253-1.74-1.269-2.828-3.13-2.795
			c-1.761,0.031-2.611,1.098-2.995,2.743c-0.595,2.552-0.429,5.152-0.5,7.724c-0.137,4.982-0.102,9.972-0.002,14.956
			c0.03,1.472-0.373,2.006-1.82,1.77c-0.504-0.083-1.038-0.055-1.551-0.004c-0.865,0.085-1.262-0.135-1.258-1.135
			c0.034-9.519,0.031-19.036,0.002-28.556c-0.003-0.873,0.284-1.149,1.113-1.078c0.643,0.057,1.307,0.094,1.939-0.006
			C464.432,370.427,464.898,370.997,464.631,372.574z"/>
		<path fill-rule="evenodd" clip-rule="evenodd" fill="#818081" d="M182.292,440.147c2.611-0.64,5.039-0.929,7.5-0.448
			c6.677,1.306,10.38,5.443,10.939,12.216c0.779,9.42-4.85,15.529-14.301,15.567c-3.186,0.014-6.317-0.259-9.403-1.113
			c-1.22-0.337-1.919-0.8-1.744-2.223c0.157-1.275-0.395-3.178,0.26-3.718c0.833-0.686,2.247,0.678,3.442,1.065
			c2.685,0.871,5.409,1.257,8.222,0.983c4.902-0.476,7.761-3.761,7.774-8.936c0.013-5.07-2.943-8.522-7.751-9.022
			c-3.013-0.313-5.96-0.007-8.725,1.276c-1.133,0.526-1.554,0.553-1.538-0.909c0.062-5.894,0.066-11.789-0.005-17.683
			c-0.016-1.346,0.461-1.612,1.688-1.602c5.829,0.057,11.659,0.061,17.488-0.001c1.314-0.014,1.954,0.307,1.763,1.717
			c-0.078,0.572-0.075,1.172,0,1.745c0.16,1.238-0.39,1.525-1.548,1.509c-4.145-0.061-8.292,0.019-12.436-0.05
			c-1.24-0.021-1.703,0.299-1.653,1.607C182.361,434.714,182.292,437.303,182.292,440.147z"/>
		<path fill-rule="evenodd" clip-rule="evenodd" fill="#818081" d="M193.499,314.185c3.569,1.34,6.238,3.416,7.092,7.09
			c1.668,7.179-1.248,13.391-9.097,15.123c-5.19,1.145-10.283,0.312-15.313-1.137c-1.045-0.301-1.2-0.973-1.145-1.903
			c0.079-1.288-0.423-3.144,0.236-3.729c0.855-0.76,2.236,0.639,3.407,1.043c3.11,1.074,6.268,1.526,9.542,1.167
			c4.61-0.506,7.059-3.251,7.026-7.896c-0.028-3.977-2.836-6.883-7.122-7.257c-1.544-0.136-3.108-0.128-4.659-0.066
			c-1.12,0.044-1.46-0.381-1.441-1.464c0.075-4.057-0.346-3.338,3.209-3.396c1.748-0.028,3.505,0.022,5.176-0.609
			c2.751-1.04,4.164-3.283,3.941-6.214c-0.214-2.814-1.907-4.737-4.746-5.4c-4.022-0.939-7.845,0.069-11.587,1.344
			c-1.571,0.535-1.858,0.198-1.835-1.335c0.053-3.587,0-3.544,3.477-4.287c4.019-0.858,8.036-1.361,12.097-0.35
			c6.002,1.495,9.421,6.954,8.081,12.823c-0.556,2.434-1.989,4.167-4.122,5.365C195.062,313.464,194.368,313.761,193.499,314.185z"
			/>
		<path fill-rule="evenodd" clip-rule="evenodd" fill="#818081" d="M182.034,265.889c5.755,0,10.989-0.019,16.222,0.021
			c0.765,0.006,1.966-0.479,2.195,0.587c0.278,1.29,0.335,2.708-0.084,4.015c-0.149,0.465-0.807,0.277-1.242,0.278
			c-7.447,0.008-14.895-0.008-22.341,0.022c-0.993,0.004-1.305-0.305-1.379-1.317c-0.17-2.311,0.4-4.102,2.134-5.855
			c4.366-4.417,8.495-9.072,12.661-13.684c1.521-1.685,2.786-3.591,3.557-5.745c2.248-6.28-2.066-11.355-8.641-10.216
			c-2.832,0.49-5.494,1.452-7.963,2.91c-1.052,0.622-1.395,0.506-1.431-0.808c-0.125-4.613-0.062-4.767,4.415-6.056
			c3.658-1.054,7.362-1.395,11.104-0.49c7.717,1.865,11.224,9.582,7.653,16.696c-2.012,4.01-5.181,7.091-8.136,10.34
			C188.021,259.594,185.2,262.521,182.034,265.889z"/>
		<path fill-rule="evenodd" clip-rule="evenodd" fill="#010206" d="M434.1,374.72c3.203-4.515,7.241-5.539,11.986-4.467
			c2.539,0.574,4.195,2.199,5.158,4.537c0.819,1.988,1.206,4.09,1.21,6.243c0.012,6.214-0.031,12.429,0.033,18.642
			c0.013,1.275-0.188,1.796-1.638,1.762c-3.495-0.082-3.496,0.002-3.496-3.547c0-5.049,0.015-10.098-0.013-15.146
			c-0.005-1.028-0.108-2.066-0.275-3.082c-0.555-3.378-1.977-4.86-4.971-5.283c-2.794-0.393-5.532,1.142-6.816,3.77
			c-1.027,2.102-1.157,4.346-1.156,6.619c0.001,5.049-0.04,10.099,0.03,15.146c0.017,1.206-0.319,1.519-1.512,1.517
			c-3.638-0.005-3.639,0.051-3.639-3.612c0-8.415,0.053-16.831-0.044-25.245c-0.019-1.67,0.472-2.217,2.032-1.92
			c1.03,0.196,2.451-0.594,3.021,0.449C434.46,371.927,434.1,373.196,434.1,374.72z"/>
		<path fill-rule="evenodd" clip-rule="evenodd" fill="#050203" d="M243.573,447.108c-7.288-1.893-7.996-2.816-7.996-9.897
			c0-2.332,0.045-4.665-0.012-6.996c-0.103-4.174-1.37-5.398-5.534-5.476c-2.535-0.048-3.091-0.822-2.569-3.335
			c0.14-0.672,0.512-0.63,0.949-0.634c2.459-0.027,4.926-0.068,7.327,0.576c3.148,0.845,4.733,2.971,4.912,6.823
			c0.144,3.103,0.082,6.215,0.139,9.322c0.015,0.837,0.072,1.682,0.209,2.507c0.53,3.194,2.002,4.591,5.237,4.973
			c0.897,0.106,1.823,0.231,2.708,0.122c1.675-0.208,2.16,0.311,2.189,2.075c0.031,1.876-0.667,2.053-2.232,2.03
			c-5.743-0.082-8.107,2.335-8.123,8.062c-0.007,2.331,0.007,4.663-0.109,6.99c-0.24,4.833-2.32,6.984-7.153,7.494
			c-1.158,0.121-2.328,0.229-3.489,0.2c-3.003-0.072-2.393,0.486-2.568-2.573c-0.081-1.409,0.524-1.534,1.681-1.538
			c5.527-0.015,6.426-0.943,6.438-6.429c0.005-2.203-0.056-4.407,0.014-6.607c0.128-4.124,1.794-6.154,5.742-7.142
			C241.949,447.503,242.567,447.354,243.573,447.108z"/>
		<path fill-rule="evenodd" clip-rule="evenodd" fill="#050407" d="M638.092,185.904c0.851,0.236,1.337,0.389,1.832,0.506
			c4.413,1.046,5.96,2.89,6.092,7.419c0.066,2.263,0.007,4.529,0.014,6.795c0.016,4.933,1.104,6.072,6.059,5.997
			c1.509-0.023,2.128,0.201,2.109,1.94c-0.02,1.74-0.422,2.442-2.232,2.222c-1.662-0.203-3.354-0.103-5.012-0.453
			c-4.043-0.855-5.661-2.548-5.965-6.672c-0.188-2.575-0.131-5.17-0.149-7.757c-0.038-5.438-2.511-7.931-7.905-7.936
			c-2.193-0.002-3.118-1.409-2.372-3.522c0.216-0.613,0.651-0.506,1.081-0.526c1.291-0.059,2.591-0.032,3.871-0.18
			c3.08-0.356,4.549-1.835,5.094-4.898c0.4-2.25,0.16-4.515,0.224-6.772c0.04-1.422-0.013-2.849,0.067-4.268
			c0.329-5.778,2.327-7.78,8.13-8.175c0.967-0.066,1.952,0.04,2.909-0.083c1.689-0.215,2.337,0.285,2.255,2.134
			c-0.067,1.494-0.399,2.12-1.933,1.876c-0.504-0.081-1.035-0.022-1.551,0.018c-3.287,0.252-4.491,1.416-4.639,4.74
			c-0.111,2.519-0.039,5.046-0.041,7.57C646.026,183.096,645.354,183.983,638.092,185.904z"/>
		<path fill-rule="evenodd" clip-rule="evenodd" fill="#818081" d="M187.356,170.127c-3.159,1.519-6.015,2.854-8.834,4.264
			c-1.167,0.583-1.407,0.38-1.587-0.958c-0.396-2.92,0.512-4.74,3.428-5.617c1.467-0.442,2.897-1.155,4.196-1.978
			c2.309-1.463,4.823-1.158,7.325-1.19c0.938-0.012,1.022,0.519,1.017,1.242c-0.016,2.135-0.004,4.271-0.004,6.406
			c0,8.8,0.04,17.6-0.036,26.4c-0.014,1.62,0.448,2.182,2.068,2.056c1.672-0.13,3.365,0.026,5.044-0.047
			c1.109-0.047,1.417,0.365,1.439,1.449c0.067,3.345,0.114,3.344-3.185,3.344c-5.889,0-11.778-0.047-17.665,0.033
			c-1.436,0.02-2.051-0.344-1.826-1.822c0.078-0.506,0.057-1.038,0.004-1.55c-0.113-1.088,0.32-1.493,1.426-1.454
			c1.938,0.068,3.882-0.01,5.823,0.029c0.966,0.02,1.387-0.288,1.384-1.33C187.345,189.766,187.356,180.127,187.356,170.127z"/>
		<path fill-rule="evenodd" clip-rule="evenodd" fill="#050203" d="M536.425,384.366c0-2.785-0.046-5.572,0.023-8.355
			c0.027-1.088-0.267-1.483-1.4-1.427c-1.81,0.091-3.627-0.011-5.439,0.04c-0.908,0.025-1.373-0.084-1.382-1.216
			c-0.02-2.759-0.092-2.744,2.739-2.765c1.737-0.012,3.987,0.566,5.073-0.296c1.154-0.918,0.242-3.27,0.389-4.987
			c0.092-1.08-0.517-2.623,0.247-3.141c1.127-0.765,2.754-0.231,4.167-0.258c0.956-0.019,0.673,0.772,0.68,1.287
			c0.027,2.009,0.074,4.02-0.014,6.023c-0.051,1.14,0.355,1.424,1.438,1.4c2.913-0.067,5.834,0.076,8.742-0.06
			c1.82-0.086,1.363,1.079,1.359,2.013c-0.004,0.927,0.469,2.102-1.352,2.018c-2.908-0.131-5.829,0.007-8.742-0.057
			c-1.064-0.023-1.462,0.23-1.447,1.383c0.062,4.987-0.047,9.977,0.047,14.963c0.094,4.963,1.48,6.217,6.491,6.226
			c0.907,0.001,1.829,0.108,2.718-0.022c1.838-0.27,2.452,0.326,2.371,2.263c-0.064,1.565-0.359,2.173-2.018,2.028
			c-2.38-0.207-4.779,0.119-7.17-0.275c-5.183-0.855-7.101-2.932-7.446-8.238c-0.029-0.451-0.069-0.904-0.071-1.356
			C536.421,389.16,536.425,386.763,536.425,384.366z"/>
		<path fill-rule="evenodd" clip-rule="evenodd" fill="#050407" d="M520.025,377.655c-2.201-1.682-4.229-2.833-6.636-3.278
			c-5.06-0.935-9.387,1.462-10.975,6.335c-1.128,3.465-1.109,7.01-0.039,10.486c2.289,7.43,10.359,7.881,15.429,4.808
			c0.656-0.397,1.26-0.882,2.213-1.555c0,1.808,0.004,3.368-0.003,4.927c-0.001,0.468-0.384,0.634-0.716,0.812
			c-6.994,3.767-19.248,2.735-22.242-7.965c-1.318-4.711-1.3-9.481,0.568-14.062c2.151-5.271,6.408-7.74,11.897-8.241
			c3.063-0.28,6.024,0.204,8.89,1.445c1.275,0.553,1.779,1.243,1.637,2.604C519.935,375.058,520.025,376.165,520.025,377.655z"/>
		<path fill-rule="evenodd" clip-rule="evenodd" fill="#050407" d="M331.976,471.323c9.685-16.702,9.782-33.273,0.175-49.745
			c0.277-0.171,0.368-0.266,0.475-0.289c3.167-0.686,4.774,0.869,6.2,3.601c3.805,7.29,6.287,14.84,5.896,23.156
			c-0.387,8.217-3.334,15.574-7.615,22.481c-0.338,0.545-0.67,0.853-1.364,0.813C334.601,471.276,333.454,471.323,331.976,471.323z"
			/>
		<path fill-rule="evenodd" clip-rule="evenodd" fill="#050407" d="M264.52,421.605c3.606-1.237,5.193,0.506,6.657,3.277
			c3.874,7.334,6.339,14.962,5.908,23.342c-0.423,8.213-3.414,15.561-7.701,22.46c-0.313,0.504-0.68,0.674-1.261,0.651
			c-1.146-0.044-2.295-0.013-3.771-0.013C274.005,454.633,274.151,438.062,264.52,421.605z"/>
		<path fill-rule="evenodd" clip-rule="evenodd" fill="#050407" d="M567.627,160.269c0.343-0.118,0.402-0.145,0.465-0.159
			c3.118-0.667,4.789,0.729,6.241,3.505c3.845,7.348,6.349,14.957,5.933,23.338c-0.408,8.214-3.383,15.565-7.664,22.469
			c-0.365,0.587-0.785,0.736-1.422,0.711c-1.093-0.043-2.189-0.012-3.645-0.012C577.173,193.48,577.33,176.915,567.627,160.269z"/>
		<path fill-rule="evenodd" clip-rule="evenodd" fill="#050407" d="M312.342,421.301c-9.74,16.737-9.668,33.311,0.02,50.027
			c-1.475,0-2.684-0.051-3.885,0.018c-0.758,0.044-1.02-0.46-1.316-0.941c-10.05-16.341-10.118-31.795-0.045-48.161
			c0.408-0.664,0.861-1.033,1.706-0.963C309.85,421.366,310.89,421.301,312.342,421.301z"/>
		<path fill-rule="evenodd" clip-rule="evenodd" fill="#050407" d="M548.213,209.988c-0.32,0.081-0.441,0.118-0.564,0.142
			c-3.02,0.573-4.637-0.773-6.113-3.456c-8.502-15.441-7.824-30.488,1.354-45.353c0.533-0.863,1.054-1.374,2.127-1.24
			c0.765,0.096,1.551,0.018,2.328,0.018c0.193,0,0.387,0,0.929,0C538.527,176.781,538.594,193.417,548.213,209.988z"/>
		<path fill-rule="evenodd" clip-rule="evenodd" fill="#050407" d="M245.03,210c-3.495,0.852-5.223-0.641-6.789-3.518
			c-8.386-15.409-7.663-30.399,1.482-45.187c0.542-0.877,1.086-1.321,2.142-1.215c0.954,0.096,1.925,0.021,3.185,0.021
			c-4.398,7.843-7.24,15.957-7.237,24.913C237.815,193.989,240.585,202.132,245.03,210z"/>
		<path fill-rule="evenodd" clip-rule="evenodd" fill="#050203" d="M365.378,474.478c0.329-1.351,0.566-2.553,0.917-3.722
			c1.247-4.167,2.262-8.364,1.817-12.765c-0.109-1.08,0.234-1.47,1.364-1.417c1.939,0.091,3.887,0.075,5.828,0.005
			c1.033-0.038,1.294,0.237,1.478,1.339c1.047,6.274-2.698,10.941-5.142,16.055c-0.21,0.439-0.542,0.503-0.94,0.504
			C368.96,474.479,367.221,474.478,365.378,474.478z"/>
		<path fill-rule="evenodd" clip-rule="evenodd" fill="#050203" d="M702.358,278.578c0.449-1.802,0.748-3.395,1.245-4.922
			c1.214-3.731,1.827-7.53,1.499-11.448c-0.095-1.144,0.175-1.618,1.447-1.54c1.936,0.12,3.889,0.101,5.827,0.005
			c1.155-0.058,1.25,0.412,1.391,1.425c0.648,4.637-1.325,8.45-3.196,12.477c-1.502,3.238-3.339,4.731-6.843,4.013
			C703.359,278.512,702.962,278.578,702.358,278.578z"/>
		<path fill-rule="evenodd" clip-rule="evenodd" fill="#050203" d="M376.222,440.883c0,1.606,0.615,3.703-0.168,4.686
			c-0.832,1.045-3.022,0.294-4.616,0.315c-3.706,0.053-3.745,0.018-3.69-3.683c0.03-2.04-0.874-4.762,0.372-5.917
			c1.089-1.01,3.8-0.156,5.77-0.359c1.984-0.206,2.801,0.402,2.47,2.446c-0.132,0.817-0.021,1.673-0.021,2.511
			C376.3,440.882,376.261,440.882,376.222,440.883z"/>
		<path fill-rule="evenodd" clip-rule="evenodd" fill="#050203" d="M713.197,245.015c0,1.603,0.617,3.713-0.169,4.669
			c-0.836,1.018-3.029,0.281-4.626,0.301c-3.674,0.047-3.714,0.014-3.657-3.911c0.028-1.972-0.843-4.538,0.385-5.733
			c0.973-0.946,3.543-0.268,5.405-0.278c2.799-0.016,2.799-0.004,2.799,2.822c0,0.709,0,1.419,0,2.128
			C713.289,245.015,713.242,245.015,713.197,245.015z"/>
		<path fill-rule="evenodd" clip-rule="evenodd" fill="#595959" d="M255.318,480.505c-11.221,0-22.442,0-33.664,0
			c-0.002-0.104-0.004-0.21-0.007-0.314c11.222,0,22.445,0,33.667,0C255.316,480.295,255.317,480.4,255.318,480.505z"/>
		<path fill-rule="evenodd" clip-rule="evenodd" fill="#595959" d="M659.556,219.304c-11.222,0-22.442,0-33.664,0
			c0.001-0.129,0.001-0.259,0.001-0.388c11.222,0,22.442,0,33.663,0C659.556,219.045,659.556,219.175,659.556,219.304z"/>
		<path fill-rule="evenodd" clip-rule="evenodd" fill="#818081" d="M197.108,373.606c0,3.887,0.052,7.774-0.028,11.659
			c-0.028,1.34,0.34,1.937,1.729,1.743c0.508-0.07,1.046,0.058,1.551-0.023c1.801-0.291,2.335,0.447,2.227,2.22
			c-0.173,2.821,0.261,2.451-2.535,2.471c-2.944,0.021-2.943,0.007-2.944,3.005c0,1.814-0.029,3.629,0.011,5.441
			c0.02,0.869-0.209,1.386-1.186,1.275c-0.127-0.014-0.259-0.002-0.388,0c-4.193,0.114-4.193,0.114-4.193-4.106
			c0-1.296-0.081-2.598,0.021-3.886c0.107-1.352-0.362-1.779-1.733-1.754c-4.533,0.078-9.069-0.039-13.602,0.066
			c-1.552,0.035-1.91-0.439-1.953-1.946c-0.068-2.349,0.41-4.359,1.724-6.367c4.644-7.095,9.162-14.272,13.647-21.469
			c0.791-1.269,1.661-1.698,3.13-1.669c4.52,0.094,4.521,0.031,4.521,4.596C197.108,367.777,197.108,370.691,197.108,373.606z
			 M191.353,366.802c-0.14-0.014-0.279-0.027-0.419-0.039c-3.967,6.667-7.935,13.335-12.04,20.234c3.125,0,5.836,0,8.549,0
			c3.91,0,3.91,0,3.91-3.99C191.353,377.605,191.353,372.204,191.353,366.802z"/>
		<path fill-rule="evenodd" clip-rule="evenodd" fill="#FEFEFE" d="M407.236,251.338c-2.331,0.002-4.663-0.037-6.992,0.02
			c-1.011,0.025-1.206-0.342-1.025-1.263c0.66-3.363,4.363-6.359,8.056-6.461c3.75-0.105,6.881,2.346,7.828,6.004
			c0.367,1.418-0.047,1.797-1.457,1.726C411.513,251.256,409.373,251.336,407.236,251.338z"/>
		<path fill-rule="evenodd" clip-rule="evenodd" fill="#EBEBEB" d="M191.353,366.802c0,5.402,0,10.804,0,16.205
			c0,3.99,0,3.99-3.91,3.99c-2.712,0-5.424,0-8.549,0c4.105-6.899,8.072-13.567,12.04-20.234
			C191.073,366.774,191.213,366.788,191.353,366.802z"/>
	</g>
	<g>
		<path fill-rule="evenodd" clip-rule="evenodd" fill="#27AE60" d="M745.376,373.395c1.454-2.464,3.371-3.614,6.032-3.526
			c3.021,0.098,5.007,1.562,5.727,4.508c0.6,2.457,0.854,4.967,0.854,7.499c0.003,5.955-0.047,11.911,0.035,17.864
			c0.02,1.4-0.406,1.862-1.738,1.67c-0.507-0.073-1.043-0.074-1.55,0c-1.204,0.176-1.523-0.291-1.512-1.489
			c0.062-6.02,0.058-12.04,0.009-18.06c-0.013-1.675-0.178-3.357-0.406-5.019c-0.219-1.592-1.164-2.599-2.853-2.621
			c-1.715-0.022-2.802,0.894-3.212,2.53c-0.508,2.023-0.48,4.103-0.482,6.172c-0.003,5.566-0.057,11.135,0.036,16.699
			c0.024,1.465-0.367,2.018-1.82,1.787c-0.505-0.08-1.044-0.078-1.549,0c-1.276,0.197-1.478-0.419-1.469-1.54
			c0.048-6.021,0.054-12.04,0.002-18.059c-0.016-1.673-0.208-3.354-0.449-5.011c-0.235-1.613-1.278-2.536-2.917-2.572
			c-1.745-0.038-2.703,0.96-3.094,2.617c-0.617,2.613-0.446,5.281-0.498,7.921c-0.097,4.983-0.077,9.969,0.004,14.952
			c0.021,1.373-0.392,1.746-1.738,1.712c-2.945-0.073-2.947,0-2.948-2.966c0-4.92,0-9.839,0-14.758
			c0-3.819,0.046-7.639-0.026-11.457c-0.023-1.229,0.258-1.83,1.585-1.617c0.442,0.072,0.904,0.015,1.358,0.011
			c1.066-0.009,2.331-0.263,1.453,2.277c2.042-2.21,3.79-3.233,6.109-3.056C742.591,370.04,744.225,371.063,745.376,373.395z"/>
		<path fill-rule="evenodd" clip-rule="evenodd" fill="#27AE60" d="M418.975,264.122c0.091,0.368,0.145,0.487,0.148,0.608
			c0.148,4.908,0.155,4.942-4.663,6.055c-3.036,0.701-6.089,1.077-9.229,0.52c-6.833-1.213-11.293-5.947-11.879-12.909
			c-0.294-3.496-0.245-6.98,1.076-10.334c2.499-6.346,8.517-9.759,15.439-8.708c5.981,0.908,10.296,6.048,10.691,12.743
			c0.031,0.517-0.019,1.042,0.057,1.552c0.195,1.329-0.285,1.752-1.668,1.735c-6.088-0.077-12.177-0.003-18.265-0.057
			c-1.331-0.012-1.934,0.161-1.893,1.774c0.198,7.716,5.416,11.499,13.404,9.593C414.526,266.137,416.71,265.193,418.975,264.122z
			 M407.236,251.336c2.137,0,4.277-0.08,6.409,0.028c1.41,0.071,1.824-0.308,1.457-1.726c-0.947-3.658-4.078-6.109-7.828-6.004
			c-3.692,0.103-7.396,3.098-8.056,6.461c-0.181,0.92,0.015,1.288,1.025,1.263C402.573,251.301,404.905,251.34,407.236,251.336z"/>
		<path fill-rule="evenodd" clip-rule="evenodd" fill="#27AE60" d="M703.623,374.521c3.171-4.43,7.267-5.344,12.001-4.244
			c2.375,0.553,3.969,2.111,4.921,4.291c0.861,1.972,1.288,4.066,1.292,6.225c0.014,6.343-0.031,12.686,0.034,19.027
			c0.013,1.273-0.341,1.623-1.608,1.609c-3.547-0.036-3.547,0.024-3.547-3.518c0-5.048,0.014-10.096-0.011-15.145
			c-0.006-1.029-0.091-2.069-0.249-3.087c-0.514-3.309-1.916-4.808-4.797-5.225c-2.935-0.425-5.638,0.945-6.914,3.556
			c-0.744,1.523-1.166,3.145-1.172,4.854c-0.021,5.565-0.076,11.131-0.021,16.695c0.014,1.352-0.181,1.932-1.747,1.882
			c-3.446-0.108-3.449-0.011-3.449-3.452c0-8.479,0.032-16.956-0.031-25.436c-0.011-1.445,0.258-2.018,1.867-1.953
			C703.385,370.729,703.389,370.628,703.623,374.521z"/>
		<path fill-rule="evenodd" clip-rule="evenodd" fill="#27AE60" d="M346.097,266.939c-2.124,3.115-4.994,4.585-8.562,4.628
			c-4.992,0.06-7.86-2.177-9.063-7.02c-0.44-1.771-0.526-3.582-0.53-5.395c-0.013-5.762,0.038-11.524-0.042-17.285
			c-0.019-1.403,0.269-1.893,1.785-1.845c3.412,0.107,3.415,0.016,3.415,3.484c0,4.985-0.01,9.97,0.008,14.955
			c0.004,1.225-0.026,2.452,0.268,3.666c0.751,3.098,2.155,4.536,4.777,4.805c3.245,0.334,5.715-0.992,6.995-3.74
			c0.895-1.921,1.136-3.967,1.141-6.051c0.013-5.114,0.044-10.229-0.024-15.343c-0.017-1.273,0.191-1.803,1.643-1.773
			c3.51,0.073,3.511-0.008,3.511,3.567c0,8.481-0.04,16.962,0.039,25.442c0.013,1.478-0.386,1.844-1.824,1.798
			C346.563,270.734,346.561,270.817,346.097,266.939z"/>
		<path fill-rule="evenodd" clip-rule="evenodd" fill="#27AE60" d="M483.791,246.053c-2.185-0.896-4.132-1.883-6.318-2.216
			c-1.883-0.287-3.725-0.338-5.58,0.12c-2.343,0.579-3.551,1.859-3.642,3.91c-0.09,2.061,0.939,3.421,3.357,4.112
			c1.858,0.532,3.759,0.941,5.663,1.28c5.306,0.944,7.981,3.586,8.074,8.082c0.107,5.242-2.603,8.65-7.79,9.787
			c-4.708,1.032-9.253,0.161-13.757-1.179c-0.504-0.15-0.94-0.345-0.92-1.041c0.043-1.472,0.013-2.946,0.013-4.616
			c2.995,1.329,5.777,2.482,8.817,2.829c2.042,0.234,4.006,0.058,5.854-0.866c1.647-0.823,2.532-2.18,2.548-4.038
			c0.015-1.721-1.087-2.705-2.451-3.441c-2.199-1.187-4.66-1.465-7.056-1.976c-7.018-1.494-9.935-8.034-6.06-13.625
			c1.856-2.678,4.727-3.525,7.745-3.816c3.237-0.312,6.437,0.02,9.586,0.975c1.461,0.443,2.205,1.045,1.943,2.671
			C483.668,243.933,483.791,244.905,483.791,246.053z"/>
		<path fill-rule="evenodd" clip-rule="evenodd" fill="#27AE60" d="M382.731,246.104c-3.099-1.523-6.099-2.635-9.409-2.5
			c-1.304,0.054-2.569,0.255-3.771,0.776c-1.609,0.698-2.338,1.993-2.353,3.683c-0.014,1.728,0.812,2.967,2.441,3.591
			c2.12,0.813,4.35,1.219,6.574,1.609c5.306,0.931,7.98,3.583,8.073,8.078c0.108,5.242-2.604,8.65-7.791,9.786
			c-4.708,1.031-9.254,0.16-13.757-1.18c-0.505-0.15-0.939-0.347-0.918-1.042c0.043-1.472,0.013-2.945,0.013-4.616
			c2.996,1.332,5.779,2.483,8.818,2.831c2.042,0.233,4.006,0.057,5.854-0.868c1.646-0.824,2.531-2.181,2.546-4.039
			c0.014-1.721-1.089-2.704-2.453-3.44c-2.199-1.186-4.66-1.464-7.056-1.975c-7.018-1.495-9.934-8.037-6.057-13.626
			c1.857-2.678,4.728-3.524,7.746-3.814c3.237-0.312,6.437,0.021,9.586,0.975c1.464,0.443,2.202,1.049,1.94,2.672
			C382.608,243.933,382.731,244.904,382.731,246.104z"/>
		<path fill-rule="evenodd" clip-rule="evenodd" fill="#27AE60" d="M637.508,253.834c0-2.655-0.106-5.316,0.039-7.963
			c0.089-1.616-0.502-1.988-1.974-1.884c-1.675,0.118-3.368-0.035-5.048,0.043c-1.775,0.083-1.143-1.206-1.144-2.001
			c-0.001-0.796-0.628-2.081,1.144-2.003c1.745,0.078,3.502-0.063,5.243,0.042c1.321,0.08,1.857-0.272,1.77-1.693
			c-0.122-1.936,0.005-3.885-0.046-5.826c-0.023-0.895,0.234-1.22,1.186-1.279c3.953-0.244,3.922-0.28,3.965,3.732
			c0.018,1.607-0.692,3.674,0.292,4.7c0.995,1.037,3.074,0.269,4.677,0.326c1.746,0.062,3.503,0.107,5.242-0.013
			c1.681-0.115,1.352,1.005,1.281,1.895c-0.066,0.855,0.666,2.188-1.242,2.128c-2.976-0.094-5.957-0.012-8.936-0.033
			c-0.799-0.006-1.357,0.058-1.343,1.11c0.081,5.565-0.009,11.136,0.202,16.695c0.129,3.4,1.683,4.652,5.115,4.725
			c1.619,0.034,3.242,0.075,4.855-0.016c1.155-0.064,1.497,0.393,1.384,1.457c-0.062,0.576-0.056,1.169-0.001,1.747
			c0.085,0.883-0.328,1.118-1.135,1.082c-2.84-0.128-5.687,0.185-8.525-0.312c-4.6-0.807-6.633-2.978-6.898-7.921
			c-0.155-2.905-0.028-5.825-0.028-8.737C637.558,253.834,637.533,253.834,637.508,253.834z"/>
		<path fill-rule="evenodd" clip-rule="evenodd" fill="#27AE60" d="M805.811,384.485c0-2.851-0.033-5.7,0.018-8.549
			c0.019-0.996-0.278-1.389-1.317-1.341c-1.615,0.073-3.246-0.09-4.854,0.05c-1.57,0.137-2.056-0.295-2.085-1.965
			c-0.032-1.789,0.533-2.219,2.18-2.068c1.541,0.142,3.109-0.033,4.659,0.052c1.127,0.062,1.46-0.354,1.42-1.443
			c-0.072-2.005,0.029-4.016-0.041-6.021c-0.036-1.037,0.345-1.294,1.337-1.328c3.807-0.134,3.778-0.17,3.817,3.682
			c0.017,1.608-0.691,3.694,0.274,4.703c1.057,1.104,3.183,0.307,4.841,0.371c1.746,0.067,3.497,0.043,5.244,0.008
			c1.928-0.04,1.01,1.402,1.125,2.221c0.116,0.818,0.376,1.835-1.183,1.785c-2.976-0.095-5.958-0.002-8.936-0.041
			c-0.933-0.013-1.416,0.166-1.397,1.26c0.089,5.436-0.019,10.878,0.202,16.307c0.153,3.773,1.62,4.93,5.459,4.975
			c1.489,0.018,2.982,0.063,4.467-0.018c1.086-0.059,1.444,0.277,1.452,1.402c0.021,2.871,0.082,2.9-2.853,2.861
			c-2.132-0.027-4.265,0.146-6.395-0.225c-5.134-0.895-7.088-2.947-7.337-8.135c-0.137-2.842-0.024-5.695-0.024-8.543
			C805.86,384.485,805.835,384.485,805.811,384.485z"/>
		<path fill-rule="evenodd" clip-rule="evenodd" fill="#27AE60" d="M502.632,253.819c0-2.591-0.092-5.186,0.034-7.77
			c0.076-1.56-0.294-2.224-1.984-2.069c-1.67,0.153-3.367-0.023-5.048,0.048c-1.781,0.075-1.114-1.227-1.128-2.015
			c-0.014-0.803-0.606-2.072,1.159-1.989c1.81,0.084,3.629-0.049,5.438,0.042c1.179,0.06,1.611-0.286,1.554-1.511
			c-0.094-2.003,0.012-4.015-0.042-6.021c-0.025-0.915,0.269-1.207,1.203-1.263c3.937-0.234,3.907-0.268,3.948,3.553
			c0.018,1.672-0.714,3.841,0.306,4.881c1.025,1.045,3.202,0.274,4.872,0.325c1.746,0.053,3.496,0.037,5.245,0.006
			c1.798-0.032,1.008,1.319,1.051,2.087c0.04,0.73,0.608,1.931-1.042,1.904c-3.043-0.05-6.087,0.001-9.13-0.023
			c-0.815-0.006-1.345,0.085-1.33,1.126c0.082,5.564-0.007,11.135,0.204,16.695c0.129,3.39,1.689,4.637,5.129,4.711
			c1.424,0.03,2.861,0.124,4.271-0.023c1.688-0.177,2.273,0.524,1.916,2.054c-0.181,0.769,0.822,2.195-0.918,2.206
			c-3.23,0.02-6.479,0.271-9.679-0.43c-3.744-0.82-5.625-3.288-5.954-7.785c-0.033-0.452-0.071-0.904-0.073-1.356
			C502.628,258.741,502.632,256.28,502.632,253.819z"/>
		<path fill-rule="evenodd" clip-rule="evenodd" fill="#27AE60" d="M789.814,377.618c-2.052-1.385-3.811-2.641-6.028-3.074
			c-6.269-1.223-10.76,1.629-12.032,7.843c-0.482,2.359-0.483,4.776-0.021,7.138c1.475,7.509,9.12,10.66,15.749,6.531
			c0.699-0.436,1.357-0.938,2.331-1.615c0,1.713-0.03,3.162,0.013,4.607c0.021,0.736-0.432,0.986-0.972,1.266
			c-7.98,4.126-22.104,2.179-22.788-12.552c-0.108-2.337-0.058-4.65,0.446-6.945c1.379-6.279,6.292-10.503,12.724-10.91
			c3.008-0.19,5.912,0.172,8.734,1.343c1.386,0.575,2.088,1.288,1.871,2.863C789.697,375.167,789.814,376.257,789.814,377.618z"/>
		<path fill-rule="evenodd" clip-rule="evenodd" fill="#27AE60" d="M621.119,263.855c0,1.742-0.015,3.205,0.006,4.667
			c0.014,1.074-0.911,1.165-1.557,1.466c-11.71,5.456-22.707-1.978-22.281-15.034c0.1-3.073,0.526-6.062,2.061-8.789
			c3.201-5.693,10.265-8.271,17.44-6.38c4.33,1.141,4.56,1.511,4.251,7.148c-1.957-1.25-3.744-2.573-6.018-3.006
			c-6.244-1.188-10.757,1.706-11.979,7.93c-0.463,2.359-0.468,4.778,0.013,7.14c1.524,7.495,9.171,10.583,15.798,6.417
			C619.545,264.979,620.201,264.489,621.119,263.855z"/>
		<path fill-rule="evenodd" clip-rule="evenodd" fill="#27AE60" d="M579.797,253.473c0,3.819,0.074,7.64-0.036,11.456
			c-0.044,1.503,0.454,1.878,1.868,1.809c2.26-0.112,4.535,0.063,6.795-0.06c1.844-0.1,1.35,1.153,1.314,2.057
			c-0.033,0.853,0.649,2.114-1.254,2.094c-7.508-0.077-15.018-0.079-22.525,0.001c-1.873,0.02-1.283-1.199-1.289-2.077
			c-0.006-0.887-0.582-2.17,1.293-2.076c2.389,0.12,4.789-0.009,7.184,0.046c1.029,0.024,1.5-0.195,1.49-1.373
			c-0.05-6.602-0.045-13.205-0.003-19.807c0.007-1.099-0.335-1.478-1.435-1.428c-1.68,0.076-3.375-0.094-5.045,0.052
			c-1.619,0.14-1.5-0.861-1.363-1.818c0.123-0.879-0.795-2.341,1.269-2.291c3.493,0.085,6.991,0.062,10.485,0
			c1.09-0.02,1.277,0.426,1.268,1.374C579.774,245.446,579.797,249.459,579.797,253.473z"/>
		<path fill-rule="evenodd" clip-rule="evenodd" fill="#27AE60" d="M539.886,244.986c4.139-6.532,10.379-6.374,14.517-4.92
			c1.5,0.527,2.383,1.349,2.101,3.113c-0.151,0.947-0.027,1.937-0.027,3.109c-1.394-0.637-2.647-1.403-4.009-1.8
			c-6.855-1.997-12.447,2.243-12.565,9.534c-0.08,4.982-0.065,9.969,0.017,14.952c0.022,1.389-0.247,1.907-1.775,1.865
			c-3.562-0.097-3.564-0.007-3.564-3.549c0-8.415,0.045-16.831-0.039-25.245c-0.016-1.595,0.359-2.105,2-2.045
			c3.318,0.122,3.322,0.028,3.346,3.363C539.888,243.743,539.886,244.121,539.886,244.986z"/>
		<path fill-rule="evenodd" clip-rule="evenodd" fill="#27AE60" d="M673.727,366.991c0-2.387,0.033-4.773-0.016-7.16
			c-0.02-0.919,0.285-1.183,1.208-1.233c5.017-0.274,5.016-0.302,5.016,4.739c0,3.678-0.036,7.355,0.022,11.031
			c0.017,1.066-0.262,1.411-1.381,1.433c-4.85,0.095-4.85,0.136-4.85-4.745C673.727,369.7,673.727,368.346,673.727,366.991z"/>
		<path fill-rule="evenodd" clip-rule="evenodd" fill="#27AE60" d="M309.123,236.656c0,2.322-0.08,4.648,0.031,6.965
			c0.063,1.318-0.415,1.579-1.632,1.578c-4.606-0.004-4.606,0.039-4.606-4.6c0-3.677,0.037-7.354-0.022-11.03
			c-0.018-1.114,0.187-1.567,1.458-1.583c4.772-0.057,4.772-0.111,4.772,4.606C309.123,233.947,309.123,235.301,309.123,236.656z"/>
		<path fill-rule="evenodd" clip-rule="evenodd" fill="#27AE60" d="M848.237,367.227c0,2.451-0.035,4.903,0.019,7.354
			c0.02,0.922-0.28,1.171-1.2,1.215c-5.027,0.247-5.025,0.275-5.025-4.76c0-3.613,0.055-7.227-0.029-10.836
			c-0.03-1.288,0.368-1.611,1.631-1.609c4.606,0.004,4.606-0.046,4.606,4.571C848.238,364.517,848.238,365.872,848.237,367.227z"/>
		<path fill-rule="evenodd" clip-rule="evenodd" fill="#27AE60" d="M679.935,236.795c-0.001,2.387-0.032,4.774,0.016,7.16
			c0.019,0.891-0.22,1.194-1.173,1.244c-5.052,0.263-5.051,0.294-5.051-4.737c0-3.677,0.037-7.354-0.022-11.03
			c-0.018-1.085,0.29-1.413,1.403-1.438c4.828-0.109,4.827-0.149,4.827,4.738C679.935,234.085,679.935,235.44,679.935,236.795z"/>
		<path fill-rule="evenodd" clip-rule="evenodd" fill="#27AE60" d="M574.61,231.264c0.217-0.875-0.589-2.446,0.427-2.855
			c1.22-0.492,2.778-0.163,4.189-0.146c0.496,0.006,0.574,0.416,0.57,0.833c-0.006,0.771-0.001,1.543-0.001,2.314
			c0,3.287-0.003,3.189-3.349,3.309c-1.598,0.058-2.055-0.498-1.847-1.952C574.664,232.326,574.61,231.868,574.61,231.264z"/>
	</g>
	<g>
		<path fill-rule="evenodd" clip-rule="evenodd" fill="#E74C3C" stroke="#E74C3C" stroke-width="2" stroke-miterlimit="10" d="
			M861.741,350.104c1.361-1.139,31.721-1.133,33.055,0C883.756,350.104,872.792,350.104,861.741,350.104z"/>
		<path fill-rule="evenodd" clip-rule="evenodd" fill="#E74C3C" stroke="#E74C3C" stroke-width="2" stroke-miterlimit="10" d="
			M862.115,414.727c10.772,0,21.546,0,32.319,0c0,0.125,0,0.249,0.001,0.374c-10.773,0-21.546,0-32.319,0
			C862.116,414.976,862.115,414.852,862.115,414.727z"/>
		<path fill-rule="evenodd" clip-rule="evenodd" fill="#E74C3C" stroke="#E74C3C" stroke-width="2" stroke-miterlimit="10" d="
			M861.038,350.985c0,20.965,0,41.931,0,62.896c-0.065,0-0.13,0.001-0.194,0.002c0-20.966,0-41.932,0-62.896
			C860.908,350.987,860.973,350.985,861.038,350.985z"/>
		<path fill-rule="evenodd" clip-rule="evenodd" fill="#E74C3C" stroke="#E74C3C" stroke-width="2" stroke-miterlimit="10" d="
			M895.496,413.9c0-20.964,0-41.93,0-62.896c0.071,0.001,0.142,0.001,0.213,0.002c0,20.965,0,41.93,0,62.896
			C895.638,413.901,895.567,413.901,895.496,413.9z"/>
		<path fill-rule="evenodd" clip-rule="evenodd" fill="#E74C3C" stroke="#E74C3C" stroke-width="3" stroke-miterlimit="10" d="
			M145.72,381.875c0.042,1.632-1.108,2.835-2.727,2.854c-1.63,0.019-2.807-1.148-2.802-2.779c0.005-1.547,1.1-2.695,2.631-2.759
			C144.449,379.124,145.679,380.263,145.72,381.875z"/>
	</g>
	<g>
		<path fill-rule="evenodd" clip-rule="evenodd" fill="#2980B9" d="M346.188,397.495c-3.606,4.734-8.293,5.392-13.405,4.184
			c-4.417-1.046-6.839-4.92-6.646-10.108c0.179-4.813,3.31-8.224,8.402-9.227c3.405-0.671,6.842-0.405,10.265-0.384
			c1.345,0.009,1.625-0.457,1.56-1.672c-0.197-3.726-2.57-5.878-6.92-6.04c-3.16-0.118-6.151,0.67-9.02,1.953
			c-0.578,0.258-1.141,0.548-1.992,0.96c0-1.623,0.031-3.017-0.013-4.406c-0.021-0.646,0.281-0.897,0.832-1.088
			c4.98-1.73,10.033-2.615,15.203-0.979c4,1.266,6.529,3.969,6.88,8.244c0.583,7.108,0.245,14.239,0.322,21.36
			c0.009,0.831-0.324,1.067-1.146,1.127C346.603,401.703,346.605,401.732,346.188,397.495z M346.35,387.7
			c-0.344-0.469,0.677-1.813-1.014-1.788c-2.963,0.044-5.95-0.241-8.875,0.405c-2.23,0.493-4.125,1.52-4.876,3.905
			c-1.411,4.48,2.198,8.327,7.074,7.545C343.375,397.013,346.231,393.341,346.35,387.7z"/>
		<path fill-rule="evenodd" clip-rule="evenodd" fill="#2980B9" d="M487.082,190.042c0.017,2.729-0.251,5.417-1.145,8.018
			c-1.815,5.288-5.886,8.165-11.637,8.214c-6.312,0.053-10.488-2.553-12.323-8.012c-1.799-5.351-1.776-10.819-0.049-16.183
			c1.734-5.385,5.843-8.08,11.852-8.094c6.167-0.014,10.248,2.675,12.123,8.043C486.806,184.618,487.109,187.309,487.082,190.042z
			 M481.602,190.166c0.042-2.409-0.218-4.766-1.088-7.038c-1.166-3.041-3.535-4.785-6.589-4.792
			c-3.042-0.007-5.57,1.721-6.613,4.761c-1.581,4.606-1.586,9.276-0.04,13.892c1.025,3.061,3.531,4.849,6.535,4.903
			c3.115,0.056,5.533-1.718,6.724-4.886C481.362,194.795,481.646,192.507,481.602,190.166z"/>
		<path fill-rule="evenodd" clip-rule="evenodd" fill="#2980B9" d="M332.951,178.748c3.34-4.446,7.333-5.484,12.007-4.41
			c2.538,0.583,4.198,2.204,5.17,4.548c0.853,2.053,1.222,4.222,1.227,6.441c0.013,6.086-0.042,12.173,0.038,18.259
			c0.019,1.478-0.299,2.014-1.893,1.957c-3.283-0.119-3.247-0.022-3.294-3.224c-0.089-6.016,0.315-12.042-0.218-18.047
			c-0.326-3.666-1.879-5.333-4.933-5.729c-3.251-0.42-5.922,1.24-7.177,4.373c-0.791,1.976-0.866,4.036-0.874,6.106
			c-0.02,4.986-0.039,9.971,0.018,14.957c0.013,1.165-0.286,1.55-1.511,1.554c-3.71,0.013-3.71,0.071-3.71-3.607
			c0-8.288,0.055-16.576-0.044-24.863c-0.021-1.792,0.301-2.708,2.264-2.326c0.969,0.188,2.309-0.538,2.846,0.463
			C333.285,175.979,332.951,177.161,332.951,178.748z"/>
		<path fill-rule="evenodd" clip-rule="evenodd" fill="#2980B9" d="M501.506,178.442c3.129-4.16,7.083-5.147,11.703-4.116
			c2.621,0.584,4.305,2.265,5.277,4.689c0.804,2,1.166,4.105,1.171,6.258c0.015,6.151-0.024,12.303,0.03,18.453
			c0.011,1.244-0.15,1.84-1.635,1.813c-3.534-0.062-3.492,0.021-3.545-3.557c-0.09-5.951,0.327-11.912-0.233-17.851
			c-0.332-3.516-1.88-5.175-4.863-5.579c-3.163-0.428-5.918,1.18-7.15,4.129c-0.845,2.021-0.95,4.147-0.956,6.287
			c-0.013,4.921-0.041,9.842,0.021,14.762c0.016,1.26-0.181,1.833-1.653,1.808c-3.567-0.061-3.569,0.021-3.569-3.56
			c0-8.482,0.037-16.965-0.036-25.446c-0.012-1.449,0.339-1.878,1.815-1.832C501.007,174.802,501.01,174.714,501.506,178.442z"/>
		<path fill-rule="evenodd" clip-rule="evenodd" fill="#2980B9" d="M312.198,201.675c-2.9,3.917-6.565,5.206-10.919,4.388
			c-4.16-0.781-6.539-3.535-6.991-8.366c-0.683-7.295-0.172-14.624-0.31-21.936c-0.014-0.769,0.312-0.949,1.032-1.019
			c4.174-0.41,4.162-0.431,4.174,3.706c0.016,5.438-0.062,10.881,0.109,16.315c0.149,4.739,1.97,6.817,5.597,6.928
			c3.907,0.12,6.749-2.505,7.227-6.825c0.608-5.485,0.182-10.996,0.27-16.494c0.058-3.7,0.011-3.651,3.649-3.642
			c1.162,0.003,1.543,0.273,1.537,1.504c-0.054,9.261-0.053,18.522-0.001,27.783c0.007,1.228-0.379,1.509-1.544,1.509
			C312.67,205.53,312.67,205.583,312.198,201.675z"/>
		<path fill-rule="evenodd" clip-rule="evenodd" fill="#2980B9" d="M273.528,192.277c0,3.82-0.046,7.641,0.025,11.46
			c0.024,1.27-0.196,1.827-1.66,1.802c-3.562-0.061-3.563,0.02-3.563-3.565c0-7.187-0.034-14.374,0.029-21.561
			c0.012-1.364-0.385-1.811-1.745-1.724c-1.741,0.111-3.498-0.04-5.242,0.045c-1.761,0.085-1.182-1.18-1.171-1.992
			c0.01-0.802-0.623-2.087,1.146-2.018c1.81,0.071,3.628-0.047,5.437,0.038c1.161,0.054,1.678-0.276,1.566-1.504
			c-0.063-0.699,0.062-1.417,0.122-2.124c0.472-5.625,2.993-8.093,8.645-8.37c1.874-0.092,3.757,0.036,5.631-0.056
			c1.16-0.057,1.499,0.414,1.374,1.467c-0.045,0.383-0.055,0.783,0.001,1.163c0.196,1.312-0.235,1.872-1.661,1.757
			c-1.543-0.124-3.11-0.101-4.658,0.001c-3.372,0.221-5.611,4.083-4.231,7.156c0.304,0.675,0.849,0.474,1.32,0.477
			c2.59,0.021,5.186,0.118,7.768-0.024c1.938-0.107,1.375,1.165,1.455,2.152c0.09,1.11,0.115,1.988-1.519,1.896
			c-2.517-0.142-5.05,0.024-7.572-0.063c-1.215-0.042-1.539,0.377-1.521,1.545C273.565,184.248,273.528,188.263,273.528,192.277z"/>
		<path fill-rule="evenodd" clip-rule="evenodd" fill="#2980B9" d="M305.619,395.989c2.689-7.771,5.214-15.07,7.741-22.368
			c1.031-2.979,1.034-2.979,4.249-2.976c2.232,0,2.236,0.002,1.483,2.116c-3.205,9.008-6.439,18.007-9.587,27.034
			c-0.434,1.243-0.981,1.658-2.314,1.639c-4.832-0.068-4.851-0.003-6.467-4.515c-2.936-8.197-5.849-16.402-8.766-24.606
			c-0.168-0.474-0.285-0.967-0.488-1.666c1.618,0,3.088,0.029,4.557-0.01c1.164-0.029,1.088,0.947,1.316,1.601
			c2.493,7.136,4.951,14.284,7.421,21.427C304.972,394.267,305.202,394.858,305.619,395.989z"/>
		<path fill-rule="evenodd" clip-rule="evenodd" fill="#2980B9" d="M401.504,188.604c0-2.72-0.066-5.443,0.028-8.16
			c0.045-1.318-0.275-1.862-1.695-1.761c-1.74,0.123-3.499-0.043-5.243,0.048c-1.916,0.1-1.156-1.285-1.226-2.129
			c-0.074-0.882-0.408-2.001,1.281-1.886c1.87,0.127,3.755-0.006,5.632,0.043c0.92,0.024,1.259-0.3,1.237-1.23
			c-0.049-2.071,0.03-4.146-0.034-6.217c-0.032-1.016,0.315-1.304,1.324-1.339c3.818-0.134,3.804-0.173,3.824,3.684
			c0.008,1.608-0.52,3.729,0.292,4.69c0.958,1.133,3.154,0.315,4.811,0.383c1.681,0.069,3.374,0.105,5.049-0.011
			c1.654-0.115,1.374,0.981,1.31,1.894c-0.061,0.875,0.605,2.185-1.271,2.125c-2.847-0.092-5.7,0.025-8.548-0.048
			c-1.195-0.031-1.706,0.203-1.683,1.565c0.084,4.921-0.019,9.844,0.049,14.766c0.067,4.894,1.454,6.212,6.29,6.226
			c1.295,0.004,2.595,0.067,3.884-0.021c1.059-0.072,1.292,0.355,1.322,1.332c0.089,2.94,0.13,2.97-2.814,2.929
			c-2.196-0.03-4.389,0.126-6.587-0.259c-4.903-0.86-6.979-3.068-7.173-8.077c-0.111-2.845-0.02-5.698-0.02-8.547
			C401.531,188.604,401.517,188.604,401.504,188.604z"/>
		<path fill-rule="evenodd" clip-rule="evenodd" fill="#2980B9" d="M385.079,181.84c-2.799-2.373-5.598-3.563-8.842-3.505
			c-4.166,0.074-7.15,2.134-8.583,6.044c-1.335,3.645-1.323,7.373-0.159,11.042c2.454,7.735,10.994,7.496,15.528,4.585
			c0.593-0.381,1.146-0.824,2.048-1.477c0,1.769-0.012,3.266,0.005,4.762c0.008,0.758-0.577,0.928-1.087,1.187
			c-8.033,4.067-21.935,1.935-22.635-12.545c-0.165-3.4,0.011-6.722,1.386-9.868c2.213-5.066,6.319-7.513,11.649-8.035
			c3.056-0.299,6.038,0.112,8.914,1.354c1.312,0.566,1.975,1.233,1.8,2.719C384.978,179.173,385.079,180.271,385.079,181.84z"/>
		<path fill-rule="evenodd" clip-rule="evenodd" fill="#2980B9" d="M445.164,188.104c0,3.882,0.043,7.765-0.025,11.646
			c-0.022,1.241,0.298,1.738,1.617,1.685c2.326-0.093,4.665,0.084,6.986-0.06c1.922-0.119,1.461,1.138,1.458,2.145
			c-0.003,0.933,0.452,2.038-1.359,2.015c-7.44-0.092-14.883-0.088-22.323,0c-1.68,0.02-1.558-0.893-1.477-1.949
			c0.073-0.963-0.559-2.305,1.405-2.207c2.388,0.12,4.789-0.021,7.18,0.051c1.107,0.033,1.428-0.332,1.42-1.431
			c-0.045-6.6-0.048-13.201,0.002-19.8c0.009-1.142-0.393-1.445-1.452-1.407c-1.745,0.064-3.494-0.003-5.241,0.02
			c-1.923,0.025-0.999-1.426-1.104-2.241c-0.099-0.766-0.479-1.854,1.128-1.814c3.427,0.085,6.859,0.077,10.287-0.002
			c1.19-0.027,1.548,0.3,1.525,1.507C445.117,180.208,445.164,184.156,445.164,188.104z"/>
		<path fill-rule="evenodd" clip-rule="evenodd" fill="#2980B9" d="M371.199,375.372c3.887-5.226,8.998-6.805,14.386-4.721
			c1.509,0.584,2.358,1.366,2.099,3.115c-0.146,0.994-0.026,2.026-0.026,3.312c-2.081-1.396-4.06-2.264-6.282-2.445
			c-5.978-0.486-10.166,3.624-10.275,10.209c-0.079,4.721,0.005,9.443-0.034,14.166c-0.007,0.775,0.465,2.056-0.441,2.24
			c-1.475,0.301-3.066,0.106-4.599-0.008c-0.368-0.027-0.239-0.673-0.239-1.043c-0.007-9.443,0.004-18.888-0.021-28.332
			c-0.002-0.89,0.217-1.203,1.173-1.25C370.828,370.426,370.826,370.386,371.199,375.372z"/>
		<path fill-rule="evenodd" clip-rule="evenodd" fill="#2980B9" d="M608.922,392.325c-4.332,0-8.664-0.035-12.996,0.023
			c-1.203,0.016-1.694-0.227-1.673-1.584c0.05-3.232-0.03-3.233,3.101-3.233c7.889,0,15.779,0.092,23.665-0.062
			c2.095-0.041,2.63,0.639,2.339,2.489c-0.049,0.315-0.041,0.649,0,0.968c0.143,1.119-0.352,1.434-1.438,1.42
			C617.588,392.296,613.254,392.325,608.922,392.325z"/>
		<path fill-rule="evenodd" clip-rule="evenodd" fill="#2980B9" d="M608.713,379.423c-4.268,0-8.535-0.038-12.801,0.023
			c-1.217,0.018-1.68-0.252-1.656-1.591c0.054-3.215-0.024-3.217,3.103-3.217c8.017,0,16.033,0.035,24.05-0.032
			c1.461-0.012,2.212,0.272,1.951,1.882c-0.082,0.503-0.064,1.038-0.004,1.548c0.14,1.146-0.398,1.416-1.455,1.406
			C617.505,379.397,613.108,379.423,608.713,379.423z"/>
		<path fill-rule="evenodd" clip-rule="evenodd" fill="#2980B9" d="M440.023,166.025c0-3.071,0.007-2.941,3.015-3.112
			c1.875-0.106,2.377,0.594,2.136,2.269c-0.064,0.442-0.009,0.901-0.009,1.353c0,2.839,0,2.839-2.834,2.838
			C440.023,169.373,440.023,169.373,440.023,166.025z"/>
	</g>
</g>
</svg>
