<?xml version="1.0" encoding="utf-8"?>
<!-- Generator: Adobe Illustrator 16.0.4, SVG Export Plug-In . SVG Version: 6.00 Build 0)  -->
<!DOCTYPE svg PUBLIC "-//W3C//DTD SVG 1.1//EN" "http://www.w3.org/Graphics/SVG/1.1/DTD/svg11.dtd">
<svg version="1.1" id="Layer_1" xmlns="http://www.w3.org/2000/svg" xmlns:xlink="http://www.w3.org/1999/xlink" x="0px" y="0px"
	 width="1024px" height="640px" viewBox="0 0 1024 640" enable-background="new 0 0 1024 640" xml:space="preserve">
<g>
	<path fill="#2980B9" d="M703.491-55c29.744,0,53.857,24.112,53.857,53.857c0,29.745-24.113,53.857-53.857,53.857"/>
	<path fill="#2980B9" d="M703.491,160.429c-29.745,0-53.857-24.112-53.857-53.857c0-29.745,24.112-53.857,53.857-53.857"/>
	<path fill="#2980B9" d="M703.491,160.429c29.744,0,53.857,24.112,53.857,53.857s-24.113,53.857-53.857,53.857"/>
	<path fill="#2980B9" d="M703.491,375.857c-29.745,0-53.857-24.112-53.857-53.857c0-29.745,24.112-53.857,53.857-53.857"/>
	<path fill="#2980B9" d="M703.491,375.857c29.744,0,53.857,24.112,53.857,53.857c0,29.744-24.113,53.856-53.857,53.856"/>
	<path fill="#2980B9" d="M703.491,591.286c-29.745,0-53.857-24.112-53.857-53.857s24.112-53.857,53.857-53.857"/>
	<path fill="#2980B9" d="M703.491,591.286c29.744,0,53.857,24.112,53.857,53.856c0,29.745-24.113,53.857-53.857,53.857"/>
</g>
<path fill="#2980B9" stroke="#2980B9" stroke-width="8" stroke-linecap="round" stroke-linejoin="round" stroke-miterlimit="10" d="
	M936.059,374.976h13.51v70.843H939.19L936.059,374.976z M963.079,374.976h-13.511v70.843h10.378L963.079,374.976z"/>
<circle fill="#2980B9" cx="949.569" cy="473.277" r="16.294"/>
<g>
	
		<line fill="none" stroke="#2980B9" stroke-width="14" stroke-linecap="round" stroke-linejoin="round" stroke-miterlimit="10" x1="877.432" y1="429.715" x2="811.746" y2="429.715"/>
	
		<line fill="none" stroke="#2980B9" stroke-width="14" stroke-linecap="round" stroke-linejoin="round" stroke-miterlimit="10" x1="811.746" y1="429.715" x2="841.942" y2="459.91"/>
	
		<line fill="none" stroke="#2980B9" stroke-width="14" stroke-linecap="round" stroke-linejoin="round" stroke-miterlimit="10" x1="841.942" y1="399.519" x2="811.746" y2="429.715"/>
</g>
</svg>
