<?xml version="1.0" encoding="utf-8"?>
<!-- Generator: Adobe Illustrator 16.0.4, SVG Export Plug-In . SVG Version: 6.00 Build 0)  -->
<!DOCTYPE svg PUBLIC "-//W3C//DTD SVG 1.1//EN" "http://www.w3.org/Graphics/SVG/1.1/DTD/svg11.dtd">
<svg version="1.1" id="Layer_1" xmlns="http://www.w3.org/2000/svg" xmlns:xlink="http://www.w3.org/1999/xlink" x="0px" y="0px"
	 width="1024px" height="640px" viewBox="0 0 1024 640" enable-background="new 0 0 1024 640" xml:space="preserve">
<g>
	<path fill="#E67E22" d="M1054.23,1097.932c0.404-0.399,0.615-0.921,0.64-1.446c0.026-0.566-0.168-1.142-0.584-1.584
		c-31.633-33.808-31.08-88.011-31.07-88.553c0.017-0.778-0.393-1.512-1.063-1.907c-0.672-0.4-1.504-0.409-2.184-0.027
		c-7.67,4.319-13.309,1.327-13.527,1.206c-0.973-0.555-2.206-0.282-2.855,0.633c-0.646,0.911-0.499,2.167,0.341,2.901
		c6.04,5.283,7.38,14.198,11.824,43.865c4.582,30.59,30.434,48.597,31.532,49.347c0.861,0.593,2.026,0.484,2.771-0.257
		L1054.23,1097.932z"/>
	<g>
		<path fill="#E67E22" d="M980.604,967.753c-0.405-0.415-0.966-0.647-1.549-0.651c-0.58-0.004-1.14,0.232-1.554,0.644l-3.802,3.833
			c-0.71,0.713-0.84,1.83-0.301,2.686c0.534,0.861,12.936,20.51,27.959,22.541c2.168,4.323,6.514,7.184,11.418,7.398
			c3.229,0.142,6.344-0.86,8.866-2.839c8.555,0.958,75.062,9.226,92.546,36.547c0.313,0.496,0.824,0.843,1.398,0.958
			c0.577,0.119,1.179-0.002,1.663-0.336l4.499-3.075c0.506-0.343,0.843-0.888,0.928-1.495c0.012-0.068,0.017-0.138,0.018-0.204
			c0.022-0.542-0.152-1.073-0.502-1.491c-1.09-1.313-27.097-32.175-56.076-36.877c-27.371-4.433-37.336-7.578-42.661-13.466
			c-0.029-0.031-0.068-0.071-0.11-0.112c-0.246-0.27-0.51-0.512-0.776-0.756c-0.007-0.003-0.284-0.259-0.285-0.261
			c-2.367-2.111-5.248-3.304-8.328-3.438c-2.624-0.115-5.188,0.552-7.471,1.933C1003.251,978.863,989.243,976.56,980.604,967.753z
			 M1019.12,992.125c-0.14,3.2-2.859,5.689-6.06,5.547c-3.203-0.141-5.691-2.857-5.551-6.057c0.142-3.2,2.856-5.694,6.062-5.555
			C1016.771,986.204,1019.261,988.926,1019.12,992.125z"/>
		<path fill="#E67E22" d="M1011.862,991.806c0.036-0.803,0.714-1.421,1.517-1.387c0.799,0.037,1.421,0.715,1.387,1.516
			c-0.033,0.805-0.714,1.425-1.514,1.39C1012.446,993.288,1011.826,992.61,1011.862,991.806z"/>
		<path fill="#E67E22" d="M1001.03,946.774l-5.209,3.045c-0.641,0.373-1.041,1.051-1.073,1.791c0,0,0,0.004,0,0.008
			c-0.033,0.74,0.329,1.456,0.938,1.879c0.342,0.236,8.346,5.978,9.668,21.394c0.064,0.725,0.486,1.362,1.114,1.716
			c0.636,0.351,1.403,0.365,2.048,0.041c0.272-0.14,6.762-3.343,12.276,0.486c0.805,0.559,1.881,0.513,2.633-0.11
			c0.486-0.4,0.758-0.982,0.786-1.579c0.015-0.331-0.045-0.667-0.186-0.98l-5.293-11.869c-0.106-0.237-0.256-0.455-0.438-0.643
			l-14.613-14.817C1002.982,946.418,1001.89,946.274,1001.03,946.774z"/>
	</g>
</g>
<path fill="#E67E22" d="M670.131,1023.422l-0.387-0.688c6.209-8.881,7.59-20.767,2.58-31.231
	c-4.994-10.382-14.98-16.727-25.705-17.519l10.738,22.413l-10.062,14.706l-17.776-1.373l-10.748-22.403
	c-6.082,8.855-7.408,20.616-2.426,31.015c5.221,10.901,15.995,17.351,27.312,17.623l0.059,0.119l44.192,92.223
	c1.744,3.646,4.795,6.248,8.331,7.493c3.538,1.248,7.541,1.125,11.204-0.612c7.295-3.479,10.372-12.222,6.88-19.542
	L670.131,1023.422z M699.675,1129.845c-2.899-1.021-4.434-4.22-3.405-7.133c1.027-2.919,4.219-4.441,7.125-3.42
	c2.92,1.028,4.451,4.213,3.425,7.133C705.798,1129.341,702.605,1130.875,699.675,1129.845z"/>
<g>
	<path d="M485.646,748.223h-44.834c-0.828,0-1.5,0.672-1.5,1.5v9.166c0,2.544,1.791,4.679,4.178,5.207
		c0.274,0.332,0.69,0.544,1.156,0.544h37.166c2.939,0,5.334-2.393,5.334-5.333c0-0.076-0.005-0.152-0.012-0.234
		c0.007-0.062,0.012-0.121,0.012-0.184v-9.166C487.146,748.895,486.475,748.223,485.646,748.223z"/>
	<path d="M496.702,683.466l-10.584-3.5c-0.151-0.052-0.312-0.076-0.472-0.076h-44.834c-0.828,0-1.5,0.673-1.5,1.5v24.5
		c0,0.828,0.672,1.5,1.5,1.5h11.807l-6.438,29.663l-5.938,2.45c-0.562,0.23-0.928,0.779-0.928,1.387v3.25c0,0.828,0.671,1.5,1.5,1.5
		h44.832c0.828,0,1.5-0.672,1.5-1.5v-4c0-0.721-0.513-1.339-1.22-1.475l-13.03-2.484l1.463-11.372l3.479-1.549
		c0.445-0.196,0.766-0.601,0.861-1.076l2.5-12.572c0.158-0.794-0.342-1.569-1.129-1.753l-2.092-0.49V706.6l7.707-0.211
		c0.32-0.009,0.629-0.119,0.882-0.315l10.583-8.25c0.363-0.283,0.578-0.722,0.578-1.184v-11.75
		C497.729,684.244,497.314,683.668,496.702,683.466z"/>
	<path d="M507.229,683.39h-5.75c-0.828,0-1.5,0.673-1.5,1.5v11c0,0.828,0.672,1.5,1.5,1.5h5.75c0.829,0,1.5-0.672,1.5-1.5v-11
		C508.729,684.062,508.059,683.39,507.229,683.39z"/>
	<path d="M529.229,688.89c-0.002,0-0.005,0-0.007,0l-15.993,0.076v-1.076c0-0.827-0.671-1.5-1.5-1.5c-0.828,0-1.5,0.673-1.5,1.5
		v5.166c0,0.828,0.672,1.5,1.5,1.5c0.829,0,1.5-0.672,1.5-1.5v-1.09l16.008-0.076c0.828-0.004,1.497-0.679,1.492-1.507
		C530.727,689.557,530.056,688.89,529.229,688.89z"/>
</g>
<path fill="#E67E22" d="M191.169,250.582c-7.843-2.202-13.388-8.812-16.64-19.83c-5.154-5.913-12.975-13.629-23.461-23.155
	l-4.154-1.518c-24.45-4.987-40.946-3.156-49.481,5.494c0.277-0.157,0.665-0.283,1.163-0.379c8.045-1.031,16.863,0.623,26.454,4.962
	c10.837,4.922,12.822,10.414,5.95,16.475L20.923,332.146c-1.979,2.028-1.503,4.514,1.433,7.45l14.799,15.085
	c2.935,2.939,5.501,3.423,7.697,1.456l98.772-104.453c4.959-2.601,9.293-2.972,13-1.108c3.707,1.864,6.663,4.515,8.87,7.954
	c2.208,3.439,3.035,6.139,2.485,8.1c3.065,4.152,6.903,5.758,11.513,4.819c4.612-0.938,8.397-3.752,11.358-8.443
	C193.814,258.315,193.919,254.174,191.169,250.582z"/>
<path fill="#E67E22" d="M650.408,735.938c0.685,0,1.356,0.146,2.015,0.396c0.757,0.282,1.47,0.69,2.082,1.301l11.545,11.547
	c1.081-2.27,1.738-4.775,1.738-7.449c0-9.199-7.163-16.649-16.21-17.27l-1.17-0.111c-2.121,0-4.13,0.436-6.01,1.132l-35.67-35.677
	c0.689-1.879,1.125-3.888,1.125-6.009l-0.119-1.17c-0.61-9.044-8.062-16.21-17.261-16.21c-2.677,0-5.188,0.653-7.452,1.736
	l11.549,11.547c0.604,0.607,1.024,1.328,1.307,2.085c0.76,2.057,0.346,4.449-1.307,6.105c-1.127,1.131-2.613,1.698-4.097,1.698
	c-0.684,0-1.364-0.149-2.009-0.394c-0.757-0.286-1.482-0.695-2.087-1.306l-11.547-11.546c-1.086,2.267-1.737,4.774-1.737,7.451
	c0,9.198,7.168,16.649,16.21,17.264l1.17,0.116c2.121,0,4.13-0.436,6.009-1.129l35.678,35.673c-0.697,1.879-1.133,3.886-1.133,6.011
	l0.112,1.171c0.617,9.046,8.067,16.209,17.269,16.209c2.676,0,5.182-0.657,7.451-1.737l-11.548-11.548
	c-0.61-0.61-1.024-1.323-1.302-2.082c-0.758-2.055-0.357-4.451,1.302-6.109C647.444,736.503,648.925,735.938,650.408,735.938z"/>
<g>
	<path d="M348.453,718.265h-26.4c-0.128,0-0.251-0.021-0.369-0.057l-0.461,3.736c-0.017,0.139,0.083,0.303,0.137,0.319h4.879v-2.285
		c0-0.395,0.32-0.715,0.715-0.715h16.57c0.395,0,0.715,0.32,0.715,0.716v2.284h4.988c0.052-0.018,0.147-0.171,0.131-0.302
		l-0.456-3.785C348.761,718.229,348.612,718.265,348.453,718.265z"/>
	<path d="M335.489,665.515c-3.803,0-9.804,0.783-11.108,1.75h21.924C345.136,666.474,340.663,665.515,335.489,665.515z"/>
	<path d="M348.236,682.876c-0.03,3.094-0.062,5.619-2.586,6.599l-0.302,4.115c3.799-0.709,5.521-4.127,5.521-10.837
		c0-5.717-1.252-9.041-3.969-10.342l-0.304,4.153C348.284,677.886,348.261,680.329,348.236,682.876z"/>
	<path d="M322.053,717.265h0.014h26.386c0.353,0,0.786-0.688,0.786-1.25v-5.938c-0.166-0.812-4.54-8.062-5.492-8.812h-16.988
		c-0.956,0.746-5.352,8-5.523,8.854l0.003,5.896C321.239,716.562,321.696,717.265,322.053,717.265z M335.051,704.641
		c1.221,0,2.295,0.584,2.995,1.479l-1.356,0.668c-0.496,0.244-0.699,0.844-0.456,1.338c0.174,0.354,0.529,0.561,0.898,0.561
		c0.147,0,0.299-0.033,0.439-0.104l1.243-0.612c0.021,0.16,0.049,0.317,0.049,0.483c0,2.104-1.706,3.812-3.812,3.812
		c-2.104,0-3.812-1.707-3.812-3.812C331.239,706.348,332.946,704.641,335.051,704.641z"/>
	<polygon points="343.853,700.265 343.857,700.265 346.201,668.265 324.28,668.265 326.784,700.265 	"/>
</g>
<path fill="#E67E22" d="M788.488,850.711l9.433-4.75c0.951-0.479,1.396-1.592,1.041-2.594l-5.104-14.336
	c-0.181-0.719-0.414-1.357-0.711-1.943c-1.14-2.269-3.101-3.953-5.508-4.75c-1.725-0.568-3.531-0.615-5.252-0.182l-23.474-46.631
	l12.26-6.175c1.043-0.521,1.462-1.791,0.937-2.835l-4.067-8.073c-0.521-1.042-1.792-1.461-2.835-0.938
	c-2.079,1.047-4.624,0.205-5.669-1.874c-1.015-2.02-0.142-4.655,1.872-5.671c1-0.505,1.438-1.834,0.936-2.837l-21.496-42.694
	c-4.449-8.838-15.265-12.409-24.103-7.96c-4.279,2.156-7.47,5.854-8.972,10.404c-1.504,4.551-1.143,9.417,1.011,13.7l21.496,42.692
	c0.252,0.501,0.691,0.88,1.223,1.058c0.534,0.175,1.111,0.134,1.611-0.12c1.009-0.507,2.153-0.595,3.227-0.239
	c1.073,0.354,1.941,1.105,2.449,2.115c1.013,2.015,0.142,4.649-1.874,5.669c-1.041,0.523-1.459,1.792-0.938,2.835l4.065,8.076
	c0.526,1.041,1.794,1.461,2.836,0.936l12.261-6.175l23.475,46.632c-1.368,1.13-2.41,2.608-2.979,4.329
	c-0.796,2.408-0.604,4.985,0.531,7.249c0.298,0.596,0.672,1.162,1.142,1.734l8.476,12.637
	C786.382,850.885,787.541,851.188,788.488,850.711z M729.886,708.281c0.171-0.515,0.535-0.965,1.058-1.226
	c1.044-0.524,2.311-0.105,2.835,0.938l18.772,37.288c0.524,1.043,0.107,2.309-0.935,2.835c-1.045,0.524-2.312,0.105-2.836-0.938
	l-18.774-37.285C729.743,709.369,729.718,708.789,729.886,708.281z M722.341,712.078c0.171-0.514,0.538-0.963,1.058-1.225
	c1.043-0.522,2.309-0.105,2.834,0.938l18.771,37.289c0.528,1.042,0.109,2.31-0.936,2.834c-1.04,0.523-2.308,0.105-2.835-0.938
	l-18.772-37.284C722.2,713.17,722.173,712.59,722.341,712.078z M734.633,754.301l-18.773-37.288
	c-0.263-0.52-0.289-1.097-0.121-1.609c0.17-0.516,0.538-0.962,1.057-1.226c1.044-0.524,2.312-0.105,2.836,0.938l18.773,37.286
	c0.525,1.044,0.106,2.311-0.937,2.836C736.426,755.762,735.156,755.344,734.633,754.301z"/>
<path d="M279.797,721.122l-25.651-25.65c-0.24-0.241-0.496-0.455-0.761-0.654l4.543-4.783c0.232-0.234,0.452-0.48,0.654-0.733
	c6.03,2.274,13.108,0.996,17.956-3.851c3.535-3.537,5.318-8.43,4.888-13.42c-0.047-0.565-0.421-1.055-0.953-1.246
	c-0.534-0.195-1.131-0.062-1.532,0.338l-8.221,8.22l-8.324-2.099l-2.359-8.586l8.219-8.22c0.402-0.401,0.535-1,0.341-1.532
	c-0.194-0.533-0.682-0.904-1.248-0.955c-4.991-0.431-9.883,1.353-13.42,4.89c-4.844,4.844-6.126,11.917-3.854,17.946
	c-0.246,0.209-0.492,0.431-0.733,0.668l-6.687,6.422l-12.279-12.277c-0.153-0.153-0.317-0.289-0.485-0.416
	c0.144-0.253,0.284-0.514,0.415-0.782c2.593,0.499,7.334-4.552,11.36-8.576l-11.73-11.73c-5.245,5.246-9.075,8.768-8.578,11.359
	c-1.199,0.586-2.268,1.303-3.028,2.062l-1.652,1.651c-1.073,1.074-1.72,2.41-1.951,3.803c-0.16,0.185-0.323,0.376-0.485,0.582
	l-0.616,0.773c-0.017,0.02-0.07,0.096-0.085,0.114l-0.558,0.781c-0.349,0.466-0.654,0.973-0.949,1.46
	c-0.109,0.182-0.22,0.362-0.333,0.544c-0.018,0.031-0.036,0.062-0.052,0.094l-0.248,0.468c-0.3,0.562-0.611,1.144-0.877,1.783
	l-0.043,0.103c-0.314,0.745-0.639,1.519-0.866,2.336l-0.11,0.354c-0.09,0.291-0.181,0.581-0.265,0.928l-0.229,1.129
	c-0.17,0.707-0.227,1.402-0.277,2.021l-0.033,0.404c-0.084,0.641-0.06,1.243-0.037,1.774c0.008,0.179,0.015,0.354,0.02,0.59
	c0.006,0.099,0.007,0.193,0.01,0.287c0.006,0.238,0.012,0.508,0.058,0.793l0.143,0.916c0.031,0.177,0.057,0.349,0.081,0.514
	c0.055,0.372,0.111,0.758,0.222,1.122l0.6,2.082c0.185,0.633,0.786,1.053,1.444,1.006c0.348-0.022,0.661-0.176,0.894-0.407
	c0.208-0.208,0.352-0.482,0.396-0.79l0.311-2.117c0.023-0.168,0.095-0.414,0.17-0.674c0.053-0.182,0.105-0.365,0.145-0.521
	l0.221-0.791c0.027-0.105,0.079-0.211,0.125-0.316c0.044-0.1,0.088-0.201,0.127-0.303c0.074-0.168,0.144-0.336,0.213-0.508
	c0.136-0.338,0.265-0.656,0.462-0.969c0.085-0.145,0.165-0.287,0.246-0.434c0.205-0.366,0.4-0.714,0.631-1.001
	c0.015-0.018,0.028-0.035,0.043-0.057l0.522-0.719c0.107-0.136,0.227-0.265,0.344-0.394c0.083-0.091,0.166-0.182,0.271-0.303
	c0.308-0.37,0.67-0.693,1.019-1.012l0.187-0.168c0.259-0.24,0.558-0.466,0.873-0.705c0.129-0.096,0.255-0.191,0.379-0.285
	c0.159-0.104,0.313-0.207,0.465-0.309c0.284-0.191,0.53-0.357,0.813-0.507l0.619-0.352l0.626-0.308
	c0.218-0.112,0.433-0.2,0.631-0.28c0.118-0.049,0.234-0.096,0.342-0.144c0.11-0.037,0.216-0.078,0.316-0.115
	c0.134-0.05,0.25-0.097,0.407-0.138l0.169-0.038c0.184,0.299,0.4,0.581,0.659,0.841l12.146,12.146l-25.929,24.903
	c-0.01,0.012-0.02,0.021-0.029,0.03c-3.227,3.228-3.752,7.951-0.525,11.179s7.652,2.399,10.878-0.826
	c0.014-0.012,0.026-0.025,0.039-0.041l22.874-24.086c0.135,0.16,0.268,0.318,0.416,0.468l25.649,25.649
	c2.874,2.875,7.536,2.875,10.41,0C282.67,728.659,282.67,723.995,279.797,721.122z M217.061,726.881c-1.188,1.19-3.115,1.19-4.304,0
	c-1.188-1.188-1.188-3.114,0-4.304c1.188-1.188,3.115-1.188,4.304,0C218.248,723.767,218.248,725.692,217.061,726.881z"/>
</svg>
