<?xml version="1.0" encoding="utf-8"?>
<!-- Generator: Adobe Illustrator 16.0.4, SVG Export Plug-In . SVG Version: 6.00 Build 0)  -->
<!DOCTYPE svg PUBLIC "-//W3C//DTD SVG 1.1//EN" "http://www.w3.org/Graphics/SVG/1.1/DTD/svg11.dtd">
<svg version="1.1" id="Layer_1" xmlns="http://www.w3.org/2000/svg" xmlns:xlink="http://www.w3.org/1999/xlink" x="0px" y="0px"
	 width="1024px" height="640px" viewBox="0 0 1024 640" enable-background="new 0 0 1024 640" xml:space="preserve">
<g>
	<path fill="#E67E22" d="M1054.231,1097.932c0.404-0.4,0.615-0.921,0.639-1.447c0.026-0.566-0.168-1.141-0.584-1.584
		c-31.633-33.807-31.08-88.01-31.07-88.552c0.016-0.779-0.393-1.512-1.064-1.908c-0.671-0.4-1.504-0.409-2.183-0.027
		c-7.67,4.319-13.309,1.327-13.528,1.206c-0.972-0.555-2.206-0.282-2.855,0.633c-0.647,0.911-0.499,2.167,0.341,2.901
		c6.04,5.284,7.38,14.199,11.824,43.866c4.582,30.589,30.434,48.596,31.532,49.346c0.862,0.593,2.027,0.485,2.771-0.257
		L1054.231,1097.932z"/>
	<g>
		<path fill="#E67E22" d="M980.604,967.753c-0.406-0.415-0.966-0.648-1.549-0.651c-0.58-0.004-1.14,0.232-1.554,0.643l-3.802,3.833
			c-0.71,0.713-0.84,1.83-0.301,2.686c0.535,0.861,12.936,20.509,27.959,22.541c2.168,4.323,6.514,7.183,11.418,7.398
			c3.229,0.142,6.344-0.86,8.867-2.839c8.554,0.958,75.062,9.226,92.545,36.547c0.314,0.496,0.825,0.843,1.399,0.958
			c0.577,0.119,1.179-0.002,1.663-0.336l4.499-3.075c0.506-0.343,0.843-0.888,0.928-1.495c0.011-0.069,0.016-0.138,0.017-0.204
			c0.023-0.542-0.152-1.074-0.502-1.492c-1.09-1.313-27.096-32.174-56.076-36.876c-27.371-4.433-37.336-7.579-42.661-13.466
			c-0.029-0.032-0.068-0.072-0.11-0.113c-0.246-0.269-0.51-0.511-0.777-0.755c-0.006-0.003-0.284-0.259-0.285-0.261
			c-2.367-2.112-5.248-3.304-8.328-3.439c-2.624-0.115-5.188,0.552-7.471,1.933C1003.251,978.863,989.243,976.56,980.604,967.753z
			 M1019.12,992.125c-0.14,3.2-2.859,5.689-6.06,5.547c-3.203-0.141-5.691-2.858-5.55-6.057c0.141-3.2,2.856-5.694,6.061-5.554
			C1016.771,986.204,1019.261,988.926,1019.12,992.125z"/>
		<path fill="#E67E22" d="M1011.862,991.806c0.036-0.803,0.714-1.421,1.517-1.387c0.799,0.037,1.421,0.715,1.387,1.516
			c-0.034,0.804-0.714,1.424-1.514,1.389C1012.446,993.288,1011.826,992.61,1011.862,991.806z"/>
		<path fill="#E67E22" d="M1001.03,946.774l-5.209,3.045c-0.64,0.373-1.041,1.051-1.073,1.791c0,0,0,0.004,0,0.008
			c-0.033,0.74,0.329,1.456,0.938,1.879c0.341,0.236,8.345,5.978,9.667,21.394c0.065,0.724,0.487,1.362,1.115,1.715
			c0.635,0.351,1.403,0.366,2.048,0.041c0.272-0.139,6.761-3.342,12.276,0.487c0.805,0.558,1.881,0.512,2.633-0.111
			c0.486-0.4,0.758-0.982,0.786-1.579c0.015-0.331-0.045-0.667-0.185-0.98l-5.293-11.869c-0.107-0.238-0.256-0.455-0.438-0.643
			l-14.613-14.817C1002.983,946.418,1001.89,946.274,1001.03,946.774z"/>
	</g>
</g>
<path fill="#E67E22" d="M670.131,1023.422l-0.387-0.688c6.209-8.88,7.59-20.766,2.58-31.231
	c-4.994-10.382-14.98-16.727-25.705-17.519l10.738,22.413l-10.061,14.706l-17.776-1.373l-10.749-22.403
	c-6.081,8.856-7.408,20.616-2.425,31.015c5.221,10.901,15.995,17.35,27.312,17.623l0.059,0.119l44.192,92.222
	c1.744,3.646,4.795,6.249,8.331,7.494c3.538,1.248,7.541,1.125,11.204-0.613c7.295-3.478,10.373-12.221,6.88-19.542
	L670.131,1023.422z M699.675,1129.845c-2.9-1.022-4.434-4.22-3.405-7.133c1.027-2.919,4.218-4.441,7.124-3.42
	c2.92,1.028,4.452,4.213,3.425,7.133C705.798,1129.341,702.606,1130.875,699.675,1129.845z"/>
<g>
	<path d="M485.646,748.223h-44.833c-0.829,0-1.5,0.672-1.5,1.5v9.166c0,2.544,1.791,4.678,4.177,5.207
		c0.275,0.332,0.691,0.544,1.156,0.544h37.167c2.939,0,5.333-2.393,5.333-5.333c0-0.077-0.004-0.153-0.011-0.235
		c0.007-0.061,0.011-0.121,0.011-0.183v-9.166C487.146,748.895,486.475,748.223,485.646,748.223z"/>
	<path d="M496.702,683.466l-10.584-3.5c-0.151-0.052-0.311-0.076-0.471-0.076h-44.834c-0.829,0-1.5,0.672-1.5,1.5v24.5
		c0,0.828,0.671,1.5,1.5,1.5h11.806l-6.438,29.663l-5.939,2.45c-0.562,0.23-0.928,0.779-0.928,1.387v3.25c0,0.828,0.671,1.5,1.5,1.5
		h44.832c0.829,0,1.5-0.672,1.5-1.5v-4c0-0.721-0.512-1.339-1.219-1.475l-13.03-2.484l1.462-11.373l3.479-1.548
		c0.445-0.197,0.766-0.601,0.861-1.077l2.5-12.572c0.158-0.794-0.342-1.569-1.129-1.753l-2.092-0.49V706.6l7.708-0.211
		c0.32-0.009,0.629-0.119,0.881-0.316l10.583-8.25c0.364-0.283,0.578-0.721,0.578-1.183v-11.75
		C497.729,684.244,497.315,683.668,496.702,683.466z"/>
	<path d="M507.229,683.39h-5.75c-0.829,0-1.5,0.672-1.5,1.5v11c0,0.828,0.671,1.5,1.5,1.5h5.75c0.829,0,1.5-0.672,1.5-1.5v-11
		C508.729,684.062,508.059,683.39,507.229,683.39z"/>
	<path d="M529.229,688.89c-0.002,0-0.005,0-0.007,0l-15.993,0.076v-1.076c0-0.828-0.671-1.5-1.5-1.5s-1.5,0.672-1.5,1.5v5.166
		c0,0.828,0.671,1.5,1.5,1.5s1.5-0.672,1.5-1.5v-1.09l16.007-0.076c0.828-0.004,1.497-0.679,1.493-1.507
		C530.726,689.557,530.056,688.89,529.229,688.89z"/>
</g>
<path fill="#E67E22" d="M240.02,246.521c-8.327-4.058-13.188-12.581-14.586-25.57c-4.565-7.663-11.747-17.886-21.543-30.676
	l-4.339-2.542c-26.342-10.55-45.171-11.854-56.48-3.912c0.342-0.12,0.802-0.182,1.379-0.188c9.21,0.481,18.74,4.125,28.589,10.929
	c11.125,7.71,12.229,14.259,3.308,19.642L32.958,303.172c-2.627,1.867-2.599,4.744,0.089,8.627l13.492,19.886
	c2.686,3.885,5.459,4.948,8.316,3.194L186.6,238.089c6.078-1.902,11.002-1.436,14.771,1.403c3.768,2.839,6.537,6.406,8.307,10.702
	c1.771,4.297,2.147,7.486,1.134,9.568c2.585,5.268,6.553,7.845,11.902,7.732c5.351-0.111,10.158-2.491,14.424-7.137
	C241.408,255.712,242.367,251.099,240.02,246.521z"/>
<path fill="#E67E22" d="M650.408,735.938c0.685,0,1.357,0.146,2.015,0.396c0.757,0.282,1.47,0.69,2.082,1.301l11.545,11.547
	c1.081-2.27,1.738-4.776,1.738-7.45c0-9.199-7.163-16.649-16.21-17.269l-1.17-0.111c-2.121,0-4.13,0.435-6.01,1.131l-35.669-35.676
	c0.689-1.879,1.125-3.888,1.125-6.009l-0.119-1.17c-0.611-9.044-8.062-16.21-17.261-16.21c-2.677,0-5.188,0.653-7.452,1.736
	l11.548,11.547c0.605,0.608,1.025,1.328,1.307,2.085c0.76,2.057,0.346,4.449-1.307,6.106c-1.126,1.13-2.613,1.698-4.096,1.698
	c-0.684,0-1.364-0.15-2.009-0.394c-0.757-0.286-1.482-0.695-2.087-1.305l-11.547-11.546c-1.086,2.266-1.737,4.774-1.737,7.451
	c0,9.198,7.168,16.649,16.21,17.264l1.17,0.116c2.121,0,4.129-0.436,6.009-1.129l35.677,35.673c-0.697,1.879-1.132,3.886-1.132,6.01
	l0.112,1.171c0.617,9.046,8.067,16.209,17.268,16.209c2.676,0,5.182-0.657,7.451-1.737l-11.547-11.548
	c-0.611-0.61-1.025-1.323-1.302-2.082c-0.758-2.055-0.357-4.451,1.302-6.109C647.444,736.503,648.925,735.938,650.408,735.938z"/>
<g>
	<path d="M348.453,718.265h-26.4c-0.128,0-0.251-0.021-0.369-0.057l-0.461,3.736c-0.017,0.139,0.083,0.303,0.137,0.32h4.879v-2.286
		c0-0.394,0.32-0.714,0.715-0.714h16.57c0.395,0,0.715,0.32,0.715,0.715v2.285h4.988c0.052-0.018,0.147-0.171,0.131-0.302
		l-0.456-3.785C348.761,718.229,348.612,718.265,348.453,718.265z"/>
	<path d="M335.489,665.515c-3.803,0-9.804,0.783-11.108,1.75h21.924C345.136,666.474,340.663,665.515,335.489,665.515z"/>
	<path d="M348.236,682.876c-0.03,3.094-0.062,5.619-2.586,6.599l-0.302,4.115c3.799-0.709,5.521-4.127,5.521-10.837
		c0-5.717-1.252-9.041-3.969-10.342l-0.304,4.153C348.284,677.886,348.261,680.329,348.236,682.876z"/>
	<path d="M322.053,717.265h0.014h26.386c0.353,0,0.786-0.689,0.786-1.25v-5.939c-0.166-0.812-4.54-8.062-5.492-8.811h-16.988
		c-0.956,0.746-5.352,8-5.523,8.854l0.003,5.896C321.239,716.563,321.696,717.265,322.053,717.265z M335.051,704.641
		c1.221,0,2.295,0.584,2.995,1.478l-1.356,0.668c-0.496,0.244-0.699,0.844-0.456,1.338c0.174,0.354,0.529,0.56,0.898,0.56
		c0.147,0,0.299-0.033,0.439-0.103l1.243-0.612c0.021,0.16,0.049,0.317,0.049,0.483c0,2.105-1.706,3.812-3.812,3.812
		c-2.105,0-3.812-1.707-3.812-3.812C331.239,706.348,332.946,704.641,335.051,704.641z"/>
	<polygon points="343.853,700.265 343.857,700.265 346.201,668.265 324.28,668.265 326.784,700.265 	"/>
</g>
<path fill="#E67E22" d="M788.488,850.711l9.433-4.75c0.951-0.479,1.396-1.592,1.041-2.594l-5.105-14.336
	c-0.18-0.719-0.414-1.357-0.71-1.943c-1.14-2.269-3.101-3.953-5.508-4.75c-1.725-0.568-3.531-0.615-5.252-0.182l-23.474-46.631
	l12.26-6.174c1.043-0.521,1.462-1.791,0.936-2.835l-4.067-8.074c-0.521-1.042-1.792-1.461-2.835-0.937
	c-2.079,1.047-4.624,0.205-5.669-1.874c-1.015-2.02-0.141-4.655,1.872-5.671c1-0.505,1.439-1.834,0.936-2.837l-21.496-42.694
	c-4.45-8.838-15.265-12.409-24.103-7.96c-4.279,2.156-7.469,5.853-8.972,10.404s-1.142,9.417,1.011,13.7l21.496,42.693
	c0.252,0.501,0.692,0.88,1.223,1.057c0.534,0.175,1.111,0.134,1.611-0.12c1.009-0.507,2.154-0.595,3.227-0.239
	c1.073,0.354,1.941,1.105,2.449,2.115c1.013,2.015,0.142,4.65-1.874,5.669c-1.041,0.524-1.459,1.792-0.937,2.835l4.065,8.076
	c0.527,1.041,1.794,1.461,2.836,0.936l12.261-6.175l23.474,46.632c-1.368,1.13-2.41,2.608-2.978,4.329
	c-0.796,2.408-0.605,4.985,0.531,7.249c0.298,0.596,0.672,1.162,1.142,1.734l8.475,12.637
	C786.382,850.885,787.541,851.188,788.488,850.711z M729.886,708.281c0.171-0.514,0.535-0.965,1.057-1.225
	c1.044-0.525,2.311-0.106,2.835,0.937l18.773,37.288c0.524,1.043,0.107,2.309-0.935,2.835c-1.045,0.525-2.311,0.106-2.836-0.938
	l-18.774-37.286C729.743,709.369,729.718,708.789,729.886,708.281z M722.341,712.078c0.171-0.514,0.538-0.963,1.058-1.225
	c1.042-0.522,2.308-0.105,2.833,0.938l18.771,37.289c0.528,1.042,0.109,2.31-0.936,2.834c-1.04,0.524-2.307,0.106-2.835-0.938
	l-18.772-37.285C722.2,713.17,722.173,712.59,722.341,712.078z M734.633,754.301l-18.774-37.288c-0.262-0.52-0.289-1.097-0.121-1.61
	c0.17-0.515,0.538-0.962,1.057-1.225c1.044-0.525,2.312-0.106,2.836,0.938l18.773,37.286c0.526,1.044,0.107,2.311-0.936,2.836
	C736.426,755.762,735.156,755.344,734.633,754.301z"/>
<path d="M279.797,721.122l-25.651-25.65c-0.24-0.241-0.496-0.455-0.761-0.655l4.543-4.783c0.232-0.234,0.452-0.48,0.654-0.733
	c6.03,2.274,13.108,0.996,17.956-3.851c3.535-3.537,5.318-8.429,4.888-13.42c-0.047-0.565-0.421-1.054-0.953-1.246
	c-0.534-0.195-1.131-0.062-1.532,0.338l-8.221,8.22l-8.324-2.099l-2.359-8.586l8.219-8.219c0.402-0.402,0.535-1,0.341-1.533
	s-0.682-0.904-1.248-0.955c-4.991-0.43-9.883,1.353-13.42,4.89c-4.844,4.844-6.126,11.917-3.854,17.946
	c-0.246,0.209-0.492,0.431-0.733,0.668l-6.687,6.422l-12.279-12.277c-0.153-0.154-0.317-0.289-0.485-0.416
	c0.144-0.253,0.284-0.514,0.415-0.783c2.593,0.499,7.334-4.551,11.36-8.576l-11.73-11.73c-5.245,5.246-9.075,8.767-8.578,11.359
	c-1.199,0.586-2.268,1.303-3.028,2.063l-1.652,1.651c-1.073,1.074-1.72,2.41-1.951,3.803c-0.16,0.184-0.323,0.376-0.485,0.582
	l-0.616,0.773c-0.017,0.02-0.07,0.096-0.085,0.115l-0.558,0.781c-0.349,0.466-0.654,0.972-0.949,1.46
	c-0.109,0.181-0.22,0.362-0.333,0.544c-0.018,0.031-0.036,0.062-0.052,0.093l-0.248,0.468c-0.3,0.562-0.611,1.144-0.877,1.783
	l-0.043,0.103c-0.314,0.745-0.639,1.518-0.866,2.336l-0.11,0.354c-0.09,0.291-0.181,0.581-0.265,0.928l-0.228,1.129
	c-0.17,0.707-0.227,1.402-0.277,2.02l-0.033,0.405c-0.084,0.64-0.06,1.243-0.037,1.774c0.008,0.179,0.015,0.354,0.02,0.59
	c0.006,0.098,0.007,0.193,0.01,0.287c0.006,0.238,0.012,0.508,0.058,0.793l0.143,0.916c0.031,0.177,0.057,0.349,0.081,0.514
	c0.055,0.372,0.111,0.757,0.222,1.122l0.6,2.082c0.185,0.633,0.786,1.052,1.444,1.006c0.348-0.023,0.661-0.176,0.894-0.408
	c0.208-0.208,0.352-0.482,0.396-0.79l0.311-2.117c0.023-0.168,0.095-0.414,0.17-0.674c0.053-0.181,0.105-0.365,0.145-0.521
	l0.221-0.791c0.027-0.106,0.079-0.211,0.125-0.317c0.044-0.099,0.088-0.201,0.127-0.302c0.074-0.168,0.144-0.336,0.213-0.508
	c0.136-0.338,0.265-0.656,0.462-0.969c0.085-0.144,0.165-0.287,0.246-0.433c0.205-0.367,0.4-0.714,0.631-1.001
	c0.015-0.018,0.028-0.036,0.043-0.057l0.522-0.719c0.107-0.136,0.227-0.264,0.344-0.393c0.083-0.091,0.166-0.182,0.271-0.303
	c0.308-0.37,0.67-0.693,1.019-1.012l0.187-0.168c0.259-0.24,0.558-0.466,0.873-0.705c0.129-0.096,0.255-0.191,0.379-0.285
	c0.159-0.104,0.313-0.207,0.465-0.309c0.284-0.191,0.53-0.357,0.813-0.506l0.619-0.352l0.626-0.308
	c0.218-0.112,0.433-0.2,0.631-0.28c0.118-0.049,0.234-0.096,0.342-0.143c0.11-0.038,0.216-0.079,0.316-0.116
	c0.134-0.049,0.25-0.096,0.407-0.137l0.169-0.038c0.184,0.298,0.4,0.581,0.659,0.84l12.146,12.146l-25.929,24.903
	c-0.01,0.012-0.02,0.021-0.029,0.03c-3.227,3.228-3.752,7.952-0.525,11.179c3.227,3.228,7.652,2.4,10.878-0.826
	c0.014-0.012,0.026-0.025,0.039-0.041l22.874-24.086c0.135,0.16,0.268,0.318,0.416,0.468l25.649,25.649
	c2.874,2.875,7.536,2.875,10.41,0C282.67,728.659,282.67,723.995,279.797,721.122z M217.061,726.881c-1.188,1.19-3.115,1.19-4.304,0
	c-1.188-1.188-1.188-3.114,0-4.304c1.188-1.187,3.115-1.188,4.304,0C218.248,723.767,218.248,725.692,217.061,726.881z"/>
</svg>
