<?xml version="1.0" encoding="utf-8"?>
<!-- Generator: Adobe Illustrator 16.0.4, SVG Export Plug-In . SVG Version: 6.00 Build 0)  -->
<!DOCTYPE svg PUBLIC "-//W3C//DTD SVG 1.1//EN" "http://www.w3.org/Graphics/SVG/1.1/DTD/svg11.dtd">
<svg version="1.1" id="Layer_1" xmlns="http://www.w3.org/2000/svg" xmlns:xlink="http://www.w3.org/1999/xlink" x="0px" y="0px"
	 width="1024px" height="640px" viewBox="0 0 1024 640" enable-background="new 0 0 1024 640" xml:space="preserve">
<g>
	<path d="M485.646,748.223h-44.833c-0.829,0-1.5,0.672-1.5,1.5v9.166c0,2.544,1.791,4.678,4.177,5.207
		c0.275,0.332,0.691,0.544,1.156,0.544h37.167c2.939,0,5.333-2.393,5.333-5.333c0-0.077-0.004-0.153-0.011-0.235
		c0.007-0.061,0.011-0.121,0.011-0.183v-9.166C487.146,748.895,486.475,748.223,485.646,748.223z"/>
	<path d="M496.702,683.466l-10.584-3.5c-0.151-0.052-0.311-0.076-0.471-0.076h-44.834c-0.829,0-1.5,0.672-1.5,1.5v24.5
		c0,0.828,0.671,1.5,1.5,1.5h11.806l-6.438,29.663l-5.939,2.45c-0.562,0.23-0.928,0.779-0.928,1.387v3.25c0,0.828,0.671,1.5,1.5,1.5
		h44.832c0.829,0,1.5-0.672,1.5-1.5v-4c0-0.721-0.512-1.339-1.219-1.475l-13.03-2.484l1.462-11.373l3.479-1.548
		c0.445-0.197,0.766-0.601,0.861-1.077l2.5-12.572c0.158-0.794-0.342-1.569-1.129-1.753l-2.092-0.49V706.6l7.708-0.211
		c0.32-0.009,0.629-0.119,0.881-0.316l10.583-8.25c0.364-0.283,0.578-0.721,0.578-1.183v-11.75
		C497.729,684.244,497.315,683.668,496.702,683.466z"/>
	<path d="M507.229,683.39h-5.75c-0.829,0-1.5,0.672-1.5,1.5v11c0,0.828,0.671,1.5,1.5,1.5h5.75c0.829,0,1.5-0.672,1.5-1.5v-11
		C508.729,684.062,508.059,683.39,507.229,683.39z"/>
	<path d="M529.229,688.89c-0.002,0-0.005,0-0.007,0l-15.993,0.076v-1.076c0-0.828-0.671-1.5-1.5-1.5s-1.5,0.672-1.5,1.5v5.166
		c0,0.828,0.671,1.5,1.5,1.5s1.5-0.672,1.5-1.5v-1.09l16.007-0.076c0.828-0.004,1.497-0.679,1.493-1.507
		C530.726,689.557,530.056,688.89,529.229,688.89z"/>
</g>
<g>
	<path d="M348.453,718.265h-26.4c-0.128,0-0.251-0.021-0.369-0.057l-0.461,3.736c-0.017,0.139,0.083,0.303,0.137,0.32h4.879v-2.286
		c0-0.394,0.32-0.714,0.715-0.714h16.57c0.395,0,0.715,0.32,0.715,0.715v2.285h4.988c0.052-0.018,0.147-0.171,0.131-0.302
		l-0.456-3.785C348.761,718.229,348.612,718.265,348.453,718.265z"/>
	<path d="M335.489,665.515c-3.803,0-9.804,0.783-11.108,1.75h21.924C345.136,666.474,340.663,665.515,335.489,665.515z"/>
	<path d="M348.236,682.876c-0.03,3.094-0.062,5.619-2.586,6.599l-0.302,4.115c3.799-0.709,5.521-4.127,5.521-10.837
		c0-5.717-1.252-9.041-3.969-10.342l-0.304,4.153C348.284,677.886,348.261,680.329,348.236,682.876z"/>
	<path d="M322.053,717.265h0.014h26.386c0.353,0,0.786-0.689,0.786-1.25v-5.939c-0.166-0.812-4.54-8.062-5.492-8.811h-16.988
		c-0.956,0.746-5.352,8-5.523,8.854l0.003,5.896C321.239,716.563,321.696,717.265,322.053,717.265z M335.051,704.641
		c1.221,0,2.295,0.584,2.995,1.478l-1.356,0.668c-0.496,0.244-0.699,0.844-0.456,1.338c0.174,0.354,0.529,0.56,0.898,0.56
		c0.147,0,0.299-0.033,0.439-0.103l1.243-0.612c0.021,0.16,0.049,0.317,0.049,0.483c0,2.105-1.706,3.812-3.812,3.812
		c-2.105,0-3.812-1.707-3.812-3.812C331.239,706.348,332.946,704.641,335.051,704.641z"/>
	<polygon points="343.853,700.265 343.857,700.265 346.201,668.265 324.28,668.265 326.784,700.265 	"/>
</g>
<g>
	<g>
		<path fill="#E67E22" d="M647.187,546.053c0.517-0.046,0.972-0.287,1.294-0.638c0.352-0.384,0.554-0.901,0.522-1.455
			c-2.33-42.244,29.853-79.897,30.176-80.271c0.47-0.538,0.614-1.29,0.374-1.961c-0.234-0.673-0.814-1.169-1.514-1.3
			c-7.906-1.473-10.102-6.877-10.185-7.092c-0.356-0.959-1.379-1.493-2.371-1.23c-0.988,0.256-1.623,1.228-1.464,2.233
			c1.133,7.245-3.16,14.277-17.448,37.67c-14.735,24.122-7.187,51.903-6.856,53.071c0.258,0.922,1.135,1.53,2.09,1.445
			L647.187,546.053z"/>
		<g>
			<path fill="#E67E22" d="M671.965,411.649c-0.039-0.528-0.296-1.024-0.703-1.364c-0.404-0.345-0.934-0.509-1.463-0.461
				l-4.914,0.453c-0.918,0.083-1.662,0.791-1.784,1.704c-0.131,0.918-2.968,21.958,6.364,32.198
				c-1.019,4.302,0.352,8.853,3.66,11.881c2.179,1.993,4.947,3.118,7.878,3.213c5.432,5.69,47.18,50.498,43.401,79.898
				c-0.069,0.532,0.084,1.074,0.42,1.491c0.334,0.42,0.825,0.688,1.362,0.74l4.953,0.486c0.558,0.053,1.113-0.129,1.53-0.504
				c0.047-0.043,0.09-0.09,0.132-0.134c0.333-0.367,0.52-0.843,0.52-1.34c0.009-1.562-0.108-38.438-17.654-58.735
				c-16.577-19.163-21.714-27.214-21.991-34.461c-0.001-0.04-0.004-0.091-0.01-0.144c-0.016-0.334-0.06-0.66-0.104-0.984
				c-0.002-0.008-0.047-0.35-0.047-0.351c-0.418-2.868-1.738-5.394-3.817-7.296c-1.77-1.621-3.957-2.658-6.367-3.027
				C681.313,432.722,672.853,422.889,671.965,411.649z M684.653,451.322c-1.976,2.158-5.339,2.307-7.498,0.328
				c-2.165-1.976-2.312-5.341-0.337-7.498c1.979-2.16,5.345-2.312,7.503-0.336C686.482,445.793,686.631,449.16,684.653,451.322z"/>
			<path fill="#E67E22" d="M679.754,446.842c0.501-0.546,1.338-0.58,1.882-0.083c0.537,0.491,0.573,1.334,0.079,1.873
				c-0.495,0.544-1.335,0.58-1.877,0.085C679.296,448.219,679.26,447.381,679.754,446.842z"/>
			<path fill="#E67E22" d="M698.584,408.934l-5.436-0.922c-0.664-0.114-1.346,0.123-1.803,0.624c0,0-0.002,0.002-0.005,0.006
				c-0.457,0.497-0.623,1.213-0.445,1.867c0.099,0.364,2.342,9.08-5.776,20.661c-0.381,0.545-0.457,1.236-0.225,1.854
				c0.238,0.619,0.768,1.081,1.412,1.228c0.271,0.064,6.694,1.626,8.315,7.546c0.234,0.862,1.016,1.463,1.907,1.467
				c0.574,0.005,1.109-0.244,1.479-0.644c0.204-0.225,0.359-0.497,0.446-0.798l3.253-11.422c0.065-0.229,0.087-0.469,0.07-0.708
				l-1.546-18.953C700.162,409.83,699.48,409.088,698.584,408.934z"/>
		</g>
	</g>
	<path fill="#E67E22" d="M532.342,450.688l0.584-0.706c12.184,3.013,25.606-0.45,34.832-10.228
		c9.143-9.723,11.835-23.164,8.225-35.085l-19.752,20.948l-20.09-4.745l-5.924-19.785l19.735-20.959
		c-12.107-2.88-25.373,0.589-34.535,10.308c-9.605,10.185-12.086,24.518-7.664,36.863l-0.105,0.113l-81.264,86.205
		c-3.212,3.403-4.755,7.785-4.627,12.128c0.126,4.344,1.927,8.618,5.333,11.854c6.799,6.436,17.532,6.12,23.988-0.708
		L532.342,450.688z M429.624,526.976c-0.105-3.56,2.715-6.55,6.291-6.653c3.582-0.105,6.56,2.707,6.666,6.275
		c0.104,3.585-2.7,6.568-6.282,6.674C432.72,533.382,429.732,530.573,429.624,526.976z"/>
	<path fill="#E67E22" d="M452.394,375.49c-1.861,7.986-8.262,13.863-19.199,17.633c-5.717,5.45-13.127,13.664-22.238,24.643
		l-1.34,4.248c-3.916,24.819-1.33,41.332,7.752,49.526c-0.168-0.27-0.314-0.654-0.432-1.149c-1.4-8.046-0.134-16.993,3.799-26.836
		c4.465-11.123,9.9-13.368,16.306-6.728l105.064,106.256c2.129,1.901,4.607,1.308,7.432-1.778l14.508-15.563
		c2.822-3.087,3.197-5.69,1.117-7.812l-109.52-94.661c-2.84-4.872-3.408-9.215-1.699-13.025c1.707-3.816,4.241-6.91,7.602-9.283
		c3.361-2.376,6.04-3.331,8.035-2.864c4.04-3.266,5.481-7.204,4.33-11.799c-1.149-4.596-4.15-8.277-9.003-11.046
		C460.055,372.479,455.885,372.559,452.394,375.49z"/>
	<path fill="#E67E22" d="M307.756,405.872l-8.287,0.15c-0.837,0.014-1.531,0.648-1.621,1.478l-1.269,11.88
		c-0.118,0.569-0.169,1.1-0.159,1.616c0.034,1.992,0.847,3.852,2.277,5.233c1.027,0.989,2.289,1.638,3.652,1.917l0.728,40.975
		l-10.771,0.193c-0.917,0.012-1.645,0.768-1.627,1.687l0.127,7.096c0.015,0.914,0.77,1.643,1.686,1.627
		c1.827-0.033,3.341,1.431,3.372,3.254c0.031,1.775-1.485,3.343-3.253,3.376c-0.881,0.015-1.645,0.807-1.629,1.688l0.669,37.517
		c0.138,7.765,6.57,13.975,14.338,13.837c3.762-0.069,7.274-1.6,9.888-4.306c2.613-2.708,4.014-6.272,3.949-10.036l-0.67-37.515
		c-0.007-0.44-0.189-0.858-0.505-1.164c-0.316-0.304-0.74-0.473-1.18-0.464c-0.885,0.016-1.726-0.312-2.363-0.929
		c-0.639-0.614-0.996-1.443-1.014-2.33c-0.03-1.769,1.482-3.337,3.257-3.371c0.916-0.017,1.642-0.771,1.627-1.686l-0.126-7.098
		c-0.018-0.917-0.771-1.643-1.688-1.627l-10.774,0.194l-0.726-40.976c1.351-0.332,2.592-1.024,3.579-2.048
		c1.383-1.434,2.125-3.321,2.094-5.309c-0.01-0.522-0.081-1.052-0.219-1.615l-1.692-11.824
		C309.307,406.466,308.589,405.856,307.756,405.872z M300.716,526.564c-0.296,0.307-0.708,0.501-1.163,0.507
		c-0.919,0.018-1.673-0.711-1.688-1.628l-0.584-32.765c-0.015-0.915,0.712-1.668,1.628-1.688c0.919-0.016,1.67,0.711,1.686,1.629
		l0.586,32.766C301.188,525.844,301.009,526.264,300.716,526.564z M307.344,526.449c-0.295,0.306-0.707,0.497-1.163,0.506
		c-0.915,0.016-1.667-0.712-1.686-1.626l-0.582-32.767c-0.019-0.917,0.71-1.671,1.628-1.687c0.913-0.018,1.667,0.708,1.685,1.626
		l0.584,32.765C307.815,525.725,307.638,526.143,307.344,526.449z M313.026,492.398l0.584,32.767
		c0.008,0.457-0.17,0.874-0.464,1.181c-0.296,0.307-0.708,0.497-1.162,0.506c-0.919,0.016-1.672-0.711-1.688-1.629l-0.585-32.765
		c-0.016-0.917,0.712-1.67,1.628-1.688C312.255,490.755,313.01,491.483,313.026,492.398z"/>
</g>
<path d="M279.797,721.122l-25.651-25.65c-0.24-0.241-0.496-0.455-0.761-0.655l4.543-4.783c0.232-0.234,0.452-0.48,0.654-0.733
	c6.03,2.274,13.108,0.996,17.956-3.851c3.535-3.537,5.318-8.429,4.888-13.42c-0.047-0.565-0.421-1.054-0.953-1.246
	c-0.534-0.195-1.131-0.062-1.532,0.338l-8.221,8.22l-8.324-2.099l-2.359-8.586l8.219-8.219c0.402-0.402,0.535-1,0.341-1.533
	s-0.682-0.904-1.248-0.955c-4.991-0.43-9.883,1.353-13.42,4.89c-4.844,4.844-6.126,11.917-3.854,17.946
	c-0.246,0.209-0.492,0.431-0.733,0.668l-6.687,6.422l-12.279-12.277c-0.153-0.154-0.317-0.289-0.485-0.416
	c0.144-0.253,0.284-0.514,0.415-0.783c2.593,0.499,7.334-4.551,11.36-8.576l-11.73-11.73c-5.245,5.246-9.075,8.767-8.578,11.359
	c-1.199,0.586-2.268,1.303-3.028,2.063l-1.652,1.651c-1.073,1.074-1.72,2.41-1.951,3.803c-0.16,0.184-0.323,0.376-0.485,0.582
	l-0.616,0.773c-0.017,0.02-0.07,0.096-0.085,0.115l-0.558,0.781c-0.349,0.466-0.654,0.972-0.949,1.46
	c-0.109,0.181-0.22,0.362-0.333,0.544c-0.018,0.031-0.036,0.062-0.052,0.093l-0.248,0.468c-0.3,0.562-0.611,1.144-0.877,1.783
	l-0.043,0.103c-0.314,0.745-0.639,1.518-0.866,2.336l-0.11,0.354c-0.09,0.291-0.181,0.581-0.265,0.928l-0.228,1.129
	c-0.17,0.707-0.227,1.402-0.277,2.02l-0.033,0.405c-0.084,0.64-0.06,1.243-0.037,1.774c0.008,0.179,0.015,0.354,0.02,0.59
	c0.006,0.098,0.007,0.193,0.01,0.287c0.006,0.238,0.012,0.508,0.058,0.793l0.143,0.916c0.031,0.177,0.057,0.349,0.081,0.514
	c0.055,0.372,0.111,0.757,0.222,1.122l0.6,2.082c0.185,0.633,0.786,1.052,1.444,1.006c0.348-0.023,0.661-0.176,0.894-0.408
	c0.208-0.208,0.352-0.482,0.396-0.79l0.311-2.117c0.023-0.168,0.095-0.414,0.17-0.674c0.053-0.181,0.105-0.365,0.145-0.521
	l0.221-0.791c0.027-0.106,0.079-0.211,0.125-0.317c0.044-0.099,0.088-0.201,0.127-0.302c0.074-0.168,0.144-0.336,0.213-0.508
	c0.136-0.338,0.265-0.656,0.462-0.969c0.085-0.144,0.165-0.287,0.246-0.433c0.205-0.367,0.4-0.714,0.631-1.001
	c0.015-0.018,0.028-0.036,0.043-0.057l0.522-0.719c0.107-0.136,0.227-0.264,0.344-0.393c0.083-0.091,0.166-0.182,0.271-0.303
	c0.308-0.37,0.67-0.693,1.019-1.012l0.187-0.168c0.259-0.24,0.558-0.466,0.873-0.705c0.129-0.096,0.255-0.191,0.379-0.285
	c0.159-0.104,0.313-0.207,0.465-0.309c0.284-0.191,0.53-0.357,0.813-0.506l0.619-0.352l0.626-0.308
	c0.218-0.112,0.433-0.2,0.631-0.28c0.118-0.049,0.234-0.096,0.342-0.143c0.11-0.038,0.216-0.079,0.316-0.116
	c0.134-0.049,0.25-0.096,0.407-0.137l0.169-0.038c0.184,0.298,0.4,0.581,0.659,0.84l12.146,12.146l-25.929,24.903
	c-0.01,0.012-0.02,0.021-0.029,0.03c-3.227,3.228-3.752,7.952-0.525,11.179c3.227,3.228,7.652,2.4,10.878-0.826
	c0.014-0.012,0.026-0.025,0.039-0.041l22.874-24.086c0.135,0.16,0.268,0.318,0.416,0.468l25.649,25.649
	c2.874,2.875,7.536,2.875,10.41,0C282.67,728.659,282.67,723.995,279.797,721.122z M217.061,726.881c-1.188,1.19-3.115,1.19-4.304,0
	c-1.188-1.188-1.188-3.114,0-4.304c1.188-1.187,3.115-1.188,4.304,0C218.248,723.767,218.248,725.692,217.061,726.881z"/>
</svg>
