<?xml version="1.0" encoding="UTF-8" standalone="no"?> <!-- Created with Vectornator for iOS (http://vectornator.io/) --><!DOCTYPE svg PUBLIC "-//W3C//DTD SVG 1.1//EN" "http://www.w3.org/Graphics/SVG/1.1/DTD/svg11.dtd">
<svg style="fill-rule:evenodd;clip-rule:evenodd;stroke-linecap:round;stroke-linejoin:round;" xmlns:vectornator="http://vectornator.io" xmlns:xlink="http://www.w3.org/1999/xlink" xmlns="http://www.w3.org/2000/svg" xml:space="preserve" version="1.1" viewBox="0 0 1024 640">
<metadata>
<vectornator:setting key="DimensionsVisible" value="1"/>
<vectornator:setting key="SnapToGrid" value="0"/>
<vectornator:setting key="SnapToPoints" value="0"/>
<vectornator:setting key="GuidesVisible" value="1"/>
<vectornator:setting key="RulersVisible" value="1"/>
<vectornator:setting key="CMYKEnabledKey" value="0"/>
<vectornator:setting key="SnapToEdges" value="0"/>
<vectornator:setting key="DisplayWhiteBackground" value="0"/>
<vectornator:setting key="SnapToGuides" value="1"/>
<vectornator:setting key="GridSpacing" value="36"/>
<vectornator:setting key="Units" value="Pixels"/>
<vectornator:setting key="DynamicGuides" value="0"/>
<vectornator:setting key="New" value="1"/>
</metadata>
<defs/>
<g id="Layer 1" vectornator:layerName="Layer 1">
<g opacity="1">
<g opacity="1">
<path d="M210.238+478.46L195.862+470.16L195.862+470.16L356.012+192.78L356.012+192.78L370.388+201.08L370.388+201.08L210.238+478.46L210.238+478.46Z" opacity="1" fill="#e535ab"/>
<path d="M192.57+448L512.87+448L512.87+448L512.87+464.6L512.87+464.6L192.57+464.6L192.57+464.6L192.57+448L192.57+448Z" opacity="1" fill="#e535ab"/>
<path d="M359.118+549.826L198.908+457.326L198.908+457.326L207.208+442.95L207.208+442.95L367.418+535.45L367.418+535.45L359.118+549.826L359.118+549.826Z" opacity="1" fill="#e535ab"/>
<path d="M498.292+308.747L338.082+216.247L338.082+216.247L346.382+201.871L346.382+201.871L506.592+294.371L506.592+294.371L498.292+308.747L498.292+308.747Z" opacity="1" fill="#e535ab"/>
<path d="M207.252+308.684L198.952+294.308L198.952+294.308L359.162+201.808L359.162+201.808L367.462+216.184L367.462+216.184L207.252+308.684L207.252+308.684Z" opacity="1" fill="#e535ab"/>
<path d="M495.338+478.463L335.188+201.083L335.188+201.083L349.564+192.783L349.564+192.783L509.714+470.163L509.714+470.163L495.338+478.463L495.338+478.463Z" opacity="1" fill="#e535ab"/>
<path d="M205.27+283.3L221.87+283.3L221.87+283.3L221.87+468.3L221.87+468.3L205.27+468.3L205.27+468.3L205.27+283.3L205.27+283.3Z" opacity="1" fill="#e535ab"/>
<path d="M483.67+283.3L500.27+283.3L500.27+283.3L500.27+468.3L500.27+468.3L483.67+468.3L483.67+468.3L483.67+283.3L483.67+283.3Z" opacity="1" fill="#e535ab"/>
<path d="M356.292+542.799L349.042+530.242L349.042+530.242L488.381+449.792L488.381+449.792L495.631+462.349L495.631+462.349L356.292+542.799L356.292+542.799Z" opacity="1" fill="#e535ab"/>
<path d="M522.27+473.7C512.67+490.4+491.27+496.1+474.57+486.5C457.87+476.9+452.17+455.5+461.77+438.8C471.37+422.1+492.77+416.4+509.47+426C526.27+435.7+531.97+457+522.27+473.7" opacity="1" fill="#e535ab"/>
<path d="M243.67+312.8C234.07+329.5+212.67+335.2+195.97+325.6C179.27+316+173.57+294.6+183.17+277.9C192.77+261.2+214.17+255.5+230.87+265.1C247.57+274.8+253.27+296.1+243.67+312.8" opacity="1" fill="#e535ab"/>
<path d="M183.27+473.7C173.67+457+179.37+435.7+196.07+426C212.77+416.4+234.07+422.1+243.77+438.8C253.37+455.5+247.67+476.8+230.97+486.5C214.17+496.1+192.87+490.4+183.27+473.7" opacity="1" fill="#e535ab"/>
<path d="M461.87+312.8C452.27+296.1+457.97+274.8+474.67+265.1C491.37+255.5+512.67+261.2+522.37+277.9C531.97+294.6+526.27+315.9+509.57+325.6C492.87+335.2+471.47+329.5+461.87+312.8" opacity="1" fill="#e535ab"/>
<path d="M352.77+571.6C333.47+571.6+317.87+556+317.87+536.7C317.87+517.4+333.47+501.8+352.77+501.8C372.07+501.8+387.67+517.4+387.67+536.7C387.67+555.9+372.07+571.6+352.77+571.6" opacity="1" fill="#e535ab"/>
<path d="M352.77+249.8C333.47+249.8+317.87+234.2+317.87+214.9C317.87+195.6+333.47+180+352.77+180C372.07+180+387.67+195.6+387.67+214.9C387.67+234.2+372.07+249.8+352.77+249.8" opacity="1" fill="#e535ab"/>
</g>
<g opacity="1">
<path d="M528.88+295.412C528.88+315.75+512.394+332.23+492.062+332.23C471.724+332.23+455.243+315.75+455.243+295.412C455.243+275.074+471.723+258.594+492.061+258.594C512.395+258.594+528.88+275.074+528.88+295.412" opacity="1" fill="#f26b00"/>
<path d="M808.677+461.578L602.631+461.578C575.434+461.578+553.309+439.454+553.309+412.258C553.309+385.062+575.435+362.936+602.631+362.936L695.818+362.936C711.879+362.936+724.946+349.868+724.946+333.806C724.946+317.744+711.878+304.676+695.818+304.676L492.058+304.676C486.482+304.676+481.961+300.154+481.961+294.58C481.961+289.004+486.482+284.483+492.057+284.483L695.817+284.483C723.014+284.483+745.136+306.61+745.136+333.805C745.136+361.001+723.013+383.125+695.817+383.125L602.629+383.125C586.566+383.125+573.499+396.193+573.499+412.258C573.499+428.319+586.567+441.386+602.629+441.386L808.677+441.386C814.253+441.386+818.773+445.908+818.773+451.482C818.773+457.057+814.253+461.578+808.677+461.578L808.677+461.578Z" opacity="1" fill="#f26b00"/>
<path d="M771.862+451.484C771.862+431.146+788.342+414.665+808.68+414.665C829.018+414.665+845.498+431.146+845.498+451.484C845.498+471.822+829.018+488.302+808.68+488.302C788.342+488.302+771.862+471.822+771.862+451.484" opacity="1" fill="#f26b00"/>
</g>
</g>
</g>
</svg>
