<?xml version="1.0" encoding="UTF-8"?>
<svg width="1024px" height="650px" viewBox="0 0 1024 650" version="1.1" xmlns="http://www.w3.org/2000/svg" xmlns:xlink="http://www.w3.org/1999/xlink">
    <title>graphql</title>
    <g id="Page-1" stroke="none" stroke-width="1" fill="none" fill-rule="evenodd">
        <g id="graphql">
            <polygon id="Path" fill="#080808" points="0 0 1024 0 1024 650 0 650"></polygon>
            <g id="Group" transform="translate(363.000000, 249.000000)" fill="#E535AB">
                <polygon id="Path" points="27.3557522 256 15 248.881896 15 248.881896 152.644248 11 152.644248 11 165 18.1181042 165 18.1181042"></polygon>
                <polygon id="Path" points="12 230 287 230 287 230 287 244 287 244 12 244 12 244"></polygon>
                <polygon id="Path" points="154.907246 317 18 237.375014 18 237.375014 25.0927541 225 25.0927541 225 162 304.624986 162 304.624986"></polygon>
                <polygon id="Path" points="273.907246 111 137 31.375014 137 31.375014 144.092754 19 144.092754 19 281 98.624986 281 98.624986"></polygon>
                <polygon id="Path" points="25.0927541 110 18 97.624986 18 97.624986 154.907246 18 154.907246 18 162 30.375014 162 30.375014"></polygon>
                <polygon id="Path" points="272.644248 256 135 18.1181042 135 18.1181042 147.355752 11 147.355752 11 285 248.881896 285 248.881896"></polygon>
                <polygon id="Path" points="23 88 37 88 37 88 37 247 37 247 23 247 23 247"></polygon>
                <polygon id="Path" points="262 88 276 88 276 88 276 247 276 247 262 247 262 247"></polygon>
                <polygon id="Path" points="152.231709 311 146 300.199093 146 300.199093 265.768291 231 265.768291 231 272 241.800907 272 241.800907"></polygon>
                <path d="M294.942259,251.995675 C286.700314,266.346836 268.327645,271.245136 253.990095,262.995367 C239.652545,254.745598 234.75889,236.355487 243.000835,222.004325 C251.24278,207.653164 269.615449,202.754864 283.952999,211.004633 C298.376402,219.340337 303.270057,237.644513 294.942259,251.995675" id="Path"></path>
                <path d="M55.995367,113.995675 C47.7455976,128.346836 29.3554868,133.245136 15.0043255,124.995367 C0.65316419,116.745598 -4.24513637,98.3554868 4.00463299,84.0043255 C12.2544024,69.6531642 30.6445132,64.7548636 44.9956745,73.004633 C59.3468358,81.3403375 64.2451364,99.6445132 55.995367,113.995675" id="Path"></path>
                <path d="M4.00463299,251.995675 C-4.24513637,237.644513 0.65316419,219.340337 15.0043255,211.004633 C29.3554868,202.754864 47.6596625,207.653164 55.995367,222.004325 C64.2451364,236.355487 59.3468358,254.659663 44.9956745,262.995367 C30.5585781,271.245136 12.2544024,266.346836 4.00463299,251.995675" id="Path"></path>
                <path d="M243.004633,113.995675 C234.754864,99.6445132 239.653164,81.3403375 254.004325,73.004633 C268.355487,64.7548636 286.659663,69.6531642 294.995367,84.0043255 C303.245136,98.3554868 298.346836,116.659663 283.995675,124.995367 C269.644513,133.245136 251.254402,128.346836 243.004633,113.995675" id="Path"></path>
                <path d="M150,336 C133.409742,336 120,322.590258 120,306 C120,289.409742 133.409742,276 150,276 C166.590258,276 180,289.409742 180,306 C180,322.504298 166.590258,336 150,336" id="Path"></path>
                <path d="M150,60 C133.409742,60 120,46.5902579 120,30 C120,13.4097421 133.409742,0 150,0 C166.590258,0 180,13.4097421 180,30 C180,46.5902579 166.590258,60 150,60" id="Path"></path>
            </g>
        </g>
    </g>
</svg>