<svg width="600" height="353" xmlns="http://www.w3.org/2000/svg"><path d="M68.813 4.138c24.566 0 45.352 16.213 52.271 38.544l250.553.001c40.42 0 73.299 32.943 73.299 73.433 0 40.49-32.88 73.43-73.3 73.43H233.142c-23.874 0-43.294 19.456-43.294 43.375 0 23.911 19.423 43.367 43.294 43.367l253.597-.001c6.522-22.968 27.615-39.782 52.637-39.782 30.226 0 54.719 24.536 54.719 54.816s-24.493 54.817-54.72 54.817c-25.023 0-46.117-16.817-52.637-39.787l-253.594-.001c-40.42 0-73.302-32.938-73.302-73.43 0-40.49 32.884-73.432 73.302-73.432H371.64c23.87 0 43.29-19.457 43.29-43.371s-19.422-43.37-43.29-43.37h-249.85c-6.106 23.601-27.51 41.024-52.973 41.024-30.227 0-54.722-24.536-54.722-54.816S38.587 4.138 68.814 4.138z" fill="#F26B00" fill-rule="nonzero"/></svg>