<?xml version="1.0" standalone="no"?>
<!DOCTYPE svg PUBLIC "-//W3C//DTD SVG 1.1//EN" "http://www.w3.org/Graphics/SVG/1.1/DTD/svg11.dtd" >
<svg xmlns="http://www.w3.org/2000/svg">
<metadata></metadata>
<defs>
<font id="hallo_sansblack" horiz-adv-x="1014" >
<font-face units-per-em="2048" ascent="1638" descent="-410" />
<missing-glyph horiz-adv-x="508" />
<glyph unicode="&#xd;" horiz-adv-x="508" />
<glyph horiz-adv-x="0" />
<glyph horiz-adv-x="0" />
<glyph unicode=" "  horiz-adv-x="508" />
<glyph unicode="&#x09;" horiz-adv-x="508" />
<glyph unicode="&#xa0;" horiz-adv-x="508" />
<glyph unicode="!" horiz-adv-x="545" d="M84 17q0 63 45 108t108 45t108 -45t45 -108t-45 -108t-108 -45t-108 45t-45 108zM102 220h260v1251h-260v-1251z" />
<glyph unicode="&#x22;" horiz-adv-x="728" d="M-33 1599h259l10 -83q6 -49 73 -146q83 -120 95 -199l18 -110h-257l-18 73q-5 21 -52 89q-106 155 -118 272zM350 1599h259l10 -83q6 -49 73 -146q83 -120 95 -199l18 -110h-257l-18 73q-5 21 -52 89q-106 155 -118 272z" />
<glyph unicode="#" horiz-adv-x="1336" d="M0 344h174l-69 -344h262l69 344h244l-69 -344h263l69 344h177l52 260h-177l54 268h177l52 259h-177l66 332h-263l-66 -332h-244l66 332h-262l-67 -332h-173l-52 -259h173l-53 -268h-174zM488 604l54 268h244l-54 -268h-244z" />
<glyph unicode="$" horiz-adv-x="1139" d="M72 380l249 73l32 -81q25 -64 83 -99v463q-252 115 -276 328q-15 141 72 258q82 108 204 141v179h260v-178q168 -49 235 -202l42 -97l-246 -78l-31 65v-245q296 -141 335 -384q27 -168 -56 -316q-92 -164 -277 -210q0 1 -2 0v-139h-260v137q-241 59 -328 289zM419 1093 q2 -24 17 -45v111q-21 -33 -17 -66zM696 276q53 37 72 109q14 52 7 97q-11 67 -79 123v-329z" />
<glyph unicode="%" horiz-adv-x="1369" d="M100 1198q0 129 91 220q92 91 221 91t220 -91q92 -91 92 -220t-92 -221q-91 -91 -220 -91t-221 91q-91 92 -91 221zM140 0l8 103q14 176 173 410q95 141 339 423q309 358 328 450l16 77h258l-16 -110q-17 -110 -127 -266q-69 -97 -262 -320q-432 -501 -450 -681l-8 -86 h-259zM360 1198q0 -22 15 -37t37 -15q21 0 37 15q15 15 15 37q0 21 -15 36q-16 16 -37 16q-22 0 -37 -16q-15 -15 -15 -36zM644 320q0 129 92 221q91 91 220 91t220 -91q92 -92 92 -221t-92 -220q-91 -92 -220 -92t-220 92q-92 91 -92 220zM904 320q0 -21 15 -36 q16 -16 37 -16q22 0 37 16q15 15 15 36q0 22 -15 37t-37 15t-37 -15t-15 -37z" />
<glyph unicode="&#x26;" horiz-adv-x="1299" d="M100 488q2 172 51 267q26 51 82 98q-73 100 -55 303l3 36q10 139 117 219q106 80 284 82h11q178 -2 285 -82t117 -220q1 -11 3 -35q12 -130 -6 -200q-31 -123 -149 -193l-26 -15l-32 -14l-181 204l82 36q46 20 54 44q8 23 -1 115q-2 24 -3 39q-4 61 -149 62 q-143 -1 -147 -62q-1 -17 -3 -39q-10 -110 8 -130l371 -402l1 124h259v-246q0 -79 -9 -149l189 -204l-191 -176l-117 127q-92 -79 -251 -79h-218q-306 0 -364 292q-16 80 -15 198zM360 492q-2 -94 10 -151q10 -50 24 -64q21 -19 85 -19h218q50 0 73 11l-362 392 q-22 -17 -27 -25q-19 -39 -21 -144z" />
<glyph unicode="'" horiz-adv-x="346" d="M-33 1599h259l10 -83q6 -49 73 -146q83 -120 95 -199l18 -110h-257l-18 73q-5 21 -52 89q-106 155 -118 272z" />
<glyph unicode="(" horiz-adv-x="693" d="M101 695q0 566 236 867l65 83l100 -96l88 -83l-51 -68q-178 -241 -178 -703t178 -703l50 -68l-187 -179l-65 83q-236 302 -236 867z" />
<glyph unicode=")" horiz-adv-x="734" d="M101 -76l50 68q179 241 179 703t-179 703l-50 68l88 83l100 96l64 -83q237 -301 237 -867q0 -565 -237 -867l-64 -83z" />
<glyph unicode="*" horiz-adv-x="1024" d="M218 1333q0 17 6 36q11 35 36 53q17 12 34 12q9 0 18 -3q20 -6 74 -62q47 -49 112 -75q-4 71 -37 130q-37 66 -37 84q0 32 23.5 51.5t62.5 19.5q37 0 61.5 -18t24.5 -47q0 -21 -36 -89q-33 -61 -37 -130q66 25 113 75q51 55 69 61q11 3 21 3q18 0 35 -10q26 -17 38 -53 q6 -19 6 -36q0 -15 -4 -28q-10 -30 -38 -38q-6 -2 -19 -2q-25 0 -76 9q-28 5 -55 5q-41 0 -81 -11q44 -55 105 -83q68 -32 79 -47q13 -18 13 -38q0 -9 -2 -17q-8 -30 -39 -53q-29 -22 -59 -22q-1 0 -1 1q-31 0 -48 23q-12 17 -22 94q-10 67 -47 125q-38 -58 -46 -124 q-9 -75 -20 -90q-19 -25 -49 -27h-5q-28 0 -57 21q-30 21 -39 51q-4 10 -4 20q0 17 11 32q13 17 83 51q61 29 105 82q-41 11 -80 11q-27 0 -53 -5q-54 -11 -78 -11q-9 0 -14 2q-30 9 -41 38q-6 13 -6 29z" />
<glyph unicode="+" horiz-adv-x="1166" d="M100 644h356v-356h260v356h356v260h-356v356h-260v-356h-356v-260z" />
<glyph unicode="," horiz-adv-x="557" d="M6 -197l18 110q12 79 95 199q67 97 73 146l10 83h259l-10 -104q-12 -117 -118 -272q-47 -68 -52 -89l-18 -73h-257z" />
<glyph unicode="-" horiz-adv-x="893" d="M98 609h705v260h-705v-260z" />
<glyph unicode="." horiz-adv-x="557" d="M93 156q0 63 45 108t108 45t108 -45t45 -108t-45 -108t-108 -45t-108 45t-45 108z" />
<glyph unicode="/" horiz-adv-x="615" d="M0 0h263l338 1460h-263z" />
<glyph unicode="0" horiz-adv-x="1113" d="M90 744q3 343 16 410q62 330 453 330q401 0 464 -330q13 -67 16 -410q2 -374 -23 -463q-52 -180 -196 -252q-99 -49 -254 -49q-366 0 -453 301q-26 89 -23 463zM349 729q0 -322 13 -376q17 -57 44 -78q46 -35 160 -35q113 0 156 32q27 20 44 81q14 54 14 376 q-1 316 -12 376q-12 62 -45 86q-46 34 -164 34t-160 -36q-26 -22 -38 -84q-11 -60 -12 -376z" />
<glyph unicode="1" horiz-adv-x="760" d="M100 1000l36 122q24 79 153 180q88 69 96 93l22 65h238v-1460h-260v1044q-3 -3 -4 -5l-29 -39h-252z" />
<glyph unicode="2" d="M100 0v531q0 91 62 170q52 67 115 91l129 49q113 43 174 66q63 23 74 49q9 22 1 114l-3 39q-4 54 -79 76q-39 12 -75 12h-380v260h380q156 0 270 -80q131 -91 143 -249q0 -12 2 -33q14 -149 -15 -228q-49 -137 -228 -204q-67 -25 -184 -69l-110 -42q-14 -12 -17 -24 l1 -268h512v-260h-772z" />
<glyph unicode="3" horiz-adv-x="1029" d="M100 0v260h450q64 0 85 19q14 13 24 63q37 184 -12 278q-14 24 -91 66l-172 -68l-96 241l266 106q34 16 40 34q6 19 -1 98l-1 6q-2 25 -3 35q-5 62 -153 62h-336v260h336q180 0 291 -82q110 -81 121 -221q1 -11 3 -36q18 -193 -52 -286q53 -46 79 -96q90 -174 36 -448 q-58 -291 -364 -291h-450z" />
<glyph unicode="4" horiz-adv-x="1009" d="M100 1149v311h260v-311q0 -81 24 -118q32 -48 129 -86l125 -50v565h260v-1460h-260v613q-113 49 -220 90q-189 75 -265 209q-53 94 -53 237z" />
<glyph unicode="5" horiz-adv-x="997" d="M100 1037v420h772v-260h-512v-160q3 -9 16 -21l113 -43q129 -49 181 -68q181 -68 230 -257q28 -105 12 -296l-1 -23q-12 -159 -143 -249q-114 -80 -270 -80h-380v260h380q36 0 75 12q75 22 79 76l2 24q11 137 -2 197q-16 71 -72 92q-43 16 -155 59l-148 56 q-63 24 -115 91q-62 79 -62 170z" />
<glyph unicode="6" d="M123 272q-48 636 5 902q58 291 364 291h320v-260h-320q-65 0 -85 -19q-15 -13 -25 -63q-3 -22 -5 -144l316 -103q188 -67 236 -279q25 -108 10 -303l-2 -22q-11 -139 -117 -219t-284 -83v27l-1 -27h-10q-179 3 -285 83q-107 80 -117 219zM375 706q0 -321 7 -414 q4 -61 148 -62q143 1 148 62l2 21q12 157 -4 226q-17 73 -68 91z" />
<glyph unicode="7" horiz-adv-x="951" d="M100 1199v260h772v-331q0 -210 -171 -546q-157 -306 -163 -490l-3 -92h-260l3 98q8 243 191 602q144 280 144 428v71h-513z" />
<glyph unicode="8" horiz-adv-x="1160" d="M70 490q2 172 51 267q26 50 81 97q-72 100 -54 304q0 -5 3 35q8 104 74 177q104 113 327 116h14q224 -3 328 -116q67 -72 74 -177q1 -14 3 -32q18 -207 -54 -307q55 -47 81 -97q93 -180 36 -466q-58 -291 -364 -291h-221q-306 0 -364 291q-16 81 -15 199zM330 493 q-2 -94 10 -151q9 -50 24 -63q21 -19 85 -19h221q65 0 86 19q14 13 24 63q11 57 10 151q-2 106 -22 144q-15 25 -91 67l-118 -46l-117 46q-76 -42 -91 -67q-19 -38 -21 -144zM405 1023q7 -25 45 -43l109 -43l109 43q39 18 46 43q7 24 -1 112q-3 27 -3 38q-4 53 -149 54h-3 q-144 -1 -148 -54q-1 -14 -4 -38q-7 -88 -1 -112z" />
<glyph unicode="9" horiz-adv-x="1029" d="M101 343l254 51l23 -88q8 -33 19 -39q14 -7 72 -7h85q64 0 85 19q14 13 24 63q5 35 7 277l-318 103q-181 65 -231 205q-29 80 -15 231q2 25 2 35q11 139 117 219q107 80 285 83h10q179 -3 286 -83q106 -80 117 -219q48 -636 -5 -902q-59 -291 -364 -291h-85 q-146 0 -229 59q-82 59 -115 187zM364 1135q-8 -96 1 -119q10 -26 72 -48l233 -76q-1 214 -6 281q-5 61 -148 62q-144 -1 -149 -62q0 -11 -3 -38z" />
<glyph unicode=":" horiz-adv-x="557" d="M102 350q0 63 45 108t108 45t108 -45t45 -108t-45 -108t-108 -45t-108 45t-45 108zM102 875q0 63 45 108t108 45t108 -45t45 -108t-45 -108t-108 -45t-108 45t-45 108z" />
<glyph unicode=";" horiz-adv-x="557" d="M-32 -176l18 110q12 79 95 199q67 98 73 146l10 84h259l-10 -104q-11 -118 -118 -273q-47 -68 -52 -89l-18 -73h-257zM112 868q0 63 45 108t108 45q64 0 108 -45q45 -45 45 -108t-45 -108q-44 -45 -108 -45q-63 0 -108 45t-45 108z" />
<glyph unicode="&#x3c;" d="M87 674v83l840 484v-167l-625 -359l625 -355v-167z" />
<glyph unicode="=" horiz-adv-x="1166" d="M95 411h972v260h-972v-260zM95 744h972v259h-972v-259z" />
<glyph unicode="&#x3e;" d="M87 193v167l625 355l-625 359v167l840 -484v-83z" />
<glyph unicode="?" horiz-adv-x="1099" d="M99 1058l7 110q9 135 95 229q120 130 348 130q155 0 270 -80q131 -91 143 -249l2 -27q12 -142 -15 -218q-47 -132 -216 -215q-83 -42 -156 -73l-6 -3q-14 -11 -19 -25v-377h-260v380q0 82 54 158q50 71 117 100l9 4q70 31 147 69q70 34 83 64q11 24 3 115l-2 28 q-4 54 -79 77q-39 12 -75 12q-114 0 -156 -46q-23 -24 -27 -63l-9 -78zM269 67q0 64 46 109q45 45 109 45t109 -45q46 -45 46 -109t-46 -110q-45 -45 -109 -45t-109 45q-46 46 -46 110z" />
<glyph unicode="@" horiz-adv-x="1548" d="M100 546q2 344 16 418q63 331 453 331h396q366 0 453 -301q24 -85 23 -423q-1 -315 -16 -392q-31 -162 -137 -210q-67 -30 -262 -30h-148v63q-69 -19 -138 -19q-51 0 -97 11v-206l-98 3q-338 11 -422 301q-25 86 -23 454zM359 539q0 -322 14 -375q15 -52 38 -73 q32 -30 105 -38q-140 105 -140 312q0 165 109 269q110 104 284 104q57 0 102 -7q-8 42 -51 54q-22 6 -51 6q-77 0 -152 -34l-82 -36l-121 229l92 42q62 28 131 44h-68q-118 0 -160 -36q-26 -22 -38 -84q-11 -61 -12 -377zM635 365q0 -122 105 -122q83 0 138 43v175 q-33 17 -109 17q-134 0 -134 -113zM887 1036q5 -2 3 -1q161 -45 217 -186q30 -78 30 -214v-435q17 1 28 2l5 25q10 59 11 345q1 297 -13 350q-16 58 -44 79q-45 35 -159 35h-78z" />
<glyph unicode="A" horiz-adv-x="1174" d="M64 0h260l4 90q6 113 63 324h391q58 -211 64 -324l5 -90h259l-5 100q-18 372 -393 1301l-24 59h-208l-24 -60q-369 -930 -387 -1300zM467 674q52 161 118 346q67 -184 120 -346h-238z" />
<glyph unicode="B" horiz-adv-x="1053" d="M81 0h512q306 0 365 291q12 65 14 162v24q0 164 -51 262q-25 50 -79 96q56 75 56 214q0 34 -3 72q-2 19 -3 36q-11 140 -122 221q-110 82 -291 82h-398v-1460zM341 260v343q151 47 258 84q77 -41 92 -67q28 -54 28 -136q0 -63 -16 -142q-10 -50 -24 -63q-21 -19 -86 -19 h-252zM341 875v325h138q149 0 154 -62q1 -12 3 -37v-4q4 -41 4 -67q0 -29 -5 -38q-10 -20 -73 -42q-87 -32 -221 -75z" />
<glyph unicode="C" horiz-adv-x="1134" d="M100 744v-74q0 -309 23 -389q52 -180 197 -252q99 -49 256 -49q345 0 440 270l33 95l-249 72l-30 -85q-17 -47 -43 -64q-44 -28 -151 -28q-114 0 -160 35q-27 21 -43 78q-14 54 -14 376q1 316 12 376q12 62 38 84q42 36 160 36q117 0 164 -33q28 -20 40 -67l24 -85 l254 49l-25 98q-77 297 -457 297q-391 0 -453 -330q-13 -67 -16 -410z" />
<glyph unicode="D" horiz-adv-x="1064" d="M100 1460l5 -1460h413q364 0 451 301q23 82 23 388v50q-3 319 -16 390q-63 331 -465 331h-411zM361 1201h150q119 0 165 -34q33 -24 45 -86q10 -60 11 -351v-68q0 -242 -13 -289q-18 -61 -44 -81q-43 -32 -157 -32h-154z" />
<glyph unicode="E" horiz-adv-x="954" d="M100 0h786v260h-526v433h438v259h-438v250h482v259h-742v-1461z" />
<glyph unicode="F" horiz-adv-x="899" d="M100 0h260v692h438v260h-438v249h482v260h-742v-1461z" />
<glyph unicode="G" horiz-adv-x="1134" d="M80 744v-74q0 -309 23 -389q52 -180 197 -252q99 -49 256 -49q363 0 450 301q23 80 23 403v27v129h-486v-260h226q-3 -189 -13 -227q-17 -61 -44 -81q-43 -32 -156 -32q-114 0 -160 35q-27 21 -43 78q-14 53 -14 376q1 316 12 376q12 62 38 84q42 36 160 36 q117 0 164 -33q28 -20 40 -67l24 -85l254 49l-25 98q-77 297 -457 297q-391 0 -453 -330q-13 -67 -16 -410z" />
<glyph unicode="H" horiz-adv-x="1055" d="M100 0h260v692h334v-692h260v1460h-260v-508h-334v508h-260v-1460z" />
<glyph unicode="I" horiz-adv-x="478" d="M100 0h260v1460h-260v-1460z" />
<glyph unicode="J" horiz-adv-x="879" d="M42 402h259l8 -87q5 -56 49 -69q23 -6 53 -6q34 0 59 10q53 22 53 202v1014h260v-1014q0 -146 -27 -231q-48 -153 -187 -211q-73 -30 -158 -30q-67 0 -125 17q-102 29 -165 109q-62 81 -71 193z" />
<glyph unicode="K" horiz-adv-x="1096" d="M100 0v1460h260v-571q85 33 155 57q99 36 131 87q23 37 23 116v311h260v-311q0 -256 -191 -381q258 -426 275 -666l7 -102h-259l-7 88q-15 181 -257 575q-66 -25 -137 -53v-610h-260z" />
<glyph unicode="L" horiz-adv-x="939" d="M100 0h786v260h-526v1201h-260v-1461z" />
<glyph unicode="M" horiz-adv-x="1438" d="M100 0l3 98q10 361 206 1285l16 76h214l26 -52q91 -180 159 -353q65 170 156 352l26 53h213l17 -75q202 -925 212 -1286l3 -98h-260l-3 93q-6 241 -126 859q-98 -266 -107 -401l-5 -90h-250l-6 90q-9 134 -108 402q-117 -619 -124 -860l-2 -93h-260z" />
<glyph unicode="N" horiz-adv-x="1108" d="M100 0v1460h249l12 -81q14 -98 251 -458q85 -130 127 -197v736h260v-1460h-254l-7 88q-13 188 -343 690q-14 22 -35 54v-832h-260z" />
<glyph unicode="O" horiz-adv-x="1154" d="M100 744q3 343 16 410q62 330 453 330q401 0 464 -330q13 -67 16 -410v-74q0 -309 -23 -389q-52 -180 -196 -252q-99 -49 -254 -49q-366 0 -453 301q-23 80 -23 389v74zM359 729q0 -323 14 -376q16 -57 44 -78q45 -35 159 -35q113 0 156 32q27 20 44 81q14 54 14 376 q-1 316 -12 376q-12 62 -45 86q-46 34 -164 34t-160 -36q-26 -22 -38 -84q-11 -60 -12 -376z" />
<glyph unicode="P" horiz-adv-x="931" d="M69 0v1461h398q156 0 270 -80q131 -91 143 -249l3 -35q4 -48 4 -88q0 -88 -19 -145q-50 -146 -230 -211q-121 -43 -309 -96v-557h-260zM329 827q134 39 221 71q60 21 72 48q6 15 6 53q0 31 -4 76q-2 25 -3 37q-4 54 -79 77q-39 12 -75 12h-138v-374z" />
<glyph unicode="Q" horiz-adv-x="1221" d="M100 744q3 343 16 410q62 330 453 330q402 0 464 -330q13 -66 16 -405v-76q0 -304 -22 -388q91 -85 111 -166l28 -118h-253l-26 54q-1 2 -4 6q-110 -81 -307 -81q-366 0 -453 301q-23 80 -23 389v74zM359 729q0 -323 14 -376q16 -57 44 -78q45 -35 159 -35q66 0 107 10 q-76 88 -89 180l-17 110h211q3 151 3 265q0 226 -13 300q-12 62 -45 86q-46 34 -164 34t-160 -36q-26 -22 -38 -84q-11 -60 -12 -376z" />
<glyph unicode="R" horiz-adv-x="960" d="M62 0v1461h398q165 0 285 -87q132 -96 132 -252q0 -17 2 -53q1 -20 0 -38q0 -100 -18 -160q-40 -125 -169 -191q209 -363 224 -578l6 -102h-259l-7 88q-13 167 -213 504q-57 -17 -121 -35v-557h-260zM322 827q134 39 221 71q59 21 70 48q7 16 7 67q0 20 -1 46 q-1 40 -1 63q0 36 -58 59q-48 20 -100 20h-138v-374z" />
<glyph unicode="S" horiz-adv-x="1090" d="M50 379l249 73l32 -80q53 -132 203 -132q38 0 79 10q90 22 124 110q17 45 17 89q0 16 -2 32q-21 126 -247 215q-145 57 -218 114q-132 101 -149 253q-2 21 -2 41q0 117 75 217q82 108 205 140q67 18 133 18q122 0 218 -59q97 -59 141 -160l42 -97l-246 -78l-36 74 q-29 60 -121 60q-31 0 -64 -8q-33 -9 -61 -43q-26 -33 -26 -68v-9q6 -45 57 -82q44 -31 147 -71q364 -143 408 -416q7 -41 6 -81q0 -122 -62 -234q-92 -164 -277 -209q-72 -18 -141 -18q-168 0 -295 99q-106 82 -152 204z" />
<glyph unicode="T" horiz-adv-x="902" d="M51 1200h281v-1200h260v1200h281v259h-822v-259z" />
<glyph unicode="U" horiz-adv-x="1079" d="M104 1369l2 94h259l-1 -96q-5 -338 -5 -565q0 -384 14 -451q17 -58 71 -88q42 -23 88 -23q123 0 156 113q14 65 14 449q0 227 -5 565l-2 96h260l1 -94q5 -298 5 -515q0 -493 -24 -573q-39 -137 -150 -219q-110 -82 -255 -82q-144 0 -257 83t-152 218q-23 81 -23 585 q0 213 4 503z" />
<glyph unicode="V" horiz-adv-x="1131" d="M54 1460h260l4 -90q13 -250 248 -906q231 656 243 906l5 90h259l-4 -100q-18 -375 -374 -1299l-24 -60l-208 -1l-24 61q-362 924 -380 1299z" />
<glyph unicode="W" horiz-adv-x="1505" d="M34 1467h260l3 -92q10 -247 180 -886q115 302 124 449l6 90h250l5 -89q10 -151 130 -459q181 646 191 896l4 91h259l-4 -99q-14 -369 -297 -1291l-19 -77h-208l-28 59q-87 186 -157 373q-69 -187 -155 -372l-27 -60h-210l-19 79q-271 920 -284 1289z" />
<glyph unicode="X" horiz-adv-x="1157" d="M100 1464h260l22 -75q19 -57 201 -336q181 279 201 336l22 75h260l-28 -127q-22 -95 -239 -428q-42 -65 -62 -96q289 -466 306 -711l7 -102h-259l-7 88q-13 157 -201 477q-189 -322 -201 -477l-7 -88h-260l7 102q18 245 307 711q-28 43 -62 96q-217 333 -240 428z" />
<glyph unicode="Y" horiz-adv-x="1000" d="M54 1460h259l5 -90q11 -209 203 -471q188 262 199 471l5 90h260l-5 -100q-17 -349 -331 -719v-641h-260v647q-314 369 -330 713z" />
<glyph unicode="Z" horiz-adv-x="1061" d="M100 0v130q0 147 323 683q165 274 221 385h-508v260h818v-130q0 -137 -309 -649q-179 -297 -238 -419h567v-260h-874z" />
<glyph unicode="[" horiz-adv-x="696" d="M92 -197h452v260h-192v1394h192v260h-452v-1914z" />
<glyph unicode="\" horiz-adv-x="569" d="M0 1460l338 -1460h263l-338 1460h-263z" />
<glyph unicode="]" horiz-adv-x="699" d="M108 60v-260h452v1914h-452v-260h193v-1394h-193z" />
<glyph unicode="^" />
<glyph unicode="_" horiz-adv-x="1024" d="M0 -100h1024v-60h-1024v60z" />
<glyph unicode="`" horiz-adv-x="1024" d="M212 1363q0 31 20.5 51t53.5 20q20 0 40.5 -12t55.5 -47l291 -296h-69l-330 202q-31 20 -46.5 40t-15.5 42z" />
<glyph unicode="a" horiz-adv-x="919" d="M70 362q0 164 110 269q109 104 283 104q57 0 103 -7q-9 42 -51 54q-22 6 -52 6q-76 0 -152 -34l-81 -36l-122 229l92 42q128 58 263 58q66 0 122 -15q160 -45 216 -186q31 -78 31 -214v-634h-226l-6 10q-86 -28 -165 -28q-164 0 -264 105q-101 105 -101 277zM330 362 q0 -122 105 -122q82 0 137 42v175q-33 18 -109 18q-133 0 -133 -113z" />
<glyph unicode="b" horiz-adv-x="995" d="M100 2v1521h260v-498q66 16 136 16q141 0 239 -74q99 -75 138 -210q32 -111 32 -234q0 -97 -20 -203q-29 -153 -133 -246q-103 -94 -243 -94q-93 0 -181 31l-6 -9h-222zM360 280q72 -40 149 -40q96 0 121 128q16 82 16 156q0 87 -22 161q-16 53 -45 74q-28 22 -83 22 q-74 0 -136 -30v-471z" />
<glyph unicode="c" horiz-adv-x="948" d="M95 710q30 158 134 244q103 87 262 87q206 0 326 -152l65 -82l-217 -141l-54 65q-42 50 -120 50q-65 0 -97 -27q-31 -26 -44 -92q-17 -89 -16 -164q0 -80 18 -145q33 -113 146 -113q70 0 109 46l54 66l217 -141l-65 -82q-117 -149 -315 -149q-141 0 -248 82 q-108 82 -147 219q-29 100 -29 217q0 100 21 212z" />
<glyph unicode="d" horiz-adv-x="1006" d="M120 320q-20 105 -20 203q0 123 32 234q75 261 367 283q22 2 42 2q53 0 104 -10v491h260v-1521h-225l-5 8q-90 -30 -179 -30q-140 0 -243 94q-104 93 -133 246zM375 368q10 -53 38 -87q34 -41 83 -41q76 0 149 40v481q-48 21 -104 21h-22q-68 -6 -98 -29q-26 -20 -40 -68 q-22 -75 -22 -161q0 -74 16 -156z" />
<glyph unicode="e" horiz-adv-x="977" d="M97 708q45 158 155 248q110 89 260 89q143 0 241 -87q98 -88 122 -238q9 -52 9 -93q0 -27 -4 -50l-12 -92l-524 -97q4 -19 9 -40q26 -108 140 -108q81 0 132 47l62 57l197 -167l-75 -73q-127 -124 -316 -124q-145 0 -251 83q-107 84 -142 223q-29 119 -29 227 q0 103 26 195zM352 653l262 49q-21 84 -102 84q-116 0 -160 -133z" />
<glyph unicode="f" horiz-adv-x="765" d="M57 761v259h135v101q0 299 205 384q73 30 156 30q45 0 90 -9l103 -19l-72 -249l-84 14q-19 3 -37 3q-32 0 -56 -10q-26 -10 -35 -37q-11 -31 -11 -107v-101h190v-259h-190v-761h-259v761h-135z" />
<glyph unicode="g" horiz-adv-x="956" d="M75 707q29 152 133 246q103 94 243 94q90 0 178 -30l5 8h226v-1170q0 -116 -32 -183q-46 -99 -174 -152q-72 -30 -156 -30q-66 0 -125 17q-220 64 -245 303l-10 99l259 15l10 -89q5 -45 17 -59q9 -10 40 -19q23 -7 54 -7q33 0 57 10q34 14 40 26q5 12 5 69v147 q-66 -16 -136 -16q-141 0 -239 74q-99 74 -138 210q-32 110 -32 234q0 97 20 203zM330 659q-16 -82 -16 -156q0 -86 22 -161q15 -53 44 -75q29 -21 84 -21q73 0 136 30v471q-73 40 -149 40q-96 0 -121 -128z" />
<glyph unicode="h" horiz-adv-x="980" d="M100 0v1521h260v-505q86 23 171 23q156 0 251 -103q96 -103 96 -270v-666h-259v666q0 74 -33 99q-18 14 -55 14q-83 0 -171 -38v-741h-260z" />
<glyph unicode="i" horiz-adv-x="481" d="M90 1183q0 63 45 108q45 44 108 44t108 -44q44 -45 44 -108q0 -64 -44 -108q-45 -45 -108 -45t-108 45q-45 44 -45 108zM118 0h259v1020h-259v-1020z" />
<glyph unicode="j" horiz-adv-x="436" d="M-200 -481l72 248l84 -14q18 -3 37 -3q32 0 56 10q25 10 35 37q11 31 11 107v1121h259v-1121q0 -299 -205 -384q-73 -30 -157 -30q-45 0 -90 9zM72 1187q0 63 44 108q45 45 108 45q64 0 108 -45q45 -45 45 -108t-45 -108q-44 -45 -108 -45q-63 0 -108 45q-44 45 -44 108z " />
<glyph unicode="k" horiz-adv-x="939" d="M100 0v1521h260v-903q33 39 99 114q144 160 171 220q16 36 20 68h257q-3 -50 -21 -112q-38 -131 -206 -320q199 -243 212 -487l6 -101h-260l-5 89q-9 142 -126 299q-139 -175 -147 -299l-6 -89h-254z" />
<glyph unicode="l" horiz-adv-x="516" d="M100 299v1232h260v-1232q0 -39 43 -55q21 -8 43 -8l3 -256l-108 13q-93 11 -156 74q-85 84 -85 232z" />
<glyph unicode="m" horiz-adv-x="1395" d="M100 0v1020h222l6 -8q90 27 177 27q109 0 188 -53q109 53 243 53q159 0 257 -100q98 -101 98 -264v-675h-259v675q0 62 -30 87q-21 17 -66 17q-60 0 -109 -18q7 -41 7 -86v-675h-260v675q0 71 -19 91q-13 13 -50 13q-76 0 -145 -32v-747h-260z" />
<glyph unicode="n" horiz-adv-x="971" d="M100 0v1020h231l9 -18q98 32 175 37q14 1 29 1q139 0 224 -81q101 -95 101 -288v-671h-259v671q0 81 -20 100q-10 9 -46 9h-14q-84 -5 -170 -50v-730h-260z" />
<glyph unicode="o" horiz-adv-x="989" d="M90 710q30 158 134 244q103 87 262 87q154 0 266 -91q112 -92 141 -240q21 -112 21 -212q0 -117 -29 -217q-40 -139 -145 -220q-106 -81 -247 -81t-248 82q-108 82 -147 219q-29 100 -29 217q0 100 21 212zM345 662q-17 -89 -16 -164q0 -80 18 -145q33 -113 146 -113 q110 0 143 113q18 64 18 142q0 76 -17 167q-22 119 -151 119q-65 0 -97 -27q-31 -26 -44 -92z" />
<glyph unicode="p" horiz-adv-x="977" d="M100 -496v1521h226l5 -8q88 30 178 30q140 0 243 -94q104 -93 133 -246q20 -106 20 -203q0 -124 -32 -234q-39 -135 -138 -210q-98 -74 -239 -74q-70 0 -136 16v-498h-260zM360 276q63 -30 136 -30q55 0 84 21q28 22 44 75q22 75 22 161q0 74 -16 156q-10 53 -38 87 q-34 41 -83 41q-77 0 -149 -40v-471z" />
<glyph unicode="q" horiz-adv-x="1024" d="M120 707q29 153 133 246q103 94 243 94q89 0 177 -30l5 8h227v-1521h-260v498q-66 -16 -136 -16q-141 0 -239 74q-99 75 -138 210q-32 110 -32 234q0 97 20 203zM375 659q-16 -82 -16 -156q0 -86 22 -161q15 -53 44 -75q29 -21 84 -21q73 0 136 30v471q-73 40 -149 40 q-96 0 -121 -128z" />
<glyph unicode="r" horiz-adv-x="832" d="M70 0v1020h260v-19q46 18 80 26q37 8 74 8q140 0 245 -104q40 -40 63 -76l-198 -168q-39 89 -110 89q-7 0 -16 -2q-55 -13 -138 -58v-716h-260z" />
<glyph unicode="s" horiz-adv-x="809" d="M34 131l177 188l68 -49q41 -30 111 -30q55 0 84 31q20 20 18 50q-5 69 -132 121l-7 3q-105 42 -156 84q-90 74 -100 190q-1 13 -1 26q0 89 55 165q64 87 168 112q50 12 96 12q123 0 231 -83l80 -62l-171 -195q-36 36 -68 56q-39 24 -76 24q-15 0 -31 -4q-26 -7 -24 -28 q1 -19 94 -57l7 -2q278 -113 294 -345q1 -12 1 -24q0 -127 -89 -221q-106 -113 -272 -113h-2q-162 1 -272 87z" />
<glyph unicode="t" horiz-adv-x="710" d="M60 761v260h156v323h259v-323h169v-260h-169v-442q0 -82 67 -93q12 -2 23 -2l43 7l27 -246l-101 -5h-20q-126 0 -205 71q-93 83 -93 239v471h-156z" />
<glyph unicode="u" horiz-adv-x="997" d="M100 344v675h260v-675q0 -69 24 -91q15 -13 54 -13q85 0 181 49v730h259v-1021h-236l-6 17q-101 -35 -198 -35q-156 0 -247 98t-91 266z" />
<glyph unicode="v" horiz-adv-x="1047" d="M100 1019h260l7 -87q14 -150 168 -531q152 381 165 531l8 87h259l-8 -103q-20 -255 -297 -860l-26 -56h-200l-25 55q-283 604 -303 861z" />
<glyph unicode="w" horiz-adv-x="1444" d="M42 1019h260q3 -49 8 -87q20 -159 145 -476l147 502h220l148 -500q110 281 143 474q8 46 8 87h260q-4 -57 -9 -103q-29 -278 -297 -861l-26 -55h-210l-126 417l-125 -417h-209l-26 55q-271 581 -302 861q-7 54 -9 103z" />
<glyph unicode="x" horiz-adv-x="1032" d="M100 0l9 103q16 197 237 446q-211 222 -235 355q-9 49 -9 101v10h257q-1 -6 -1 -12q0 -25 10 -60q14 -54 156 -205q136 144 157 205q10 30 10 55q0 9 -1 17h257v-10q0 -48 -9 -101q-24 -133 -236 -355q221 -249 238 -446l9 -103h-259q-2 39 -9 85q-17 112 -157 273 q-142 -164 -156 -273q-6 -42 -9 -85h-259z" />
<glyph unicode="y" horiz-adv-x="963" d="M106 928l3 96h260l-3 -104q-7 -218 -7 -356q0 -181 12 -226q18 -61 43 -81q20 -15 67 -15q71 0 127 28v754h260v-1172q0 -116 -32 -184q-46 -99 -174 -152q-44 -18 -113 -18q-103 0 -255 37l-94 23l67 251l90 -22q124 -30 196 -30q55 0 55 95v145q-62 -15 -127 -15 q-278 0 -360 284q-21 74 -21 330q0 139 6 332z" />
<glyph unicode="z" horiz-adv-x="945" d="M100 0v130q0 107 86 238q52 78 194 239q90 102 129 152h-373v260h707v-130q0 -100 -82 -225q-50 -75 -186 -229q-104 -117 -147 -175h435v-260h-763z" />
<glyph unicode="{" horiz-adv-x="855" d="M95 474v209l60 24q86 33 115 78q24 38 24 119v337q0 316 297 436l92 37l88 -244l-85 -35q-80 -33 -108 -78q-24 -38 -24 -116v-337q0 -206 -121 -325q121 -119 121 -325v-338q0 -78 24 -116q28 -45 108 -78l85 -34l-88 -245l-92 37q-297 121 -297 436v338q0 80 -24 118 q-29 45 -114 78z" />
<glyph unicode="|" horiz-adv-x="693" d="M203 -364h260v2079h-260v-2079z" />
<glyph unicode="}" horiz-adv-x="870" d="M101 -315l85 34q80 33 108 78q24 38 24 116v338q0 206 121 325q-121 119 -121 325v337q0 78 -24 116q-28 45 -108 78l-85 35l88 244l92 -37q297 -121 297 -436v-337q0 -81 24 -119q29 -45 114 -78l61 -24v-209l-61 -24q-85 -33 -114 -78q-24 -38 -24 -118v-338 q0 -315 -297 -436l-92 -37z" />
<glyph unicode="~" d="M94 556v156q64 73 123 99t114 26q64 0 181.5 -49.5t172.5 -49.5q52 0 108.5 28t129.5 112v-156q-63 -72 -122 -97.5t-116 -25.5q-60 0 -177.5 48.5t-176.5 48.5q-51 0 -107.5 -28t-129.5 -112z" />
<glyph unicode="&#xa1;" horiz-adv-x="672" />
<glyph unicode="&#xa2;" horiz-adv-x="1139" />
<glyph unicode="&#xa3;" horiz-adv-x="1093" d="M99 667v259h138q-1 4 -2 9l-8 30q-42 166 -34 277q11 139 113 219q101 80 271 83h11q160 -2 260 -71q101 -69 124 -193l19 -104l-256 -20l-19 79q-12 49 -134 49q-81 0 -111 -23q-17 -13 -19 -39q-5 -68 27 -193l8 -31q8 -34 12 -72h194v-259h-213q-10 -54 -34 -163 q-37 -165 -48 -244h517v-260h-786v130q0 144 63 430q16 72 23 107h-116z" />
<glyph unicode="&#xa4;" d="M122 413l118 117q-32 46 -48 103q-12 42 -12 84q0 44 13 87q16 55 47 99l-118 118l80 81l118 -118q44 30 99 46q44 14 89 14q41 0 83 -12q57 -17 102 -48l118 118l80 -81l-117 -117q31 -46 48 -102q12 -42 12 -85q0 -42 -12 -85q-17 -56 -48 -102l117 -117l-80 -81 l-118 118q-45 -32 -101 -48q-42 -12 -85 -12q-42 0 -85 12q-57 16 -102 48l-118 -118zM284 716q0 -28 9 -56q16 -59 57 -100q41 -40 99 -57q29 -8 58 -8t58 8q58 17 99 57q40 41 57 99q9 29 9 58t-9 58q-17 58 -57 99q-41 40 -100 57q-29 8 -58 8t-58 -9q-58 -17 -98 -56 q-39 -40 -56 -98q-10 -30 -10 -60z" />
<glyph unicode="&#xa5;" horiz-adv-x="1206" d="M104 348h373v-348h259v348h373v235h-1005v-235zM104 631h1005v232h-213q160 264 171 497l5 100h-260l-4 -90q-11 -210 -200 -471q-192 260 -203 471l-4 90h-260l5 -100q11 -233 174 -497h-216v-232z" />
<glyph unicode="&#xa6;" d="M427 371h160v-789h-160v789zM427 789v789h160v-789h-160z" />
<glyph unicode="&#xa7;" d="M170 1130q0 148 89 237q82 79 216 86q8 1 17 1h3q66 0 163 -16.5t97 -41.5v-194h-51q-5 81 -80 132q-70 47 -149 51h-15q-78 0 -125 -44.5t-47 -117.5q0 -132 287 -269q149 -67 204.5 -143.5t55.5 -187.5q0 -171 -101 -282q-47 -39 -99 -64q108 -56 154 -118 q55 -77 55 -187q0 -171 -101 -283q-124 -102 -277 -105v1q-6 -1 -13 -1h-3q-66 0 -163 16.5t-97 41.5v194h51q5 -81 80 -132q68 -45 145 -50q113 6 185 69q72 64 72 165q0 125 -316 276q-123 64 -175.5 137t-52.5 177q0 148 89 237q67 65 170 82l-40 19q-123 64 -175.5 137 t-52.5 177zM297 571q0 -123 248 -250q56 16 97 53q73 65 73 166q0 5 -1 10h-2q-1 14 -4 27q-22 61 -113 127q-59 29 -126 29q-78 0 -125 -44.5t-47 -117.5z" />
<glyph unicode="&#xa8;" horiz-adv-x="1024" d="M209 1263q0 13 14 26l71 72q13 12 25 12q11 0 27 -14l69 -73q10 -14 10 -25q0 -13 -12 -27l-69 -75q-17 -17 -25 -17q-14 0 -25 12l-76 86q-9 12 -9 23zM574 1263q0 13 14 26l71 72q13 12 25 12q11 0 27 -13l69 -74q10 -14 10 -25q0 -13 -12 -26l-69 -76q-17 -17 -25 -17 q-14 0 -25 12l-76 87q-9 11 -9 22z" />
<glyph unicode="&#xa9;" horiz-adv-x="1893" d="M99 743q0 347 246 593t592 246q347 0 593 -246t246 -593q0 -346 -246 -592t-593 -246q-346 0 -592 246t-246 592zM343 743q0 -245 174 -420q175 -174 420 -174q246 0 420 174q175 175 175 420q0 246 -175 420q-174 175 -420 175q-245 0 -420 -175q-174 -174 -174 -420z M558 943q29 158 133 244q103 87 262 87q206 0 326 -152l65 -82l-217 -141l-54 65q-42 50 -120 50q-65 0 -96 -27q-32 -26 -44 -92q-35 -183 1 -309q33 -113 146 -113q70 0 109 46l54 66l217 -141l-64 -82q-117 -149 -316 -149q-140 0 -248 82t-147 219q-54 185 -7 429z" />
<glyph unicode="&#xaa;" horiz-adv-x="648" />
<glyph unicode="&#xab;" horiz-adv-x="944" d="M174 479l342 303h14v-37l-205 -266l205 -266v-37h-14zM487 479l342 303h14v-37l-205 -266l205 -266v-37h-14z" />
<glyph unicode="&#xac;" d="M87 667v100h840v-491l-1 -1h-98v392h-741z" />
<glyph unicode="&#xad;" horiz-adv-x="893" d="M98 609h705v260h-705v-260z" />
<glyph unicode="&#xae;" horiz-adv-x="1902" d="M100 748q0 -346 246 -592t592 -246q347 0 593 246t246 592q0 347 -246 593t-593 246q-346 0 -592 -246t-246 -593zM344 748q0 150 71 281q68 127 187 209v-979q-119 82 -187 209q-71 131 -71 280zM665 221h196v239q43 12 91 27q8 -13 13 -22q77 -122 84 -166l14 -78h148 q-128 -67 -273 -67q-144 0 -273 67zM665 1276q129 67 273 67q246 0 420 -175q175 -174 175 -420q0 -273 -210 -452l-12 45q-14 55 -88 185q-18 33 -26 48q172 94 172 341q0 166 -133 268q-120 93 -284 93h-287zM861 731v285h91q41 0 81 -13q76 -27 76 -91q0 -58 -12 -83 t-45 -36q-87 -31 -191 -62z" />
<glyph unicode="&#xaf;" horiz-adv-x="670" />
<glyph unicode="&#xb0;" horiz-adv-x="674" d="M60 1164q0 116 81.5 197t197.5 81q115 0 196 -81.5t81 -196.5q0 -114 -82 -196t-197 -82q-117 0 -197 81t-80 197zM130 1163q0 -87 61 -147t148 -60t147 60t60 147t-60.5 148t-146.5 61t-147.5 -61t-61.5 -148z" />
<glyph unicode="&#xb1;" />
<glyph unicode="&#xb2;" />
<glyph unicode="&#xb3;" />
<glyph unicode="&#xb4;" horiz-adv-x="1024" d="M316 1078l291 297q35 35 55.5 47t40.5 12q33 0 53.5 -20t20.5 -51q0 -22 -15.5 -42t-46.5 -40l-330 -203h-69z" />
<glyph unicode="&#xb5;" horiz-adv-x="1180" />
<glyph unicode="&#xb6;" horiz-adv-x="1024" d="M93 1086q0 157 107.5 253t285.5 96h443v-70h-127v-1365h-82v1365h-166v-1365h-84v738q-174 8 -275.5 102.5t-101.5 245.5z" />
<glyph unicode="&#xb7;" horiz-adv-x="508" d="M129 709q0 15 16 31l82 84q15 14 29 14q13 0 31 -16l80 -86q12 -16 12 -29q0 -15 -14 -31l-80 -88q-20 -20 -29 -20q-16 0 -29 14l-88 101q-10 13 -10 26z" />
<glyph unicode="&#xb8;" horiz-adv-x="1024" d="M360 -290q85 -52 152 -52q66 0 94.5 21.5t28.5 66.5t-49 64q-40 16 -102 16q-16 0 -34 -2l48 176h63l-37 -104q32 4 62 5q86 0 134 -40.5t48 -113.5q0 -76 -58.5 -120.5t-160.5 -44.5q-109 0 -189 32v96z" />
<glyph unicode="&#xb9;" />
<glyph unicode="&#xba;" horiz-adv-x="718" />
<glyph unicode="&#xbb;" horiz-adv-x="944" d="M101 176v37l205 266l-205 266v37h14l342 -303l-342 -303h-14zM414 176v37l205 266l-205 266v37h14l342 -303l-342 -303h-14z" />
<glyph unicode="&#xbc;" horiz-adv-x="1708" />
<glyph unicode="&#xbd;" horiz-adv-x="1964" />
<glyph unicode="&#xbe;" horiz-adv-x="1708" />
<glyph unicode="&#xbf;" horiz-adv-x="748" />
<glyph unicode="&#xc0;" horiz-adv-x="1148" d="M46 -6l5 100q18 371 388 1300l23 60h208l24 -59q375 -930 393 -1301l5 -100h-259l-5 90q-6 113 -64 324h-391q-57 -211 -63 -324l-4 -90h-260zM300 1797h305l237 -383h-305zM449 668h238q-53 162 -120 346q-66 -185 -118 -346z" />
<glyph unicode="&#xc1;" horiz-adv-x="1166" d="M49 0l5 100q18 370 387 1300l24 60h208l24 -59q375 -929 393 -1301l5 -100h-259l-5 90q-6 113 -64 324h-391q-57 -211 -63 -324l-4 -90h-260zM298 1420l237 383h305l-237 -383h-305zM452 674h238q-52 161 -120 346q-66 -185 -118 -346z" />
<glyph unicode="&#xc2;" horiz-adv-x="1168" d="M53 0l5 100q18 370 387 1300l24 60h208l24 -59q375 -929 393 -1301l5 -100h-259l-5 90q-6 113 -64 324h-391q-57 -211 -63 -324l-4 -90h-260zM180 1420l237 383h318l237 -383h-305l-91 147l-91 -147h-305zM456 674h238q-53 162 -120 346q-66 -185 -118 -346z" />
<glyph unicode="&#xc3;" horiz-adv-x="1171" d="M52 0l5 100q18 371 387 1300l24 60h208l24 -59q375 -930 393 -1301l5 -100h-259l-5 90q-6 113 -64 324h-391q-57 -211 -63 -324l-4 -90h-260zM143 1423l12 106q15 135 127 188q17 8 385 9h7q35 0 49 1l10 71h257l-10 -105q-13 -141 -128 -197q-20 -10 -390 -11h-14 q-23 0 -38 -1l-10 -60l-81 -1h-176zM455 674h238q-53 163 -120 346q-67 -186 -118 -346z" />
<glyph unicode="&#xc4;" horiz-adv-x="1186" d="M66 0l5 100q18 371 387 1300l24 60h208l24 -59q375 -929 393 -1301l5 -100h-259l-5 90q-6 113 -64 324h-391q-57 -211 -63 -324l-4 -90h-260zM290 1681q0 63 44 108q45 45 108 45q64 0 109 -45q44 -45 44 -108q0 -64 -44 -108q-45 -45 -109 -45q-63 0 -108 45 q-44 44 -44 108zM469 674h238q-53 162 -120 346q-66 -185 -118 -346zM583 1681q0 63 45 108q44 45 108 45q63 0 108 -45t45 -108q0 -64 -45 -108q-45 -45 -108 -45q-64 0 -108 45q-45 44 -45 108z" />
<glyph unicode="&#xc5;" horiz-adv-x="1166" d="M72 0h260l4 90q6 113 63 324h392q57 -211 63 -324l5 -90h259l-5 100q-18 377 -393 1318l-24 60h-30q51 21 83 67q32 48 32 105q0 77 -55 131q-54 55 -131 55t-131 -55q-55 -54 -55 -131q0 -58 33 -105q31 -46 83 -67h-37l-24 -61q-369 -942 -387 -1317zM475 674 q52 161 118 346q68 -185 120 -346h-238z" />
<glyph unicode="&#xc6;" horiz-adv-x="1554" d="M60 4l7 101q25 394 519 1289l37 67h779v-259h-508l35 -250h392v-259h-356l61 -433h455v-260h-681l-58 418h-329q-79 -213 -87 -326l-6 -88h-260zM520 678h185l-42 303q-80 -162 -143 -303z" />
<glyph unicode="&#xc7;" horiz-adv-x="1399" />
<glyph unicode="&#xc8;" horiz-adv-x="950" d="M100 0h786v260h-526v433h438v259h-438v250h482v259h-742v-1461zM245 1803l237 -383h305l-237 383h-305z" />
<glyph unicode="&#xc9;" horiz-adv-x="966" d="M100 0h786v260h-526v433h438v259h-438v250h482v259h-742v-1461zM224 1420h305l237 383h-305z" />
<glyph unicode="&#xca;" horiz-adv-x="956" d="M80 1420h305l91 147l91 -147h305l-237 383h-318zM103 0h786v260h-527v433h438v259h-438v250h483v259h-742v-1461z" />
<glyph unicode="&#xcb;" horiz-adv-x="963" d="M100 0h786v260h-526v433h438v259h-438v250h482v259h-742v-1461zM194 1681q0 63 45 108q44 45 108 45q63 0 108 -45t45 -108q0 -64 -45 -108q-45 -45 -108 -45q-64 0 -108 45q-45 44 -45 108zM487 1681q0 63 45 108t108 45t108 -45t45 -108q0 -64 -45 -108 q-45 -45 -108 -45t-108 45q-45 44 -45 108z" />
<glyph unicode="&#xcc;" horiz-adv-x="496" d="M0 1802l237 -382h305l-237 382h-305zM122 0h260v1460h-260v-1460z" />
<glyph unicode="&#xcd;" horiz-adv-x="493" d="M0 1420h305l237 382h-305zM123 0h260v1460h-260v-1460z" />
<glyph unicode="&#xce;" horiz-adv-x="502" d="M-148 1420h305l91 147l91 -147h305l-237 382h-318zM113 0h260v1460h-260v-1460z" />
<glyph unicode="&#xcf;" horiz-adv-x="502" d="M-47 1680q0 63 45 108t108 45t108 -45t45 -108t-45 -108t-108 -45t-108 45t-45 108zM123 0h259v1460h-259v-1460zM246 1680q0 63 45 108t108 45t108 -45t45 -108t-45 -108t-108 -45t-108 45t-45 108z" />
<glyph unicode="&#xd0;" horiz-adv-x="1518" />
<glyph unicode="&#xd1;" horiz-adv-x="1554" />
<glyph unicode="&#xd2;" horiz-adv-x="1151" d="M100 744q3 343 16 410q62 330 453 330q401 0 464 -330q13 -67 16 -410q3 -374 -23 -463q-52 -180 -196 -252q-99 -49 -254 -49q-366 0 -453 301q-26 89 -23 463zM244 1803h305l237 -382h-305zM359 729q0 -323 14 -376q16 -57 44 -78q45 -35 159 -35q113 0 156 32 q27 20 44 81q14 54 14 376q-1 316 -12 376q-12 62 -45 86q-46 34 -164 34t-160 -36q-26 -22 -38 -84q-11 -60 -12 -376z" />
<glyph unicode="&#xd3;" horiz-adv-x="1151" d="M100 744q3 343 16 410q62 330 453 330q401 0 464 -330q13 -67 16 -410q3 -374 -23 -463q-52 -180 -196 -252q-99 -49 -254 -49q-366 0 -453 301q-26 89 -23 463zM241 1421l237 382h305l-237 -382h-305zM359 729q0 -323 14 -376q16 -57 43 -78q46 -35 160 -35 q113 0 156 32q27 20 44 81q14 54 14 376q-1 316 -12 376q-12 62 -45 86q-46 34 -164 34t-160 -36q-26 -22 -38 -84q-11 -60 -12 -376z" />
<glyph unicode="&#xd4;" horiz-adv-x="1151" d="M100 744q3 343 16 410q62 330 453 330q401 0 464 -330q13 -67 16 -410q3 -374 -23 -463q-52 -180 -196 -252q-99 -49 -254 -49q-366 0 -453 301q-26 89 -23 463zM178 1421l237 382h319l237 -382h-305l-92 147l-91 -147h-305zM359 729q0 -323 14 -376q16 -57 44 -78 q45 -35 159 -35q113 0 156 32q27 20 44 81q14 54 14 376q-1 316 -12 376q-12 62 -45 86q-46 34 -164 34t-160 -36q-26 -22 -38 -84q-11 -60 -12 -376z" />
<glyph unicode="&#xd5;" horiz-adv-x="1160" d="M100 744q3 343 16 410q62 330 453 330q401 0 464 -330q13 -67 16 -410q3 -374 -23 -463q-52 -180 -196 -252q-99 -49 -254 -49q-366 0 -453 301q-26 89 -23 463zM255 1424l12 106q15 135 127 188q59 27 175 27h7q35 1 49 2l10 70h258l-11 -104q-13 -141 -128 -197 q-61 -30 -180 -30h-15q-22 0 -37 -1l-10 -60l-81 -1h-176zM359 729q0 -323 13 -376q17 -57 44 -78q46 -35 160 -35q113 0 156 32q27 20 44 81q14 54 14 376q-1 316 -12 376q-12 62 -45 86q-46 34 -164 34t-160 -36q-26 -22 -38 -84q-11 -60 -12 -376z" />
<glyph unicode="&#xd6;" horiz-adv-x="1148" d="M100 744q3 343 16 410q62 330 453 330q402 0 464 -330q13 -67 16 -410q3 -374 -23 -463q-52 -180 -196 -252q-99 -49 -254 -49q-366 0 -453 301q-26 89 -23 463zM275 1682q0 63 45 108q45 44 108 44t108 -44q45 -45 45 -108q0 -64 -45 -109q-45 -44 -108 -44t-108 44 q-45 45 -45 109zM359 729q0 -323 14 -376q16 -57 44 -78q45 -35 159 -35q113 0 156 32q27 20 44 81q14 54 14 376q-1 316 -12 376q-12 62 -45 86q-46 34 -164 34t-160 -36q-26 -22 -38 -84q-11 -60 -12 -376zM568 1682q0 63 45 108q45 44 108 44t108 -44q45 -45 45 -108 q0 -64 -45 -109q-45 -44 -108 -44t-108 44q-45 45 -45 109z" />
<glyph unicode="&#xd7;" d="M161 470l247 247l-247 248l99 98l247 -247l248 247l98 -99l-247 -247l247 -247l-99 -99l-247 247l-247 -247z" />
<glyph unicode="&#xd8;" horiz-adv-x="1215" d="M60 1l8 103q10 120 85 264q-45 522 5 786q63 331 453 331q188 0 301 -74l10 51h259l-17 -110q-13 -89 -87 -206q12 -102 14 -420q2 -358 -22 -445q-52 -180 -196 -252q-99 -49 -255 -49q-183 0 -294 72l-5 -51h-259zM402 727q58 71 177 209q147 170 207 247 q-45 42 -175 42q-117 0 -160 -36q-26 -22 -38 -84q-10 -59 -11 -378zM426 322q35 -82 192 -82q114 0 157 32q26 20 44 81q18 70 13 478q-25 -29 -54 -62q-262 -304 -352 -447z" />
<glyph unicode="&#xd9;" horiz-adv-x="1061" d="M104 1369l2 94h259l-1 -96q-13 -911 9 -1016q17 -58 71 -88q42 -23 88 -23q123 0 156 113q22 104 9 1014l-2 96h260l1 -94q15 -972 -19 -1088q-39 -137 -150 -219q-110 -82 -255 -82t-257 83q-113 83 -152 218q-33 116 -19 1088zM151 1804h305l237 -382h-305z" />
<glyph unicode="&#xda;" horiz-adv-x="1055" d="M104 1369l2 94h260l-2 -96q-13 -911 9 -1016q17 -58 71 -88q42 -23 88 -23q123 0 156 113q22 104 9 1014l-2 96h260l1 -94q15 -972 -19 -1088q-39 -137 -150 -219q-110 -82 -255 -82q-144 0 -257 83t-152 218q-33 116 -19 1088zM249 1422l237 382h305l-237 -382h-305z " />
<glyph unicode="&#xdb;" horiz-adv-x="1067" d="M104 1369l2 94h260l-2 -96q-13 -910 9 -1016q17 -58 71 -88q42 -23 88 -23q123 0 156 113q22 104 9 1014l-2 96h260l1 -94q15 -972 -19 -1088q-39 -137 -150 -219q-110 -82 -255 -82q-144 0 -257 83t-152 218q-33 116 -19 1088zM134 1422l237 382h318l237 -382h-304 l-92 147l-91 -147h-305z" />
<glyph unicode="&#xdc;" horiz-adv-x="1058" d="M104 1369l2 94h259l-1 -96q-13 -910 9 -1016q17 -58 71 -88q42 -23 88 -23q123 0 156 113q22 104 9 1014l-2 96h260l1 -94q15 -972 -19 -1088q-39 -137 -150 -219q-110 -82 -255 -82q-144 0 -257 83t-152 218q-33 116 -19 1088zM231 1682q0 64 45 108q45 45 108 45 t108 -45q45 -44 45 -108q0 -63 -45 -108t-108 -45t-108 45t-45 108zM524 1682q0 64 45 108q45 45 108 45t108 -45q45 -44 45 -108q0 -63 -45 -108t-108 -45t-108 45t-45 108z" />
<glyph unicode="&#xdd;" horiz-adv-x="1233" />
<glyph unicode="&#xde;" horiz-adv-x="1120" />
<glyph unicode="&#xdf;" horiz-adv-x="1251" />
<glyph unicode="&#xe0;" horiz-adv-x="919" d="M78 362q0 164 110 269q109 104 283 104q57 0 103 -7q-9 42 -51 54q-22 6 -52 6q-76 0 -152 -34l-81 -36l-122 229l92 42q128 58 263 58q66 0 122 -15q160 -45 216 -186q31 -78 31 -214v-634h-227l-5 10q-86 -28 -165 -28q-164 0 -264 105q-101 105 -101 277zM216 1427 h305l237 -383h-305zM338 362q0 -122 105 -122q82 0 137 42v175q-33 18 -109 18q-133 0 -133 -113z" />
<glyph unicode="&#xe1;" horiz-adv-x="919" d="M70 362q0 164 110 269q109 104 283 104q57 0 103 -7q-9 42 -51 54q-22 6 -52 6q-76 0 -152 -34l-81 -36l-122 229l92 42q128 58 263 58q66 0 122 -15q160 -45 216 -186q31 -78 31 -214v-634h-226l-6 10q-86 -28 -165 -28q-164 0 -264 105q-101 105 -101 277zM140 1044 l237 383h305l-237 -383h-305zM330 362q0 -122 105 -122q82 0 137 42v175q-33 18 -109 18q-133 0 -133 -113z" />
<glyph unicode="&#xe2;" horiz-adv-x="922" d="M60 1044l237 383h318l237 -383h-305l-91 148l-91 -148h-305zM75 362q0 164 110 269q110 104 283 104q57 0 103 -7q-9 42 -51 54q-22 6 -51 6q-77 0 -153 -34l-81 -36l-122 229l92 42q128 58 263 58q66 0 122 -15q160 -45 216 -186q31 -78 31 -214v-634h-226l-6 10 q-86 -28 -165 -28q-164 0 -264 105q-101 105 -101 277zM335 362q0 -122 105 -122q83 0 137 42v175q-33 18 -109 18q-133 0 -133 -113z" />
<glyph unicode="&#xe3;" horiz-adv-x="919" d="M70 362q0 164 110 269q109 104 283 104q57 0 103 -7q-9 42 -51 54q-22 6 -52 6q-76 0 -152 -34l-81 -36l-122 229l92 42q128 58 263 58q66 0 122 -15q160 -45 216 -186q31 -78 31 -214v-634h-226l-6 10q-86 -28 -165 -28q-164 0 -264 105q-101 105 -101 277zM115 1034 l12 106q15 134 127 187q58 28 174 28h9q33 0 48 2l10 70h257l-10 -105q-13 -141 -128 -197q-61 -29 -180 -30h-16q-22 0 -36 -1l-10 -59l-81 -1h-176zM330 362q0 -122 105 -122q82 0 137 42v175q-33 18 -109 18q-133 0 -133 -113z" />
<glyph unicode="&#xe4;" horiz-adv-x="925" d="M70 362q0 164 110 269q109 104 283 104q57 0 103 -7q-9 42 -51 54q-22 6 -52 6q-76 0 -152 -34l-81 -36l-122 229l92 42q128 58 263 58q66 0 122 -15q160 -45 216 -186q31 -78 31 -214v-634h-226l-6 10q-86 -28 -165 -28q-164 0 -264 105q-101 105 -101 277zM151 1274 q0 63 45 108t108 45q64 0 108 -45q45 -45 45 -108t-45 -108q-44 -45 -108 -45q-63 0 -108 45t-45 108zM330 362q0 -122 105 -122q82 0 137 42v175q-33 18 -109 18q-133 0 -133 -113zM445 1274q0 63 44 108q45 45 108 45q64 0 109 -45q44 -45 44 -108t-44 -108 q-45 -45 -109 -45q-63 0 -108 45q-44 45 -44 108z" />
<glyph unicode="&#xe5;" horiz-adv-x="916" d="M70 362q0 -172 101 -277q100 -105 264 -105q79 0 165 28l6 -10h226v634q0 136 -31 213q-56 141 -215 186q89 66 89 177q0 90 -64 155q-64 64 -155 64q-90 0 -155 -64q-64 -65 -64 -155q0 -111 90 -177q-68 -15 -127 -42l-92 -42l122 -229l81 36q76 34 152 34q30 0 52 -6 q42 -12 51 -54q-46 7 -103 7q-174 0 -283 -104q-110 -105 -110 -269zM330 362q0 113 133 113q76 0 109 -18v-175q-55 -42 -137 -42q-105 0 -105 122z" />
<glyph unicode="&#xe6;" horiz-adv-x="1454" d="M70 362q0 220 181 321l31 15q82 37 181 37q56 0 100 -7q-10 43 -51 51q-91 18 -218 -31q-30 -12 -68 -33l-130 170l83 57q145 99 303 99q41 0 79 -7q96 -19 161 -78q109 89 260 89q144 0 241 -87q98 -88 122 -238q14 -82 6 -142l-13 -93l-524 -97q4 -20 9 -39 q27 -109 140 -109q81 0 132 47l62 57l197 -167l-75 -73q-126 -124 -316 -124q-144 0 -250 83q-121 -83 -278 -83q-164 0 -264 105q-101 105 -101 277zM330 362q0 -122 105 -122q82 0 137 42q-1 3 -1 4q-23 91 -27 182q-31 7 -81 7q-133 0 -133 -113zM822 653l262 49 q-21 84 -102 84q-116 0 -160 -133z" />
<glyph unicode="&#xe7;" horiz-adv-x="905" />
<glyph unicode="&#xe8;" horiz-adv-x="983" d="M96 708q45 158 155 248q110 89 260 89q143 0 241 -87q98 -88 122 -238q14 -83 5 -143l-12 -92l-524 -97q4 -20 9 -40q26 -108 140 -108q81 0 132 47l62 57l197 -167l-75 -73q-127 -124 -316 -124q-145 0 -251 83q-107 84 -142 223q-57 233 -3 422zM222 1427h305l237 -383 h-305zM351 653l262 49q-21 84 -102 84q-116 0 -160 -133z" />
<glyph unicode="&#xe9;" horiz-adv-x="977" d="M96 708q45 158 155 248q110 89 260 89q143 0 241 -87q98 -88 122 -238q13 -82 5 -142l-12 -93l-524 -97q4 -21 9 -39q26 -109 140 -109q81 0 132 47l62 57l197 -167l-75 -73q-126 -124 -316 -124q-143 0 -251 84q-108 85 -142 222q-57 232 -3 422zM173 1044l237 383h305 l-237 -383h-305zM351 653l262 49q-21 84 -102 84q-116 0 -160 -133z" />
<glyph unicode="&#xea;" horiz-adv-x="974" d="M81 1044l237 383h318l237 -383h-305l-91 148l-91 -148h-305zM96 708q45 158 155 248q110 89 260 89q143 0 241 -87q98 -88 122 -238q13 -82 5 -142l-12 -93l-524 -97l8 -40q27 -108 140 -108q82 0 133 47l62 57l197 -167l-75 -73q-127 -124 -317 -124q-144 0 -250 83 q-107 84 -142 223q-57 232 -3 422zM351 653l262 49q-21 84 -102 84q-116 0 -160 -133z" />
<glyph unicode="&#xeb;" horiz-adv-x="977" d="M96 708q45 158 155 248q110 89 260 89q143 0 241 -87q98 -88 122 -238q14 -84 5 -143l-12 -92l-524 -97q4 -20 9 -40q26 -108 139 -108q82 0 133 47l62 57l197 -167l-75 -73q-127 -124 -317 -124q-144 0 -250 83q-107 84 -142 223q-57 232 -3 422zM177 1274q0 63 45 108 t108 45t108 -45t45 -108t-45 -108t-108 -45t-108 45t-45 108zM351 653l262 49q-21 84 -102 84q-116 0 -160 -133zM470 1274q0 63 45 108t108 45q64 0 108 -45q45 -45 45 -108t-45 -108q-44 -45 -108 -45q-63 0 -108 45t-45 108z" />
<glyph unicode="&#xec;" horiz-adv-x="514" d="M40 1428l237 -382h305l-237 382h-305zM122 0h260v1020h-260v-1020z" />
<glyph unicode="&#xed;" horiz-adv-x="514" d="M0 1046h305l237 382h-305zM131 0h260v1020h-260v-1020z" />
<glyph unicode="&#xee;" horiz-adv-x="514" d="M-142 1046h305l91 147l91 -147h305l-237 382h-318zM124 0h260v1020h-260v-1020z" />
<glyph unicode="&#xef;" horiz-adv-x="514" d="M-44 1276q0 63 45 108q45 44 108 44t108 -44q45 -45 45 -108q0 -64 -45 -109q-45 -44 -108 -44t-108 44q-45 45 -45 109zM126 0h259v1020h-259v-1020zM249 1276q0 63 45 108q45 44 108 44t108 -44q45 -45 45 -108q0 -64 -45 -109q-45 -44 -108 -44t-108 44 q-45 45 -45 109z" />
<glyph unicode="&#xf0;" horiz-adv-x="1139" />
<glyph unicode="&#xf1;" horiz-adv-x="1108" />
<glyph unicode="&#xf2;" horiz-adv-x="980" d="M81 710q30 158 134 244q103 87 262 87q154 0 266 -91q112 -92 141 -240q46 -243 -8 -429q-40 -139 -145 -220q-106 -81 -247 -81t-248 82q-108 82 -147 219q-54 185 -8 429zM236 1427h305l237 -383h-305zM337 662q-35 -183 1 -309q33 -113 146 -113q110 0 143 113 q36 126 1 309q-22 119 -151 119q-65 0 -97 -27q-31 -26 -43 -92z" />
<glyph unicode="&#xf3;" horiz-adv-x="980" d="M91 710q30 158 134 244q103 87 262 87q154 0 266 -91q112 -92 141 -240q46 -243 -8 -429q-40 -139 -145 -220q-106 -81 -247 -81t-248 82q-108 82 -147 219q-54 186 -8 429zM204 1044l237 383h305l-237 -383h-305zM347 662q-35 -183 1 -309q33 -113 146 -113 q110 0 143 113q36 126 1 309q-22 119 -151 119q-65 0 -97 -27q-31 -26 -43 -92z" />
<glyph unicode="&#xf4;" horiz-adv-x="983" d="M92 710q29 158 133 244q103 87 262 87q154 0 266 -91q112 -92 141 -240q46 -244 -8 -429q-40 -139 -145 -220q-106 -81 -247 -81t-248 82q-108 82 -147 219q-54 186 -7 429zM96 1044l237 383h319l237 -383h-305l-91 148l-92 -148h-305zM347 662q-35 -183 1 -309 q33 -113 146 -113q110 0 143 113q36 126 1 309q-22 119 -151 119q-65 0 -97 -27q-31 -26 -43 -92z" />
<glyph unicode="&#xf5;" horiz-adv-x="974" d="M81 710q30 158 134 244q103 87 262 87q154 0 266 -91q112 -92 141 -240q46 -244 -8 -429q-40 -139 -145 -220q-106 -81 -247 -81t-248 82q-108 82 -147 219q-54 186 -8 429zM163 1034l12 106q15 134 127 187q59 28 174 28h10q32 0 47 1l10 71h258l-11 -105 q-13 -141 -128 -197q-60 -29 -179 -30h-17q-22 0 -36 -1l-10 -59l-81 -1h-176zM337 662q-35 -183 1 -309q33 -113 146 -113q110 0 143 113q36 126 1 309q-22 119 -151 119q-65 0 -97 -27q-31 -26 -43 -92z" />
<glyph unicode="&#xf6;" horiz-adv-x="983" d="M91 710q30 158 134 244q103 87 262 87q154 0 266 -91q112 -92 141 -240q46 -243 -8 -429q-40 -139 -145 -220q-106 -81 -247 -81t-248 82q-108 82 -147 219q-54 185 -8 429zM193 1274q0 63 45 108t108 45t108 -45t45 -108t-45 -108t-108 -45t-108 45t-45 108zM347 662 q-35 -183 1 -309q33 -113 146 -113q110 0 143 113q36 126 1 309q-22 119 -151 119q-65 0 -97 -27q-31 -26 -43 -92zM486 1274q0 63 45 108t108 45t108 -45t45 -108t-45 -108t-108 -45t-108 45t-45 108z" />
<glyph unicode="&#xf7;" d="M87 647v140h839l1 -1v-139h-840zM382 377q0 15 16 31l82 84q15 14 29 14q13 0 31 -16l80 -86q12 -16 12 -29q0 -15 -14 -31l-80 -88q-20 -20 -29 -20q-16 0 -29 14l-88 101q-10 13 -10 26zM382 1070q0 15 16 31l82 84q15 14 29 14q13 0 31 -16l80 -86q12 -16 12 -29 q0 -15 -14 -31l-80 -88q-20 -20 -29 -20q-16 0 -29 14l-88 101q-10 13 -10 26z" />
<glyph unicode="&#xf8;" horiz-adv-x="1073" d="M90 -30l8 103q6 77 49 164q-10 23 -17 48q-54 187 -7 433q30 159 137 249q108 90 268 90q91 0 170 -34l5 33h275l-10 -103q-6 -73 -48 -155q16 -39 24 -80q46 -246 -8 -433q-41 -143 -149 -226t-252 -83q-87 0 -165 33l-5 -39h-275zM386 562q18 21 51 58q91 103 132 154 q-19 5 -41 5q-62 0 -91 -25q-29 -26 -41 -88q-7 -37 -10 -104zM494 260q19 -6 41 -6q103 0 134 108q11 38 13 116q-24 -28 -36 -41q-104 -118 -152 -177z" />
<glyph unicode="&#xf9;" horiz-adv-x="1003" d="M100 344v675h260v-675q0 -69 24 -91q15 -13 54 -13q85 0 181 49v730h259v-1021h-236l-6 17q-101 -35 -198 -35q-156 0 -247 98t-91 266zM231 1427h305l237 -383h-305z" />
<glyph unicode="&#xfa;" horiz-adv-x="1000" d="M100 344v675h260v-675q0 -69 24 -91q15 -13 54 -13q85 0 181 49v730h259v-1021h-236l-6 17q-101 -35 -198 -35q-156 0 -247 98t-91 266zM176 1044l237 383h305l-237 -383h-305z" />
<glyph unicode="&#xfb;" horiz-adv-x="1000" d="M100 1044l237 383h318l237 -383h-305l-91 148l-91 -148h-305zM107 344v675h260v-675q0 -69 24 -91q15 -13 54 -13q85 0 181 49v730h259v-1021h-236l-6 17q-101 -35 -198 -35q-156 0 -247 98t-91 266z" />
<glyph unicode="&#xfc;" horiz-adv-x="1000" d="M100 344v675h260v-675q0 -69 24 -91q15 -13 54 -13q85 0 181 49v730h259v-1021h-236l-6 17q-101 -35 -198 -35q-156 0 -247 98t-91 266zM190 1274q0 63 44 108q45 45 109 45q63 0 108 -45q44 -45 44 -108t-44 -108q-45 -45 -108 -45q-64 0 -109 45q-44 45 -44 108z M483 1274q0 63 45 108q44 45 108 45q63 0 108 -45t45 -108t-45 -108t-108 -45q-64 0 -108 45q-45 45 -45 108z" />
<glyph unicode="&#xfd;" horiz-adv-x="868" />
<glyph unicode="&#xfe;" horiz-adv-x="1010" />
<glyph unicode="&#xff;" horiz-adv-x="868" />
<glyph unicode="&#x2c6;" horiz-adv-x="1024" d="M221 1079l232 355h118l232 -355h-58l-233 216l-233 -216h-58z" />
<glyph unicode="&#x2dc;" horiz-adv-x="1024" d="M234 1132q19 106 68 158.5t129 52.5q46 -1 113 -24q64 -23 112 -23h4q36 0 58 20t36 66h54q-20 -103 -68.5 -154t-126.5 -51h-4q-50 0 -113 23q-66 24 -114 24q-39 0 -60.5 -20.5t-33.5 -71.5h-54z" />
<glyph unicode="&#x2000;" horiz-adv-x="918" />
<glyph unicode="&#x2001;" horiz-adv-x="1836" />
<glyph unicode="&#x2002;" horiz-adv-x="918" />
<glyph unicode="&#x2003;" horiz-adv-x="1836" />
<glyph unicode="&#x2004;" horiz-adv-x="612" />
<glyph unicode="&#x2005;" horiz-adv-x="459" />
<glyph unicode="&#x2006;" horiz-adv-x="306" />
<glyph unicode="&#x2007;" horiz-adv-x="306" />
<glyph unicode="&#x2008;" horiz-adv-x="229" />
<glyph unicode="&#x2009;" horiz-adv-x="367" />
<glyph unicode="&#x200a;" horiz-adv-x="102" />
<glyph unicode="&#x2010;" horiz-adv-x="893" d="M98 609h705v260h-705v-260z" />
<glyph unicode="&#x2011;" horiz-adv-x="893" d="M98 609h705v260h-705v-260z" />
<glyph unicode="&#x2012;" horiz-adv-x="893" d="M98 609h705v260h-705v-260z" />
<glyph unicode="&#x2013;" horiz-adv-x="1108" d="M56 419v120h996v-120h-996z" />
<glyph unicode="&#x2014;" horiz-adv-x="2048" d="M0 419v120h2048v-120h-2048z" />
<glyph unicode="&#x2018;" horiz-adv-x="557" d="M-33 1599h259l10 -83q6 -49 73 -146q83 -120 95 -199l18 -110h-257l-18 73q-5 21 -52 89q-106 155 -118 272z" />
<glyph unicode="&#x2019;" horiz-adv-x="557" d="M-33 1061l18 110q12 79 95 199q67 97 73 146l10 83h259l-10 -104q-12 -117 -118 -272q-47 -68 -52 -89l-18 -73h-257z" />
<glyph unicode="&#x201a;" horiz-adv-x="557" d="M76 341h259l10 -83q6 -49 73 -146q83 -120 95 -199l18 -110h-257l-18 73q-5 21 -52 89q-106 155 -118 272z" />
<glyph unicode="&#x201c;" horiz-adv-x="910" d="M-33 1599h259l10 -83q6 -49 73 -146q83 -120 95 -199l18 -110h-257l-18 73q-5 21 -52 89q-106 155 -118 272zM350 1599h259l10 -83q6 -49 73 -146q83 -120 95 -199l18 -110h-257l-18 73q-5 21 -52 89q-106 155 -118 272z" />
<glyph unicode="&#x201d;" horiz-adv-x="850" d="M-33 1061l18 110q12 79 95 199q67 97 73 146l10 83h259l-10 -104q-12 -117 -118 -272q-47 -68 -52 -89l-18 -73h-257zM350 1061l18 110q12 79 95 199q67 97 73 146l10 83h259l-10 -104q-12 -117 -118 -272q-47 -68 -52 -89l-18 -73h-257z" />
<glyph unicode="&#x201e;" horiz-adv-x="870" d="M-85 -342l18 110q12 79 95 199q67 97 73 146l10 83h259l-10 -104q-12 -117 -118 -272q-47 -68 -52 -89l-18 -73h-257zM298 -342l18 110q12 79 95 199q67 97 73 146l10 83h259l-10 -104q-12 -117 -118 -272q-47 -68 -52 -89l-18 -73h-257z" />
<glyph unicode="&#x2022;" horiz-adv-x="1024" d="M216 718q0 123 87 209t210 86q122 0 208.5 -86.5t86.5 -208.5t-87.5 -209.5t-209.5 -87.5q-123 0 -209 87t-86 210z" />
<glyph unicode="&#x2026;" horiz-adv-x="2012" d="M102 243q0 63 45 108t108 45t108 -45t45 -108t-45 -108t-108 -45t-108 45t-45 108zM694 243q0 63 45 108t108 45t108 -45t45 -108t-45 -108t-108 -45t-108 45t-45 108zM1292 243q0 63 45 108t108 45t108 -45t45 -108t-45 -108t-108 -45t-108 45t-45 108z" />
<glyph unicode="&#x202f;" horiz-adv-x="367" />
<glyph unicode="&#x2039;" horiz-adv-x="631" d="M174 479l342 303h14v-37l-205 -266l205 -266v-37h-14z" />
<glyph unicode="&#x203a;" horiz-adv-x="631" d="M101 176v37l205 266l-205 266v37h14l342 -303l-342 -303h-14z" />
<glyph unicode="&#x205f;" horiz-adv-x="459" />
<glyph unicode="&#x20ac;" horiz-adv-x="1290" d="M92 490h190q5 -140 19 -189q52 -180 197 -252q99 -49 256 -49q345 0 440 269l33 96l-249 72l-30 -85q-17 -47 -43 -64q-43 -28 -151 -28q-114 0 -159 35q-28 21 -44 78q-6 19 -10 117h365v233h-814v-233zM92 757h814v235h-365q4 110 8 133q12 62 38 84q42 36 160 36 q117 0 164 -33q28 -20 41 -67l23 -85l254 48l-25 99q-77 297 -457 297q-390 0 -453 -330q-7 -34 -11 -182h-191v-235z" />
<glyph unicode="&#x2122;" horiz-adv-x="1497" d="M102 1201v202h508v-202h-153v-407h-202v407h-153zM532 795l5 100q10 177 105 426l31 82h156l30 -75q24 -52 46 -104q20 52 44 104l39 75h137l42 -81q97 -250 107 -427l6 -100h-203l-5 90q-4 62 -24 145q-35 -102 -40 -159l-9 -86h-187l-9 86q-6 57 -41 158 q-19 -82 -22 -144l-5 -90h-203z" />
<glyph unicode="&#x25fc;" d="M0 0v1015h1015v-1015h-1015z" />
</font>
</defs>
</svg>
