<?xml version="1.0" encoding="utf-8"?>
<!-- Generator: Adobe Illustrator 15.0.2, SVG Export Plug-In  -->
<!DOCTYPE svg PUBLIC "-//W3C//DTD SVG 1.1//EN" "http://www.w3.org/Graphics/SVG/1.1/DTD/svg11.dtd" [
	<!ENTITY ns_flows "http://ns.adobe.com/Flows/1.0/">
]>
<svg version="1.1"
	 xmlns="http://www.w3.org/2000/svg" xmlns:xlink="http://www.w3.org/1999/xlink" xmlns:a="http://ns.adobe.com/AdobeSVGViewerExtensions/3.0/"
	 x="0px" y="0px" width="332px" height="294px" viewBox="-11.858 -20.816 332 294" enable-background="new -11.858 -20.816 332 294"
	 xml:space="preserve">
<defs>
</defs>
<text transform="matrix(1 0 0 1 2.7305 41.8501)" display="none" fill="#ED2024" font-family="'MyriadPro-Bold'" font-size="40">CHASM CREEK B</text>
<text transform="matrix(1 0 0 1 7.7505 41.8501)" display="none" fill="#ED2024" font-family="'MyriadPro-Bold'" font-size="40">GRAND MESA A</text>
<text transform="matrix(1 0 0 1 10.8604 41.8501)" display="none" fill="#ED2024" font-family="'MyriadPro-Bold'" font-size="50">HIGHLANDS</text>
<text transform="matrix(1 0 0 1 8.9702 41.8501)" display="none" fill="#ED2024" font-family="'MyriadPro-Bold'" font-size="40">GRAND MESA C</text>
<path fill="#3FA6CC" d="M227.582,169.833c17.586,3.585,28.34,7.991,28.34,11.791c0,8.022-47.932,19.355-107.047,19.355
	c-59.121,0-107.056-11.333-107.056-19.355c0-3.591,9.625-7.726,25.539-11.199c-35.217,3.741-58.124,9.797-58.124,16.64
	c0,11.371,63.218,29.641,141.188,29.641c77.973,0,141.186-18.27,141.186-29.641C291.607,179.847,266.123,173.507,227.582,169.833"/>
<path fill="#3FA6CC" d="M190.205,168.085c8.896,2.051,14.338,4.566,14.338,6.738c0,4.585-24.229,8.303-54.122,8.303
	c-29.894,0-54.124-3.718-54.124-8.303c0-2.051,4.872-4.414,12.925-6.397c-17.814,2.138-29.398,5.602-29.398,9.509
	c0,6.501,31.962,14.176,71.378,14.176c39.417,0,71.377-7.675,71.377-14.176C222.58,173.816,209.691,170.187,190.205,168.085"/>
<path d="M23.198,101.292C12.19,95.021,2.028,87.742,2.028,72.497c0-14.735,13.888-26.25,28.793-26.25
	c9.309,0,16.938,3.388,22.863,10.164l-8.471,9.313c-3.39-4.235-9.312-7.622-15.242-7.622c-7.958,0-15.235,5.925-15.235,14.394
	c0,7.623,5.92,12.026,14.394,16.938l5.928,3.386c10.156,5.925,21.165,13.552,21.165,28.796c0,16.081-12.699,29.637-29.632,29.637
	c-11.854,0-21.172-5.931-26.59-13.557l9.823-10.155c4.233,7.62,11.346,11.516,18.458,11.516c8.472,0,15.244-7.279,15.244-16.599
	c0-8.133-5.083-12.363-14.394-17.782L23.198,101.292z"/>
<path d="M121.544,116.026c0,11.173,4.064,18.969,12.872,25.737l-8.808,8.811c-3.049-1.861-7.961-7.787-10.841-12.7
	c-4.064,7.787-13.718,13.381-22.862,13.381c-14.06,0-24.729-9.992-24.729-25.407c0-16.768,11.516-25.403,29.808-25.403h12.7
	c0-10.674-5.419-18.969-16.088-18.969c-4.062,0-6.943,1.522-9.82,4.063l-7.116-9.143c5.251-4.402,9.993-6.436,16.936-6.436
	c17.616,0,27.949,13.716,27.949,29.637V116.026z M109.684,116.026v-4.915h-12.7c-12.7,0-17.611,5.762-17.611,14.736
	c0,7.791,6.266,13.886,12.532,13.886c12.192,0,18.63-14.059,18.63-14.059S109.684,119.753,109.684,116.026"/>
<polyline points="147.945,174.968 144.491,32.698 156.344,32.698 156.344,106.539 192.926,69.958 201.053,78.087 170.908,108.23 
	205.463,142.787 196.992,151.256 156.344,110.604 154.191,174.958 "/>
<path d="M265.697,116.026c0,11.173,4.064,18.969,12.871,25.737l-8.807,8.811c-3.051-1.861-7.963-7.787-10.838-12.7
	c-4.064,7.787-13.721,13.381-22.869,13.381c-14.051,0-24.725-9.992-24.725-25.407c0-16.768,11.516-25.403,29.809-25.403h12.705
	c0-10.674-5.422-18.969-16.09-18.969c-4.064,0-6.945,1.522-9.826,4.063l-7.113-9.143c5.254-4.402,9.994-6.436,16.939-6.436
	c17.611,0,27.943,13.716,27.943,29.637V116.026z M253.844,116.026v-4.915h-12.705c-12.703,0-17.613,5.762-17.613,14.736
	c0,7.791,6.264,13.886,12.529,13.886c12.195,0,18.633-14.059,18.633-14.059S253.844,119.753,253.844,116.026"/>
<path d="M305.242,49.296c0,4.399-3.559,7.96-7.963,7.96c-4.402,0-7.959-3.562-7.959-7.96c0-4.403,3.557-7.958,7.959-7.958
	C301.684,41.338,305.242,44.893,305.242,49.296 M303.381,149.558H291.18V71.653h12.201V149.558z"/>
<text transform="matrix(1 0 0 1 286.8652 221.7744)" fill="#010101" font-family="'ArialMT'" font-size="33.1907">®</text>
</svg>
