<?xml version="1.0" encoding="utf-8"?>
<!-- Generator: Adobe Illustrator 16.0.4, SVG Export Plug-In . SVG Version: 6.00 Build 0)  -->
<!DOCTYPE svg PUBLIC "-//W3C//DTD SVG 1.1//EN" "http://www.w3.org/Graphics/SVG/1.1/DTD/svg11.dtd">
<svg version="1.1" id="Layer_1" xmlns="http://www.w3.org/2000/svg" xmlns:xlink="http://www.w3.org/1999/xlink" x="0px" y="0px"
	 width="1024px" height="640px" viewBox="0 0 1024 640" enable-background="new 0 0 1024 640" xml:space="preserve">
<g>
	<g>
		<path fill="#F1A91E" d="M247.029,210.646c-4.868-3.116-10.516-4.869-16.941-4.869c-13.241,0-22.977,9.444-22.977,25.996
			c0,16.065,9.249,26.092,23.173,26.092c6.621,0,12.853-2.334,17.039-5.45l1.166,6.134c-4.477,2.919-11.196,4.965-18.302,4.965
			c-17.623,0-29.405-12.269-29.405-31.545c0-19.376,12.365-31.838,29.405-31.838c7.399,0,14.312,2.239,18.791,4.965L247.029,210.646
			z"/>
		<path fill="#F1A91E" d="M313.623,262.246h-6.328l-6.426-17.428h-27.555l-6.423,17.428h-6.331l23.077-60.85h7.302L313.623,262.246z
			 M287.143,207.53l-11.684,31.643h23.271L287.143,207.53z"/>
		<path fill="#F1A91E" d="M328.716,262.246v-60.85h6.231v55.009h30.085v5.841H328.716z"/>
	</g>
	<g>
		<path fill="#FFFFFF" d="M425.103,215.026c-4.868-3.212-10.126-4.867-15.967-4.867c-11.878,0-19.765,8.178-19.765,21.418
			c0,13.437,7.691,21.908,19.959,21.908c6.231,0,12.17-2.337,16.649-5.452l2.237,10.906c-4.867,2.919-12.463,4.77-19.375,4.77
			c-18.694,0-31.448-11.777-31.448-31.741c0-19.471,12.754-32.033,31.74-32.033c7.107,0,14.409,1.851,19.666,4.772L425.103,215.026z
			"/>
		<path fill="#FFFFFF" d="M448.176,262.246v-60.85h41.479v10.028h-29.794v15.287h24.44v10.029h-24.44v15.483h29.794v10.028h-41.479
			V262.246z"/>
		<path fill="#FFFFFF" d="M551.675,201.396h11.294v61.439h-12.658l-29.11-44.79v44.205h-11.297v-60.853h12.952l28.819,44.302
			V201.396L551.675,201.396z"/>
		<path fill="#FFFFFF" d="M612.914,211.814v50.436h-11.779v-50.436h-20.349v-10.418h52.479v10.418H612.914z"/>
		<path fill="#FFFFFF" d="M662.958,262.246H651.08v-60.85c0,0,21.518,0,21.322,0c15.382,0,23.561,7.302,23.561,18.499
			c0,8.665-4.868,14.701-13.144,17.524l15.966,24.831h-13.532l-13.536-22.296l-8.759,0.583V262.246L662.958,262.246z
			 M671.721,230.993c7.306-0.388,12.073-3.698,12.073-10.322c0-6.328-4.771-9.346-13.24-9.346c-0.098,0-7.693,0-7.693,0v19.863
			L671.721,230.993z"/>
		<path fill="#FFFFFF" d="M767.722,262.246h-11.979l-5.063-14.408h-24.536l-4.965,14.408h-11.977l22.199-60.85h14.408
			L767.722,262.246z M738.512,211.619l-9.251,26.385h18.402L738.512,211.619z"/>
		<path fill="#FFFFFF" d="M783.881,262.246v-60.85h11.88v50.434h27.457v10.416H783.881z"/>
	</g>
</g>
</svg>
