<?xml version="1.0" encoding="utf-8"?>
<!-- Generator: Adobe Illustrator 16.0.4, SVG Export Plug-In . SVG Version: 6.00 Build 0)  -->
<!DOCTYPE svg PUBLIC "-//W3C//DTD SVG 1.1//EN" "http://www.w3.org/Graphics/SVG/1.1/DTD/svg11.dtd">
<svg version="1.1" id="Layer_1" xmlns="http://www.w3.org/2000/svg" xmlns:xlink="http://www.w3.org/1999/xlink" x="0px" y="0px"
	 width="1024px" height="640px" viewBox="0 0 1024 640" enable-background="new 0 0 1024 640" xml:space="preserve">
<g>
	<g>
		<g id="layer1_1_" transform="translate(-273.27313,-435.95455)">
			<path id="path3907_1_" fill="#A62C39" d="M453.171,977.967c0,0,0.396-62.098,0.396-125.225
				c0-122.272-10.304-131.379,44.559-131.379c54.861,0,152.705,0,152.705,0s0,118.309,0,176.366c0,58.06,10.853,80.804-50.16,80.804
				C539.655,978.533,453.171,977.967,453.171,977.967L453.171,977.967z"/>
		</g>
		<g id="layer4_1_" transform="translate(-273.27313,-435.95455)">
			
				<linearGradient id="path3947_2_" gradientUnits="userSpaceOnUse" x1="1158.7664" y1="972.3853" x2="1206.0952" y2="947.5958" gradientTransform="matrix(1 0 0 1 -558.546 -151)">
				<stop  offset="0" style="stop-color:#FFFFFF"/>
				<stop  offset="1" style="stop-color:#C0815E"/>
			</linearGradient>
			<path id="path3947_1_" fill="url(#path3947_2_)" d="M579.071,744.429c0,0,9.785,1.958,18.266,16.309
				c8.48,14.353,53.492,125.902,53.492,125.902v-90.676l-41.75-67.843l11.742,14.352l22.18-18.265l-28.703-1.958L579.071,744.429z"
				/>
		</g>
		<g id="layer3_1_" transform="translate(-273.27313,-435.95455)">
			
				<radialGradient id="path3934_2_" cx="1130.7673" cy="821.438" r="80.7454" gradientTransform="matrix(1 0 0 1.5817 -558.546 -450.1373)" gradientUnits="userSpaceOnUse">
				<stop  offset="0" style="stop-color:#FFFFFF"/>
				<stop  offset="1" style="stop-color:#A94436"/>
			</radialGradient>
			<path id="path3934_1_" opacity="0.6682" fill="url(#path3934_2_)" enable-background="new    " d="M492.309,722.904
				c0,0,64.581,43.053,95.895,51.536c31.312,8.479,63.93,17.612,63.93,17.612l-74.366,182.653l31.965,1.306l41.748-103.069
				l-1.304-150.69L492.309,722.904z"/>
			<path id="path3960_1_" fill="#FFFFFF" fill-opacity="0.4396" d="M552.325,915.342l67.182,64.615l-125.239-2.643
				c0,0-3.912-39.793-2.607-60.668s7.826-20.875,7.826-20.875L552.325,915.342z"/>
		</g>
		<g id="layer5_1_" transform="translate(-273.27313,-435.95455)">
			<path id="path3958_1_" fill-opacity="0.3623" d="M614.298,978.621l-60.668-62.625l-55.447-20.876l-43.055-95.893l45.664-76.324
				l-30.66-1.305l-12.395,11.742l-4.566,9.134l-3.262,237.451L614.298,978.621z"/>
			<path id="path3962_1_" opacity="0.5" fill="#83222D" enable-background="new    " d="M651.479,878.812
				c0,0-61.318,19.57-97.851,37.837c-36.531,18.266-56.102,62.623-56.102,62.623s78.28-3.913,107.639-2.608
				c29.354,1.305,43.053,1.305,45.662-39.792C653.438,895.774,651.479,878.812,651.479,878.812L651.479,878.812z"/>
		</g>
		<g id="layer7_1_" transform="translate(-273.27313,-435.95455)">
			<path id="path3993_1_" fill="#FFFFFF" d="M472.071,917.772V956.3h9.826v-10.035l8.942,8.943h15.078l-11.959-11.959
				c0,0,8.605-0.14,9.256-12.583c0-11.416-8.612-12.896-18.562-12.896L472.071,917.772L472.071,917.772z M482.366,928.223h8.475
				v6.863h-8.475V928.223z"/>
			<path id="path3997_1_" fill="#FFFFFF" d="M524.897,917.928c-5.379-0.031-12.843,0.468-12.843,10.606v26.776h10.087v-6.552h9.774
				v6.396h10.139v-28.077c0-8.808-9.784-9.15-15.024-9.15C526.374,917.928,525.667,917.933,524.897,917.928z M522.298,927.599h9.463
				v10.556h-9.463V927.599z"/>
			<rect id="rect4001_1_" x="552.163" y="917.953" fill="#FFFFFF" width="10.437" height="36.856"/>
			<path id="path4003_1_" fill="#FFFFFF" d="M573.526,918.44v36.858h25.114v-9.785H583.8v-27.234L573.526,918.44z"/>
			<path id="path4005_1_" fill="#FFFFFF" d="M631.911,918.117v9.946h-16.797v3.588c0,0,3.424,0,7.174,0s11.578-0.162,11.578,11.58
				c0,11.74-5.381,12.395-16.308,12.395c-10.928,0-13.209,0-13.209,0v-8.971c0,0,10.601,0,15.166,0c4.566,0,4.818-1.486,4.818-2.781
				s-2.336-1.898-7.084-1.898s-13.555-2.333-13.555-11.465c0-9.133,4.565-12.558,13.698-12.558
				C626.53,917.953,631.911,918.117,631.911,918.117L631.911,918.117z"/>
		</g>
		<g id="layer6_1_" transform="translate(-273.27313,-435.95455)">
			<path id="path3966_1_" fill="#FFFFFF" d="M481.219,906.863h86.763c0,0-19.244-43.706-14.353-83.825
				c4.896-40.119,36.531-58.386,54.471-60.341c17.938-1.959,27.726,9.133,27.726,9.133l3.914-5.872c0,0-25.769-26.093-58.386-23.157
				c-32.616,2.934-55.123,24.462-69.146,50.556c-14.025,26.094-22.182,44.358-27.727,71.758
				C478.938,892.51,481.219,906.863,481.219,906.863z"/>
			<path id="path3968_1_" fill="#FFFFFF" d="M463.934,863.157l16.959,1.305l-2.935,16.96l-15.981-1.956L463.934,863.157z"/>
			<path id="path3970_1_" fill="#FFFFFF" d="M490.678,827.276l4.568-12.719l-15.004-5.873l-4.894,13.699L490.678,827.276z"/>
			<path id="path3972_1_" fill="#FFFFFF" d="M511.88,783.571l8.808-10.438l-11.416-7.502l-9.134,10.109L511.88,783.571z"/>
			<path id="path3974_1_" fill="#FFFFFF" d="M535.038,743.127l7.828,9.458l10.764-6.197l-7.826-8.807L535.038,743.127z"/>
			<path id="path3976_1_" fill="#FFFFFF" d="M573.2,732.362l1.957,9.459l13.373-0.326l-1.305-8.48L573.2,732.362z"/>
			<path id="path3978_1_" fill="#FFFFFF" d="M618.538,742.474l-0.326,5.87l9.133,4.892l1.957-2.934L618.538,742.474z"/>
			<path id="path3980_1_" fill="#FFFFFF" d="M616.581,767.588v4.893l8.807,0.979v-3.915L616.581,767.588z"/>
			<path id="path3982_1_" fill="#FFFFFF" d="M588.53,771.83l4.24,7.827l6.196-4.894l-1.305-5.22L588.53,771.83z"/>
			<path id="path3984_1_" fill="#FFFFFF" d="M575.157,781.94l6.522,9.785l-3.914,6.848l-9.459-10.436L575.157,781.94z"/>
			<path id="path3986_1_" fill="#FFFFFF" d="M562.11,809.012l-4.24,8.479l11.09,9.46l2.609-10.766L562.11,809.012z"/>
			<path id="path3988_1_" fill="#FFFFFF" d="M557.544,838.692l-0.651,11.417l13.698,5.872l-0.649-10.766L557.544,838.692z"/>
			<path id="path3990_1_" fill="#FFFFFF" d="M561.458,879.138l3.264,11.743l17.283,0.979l-6.194-12.722H561.458z"/>
		</g>
		<g id="g3911_1_" transform="translate(-273.27313,-435.95455)">
			<path id="path3913_1_" fill="none" stroke="#5E000E" stroke-width="3" d="M453.171,977.967c0,0,0.396-62.098,0.396-125.225
				c0-122.272-10.304-131.379,44.559-131.379c54.861,0,152.705,0,152.705,0s0,118.309,0,176.366c0,58.06,8.242,80.804-50.16,80.804
				C542.264,978.533,453.171,977.967,453.171,977.967L453.171,977.967z"/>
		</g>
	</g>
	<g>
		<path fill="#B2B2B2" d="M725.318,291.152L604.051,333.83l19.161,158.883L725.447,548.9l102.763-56.952l19.154-158.874
			L725.318,291.152z"/>
		<path fill="#B52E31" d="M835.268,342.256l-110.23-37.592v230.811l92.382-51.124L835.268,342.256z"/>
		<path fill="#E23237" d="M617.658,342.935l16.42,142.095l90.956,50.445V304.66L617.658,342.935z"/>
		<path fill="#F2F2F2" d="M750.587,419.468l-25.352-52.938l-22.316,52.938H750.587z M760.252,441.729h-67.197l-15.033,37.604
			l-27.963,0.516l74.979-166.8l77.591,166.799h-25.917L760.252,441.729z"/>
		<path fill="#B2B2B2" d="M725.037,313.048l0.199,53.481l25.326,52.979h-25.469l-0.058,22.186l35.213,0.032l16.462,38.126
			l26.756,0.496L725.037,313.048z"/>
	</g>
</g>
</svg>
