<?xml version="1.0" encoding="utf-8"?>
<!-- Generator: Adobe Illustrator 16.0.4, SVG Export Plug-In . SVG Version: 6.00 Build 0)  -->
<!DOCTYPE svg PUBLIC "-//W3C//DTD SVG 1.1//EN" "http://www.w3.org/Graphics/SVG/1.1/DTD/svg11.dtd">
<svg version="1.1" id="Layer_1" xmlns="http://www.w3.org/2000/svg" xmlns:xlink="http://www.w3.org/1999/xlink" x="0px" y="0px"
	 width="1000px" height="400px" viewBox="0 0 1000 400" enable-background="new 0 0 1000 400" xml:space="preserve">
<g>
	<path fill="#FFFFFF" d="M657.8,269c0.2,0,0.5,0,0.7,0h53.1c6.2,0,11.3-5.1,11.3-11.3v-123c0-6.2-5.1-11.3-11.3-11.3h-53.1
		c-0.2,0-0.5,0-0.7,0v-14.7l-103.6,13.8v147.3l103.6,14.2V269z M657.8,190.4v-5.3h0.8v-2.4l3.3-3L657.8,190.4z M664.6,179.4h1.4
		v-0.8h3.6v0.7l-11.8,30.9v-13.2L664.6,179.4z M716.4,214.3h-0.3l0-16h0.3V214.3z M658.5,129.9h53.1c2.7,0,4.8,2.2,4.8,4.8v59.8H713
		v0.8h-16.2v-0.8H693v3.8h0.6v3.7H693v3.9h3.9v-0.7h5.7c-1.7,1.6-3.6,2.6-5.8,3v-0.5h-3.8v0.6c-2.5-0.3-4.6-1.4-6.5-3.2
		c-1.8-1.8-2.9-3.9-3.3-6.3h0.5v-3.9H683c0.4-2.5,1.5-4.6,3.3-6.5c1.9-1.9,4-2.9,6.6-3.3v0.6h3.8v-0.5c1.8,0.3,3.4,1,4.8,2.1v2h3.9
		v-0.7l5.4,0v0.7h3.9v-3.8H713c-1.8-2.9-4.2-5.4-7.1-7.2c-2.8-1.8-5.9-2.8-9.2-3.1v-0.9h-3.8v0.9c-5.2,0.4-9.8,2.5-13.5,6.2
		c-3.8,3.7-5.9,8.3-6.3,13.5h-0.9v3.9h0.9c0.5,5.2,2.6,9.6,6.4,13.3c3.8,3.7,8.3,5.7,13.4,6.1v0.8h3.8v-0.8c3.2-0.3,6.2-1.4,9-3.1
		v2.9h3.8v-0.8h3.5v0.8h3.4v39.6c0,2.7-2.2,4.8-4.8,4.8h-53.1c-0.2,0-0.5,0-0.7-0.1v-44.4h0.7v-2.9l0-0.2l13.6-35.7h1.3v-3.8h-3.8
		v0.6H666V176l6.2-5.6h2.5v-3.7H671v2.8l-6.6,5.9h-2.3v2l-4.3,3.8h0V130C658.1,129.9,658.3,129.9,658.5,129.9z M705.7,210.5v1.9
		c-2.7,1.9-5.7,3.1-9,3.5v-0.6h-3.8v0.6c-4.5-0.4-8.5-2.2-11.8-5.4c-3.3-3.2-5.2-7.1-5.6-11.6h0.5v-3.9h-0.5
		c0.4-4.5,2.3-8.5,5.6-11.8c3.3-3.3,7.3-5.2,11.9-5.6v0.6h3.8v-0.6c2.8,0.3,5.4,1.2,7.8,2.7c2.5,1.5,4.5,3.6,6.1,6h-5.2v-0.8H703
		c-1.8-1.4-3.9-2.3-6.2-2.7v-1h-3.8v0.9c-3.2,0.4-5.9,1.7-8.2,4c-2.3,2.3-3.6,5-4,8.2h-0.9v3.9h1c0.4,3.1,1.8,5.8,4.1,8
		c2.3,2.2,5,3.5,8.1,3.9v0.8h3.8v-0.9c3.4-0.5,6.2-2.1,8.5-4.7h1.9V202h-3.8v0.9h-6.5V202H696v-3.7h0.9v-0.6H713v0.6h0.7
		c0,1.3,0,4,0,7.9v8H713v0.7h-3.5v-4.4L705.7,210.5L705.7,210.5z M570.5,213.3c-3.4-0.1-6.8-1.1-8.5-2.2l1.4-6
		c1.8,1,4.6,2.1,7.5,2.2c3.2,0.1,4.9-1.3,4.9-3.5c0-2.1-1.5-3.3-5.1-4.7c-5-1.9-8.2-4.9-8.2-9.6c0-5.5,4.2-9.9,11.4-10.1
		c3.5-0.1,6.1,0.6,7.9,1.5l-1.6,6.1c-1.2-0.6-3.5-1.5-6.5-1.5c-3,0-4.4,1.5-4.4,3.2c0,2.1,1.7,3,5.7,4.6c5.5,2.2,8.1,5.2,8.1,10
		C582.9,208.8,578.9,213.5,570.5,213.3z M604.2,213.7l-8.8-0.2l-10.3-33.9l8-0.2l4,14.4c1.1,4.1,2.2,8,2.9,12.3l0.2,0
		c0.8-4.1,1.9-8.2,3-12.2l4.3-14.9l8.3-0.2L604.2,213.7z M649.7,213.1c-2.7,0.8-7.7,1.9-12.6,1.8c-6.7-0.2-11.5-1.9-14.7-5.2
		c-3.2-3.1-5-7.7-5-12.9c0.1-11.7,8.6-18.7,20.6-19c4.8-0.1,8.6,0.7,10.4,1.5l-1.8,6.7c-2.1-0.8-4.6-1.5-8.7-1.4
		c-6.9,0.1-12.1,4-12.1,11.8c0,7.4,4.7,11.8,11.5,11.9c1.9,0,3.5-0.2,4.1-0.5v-7.6l-5.7,0v-6.4l14,0V213.1z"/>
</g>
<g>
	<path fill="#FFFFFF" d="M935,268.8c0.2,0,0.5,0,0.7,0h53.1c6.2,0,11.3-5,11.3-11.3v-123c0-6.2-5.1-11.3-11.3-11.3h-53.1
		c-0.2,0-0.5,0-0.7,0v-14.7l-103.6,13.8v147.3L935,284V268.8z M993.6,195h-11.7v-12.7h11.7V195z M981.9,207.7h11.6v12.7h-11.6V207.7
		z M935.7,129.8h53.1c2.7,0,4.8,2.2,4.8,4.8v35.3H983c-0.5,0-0.9-0.1-1.3-0.3v12.7h-12.6V195h12.6v12.7h-12.5v12.7h12.6V233h11.8
		v24.6c0,2.7-2.2,4.8-4.8,4.8h-53.1c-0.2,0-0.5,0-0.7-0.1V233h8.8v-12.7H935v-12.7h8.7V195H935v-12.7h8.7v-12.7H935v-39.8
		C935.2,129.8,935.4,129.8,935.7,129.8z M855.6,194.4c-2.4,2.4-5.9,3.5-9.9,3.4c-0.9,0-1.7-0.1-2.3-0.2v11.6l-6.6-0.2v-31.8
		c2-0.4,4.9-0.8,9-0.9c4.2-0.1,7.3,0.7,9.3,2.4c2,1.6,3.3,4.4,3.3,7.6C858.4,189.8,857.4,192.5,855.6,194.4z M890.2,210.5l-8.1-0.2
		l-7.1-13.4c-1.9-3.7-4.1-8-5.7-12l-0.1,0c0.2,4.5,0.3,9.3,0.3,14.8V210l-6.6-0.2v-33.6l8.5-0.2l6.8,12.4c2,3.6,4,7.9,5.5,11.8
		l0.2,0c-0.5-4.6-0.6-9.3-0.6-14.4v-10.1l7.1-0.2L890.2,210.5L890.2,210.5z M927.6,209.8c-2.6,0.8-7.6,1.9-12.5,1.8
		c-6.7-0.2-11.4-1.9-14.7-5.2c-3.2-3.1-5-7.7-5-12.9c0.1-11.7,8.6-18.6,20.5-18.9c4.8-0.1,8.6,0.7,10.4,1.5l-1.8,6.7
		c-2.1-0.8-4.6-1.5-8.7-1.4c-6.9,0.1-12,4-12,11.7c0,7.4,4.6,11.8,11.4,11.9c1.9,0,3.5-0.2,4.1-0.5v-7.6l-5.7,0v-6.4l14-0.1V209.8z"
		/>
	<polygon fill="#FFFFFF" points="956.4,207.7 943.9,207.7 943.9,220.3 956.5,220.3 956.5,233 969.1,233 969.1,220.3 956.6,220.3 
		956.6,207.7 969.1,207.7 969.1,195 956.5,195 956.5,182.3 969.1,182.3 969.1,169.6 956.5,169.6 956.5,156.9 943.8,156.9 
		943.8,169.6 956.4,169.6 956.4,182.3 943.8,182.3 943.8,195 956.4,195 	"/>
	<polygon fill="#FFFFFF" points="969.1,156.9 969.1,169.6 981.7,169.6 981.7,156.9 	"/>
	<path fill="#FFFFFF" d="M846.1,182c-1.4,0-2.3,0.2-2.8,0.3v9.6c0.6,0.1,1.3,0.2,2.3,0.2c3.6,0,5.9-2,5.9-5.4
		C851.5,183.7,849.6,182,846.1,182z"/>
</g>
<g>
	<path fill="#FFFFFF" d="M380.7,272.2c0.2,0,0.5,0,0.7,0h53.1c6.2,0,11.3-5,11.3-11.3V138c0-6.2-5.1-11.3-11.3-11.3h-53.1
		c-0.2,0-0.5,0-0.7,0v-14.7l-103.6,13.8v147.3l103.6,14.2V272.2z M381.4,133.2h53.1c2.7,0,4.8,2.2,4.8,4.8v99
		c-4.1-10.6-9.2-24.9-16.8-22.9c-9.1,2.3-13.6,23.6-13.6,23.6h30.4V261c0,2.7-2.2,4.8-4.8,4.8h-53.1c-0.2,0-0.5,0-0.7-0.1v-28.1
		h28.1c0,0-4.7-24-17.5-36.9c-3.7-3.7-7.3-2.2-10.6,1.7v-30.9c1.4,2.2,3.9,3.8,6.7,3.8c4.4,0,8-3.6,8-8c0-4.4-3.6-8-8-8
		c-2.9,0-5.3,1.5-6.7,3.8v-29.9C380.9,133.2,381.2,133.2,381.4,133.2z M303.9,208.4c0,9.5-4.3,12.7-11,12.6c-1.6,0-3.6-0.4-5-0.9
		l0.8-5.9c0.9,0.4,2.1,0.6,3.5,0.6c2.9,0,4.7-1.3,4.7-6.5v-20.8l7-0.2L303.9,208.4L303.9,208.4z M330.5,205.5
		c-2.6,2.5-6.4,3.6-10.9,3.6c-1,0-1.9-0.1-2.5-0.2v12.2l-7.2-0.2v-33.3c2.2-0.5,5.4-0.8,9.9-1c4.6-0.1,8,0.7,10.2,2.5
		c2.2,1.7,3.6,4.6,3.6,8C333.6,200.6,332.5,203.5,330.5,205.5z M341.9,217.3c-3.2-3.1-5-7.7-4.9-12.9c0-11.7,8.5-18.6,20.4-18.9
		c4.8-0.1,8.5,0.7,10.3,1.5l-1.8,6.7c-2.1-0.8-4.6-1.5-8.7-1.4c-6.9,0.1-12,4-12,11.7c0,7.3,4.6,11.7,11.4,11.9
		c1.9,0,3.4-0.2,4.1-0.5v-7.6l-5.7,0v-6.4l13.9-0.1v19.4c-2.6,0.8-7.6,1.9-12.5,1.8C349.9,222.3,345.2,220.5,341.9,217.3z"/>
	<path fill="#FFFFFF" d="M414.3,194.5c1.6,0,3.1-0.2,4.5-0.4c1.6,0.7,3.4,1.1,5.5,1.1c5.3,0,9.5-2.6,9.5-5.7c0-3.2-4.3-5.8-9.5-5.8
		c-2,0-3.8,0.4-5.3,1c-0.6-0.6-1.5-1-2.4-1h-1.4c-1.8,0-3.2,1.3-3.4,3.1c-4.3,0.4-7.4,2-7.4,3.8
		C404.4,192.7,408.8,194.5,414.3,194.5z"/>
	<path fill="#FFFFFF" d="M320.1,192.5c-1.5,0-2.5,0.2-3.1,0.4v10.1c0.6,0.2,1.4,0.2,2.5,0.2c4,0,6.5-2.1,6.5-5.6
		C326,194.3,323.9,192.4,320.1,192.5z"/>
</g>
<g>
	<path fill="#FFFFFF" d="M103.6,269c0.2,0,0.5,0,0.7,0h53.1c6.2,0,11.3-5,11.3-11.3v-123c0-6.2-5.1-11.3-11.3-11.3h-53.1
		c-0.2,0-0.5,0-0.7,0v-14.7L0,122.7v147.3l103.6,14.2V269z M104.3,129.9h53.1c2.7,0,4.8,2.2,4.8,4.8v123c0,2.7-2.2,4.8-4.8,4.8
		h-53.1c-0.2,0-0.5,0-0.7-0.1v-50.1h23.1v46.4h4.2v-46.4h25.5l-16.7-19.8h9.3l-15.4-18.2h9.6l-12.7-15h5.9l-9.7-11.5l-8.9,11.5h6
		l-11.5,15h9.4l-14,18.2h8.8l-12.8,16.7V130C103.8,130,104,129.9,104.3,129.9z M42.6,210.9c-2.3,0.8-6.6,1.7-10.8,1.6
		c-5.8-0.2-9.9-1.8-12.7-4.8c-2.8-2.9-4.3-7.2-4.3-12c0-10.9,7.4-17.3,17.7-17.6c4.1-0.1,7.4,0.7,9,1.5l-1.6,6.2
		c-1.8-0.8-4-1.4-7.5-1.4c-6,0.1-10.4,3.7-10.4,10.9c0,6.8,4,11,9.9,11.1c1.7,0,3-0.1,3.6-0.4v-7.1l-4.9,0v-5.9l12,0L42.6,210.9
		L42.6,210.9z M56.1,212.8l-7.7-0.2v-34.5l7.7-0.2V212.8z M85,183.9l-14,0.2v8.2l13.1,0v6.7l-13.1-0.1v14.4l-8-0.2v-35.3l22.1-0.5
		V183.9L85,183.9z"/>
</g>
<g>
</g>
<g>
</g>
<g>
</g>
<g>
</g>
<g>
</g>
<g>
</g>
<g>
</g>
<g>
</g>
<g>
</g>
<g>
</g>
<g>
</g>
<g>
</g>
<g>
</g>
<g>
</g>
<g>
</g>
</svg>
