<?xml version="1.0" encoding="utf-8"?>
<!-- Generator: Adobe Illustrator 16.0.0, SVG Export Plug-In . SVG Version: 6.00 Build 0)  -->
<!DOCTYPE svg PUBLIC "-//W3C//DTD SVG 1.1//EN" "http://www.w3.org/Graphics/SVG/1.1/DTD/svg11.dtd">
<svg version="1.1" id="Layer_1" xmlns="http://www.w3.org/2000/svg" xmlns:xlink="http://www.w3.org/1999/xlink" x="0px" y="0px"
	 width="126px" height="126px" viewBox="0 0 126 126" enable-background="new 0 0 126 126" xml:space="preserve">
<path d="M74.458,107.921c0.143,0.008,0.287,0.021,0.434,0.021h33c3.859,0,7-3.141,7-7v-76.5c0-3.859-3.141-7-7-7h-33
	c-0.146,0-0.291,0.014-0.434,0.021V8.332l-64.41,8.596v91.586l64.41,8.818V107.921z M74.892,21.443h33c1.654,0,3,1.346,3,3v76.5
	c0,1.654-1.346,3-3,3h-33c-0.148,0-0.291-0.023-0.434-0.044V72.73h14.367v28.881h2.617V72.73h15.863L96.899,60.432h5.781
	l-9.592-11.335h5.977l-7.887-9.315h3.676l-6.063-7.164l-5.51,7.164h3.717l-7.166,9.315h5.865l-8.721,11.335h5.447l-7.967,10.356
	V21.487C74.601,21.466,74.743,21.443,74.892,21.443z M36.517,71.78c-1.424,0.468-4.09,1.085-6.725,1.011
	c-3.582-0.101-6.137-1.121-7.896-2.995c-1.744-1.798-2.695-4.476-2.668-7.474c0.027-6.779,4.627-10.767,11.037-10.923
	c2.578-0.063,4.588,0.424,5.582,0.905l-0.965,3.86c-1.113-0.489-2.486-0.876-4.676-0.845c-3.709,0.055-6.467,2.3-6.467,6.77
	c0,4.256,2.5,6.813,6.141,6.881c1.033,0.02,1.861-0.09,2.219-0.271v-4.406L29.03,64.27v-3.69l7.486-0.014V71.78z M44.948,72.992
	l-4.783-0.132V51.382l4.783-0.115V72.992z M62.882,55.041l-8.725,0.125v5.072l8.141-0.021v4.161l-8.141-0.056v8.925l-4.992-0.138
	V51.167l13.717-0.326V55.041z"/>
</svg>
