<?xml version="1.0" encoding="utf-8"?>
<!-- Generator: Adobe Illustrator 16.0.4, SVG Export Plug-In . SVG Version: 6.00 Build 0)  -->
<!DOCTYPE svg PUBLIC "-//W3C//DTD SVG 1.1//EN" "http://www.w3.org/Graphics/SVG/1.1/DTD/svg11.dtd">
<svg version="1.1" id="Layer_1" xmlns="http://www.w3.org/2000/svg" xmlns:xlink="http://www.w3.org/1999/xlink" x="0px" y="0px"
	 width="126px" height="126px" viewBox="0 0 126 126" enable-background="new 0 0 126 126" xml:space="preserve">
<g>
	<path fill="#FFFFFF" d="M64,15.4c0.8,6.4,6.2,11.3,12.7,11.3c7.1,0,12.8-5.7,12.8-12.8S83.8,1,76.7,1C70,1,64.6,6.1,63.9,12.6
		c0.1,0.5,0.1,1.1,0.1,1.6C64,14.6,64,15,64,15.4z"/>
	<path fill="#FFFFFF" d="M91.7,34.4c-0.3,1.1-0.8,2.2-1.7,3.3c-2.9,3.5-11.7,7-21.2,7c-1.5,0-3-0.1-4.5-0.3v22.8
		c0,0.9-0.1,1.8-0.3,2.6c0.1,0.3,0.2,0.5,0.3,0.8c0,0.3-0.1,0.5-0.1,0.8l0,47.7c0,3.2,2.6,5.9,5.9,5.9c3.3,0,5.9-2.6,5.9-5.9l0-40.9
		c0.2,0,0.5,0,0.7,0c0,0,0.1,0,0.1,0l0,40.9c0,3.2,2.6,5.9,5.9,5.9c3.2,0,5.9-2.6,5.9-5.9V72.2c0.4,0.4,0.8,0.7,1.3,1
		c0.8,0.4,1.6,0.6,2.4,0.6c1.8,0,3.5-0.9,4.4-2.6C107.1,52,99.1,40.5,91.7,34.4z M89.8,62.4V47.1C92,50.9,92.5,55.8,89.8,62.4z"/>
	<path fill="#FFFFFF" d="M73.6,27.4C73.6,27.4,73.6,27.4,73.6,27.4C71.1,28,68.8,29.2,67,31c0.6,0,1.2,0.1,1.8,0.1
		c4.5,0,8.5-1.2,10.4-2.1c0.3-0.5,0.7-1,1.1-1.4c-0.1,0-0.2-0.1-0.4-0.1c0,0-1.9-0.3-3.2-0.3C75.4,27.1,73.6,27.4,73.6,27.4z"/>
	<path fill="#FFFFFF" d="M89.2,36.1c2.1-2.5,1.7-5.4,0.4-7.2c-1.7-2.2-4.8-2.6-7-0.9c-0.7,0.5-1.2,1.2-1.5,1.9
		c-3.2,1.8-13.7,4.7-22.2,0.1c-0.2-0.1-0.3-0.2-0.5-0.2c-1.6-1.2-3.4-2-5.3-2.5c0,0,0,0,0,0c0,0-1.6-0.3-3.1-0.3
		c-1.5,0-3.2,0.3-3.2,0.3c-1.6,0.4-3.2,1.1-4.6,2c-0.2,0.1-0.3,0.1-0.5,0.2c-6.3,3.9-25.5,15.6-11.4,41.4c0.9,1.7,2.6,2.6,4.4,2.6
		c0.8,0,1.6-0.2,2.4-0.6c0.4-0.2,0.7-0.5,1-0.8l0,29.7l-11,7.2c-2.7,1.8-3.5,5.4-1.7,8.1c1.1,1.7,3,2.7,4.9,2.7c1.1,0,2.2-0.3,3.2-1
		l4.6-3l0,3c0,3.2,2.6,5.9,5.9,5.9c0,0,0,0,0,0c3.2,0,5.9-2.6,5.9-5.9l0-10.7l10-6.5c1.7-1.1,2.7-2.9,2.7-4.9l0-25.5
		c0-0.3,0-0.5-0.1-0.8c0.5-1.1,0.7-2.4,0.7-3.7V41.9c2.1,0.4,4.2,0.6,6.3,0.6C78.6,42.5,86.7,39.1,89.2,36.1z M36.8,61.7
		c-2.3-6.1-1.9-10.6,0-14.2V61.7z M50.6,93.8l-0.8,0.5l0-16.1c0,0,0.1,0,0.1,0c0.2,0,0.5,0,0.7,0L50.6,93.8z"/>
	<circle fill="#FFFFFF" cx="50" cy="13.9" r="12.8"/>
</g>
</svg>
