<?xml version="1.0" encoding="utf-8"?>
<!-- Generator: Adobe Illustrator 16.0.4, SVG Export Plug-In . SVG Version: 6.00 Build 0)  -->
<!DOCTYPE svg PUBLIC "-//W3C//DTD SVG 1.1//EN" "http://www.w3.org/Graphics/SVG/1.1/DTD/svg11.dtd">
<svg version="1.1" id="Layer_1" xmlns="http://www.w3.org/2000/svg" xmlns:xlink="http://www.w3.org/1999/xlink" x="0px" y="0px"
	 width="600px" height="600px" viewBox="0 0 600 600" enable-background="new 0 0 600 600" xml:space="preserve">
<polygon fill="#FFFFFF" points="492.4,79 418.1,45.5 343.9,12 241.5,42.7 298.9,310 537.2,176 "/>
<path fill="#FFFFFF" d="M448.7,259.4l-43.2,24.3c29,44.4,35.4,102.1,12,154c-36.5,80.9-131.6,116.9-212.5,80.4
	c-80.9-36.5-116.9-131.6-80.4-212.5c23.4-51.9,71-85.3,123.4-93l-10.4-48.5c-67.3,10.9-128,54.3-158.1,121.1
	c-47.7,105.8-0.6,230.3,105.2,278c105.8,47.7,230.3,0.6,278-105.2C492.8,391.3,485.1,317.1,448.7,259.4z"/>
<g>
</g>
<g>
</g>
<g>
</g>
<g>
</g>
<g>
</g>
<g>
</g>
<g>
</g>
<g>
</g>
<g>
</g>
<g>
</g>
<g>
</g>
<g>
</g>
<g>
</g>
<g>
</g>
<g>
</g>
</svg>
