<?xml version="1.0" encoding="utf-8"?>
<!-- Generator: Adobe Illustrator 16.0.0, SVG Export Plug-In . SVG Version: 6.00 Build 0)  -->
<!DOCTYPE svg PUBLIC "-//W3C//DTD SVG 1.1//EN" "http://www.w3.org/Graphics/SVG/1.1/DTD/svg11.dtd">
<svg version="1.1" id="Layer_1" xmlns="http://www.w3.org/2000/svg" xmlns:xlink="http://www.w3.org/1999/xlink" x="0px" y="0px"
	 width="126px" height="126px" viewBox="0 0 126 126" enable-background="new 0 0 126 126" xml:space="preserve">
<path d="M74.456,107.909c0.145,0.009,0.287,0.022,0.434,0.022h33c3.86,0,7-3.141,7-7v-76.5c0-3.859-3.14-7-7-7h-33
	c-0.146,0-0.289,0.013-0.434,0.021V8.32l-64.408,8.596v91.586l64.408,8.818V107.909z M74.456,59.028v-3.284h0.482v-1.506l2.05-1.842
	L74.456,59.028z M78.628,52.199h0.885v-0.5h2.252v0.415l-7.309,19.21V63.12L78.628,52.199z M110.89,73.919h-0.209l0.031-9.92h0.178
	V73.919z M74.89,21.431h33c1.654,0,3,1.346,3,3v37.188h-2.124v0.5H98.712v-0.5h-2.414V64h0.4v2.286h-0.4V68.7h2.414v-0.434h3.551
	c-1.029,1.009-2.223,1.634-3.617,1.896V69.82h-2.381v0.375c-1.553-0.208-2.878-0.857-4.033-1.977
	c-1.148-1.111-1.832-2.398-2.078-3.919h0.291v-2.414H90.11c0.23-1.549,0.913-2.87,2.077-4.024c1.165-1.156,2.504-1.826,4.077-2.037
	v0.375h2.381V55.88c1.088,0.193,2.088,0.633,2.986,1.314v1.238h2.414v-0.43l3.353,0.024v0.405h2.413v-2.381h-1.053
	c-1.115-1.83-2.589-3.329-4.39-4.459c-1.743-1.096-3.665-1.744-5.724-1.934v-0.574h-2.381v0.563
	c-3.254,0.233-6.086,1.53-8.426,3.859c-2.34,2.328-3.653,5.145-3.906,8.378h-0.567v2.414h0.573c0.296,3.212,1.629,6.001,3.971,8.298
	c2.338,2.295,5.146,3.573,8.355,3.805V76.9h2.381v-0.514c2.003-0.205,3.877-0.843,5.586-1.898V76.3h2.381v-0.467h2.153V76.3h2.124
	v24.631c0,1.654-1.346,3-3,3h-33c-0.148,0-0.291-0.023-0.434-0.045v-27.62h0.423v-1.79l-0.019-0.105l8.468-22.172h0.817v-2.38
	h-2.381v0.399h-2.252v-0.089l3.85-3.46h1.559v-2.287h-2.287v1.754l-4.1,3.683h-1.402v1.261l-2.646,2.377h-0.029V21.474
	C74.599,21.454,74.741,21.431,74.89,21.431z M104.231,71.585v1.158c-1.688,1.201-3.563,1.926-5.586,2.154v-0.379h-2.381v0.398
	c-2.82-0.228-5.283-1.363-7.328-3.379c-2.043-2.012-3.223-4.445-3.51-7.239h0.317v-2.414h-0.327c0.251-2.817,1.416-5.28,3.471-7.325
	c2.058-2.047,4.535-3.207,7.377-3.455V51.5h2.381v-0.352c1.727,0.184,3.355,0.742,4.85,1.664c1.547,0.952,2.826,2.209,3.811,3.74
	h-3.26v-0.5h-1.518c-1.135-0.883-2.438-1.441-3.883-1.664v-0.603h-2.381v0.547c-1.973,0.224-3.688,1.054-5.109,2.476
	c-1.422,1.421-2.262,3.127-2.504,5.077h-0.587v2.414h0.594c0.263,1.931,1.12,3.605,2.554,4.985c1.43,1.375,3.127,2.181,5.053,2.4
	V72.2h2.381v-0.565c2.111-0.303,3.887-1.289,5.288-2.935h1.212v-2.414h-2.381v0.533h-4.053v-0.533h-0.533V64h0.533v-0.4h10.054V64
	h0.462c-0.004,0.814-0.015,2.462-0.029,4.943v4.977h-0.433v0.434h-2.153v-2.768H104.231z M20.116,73.278
	c-2.145-0.058-4.238-0.714-5.277-1.368l0.846-3.759c1.127,0.647,2.869,1.31,4.682,1.339c1.975,0.035,3.021-0.834,3.021-2.18
	c0-1.285-0.906-2.023-3.188-2.919c-3.113-1.188-5.115-3.047-5.115-5.981c0-3.443,2.637-6.148,7.084-6.266
	c2.164-0.057,3.771,0.394,4.926,0.92l-0.982,3.811c-0.777-0.389-2.154-0.949-4.027-0.918c-1.857,0.031-2.752,0.955-2.752,2.014
	c0,1.302,1.064,1.869,3.518,2.859c3.406,1.34,5.029,3.255,5.029,6.192C27.88,70.515,25.364,73.417,20.116,73.278z M41.104,73.517
	l-5.451-0.141L29.226,52.3l4.953-0.127l2.477,8.941c0.699,2.527,1.338,4.97,1.828,7.64l0.094,0.001
	c0.521-2.566,1.166-5.107,1.879-7.561l2.678-9.25l5.137-0.131L41.104,73.517z M69.403,73.195c-1.656,0.504-4.758,1.169-7.818,1.089
	c-4.16-0.11-7.123-1.21-9.162-3.228c-2.02-1.932-3.119-4.814-3.088-8.037c0.033-7.293,5.357-11.6,12.795-11.793
	c2.998-0.079,5.336,0.438,6.494,0.953l-1.125,4.168c-1.293-0.523-2.891-0.938-5.438-0.895c-4.305,0.07-7.502,2.496-7.502,7.308
	c0,4.581,2.896,7.333,7.125,7.405c1.201,0.02,2.162-0.098,2.578-0.293v-4.752l-3.566-0.02v-3.978l8.707-0.03V73.195z"/>
</svg>
