<?xml version="1.0" encoding="utf-8"?>
<!-- Generator: Adobe Illustrator 16.0.4, SVG Export Plug-In . SVG Version: 6.00 Build 0)  -->
<!DOCTYPE svg PUBLIC "-//W3C//DTD SVG 1.1//EN" "http://www.w3.org/Graphics/SVG/1.1/DTD/svg11.dtd">
<svg version="1.1" id="Layer_1" xmlns="http://www.w3.org/2000/svg" xmlns:xlink="http://www.w3.org/1999/xlink" x="0px" y="0px"
	 width="600px" height="600px" viewBox="0 0 600 600" enable-background="new 0 0 600 600" xml:space="preserve">
<g>
	<path fill="#FFFFFF" d="M183.9,99.8c13,0,24.3-4.7,33.7-14.2c9.5-9.5,14.2-20.7,14.2-33.7c0-13.6-4.7-25-14.2-34.2
		c-9.5-9.2-20.7-13.8-33.7-13.8c-13,0-24.3,4.6-33.7,13.8c-9.5,9.2-14.2,20.6-14.2,34.2c0,13,4.7,24.3,14.2,33.7
		C159.6,95,170.9,99.8,183.9,99.8z"/>
	<path fill="#FFFFFF" d="M544.6,318l-37.1-123.3c-2.7-8.6-8.9-17-18.5-25.1c-11.8-9.7-24.7-14.6-38.7-14.6h-86.2
		c-13.4,0-25.5,4.9-36.3,14.6c-8.1,7.5-13.5,15.9-16.1,25l-2.6,8.7v-29.9c0-17.2-5.7-31.9-17.3-44.6c-11.5-12.7-26.5-18.8-44.8-18.8
		H120c-17.2,0-31.7,5.8-43.9,18C64,140.1,58,154.8,58,172.6v147.3c0,14.2,6.4,21.3,19.4,21.3c12.4,0,18.6-7.1,18.6-21.3V176h23
		v390.6c0,17.7,8.8,26.6,26.5,26.6c17.7,0,26.5-8.9,26.5-26.6V340h23v226.6c0,17.7,9.3,26.6,27.1,26.6c18.3,0,27.9-8.9,27.9-26.6
		V176h22v143.9c0,4.8,0.5,8.8,1.9,12.1c2,7.9,7.8,11.8,17.7,11.8c8.6,0,14.2-5,16.9-14.7L342.3,216h18.5l-55.6,201H359v156.5
		c0,14,7.1,21,20.5,21c13.4,0,20.5-7,20.5-21V416h20v158.3c0,13.4,6.6,20.1,20,20.1c13.4,0,20-6.7,20-20.1V417h54l-56.4-201h19.3
		l33.8,113.1c2.7,9.7,8.3,14.6,16.9,14.6c12.4,0,18.5-6.1,18.5-18.5C546.2,322.5,545.7,320.1,544.6,318z"/>
	<path fill="#FFFFFF" d="M409.2,146.3c12.3,0,22.8-4.3,31.4-12.9c8.6-8.6,12.9-18.8,12.9-30.6c0-12.4-4.3-22.8-12.9-31.4
		c-8.6-8.6-19.1-12.9-31.4-12.9c-11.8,0-22,4.3-30.6,12.9c-8.6,8.6-12.9,19.1-12.9,31.4c0,11.8,4.3,22,12.9,30.6
		C387.2,142,397.4,146.3,409.2,146.3z"/>
</g>
<g>
</g>
<g>
</g>
<g>
</g>
<g>
</g>
<g>
</g>
<g>
</g>
<g>
</g>
<g>
</g>
<g>
</g>
<g>
</g>
<g>
</g>
<g>
</g>
<g>
</g>
<g>
</g>
<g>
</g>
</svg>
