<svg xmlns="http://www.w3.org/2000/svg" width="1000" height="400" viewBox="0 0 1000 400"><path fill="#fff" d="M657.8 269H711.6c6.2 0 11.3-5.1 11.3-11.3v-123c0-6.2-5.1-11.3-11.3-11.3H657.8v-14.7l-103.6 13.8v147.3L657.8 284v-15zm0-78.6v-5.3h.8v-2.4l3.3-3-4.1 10.7zm6.8-11h1.4v-.8h3.6v.7l-11.8 30.9V197l6.8-17.6zm51.8 34.9h-.3v-16h.3v16zm-57.9-84.4h53.1c2.7 0 4.8 2.2 4.8 4.8v59.8H713v.8h-16.2v-.8H693v3.8h.6v3.7h-.6v3.9h3.9v-.7h5.7c-1.7 1.6-3.6 2.6-5.8 3v-.5H693v.6c-2.5-.3-4.6-1.4-6.5-3.2-1.8-1.8-2.9-3.9-3.3-6.3h.5v-3.9h-.7c.4-2.5 1.5-4.6 3.3-6.5 1.9-1.9 4-2.9 6.6-3.3v.6h3.8v-.5c1.8.3 3.4 1 4.8 2.1v2h3.9v-.7h5.4v.7h3.9v-3.8H713c-1.8-2.9-4.2-5.4-7.1-7.2-2.8-1.8-5.9-2.8-9.2-3.1v-.9h-3.8v.9c-5.2.4-9.8 2.5-13.5 6.2-3.8 3.7-5.9 8.3-6.3 13.5h-.9v3.9h.9c.5 5.2 2.6 9.6 6.4 13.3 3.8 3.7 8.3 5.7 13.4 6.1v.8h3.8v-.8c3.2-.3 6.2-1.4 9-3.1v2.9h3.8v-.8h3.5v.8h3.4v39.6c0 2.7-2.2 4.8-4.8 4.8h-53.1c-.2 0-.5 0-.7-.1v-44.4h.7v-3.1l13.6-35.7h1.3v-3.8h-3.8v.6H666v.1l6.2-5.6h2.5v-3.7H671v2.8l-6.6 5.9h-2.3v2l-4.3 3.8V130c.3-.1.5-.1.7-.1zm47.2 80.6v1.9c-2.7 1.9-5.7 3.1-9 3.5v-.6h-3.8v.6c-4.5-.4-8.5-2.2-11.8-5.4-3.3-3.2-5.2-7.1-5.6-11.6h.5V195h-.5c.4-4.5 2.3-8.5 5.6-11.8 3.3-3.3 7.3-5.2 11.9-5.6v.6h3.8v-.6c2.8.3 5.4 1.2 7.8 2.7 2.5 1.5 4.5 3.6 6.1 6h-5.2v-.8H703c-1.8-1.4-3.9-2.3-6.2-2.7v-1H693v.9c-3.2.4-5.9 1.7-8.2 4-2.3 2.3-3.6 5-4 8.2h-.9v3.9h1c.4 3.1 1.8 5.8 4.1 8s5 3.5 8.1 3.9v.8h3.8v-.9c3.4-.5 6.2-2.1 8.5-4.7h1.9V202h-3.8v.9H697v-.9h-1v-3.7h.9v-.6H713v.6h.7v15.9h-.7v.7h-3.5v-4.4h-3.8zm-135.2 2.8c-3.4-.1-6.8-1.1-8.5-2.2l1.4-6c1.8 1 4.6 2.1 7.5 2.2 3.2.1 4.9-1.3 4.9-3.5 0-2.1-1.5-3.3-5.1-4.7-5-1.9-8.2-4.9-8.2-9.6 0-5.5 4.2-9.9 11.4-10.1 3.5-.1 6.1.6 7.9 1.5l-1.6 6.1c-1.2-.6-3.5-1.5-6.5-1.5s-4.4 1.5-4.4 3.2c0 2.1 1.7 3 5.7 4.6 5.5 2.2 8.1 5.2 8.1 10-.2 5.5-4.2 10.2-12.6 10zm33.7.4l-8.8-.2-10.3-33.9 8-.2 4 14.4c1.1 4.1 2.2 8 2.9 12.3h.2c.8-4.1 1.9-8.2 3-12.2l4.3-14.9 8.3-.2-11.6 34.9zm45.5-.6c-2.7.8-7.7 1.9-12.6 1.8-6.7-.2-11.5-1.9-14.7-5.2-3.2-3.1-5-7.7-5-12.9.1-11.7 8.6-18.7 20.6-19 4.8-.1 8.6.7 10.4 1.5l-1.8 6.7c-2.1-.8-4.6-1.5-8.7-1.4-6.9.1-12.1 4-12.1 11.8 0 7.4 4.7 11.8 11.5 11.9 1.9 0 3.5-.2 4.1-.5v-7.6h-5.7v-6.4h14v19.3z"/><g fill="#fff"><path d="M935 268.8H988.8c6.2 0 11.3-5 11.3-11.3v-123c0-6.2-5.1-11.3-11.3-11.3H935v-14.7l-103.6 13.8v147.3L935 284v-15.2zm58.6-73.8h-11.7v-12.7h11.7V195zm-11.7 12.7h11.6v12.7h-11.6v-12.7zm-46.2-77.9h53.1c2.7 0 4.8 2.2 4.8 4.8v35.3H983c-.5 0-.9-.1-1.3-.3v12.7h-12.6V195h12.6v12.7h-12.5v12.7h12.6V233h11.8v24.6c0 2.7-2.2 4.8-4.8 4.8h-53.1c-.2 0-.5 0-.7-.1V233h8.8v-12.7H935v-12.7h8.7V195H935v-12.7h8.7v-12.7H935v-39.8h.7zm-80.1 64.6c-2.4 2.4-5.9 3.5-9.9 3.4-.9 0-1.7-.1-2.3-.2v11.6l-6.6-.2v-31.8c2-.4 4.9-.8 9-.9 4.2-.1 7.3.7 9.3 2.4 2 1.6 3.3 4.4 3.3 7.6 0 3.5-1 6.2-2.8 8.1zm34.6 16.1l-8.1-.2-7.1-13.4c-1.9-3.7-4.1-8-5.7-12h-.1c.2 4.5.3 9.3.3 14.8V210l-6.6-.2v-33.6l8.5-.2 6.8 12.4c2 3.6 4 7.9 5.5 11.8h.2c-.5-4.6-.6-9.3-.6-14.4v-10.1l7.1-.2-.2 35zm37.4-.7c-2.6.8-7.6 1.9-12.5 1.8-6.7-.2-11.4-1.9-14.7-5.2-3.2-3.1-5-7.7-5-12.9.1-11.7 8.6-18.6 20.5-18.9 4.8-.1 8.6.7 10.4 1.5l-1.8 6.7c-2.1-.8-4.6-1.5-8.7-1.4-6.9.1-12 4-12 11.7 0 7.4 4.6 11.8 11.4 11.9 1.9 0 3.5-.2 4.1-.5v-7.6h-5.7v-6.4l14-.1v19.4zM956.4 207.7h-12.5v12.6h12.6V233h12.6v-12.7h-12.5v-12.6h12.5V195h-12.6v-12.7h12.6v-12.7h-12.6v-12.7h-12.7v12.7h12.6v12.7h-12.6V195h12.6zM969.1 156.9v12.7h12.6v-12.7zM846.1 182c-1.4 0-2.3.2-2.8.3v9.6c.6.1 1.3.2 2.3.2 3.6 0 5.9-2 5.9-5.4 0-3-1.9-4.7-5.4-4.7z"/></g><g fill="#fff"><path d="M380.7 272.2H434.5c6.2 0 11.3-5 11.3-11.3V138c0-6.2-5.1-11.3-11.3-11.3H380.7V112l-103.6 13.8v147.3l103.6 14.2v-15.1zm.7-139h53.1c2.7 0 4.8 2.2 4.8 4.8v99c-4.1-10.6-9.2-24.9-16.8-22.9-9.1 2.3-13.6 23.6-13.6 23.6h30.4V261c0 2.7-2.2 4.8-4.8 4.8h-53.1c-.2 0-.5 0-.7-.1v-28.1h28.1s-4.7-24-17.5-36.9c-3.7-3.7-7.3-2.2-10.6 1.7v-30.9c1.4 2.2 3.9 3.8 6.7 3.8 4.4 0 8-3.6 8-8s-3.6-8-8-8c-2.9 0-5.3 1.5-6.7 3.8v-29.9h.7zm-77.5 75.2c0 9.5-4.3 12.7-11 12.6-1.6 0-3.6-.4-5-.9l.8-5.9c.9.4 2.1.6 3.5.6 2.9 0 4.7-1.3 4.7-6.5v-20.8l7-.2v21.1zm26.6-2.9c-2.6 2.5-6.4 3.6-10.9 3.6-1 0-1.9-.1-2.5-.2v12.2l-7.2-.2v-33.3c2.2-.5 5.4-.8 9.9-1 4.6-.1 8 .7 10.2 2.5 2.2 1.7 3.6 4.6 3.6 8 0 3.5-1.1 6.4-3.1 8.4zm11.4 11.8c-3.2-3.1-5-7.7-4.9-12.9 0-11.7 8.5-18.6 20.4-18.9 4.8-.1 8.5.7 10.3 1.5l-1.8 6.7c-2.1-.8-4.6-1.5-8.7-1.4-6.9.1-12 4-12 11.7 0 7.3 4.6 11.7 11.4 11.9 1.9 0 3.4-.2 4.1-.5v-7.6H355v-6.4l13.9-.1v19.4c-2.6.8-7.6 1.9-12.5 1.8-6.5-.2-11.2-2-14.5-5.2zM414.3 194.5c1.6 0 3.1-.2 4.5-.4 1.6.7 3.4 1.1 5.5 1.1 5.3 0 9.5-2.6 9.5-5.7 0-3.2-4.3-5.8-9.5-5.8-2 0-3.8.4-5.3 1-.6-.6-1.5-1-2.4-1h-1.4c-1.8 0-3.2 1.3-3.4 3.1-4.3.4-7.4 2-7.4 3.8 0 2.1 4.4 3.9 9.9 3.9zM320.1 192.5c-1.5 0-2.5.2-3.1.4V203c.6.2 1.4.2 2.5.2 4 0 6.5-2.1 6.5-5.6 0-3.3-2.1-5.2-5.9-5.1z"/></g><path fill="#fff" d="M103.6 269H157.4c6.2 0 11.3-5 11.3-11.3v-123c0-6.2-5.1-11.3-11.3-11.3H103.6v-14.7L0 122.7V270l103.6 14.2V269zm.7-139.1h53.1c2.7 0 4.8 2.2 4.8 4.8v123c0 2.7-2.2 4.8-4.8 4.8h-53.1c-.2 0-.5 0-.7-.1v-50.1h23.1v46.4h4.2v-46.4h25.5l-16.7-19.8h9.3l-15.4-18.2h9.6l-12.7-15h5.9l-9.7-11.5-8.9 11.5h6l-11.5 15h9.4l-14 18.2h8.8l-12.8 16.7V130c.1 0 .3-.1.6-.1zm-61.7 81c-2.3.8-6.6 1.7-10.8 1.6-5.8-.2-9.9-1.8-12.7-4.8-2.8-2.9-4.3-7.2-4.3-12 0-10.9 7.4-17.3 17.7-17.6 4.1-.1 7.4.7 9 1.5l-1.6 6.2c-1.8-.8-4-1.4-7.5-1.4-6 .1-10.4 3.7-10.4 10.9 0 6.8 4 11 9.9 11.1 1.7 0 3-.1 3.6-.4v-7.1h-4.9V193h12v17.9zm13.5 1.9l-7.7-.2v-34.5l7.7-.2v34.9zM85 183.9l-14 .2v8.2h13.1v6.7l-13.1-.1v14.4l-8-.2v-35.3l22.1-.5v6.6H85z"/></svg>