<svg xmlns="http://www.w3.org/2000/svg" width="126" height="126" viewBox="0 0 126 126"><path d="M74.458 107.92c.143.01.287.022.434.022h33c3.86 0 7-3.14 7-7v-76.5c0-3.86-3.14-7-7-7h-33c-.146 0-.29.014-.434.02v-9.13l-64.41 8.596v91.586l64.41 8.818v-9.41zm.434-86.477h33c1.654 0 3 1.346 3 3v76.5c0 1.654-1.346 3-3 3h-33c-.148 0-.29-.023-.434-.044V72.73h14.367v28.88h2.617V72.73h15.863L96.9 60.432h5.78l-9.592-11.335h5.977l-7.887-9.315h3.676l-6.063-7.164-5.51 7.164H87l-7.166 9.315h5.865l-8.72 11.335h5.446l-7.967 10.356v-49.3c.145-.022.287-.045.436-.045zM36.517 71.78c-1.424.468-4.09 1.085-6.725 1.01-3.582-.1-6.137-1.12-7.896-2.994-1.744-1.798-2.695-4.476-2.668-7.474.027-6.78 4.627-10.767 11.037-10.923 2.578-.064 4.588.423 5.582.904l-.965 3.86c-1.113-.49-2.486-.876-4.676-.845-3.71.054-6.467 2.3-6.467 6.77 0 4.255 2.5 6.812 6.14 6.88 1.033.02 1.86-.09 2.22-.27v-4.407l-3.07-.023v-3.69l7.486-.014V71.78zm8.43 1.212l-4.782-.132V51.382l4.783-.115v21.725zm17.935-17.95l-8.725.124v5.072l8.14-.02v4.16l-8.14-.056v8.925l-4.992-.138V51.166l13.717-.326v4.2z"/></svg>