<svg xmlns="http://www.w3.org/2000/svg" width="126" height="126" viewBox="0 0 126 126"><g fill="#fff"><path d="M64 15.4c.8 6.4 6.2 11.3 12.7 11.3 7.1 0 12.8-5.7 12.8-12.8S83.8 1 76.7 1C70 1 64.6 6.1 63.9 12.6c.1.5.1 1.1.1 1.6v1.2zM91.7 34.4c-.3 1.1-.8 2.2-1.7 3.3-2.9 3.5-11.7 7-21.2 7-1.5 0-3-.1-4.5-.3v22.8c0 .9-.1 1.8-.3 2.6.1.3.2.5.3.8 0 .3-.1.5-.1.8v47.7c0 3.2 2.6 5.9 5.9 5.9 3.3 0 5.9-2.6 5.9-5.9V78.2H76.8v40.9c0 3.2 2.6 5.9 5.9 5.9 3.2 0 5.9-2.6 5.9-5.9V72.2c.4.4.8.7 1.3 1 .8.4 1.6.6 2.4.6 1.8 0 3.5-.9 4.4-2.6 10.4-19.2 2.4-30.7-5-36.8zm-1.9 28V47.1c2.2 3.8 2.7 8.7 0 15.3zM73.6 27.4c-2.5.6-4.8 1.8-6.6 3.6.6 0 1.2.1 1.8.1 4.5 0 8.5-1.2 10.4-2.1.3-.5.7-1 1.1-1.4-.1 0-.2-.1-.4-.1 0 0-1.9-.3-3.2-.3-1.3-.1-3.1.2-3.1.2zM89.2 36.1c2.1-2.5 1.7-5.4.4-7.2-1.7-2.2-4.8-2.6-7-.9-.7.5-1.2 1.2-1.5 1.9-3.2 1.8-13.7 4.7-22.2.1-.2-.1-.3-.2-.5-.2-1.6-1.2-3.4-2-5.3-2.5 0 0-1.6-.3-3.1-.3s-3.2.3-3.2.3c-1.6.4-3.2 1.1-4.6 2-.2.1-.3.1-.5.2-6.3 3.9-25.5 15.6-11.4 41.4.9 1.7 2.6 2.6 4.4 2.6.8 0 1.6-.2 2.4-.6.4-.2.7-.5 1-.8v29.7l-11 7.2c-2.7 1.8-3.5 5.4-1.7 8.1 1.1 1.7 3 2.7 4.9 2.7 1.1 0 2.2-.3 3.2-1l4.6-3v3c0 3.2 2.6 5.9 5.9 5.9 3.2 0 5.9-2.6 5.9-5.9v-10.7l10-6.5c1.7-1.1 2.7-2.9 2.7-4.9V71.2c0-.3 0-.5-.1-.8.5-1.1.7-2.4.7-3.7V41.9c2.1.4 4.2.6 6.3.6 9.1 0 17.2-3.4 19.7-6.4zM36.8 61.7c-2.3-6.1-1.9-10.6 0-14.2v14.2zm13.8 32.1l-.8.5V78.2H50.6v15.6z"/><circle cx="50" cy="13.9" r="12.8"/></g></svg>