<svg xmlns="http://www.w3.org/2000/svg" width="596" height="595.281" viewBox="123.445 0 596 595.281" enable-background="new 123.445 0 596 595.281"><circle fill="#2DAAE1" cx="420.944" cy="296.781" r="294.5"/><path fill="#fff" d="M609.773 179.634c-13.89 6.164-28.81 10.33-44.498 12.204 16.01-9.587 28.275-24.78 34.066-42.86-14.954 8.88-31.536 15.328-49.208 18.8-14.125-15.055-34.266-24.455-56.55-24.455-42.774 0-77.462 34.675-77.462 77.473 0 6.064.682 11.98 1.996 17.66-64.39-3.236-121.474-34.08-159.684-80.945-6.672 11.447-10.49 24.755-10.49 38.954 0 26.875 13.678 50.587 34.463 64.477-12.7-.395-24.643-3.88-35.097-9.685v.98c0 37.54 26.7 68.84 62.145 75.96-6.51 1.785-13.344 2.716-20.413 2.716-4.998 0-9.847-.47-14.584-1.363 9.86 30.77 38.47 53.166 72.363 53.8-26.516 20.784-59.926 33.173-96.213 33.173-6.25 0-12.427-.372-18.49-1.104 34.29 21.988 75.005 34.824 118.758 34.824 142.496 0 220.427-118.052 220.427-220.428 0-3.36-.074-6.697-.236-10.02 15.18-10.977 28.326-24.618 38.707-40.158z"/></svg>