<svg xmlns="http://www.w3.org/2000/svg" width="126" height="126" viewBox="0 0 126 126"><path d="M36.79 58.245c-.94.017-1.576.122-1.908.222v6.262c.39.094.873.124 1.543.122 2.475-.003 4.016-1.313 4.016-3.513 0-1.98-1.326-3.135-3.65-3.095zM74.458 107.833c.143.008.287.02.434.02h33c3.86 0 7-3.14 7-7v-76.5c0-3.858-3.14-7-7-7h-33c-.146 0-.29.015-.434.022v-9.13l-64.41 8.595v91.586l64.41 8.818v-9.41zm.434-86.478h33c1.654 0 3 1.346 3 3v61.58c-2.563-6.59-5.704-15.47-10.443-14.26-5.663 1.448-8.49 14.672-8.49 14.672h18.933v14.51c0 1.653-1.346 3-3 3h-33c-.148 0-.29-.024-.434-.045V86.346h17.5s-2.896-14.923-10.887-22.918c-2.283-2.284-4.547-1.386-6.615 1.056V45.237c.876 1.398 2.42 2.334 4.193 2.334 2.737 0 4.954-2.215 4.954-4.952s-2.217-4.95-4.953-4.95c-1.773 0-3.316.935-4.192 2.332V21.4c.143-.022.285-.045.434-.045zM26.667 68.167c0 5.92-2.646 7.918-6.832 7.808-.975-.025-2.252-.242-3.082-.563l.473-3.692c.58.22 1.328.383 2.164.396 1.793.03 2.924-.834 2.924-4.04V55.14l4.354-.112v13.14zm16.547-1.848c-1.625 1.562-4.008 2.248-6.758 2.228-.605-.004-1.152-.04-1.574-.105v7.583l-4.502-.116V55.212c1.39-.285 3.36-.523 6.166-.598 2.875-.074 4.95.446 6.354 1.566 1.355 1.064 2.268 2.853 2.268 4.98 0 2.13-.694 3.938-1.954 5.16zm7.117 7.36c-2-1.925-3.09-4.793-3.058-8.002.03-7.26 5.31-11.55 12.68-11.743 2.97-.078 5.285.436 6.434.947l-1.115 4.15c-1.282-.522-2.862-.933-5.388-.89-4.262.07-7.432 2.485-7.432 7.275 0 4.56 2.87 7.3 7.06 7.37 1.187.02 2.142-.1 2.552-.293v-4.73l-3.53-.02v-3.958l8.626-.033V75.8c-1.643.503-4.715 1.166-7.748 1.088-4.122-.11-7.057-1.203-9.08-3.21zM95.378 59.49c1 0 1.936-.102 2.768-.27.97.416 2.146.665 3.428.665 3.273 0 5.928-1.603 5.928-3.576 0-1.978-2.654-3.58-5.928-3.58-1.23 0-2.37.226-3.318.612-.387-.374-.91-.61-1.49-.61h-.86c-1.097 0-1.968.833-2.093 1.897-2.66.276-4.625 1.234-4.625 2.384 0 1.368 2.77 2.477 6.19 2.477z"/></svg>