<svg xmlns="http://www.w3.org/2000/svg" width="1024" height="1024" viewBox="0 0 1024 1024"><path fill="#fff" d="M940.812 277.688c8.25-20.22 35.375-101.75-8.562-211.906 0 0-67.375-21.312-219.875 82.906C648.5 131.125 579.875 128.5 512 128.5c-67.906 0-136.438 2.625-200.5 20.25C159.03 44.47 91.72 65.78 91.72 65.78 47.81 176 74.937 257.47 83.187 277.69 31.5 333.562 0 404.875 0 492.344 0 821.562 213.25 896 510.844 896 808.562 896 1024 821.562 1024 492.344c0-87.47-31.5-158.782-83.188-214.656zM512 833c-211.406 0-382.78-9.875-382.78-214.688 0-48.938 24.06-94.596 65.343-132.312 68.75-62.97 185.28-29.688 317.438-29.688 132.25 0 248.626-33.28 317.44 29.625 41.31 37.78 65.437 83.312 65.437 132.312C894.875 823.124 723.375 833 512 833zM351.156 512.438c-42.47 0-76.906 51.062-76.906 114.188s34.438 114.312 76.906 114.312c42.375 0 76.812-51.188 76.812-114.312s-34.437-114.188-76.812-114.188zm321.72 0C630.5 512.438 596 563.5 596 626.625s34.5 114.312 76.875 114.312 76.812-51.188 76.812-114.312c.063-63.125-34.375-114.187-76.812-114.187z"/></svg>