<svg xmlns="http://www.w3.org/2000/svg" width="126" height="126" viewBox="0 0 126 126"><path d="M19.212 53.85c-.857.016-1.438.114-1.738.212v5.98c.355.088.797.117 1.404.116 2.256-.003 3.658-1.253 3.658-3.353 0-1.887-1.205-2.99-3.324-2.956zM74.458 107.833c.143.008.287.02.434.02h33c3.86 0 7-3.14 7-7v-76.5c0-3.858-3.14-7-7-7h-33c-.146 0-.29.015-.434.022v-9.13l-64.41 8.595v91.586l64.41 8.818v-9.41zM110.892 61.9h-7.3v-7.89h7.3v7.89zm-7.24 7.89h7.24v7.888h-7.24v-7.89zM74.89 21.354h33c1.654 0 3 1.346 3 3v21.957h-6.55c-.298 0-.577-.07-.83-.188v7.887h-7.808v7.89h7.807v7.89h-7.75v7.888h7.81v7.89h7.322v15.288c0 1.654-1.346 3-3 3h-33c-.148 0-.29-.023-.434-.044V85.566h5.492v-7.89h-5.492V69.79h5.436V61.9h-5.436v-7.89h5.436v-7.89h-5.436V21.4c.143-.022.285-.045.434-.045zm-49.83 40.203c-1.478 1.492-3.65 2.146-6.153 2.128-.556-.004-1.054-.037-1.437-.1v7.24l-4.107-.104V50.95c1.27-.27 3.064-.497 5.623-.564 2.62-.07 4.51.43 5.786 1.5 1.232 1.018 2.064 2.724 2.064 4.754 0 2.03-.632 3.754-1.777 4.918zm21.572 10.016l-5.01-.13-4.41-8.315c-1.21-2.273-2.53-5.002-3.518-7.466l-.088.03c.12 2.784.18 5.757.18 9.198v6.353l-4.13-.106V50.26l5.265-.136 4.238 7.72c1.23 2.25 2.464 4.927 3.394 7.36h.094c-.31-2.845-.404-5.752-.404-8.978v-6.29l4.39-.115v21.754zm23.242-.46c-1.648.504-4.746 1.17-7.795 1.09-4.15-.108-7.104-1.206-9.136-3.22-2.016-1.93-3.113-4.808-3.08-8.025.03-7.287 5.344-11.59 12.762-11.784 2.99-.078 5.32.436 6.48.95L67.98 54.29c-1.29-.522-2.885-.937-5.424-.894-4.29.072-7.48 2.496-7.48 7.3 0 4.577 2.887 7.323 7.105 7.394 1.193.02 2.156-.098 2.57-.292v-4.745l-3.557-.02V59.06l8.68-.032v12.086zM103.503 46.122l.008.003v-.003zM87.757 69.79H80.01v7.887h7.805v7.89h7.89v-7.89h-7.808V69.79h7.75V61.9H87.84v-7.89h7.807v-7.888H87.84v-7.89h-7.89v7.89h7.807v7.89H79.95V61.9h7.807zM95.704 38.233v7.89h7.8l-.01-7.89z"/></svg>