<svg xmlns="http://www.w3.org/2000/svg" width="126" height="126" viewBox="0 0 126 126"><path d="M74.456 107.91c.145.008.287.02.434.02h33c3.86 0 7-3.14 7-7v-76.5c0-3.858-3.14-7-7-7h-33c-.146 0-.29.014-.434.022V8.32l-64.408 8.596v91.586l64.408 8.818v-9.41zm0-48.882v-3.284h.482v-1.506l2.05-1.842-2.532 6.632zm4.172-6.83h.885v-.5h2.252v.416l-7.31 19.21V63.12L78.63 52.2zm32.262 21.72h-.21l.032-9.92h.178v9.92zm-36-52.487h33c1.654 0 3 1.347 3 3v37.19h-2.124v.5H98.712v-.5h-2.414V64h.4v2.286h-.4V68.7h2.414v-.434h3.55c-1.028 1.01-2.222 1.634-3.616 1.896v-.342h-2.38v.375c-1.554-.208-2.88-.857-4.034-1.977-1.148-1.11-1.832-2.398-2.078-3.92h.29v-2.413h-.334c.23-1.55.913-2.87 2.077-4.024 1.165-1.155 2.504-1.825 4.077-2.036v.375h2.38v-.32c1.09.193 2.09.633 2.987 1.314v1.238h2.415v-.43l3.353.024v.405h2.413v-2.38h-1.052c-1.115-1.83-2.59-3.33-4.39-4.46-1.743-1.095-3.665-1.743-5.724-1.933v-.574h-2.38v.563c-3.255.233-6.087 1.53-8.427 3.86-2.34 2.327-3.653 5.144-3.906 8.377h-.566v2.414h.573c.296 3.212 1.63 6 3.97 8.298 2.34 2.295 5.147 3.573 8.356 3.805v.5h2.38v-.514c2.004-.205 3.878-.843 5.587-1.898V76.3h2.38v-.467h2.154v.467h2.124v24.63c0 1.655-1.346 3-3 3h-33c-.148 0-.29-.022-.434-.044v-27.62h.423v-1.79l-.02-.105 8.47-22.17h.816v-2.38h-2.38v.398H79.51v-.09l3.85-3.46h1.56v-2.286H82.63v1.754l-4.1 3.683H77.13v1.26l-2.646 2.377h-.03V21.474c.145-.02.287-.043.436-.043zm29.34 50.155v1.158c-1.687 1.2-3.562 1.926-5.585 2.154v-.38h-2.38v.4c-2.82-.23-5.284-1.364-7.33-3.38-2.042-2.012-3.222-4.445-3.51-7.24h.318v-2.413h-.327c.25-2.817 1.416-5.28 3.47-7.325 2.06-2.048 4.536-3.208 7.378-3.456v.396h2.38v-.352c1.728.184 3.356.742 4.85 1.664 1.548.952 2.827 2.21 3.812 3.74h-3.26v-.5h-1.518c-1.135-.883-2.438-1.44-3.883-1.664v-.603h-2.38v.547c-1.974.224-3.69 1.054-5.11 2.476-1.422 1.42-2.262 3.127-2.504 5.077h-.586V64.3h.594c.263 1.93 1.12 3.604 2.554 4.984 1.43 1.375 3.127 2.18 5.053 2.4v.516h2.38v-.565c2.112-.303 3.888-1.29 5.29-2.935h1.21v-2.414h-2.38v.533h-4.053v-.534h-.533V64h.532v-.4h10.054v.4h.462l-.03 4.943v4.977h-.432v.434h-2.153v-2.768h-2.382zm-84.114 1.693c-2.145-.058-4.238-.714-5.277-1.368l.845-3.76c1.127.648 2.87 1.31 4.682 1.34 1.975.035 3.02-.834 3.02-2.18 0-1.285-.905-2.023-3.187-2.92-3.113-1.187-5.115-3.046-5.115-5.98 0-3.443 2.637-6.148 7.084-6.266 2.163-.057 3.77.394 4.925.92l-.982 3.81c-.777-.388-2.154-.948-4.027-.917-1.857.03-2.752.955-2.752 2.014 0 1.303 1.064 1.87 3.518 2.86 3.406 1.34 5.03 3.255 5.03 6.192-.002 3.493-2.518 6.395-7.766 6.256zm20.988.24l-5.45-.142L29.225 52.3l4.953-.127 2.476 8.94c.7 2.528 1.338 4.97 1.828 7.64l.094.002c.52-2.566 1.166-5.107 1.88-7.56l2.677-9.25 5.137-.132-7.168 21.704zm28.3-.323c-1.657.504-4.76 1.17-7.82 1.09-4.16-.11-7.122-1.21-9.16-3.23-2.02-1.93-3.12-4.813-3.09-8.036.034-7.294 5.358-11.6 12.796-11.794 2.998-.08 5.336.438 6.494.953L67.5 56.346c-1.294-.523-2.892-.938-5.44-.895-4.304.07-7.5 2.496-7.5 7.308 0 4.58 2.895 7.333 7.124 7.405 1.2.02 2.162-.098 2.578-.293V65.12l-3.566-.02v-3.978l8.707-.03v12.103z"/></svg>