<svg xmlns="http://www.w3.org/2000/svg" version="1" width="580" height="580"><defs><symbol viewBox="244.5 110 489 219.9"><path d="M79 43l57 119s21-96 104-96 124 106 124 106l43-133 82-17L0 17l79 26z"/><path d="M94 176l-21 39" stroke-width="20" stroke="#000" fill="none"/><path d="M300 19c0 10.5-22.6 19-50.5 19S199 29.5 199 19s22.6-19 50.5-19S300 8.5 300 19z"/><path d="M112 216l-16-38-32-90s-9-8-4-35 16-24 16-24" stroke-width="20" stroke="#000"/></symbol></defs><path d="M66.275 1.768c-41.335 0-64.57 21.37-64.57 65.036v450.123c0 40.844 20.894 62.23 62.19 62.23H515.92c41.307 0 62.23-20.316 62.23-62.23V66.804c0-42.6-20.923-65.036-63.522-65.036-.004 0-448.495-.143-448.353 0z" fill="#111" stroke="#eee" stroke-width="3.408"/><path style="text-align:start;line-height:125%;-inkscape-font-specification:NPSPICT3" d="M282.645 512.458h35.812V61.172h-35.812v451.286zm-107.68-368.86H102.68c-11.27 0-21.407 4.056-30.41 12.165-6.762 6.295-11.263 13.277-13.504 20.947l-31.09 103.353c-.894 2.254-1.34 4.282-1.34 6.082 0 10.364 5.174 15.545 15.524 15.545 7.216 0 11.95-4.054 14.205-12.164l28.37-94.59h15.524L53.343 363.15H98.62v131.062c0 11.71 5.627 17.566 16.884 17.566 11.257 0 16.886-5.855 16.886-17.566V362.49h16.906v132.403c0 11.256 5.628 16.885 16.885 16.885 11.258 0 16.886-5.63 16.886-16.885V363.15h45.255l-47.274-168.215h16.205l28.37 94.59c2.254 8.11 6.982 12.165 14.185 12.165 10.363 0 15.545-5.18 15.545-15.545 0-2.254-.447-4.28-1.34-6.082L222.92 176.71c-2.255-7.216-7.43-14.198-15.525-20.947-9.91-8.11-20.72-12.164-32.43-12.164zm-34.452-7.442c10.35 0 19.13-3.6 26.338-10.803 7.21-7.202 10.815-15.758 10.815-25.67 0-10.362-3.605-19.145-10.814-26.347-7.208-7.202-15.988-10.803-26.337-10.803-9.91 0-18.47 3.6-25.68 10.803-7.208 7.202-10.812 15.985-10.812 26.348 0 9.91 3.605 18.467 10.814 25.67 7.21 7.2 15.77 10.802 25.68 10.802zm316.015-.66c9.91 0 18.47-3.604 25.68-10.813 7.207-7.21 10.812-15.77 10.812-25.68 0-10.348-3.605-19.014-10.813-25.997-7.21-6.982-15.77-10.473-25.68-10.474-9.91 0-18.466 3.492-25.667 10.474-7.203 6.983-10.804 15.65-10.804 25.998 0 9.91 3.6 18.47 10.804 25.68 7.2 7.208 15.758 10.813 25.668 10.812zm47.976 7.422h-96.612c-13.058 0-24.204 4.62-33.44 13.855-9.237 9.237-13.856 20.61-13.855 34.12V303.03c0 10.818 4.954 16.226 14.865 16.226 9.456 0 14.184-5.408 14.184-16.226V193.595h17.566v297.257c0 13.51 6.755 20.266 20.267 20.266 13.51 0 20.265-6.755 20.265-20.266V318.576h17.566v172.276c0 13.51 6.756 20.266 20.267 20.266 13.964 0 20.947-6.755 20.947-20.266V193.595h16.886V303.03c0 11.257 4.727 16.886 14.184 16.886 9.47 0 14.205-5.63 14.205-16.886V191.554c0-13.057-4.393-24.427-13.175-34.11-8.783-9.684-20.157-14.525-34.12-14.526z" font-size="40" fill="#fff" font-family="NPSPICT3"/></svg>